<svg width="1440" height="277" viewBox="0 0 1440 277" fill="none" xmlns="http://www.w3.org/2000/svg">
<path d="M833.093 194.071H803.523L802.707 195.045C801.243 197.601 798.438 199.704 798.438 199.704C785.613 210.088 771.118 209.922 771.118 209.922C761.812 209.356 752.403 207.407 744.317 202.568C736.232 197.73 730.33 189.523 727.723 180.161L721.627 170.031C721.627 170.031 710.493 144.278 719.229 139.307C719.229 139.307 728.701 139.057 743.67 142.818" stroke="#C49339" stroke-width="1.10308" stroke-linejoin="round"/>
<path d="M802.49 189.721L802.611 188.835C805.27 166.704 784.686 152.408 769.519 144.741C765.544 142.734 762.478 140.366 758.084 139.88C756.958 139.755 753.197 140.171 752.09 140.414C750.329 140.8 745.045 143.031 745.045 143.031" stroke="#C49339" stroke-width="1.10308" stroke-linejoin="round"/>
<path d="M1495.88 189.736C1483.39 189.736 881.485 189.736 871.069 189.346C875.83 187.736 879.992 184.415 882.621 180.132C877.283 181.643 872.172 183.941 867.498 186.93C869.241 183.573 870.436 179.933 871.021 176.197C866.222 179.966 861.42 183.735 856.622 187.504C855.544 184.522 855.089 181.316 855.287 178.154C852.272 179.819 850.25 183.154 850.165 186.596C846.117 184.254 842.069 181.911 838.02 179.569C840.186 183.224 843.282 186.324 846.933 188.497C835.615 188.842 830.078 189.604 803.281 189.721" stroke="#C49339" stroke-width="1.10308" stroke-linejoin="round"/>
<path d="M620.219 193.538C607.733 193.538 562.33 193.538 551.913 193.149C556.675 191.538 560.837 188.218 563.466 183.934C558.127 185.446 553.016 187.744 548.343 190.733C550.086 187.376 551.281 183.736 551.865 180C547.067 183.769 542.265 187.538 537.466 191.307C536.389 188.325 535.933 185.118 536.132 181.956C533.117 183.622 531.094 186.957 531.01 190.398C526.961 188.056 522.913 185.714 518.865 183.372C521.03 187.027 524.126 190.126 527.778 192.299C516.46 192.645 -29.0775 193.406 -55.875 193.524" stroke="#C49339" stroke-width="1.10308" stroke-linejoin="round"/>
<path d="M696.296 178.61C696.017 179.871 695.69 181.143 695.76 182.434C695.815 183.515 696.146 184.563 696.407 185.614C697.374 189.526 697.366 193.597 697.216 197.638C697.197 198.123 697.866 198.311 698.094 197.88C704.382 186 707.824 172.623 708.029 159.181C708.066 156.849 707.989 154.437 706.82 152.378C705.798 150.577 703.117 149.279 701.076 149.643C696.671 150.43 696.932 155.496 697.249 158.971C697.848 165.597 697.752 172.087 696.3 178.61H696.296Z" stroke="#C49339" stroke-width="1.10308" stroke-linejoin="round"/>
<path d="M664.896 123.456C670.12 126.695 676.198 128.544 682.343 128.758" stroke="#C49339" stroke-width="1.10308" stroke-linejoin="round"/>
<path d="M695.002 97.9854C698.712 101.89 700.643 108.682 701.216 111.597C701.268 111.855 701.635 111.858 701.69 111.601C703.003 105.31 703.93 97.4853 700.216 92.6832C700.201 92.6612 700.19 92.6391 700.187 92.6134C700.109 91.878 701.087 90.2013 701.179 89.4439C701.448 89.5027 701.529 89.5027 701.591 89.5358C703.705 90.5984 705.827 91.6463 707.934 92.731C709.412 93.4922 728.102 105.086 730.121 106.659C732.761 108.718 735.838 110.807 738.761 112.502C739.037 112.66 739.287 113.053 739.339 113.373C739.585 114.885 740.214 119.194 740.537 119.705C740.956 120.374 740.798 120.845 740.405 121.407C738.894 123.584 736.901 125.301 734.941 127.029C733.599 128.213 730.871 131.192 728.984 130.89C728.175 130.762 727.473 130.287 726.73 129.942C724.476 128.886 721.708 129.011 719.56 130.273C717.413 131.534 713.872 133.887 713.696 136.373C715.372 134.622 719.424 132.953 721.818 132.574C724.212 132.196 727.028 133.633 727.341 136.034C724.587 135.799 721.719 135.575 719.145 136.59C716.575 137.604 714.42 140.255 714.938 142.969C714.81 140.895 717.17 139.568 719.233 139.318C721.829 139.005 724.443 139.546 727.047 139.785C729.65 140.024 732.444 139.917 734.628 138.479C734.937 138.277 735.261 137.968 735.195 137.604C735.084 137.038 734.084 136.766 734.309 136.233C736.202 136.395 738.07 136.851 739.824 137.582C741.394 138.237 742.935 139.174 743.784 140.645C744.633 142.116 744.56 144.219 743.251 145.3C745.435 143.252 746.134 139.781 744.909 137.049C743.685 134.317 740.626 132.527 737.644 132.799C736.949 132.861 735.901 132.692 736.044 132.008C736.081 131.828 736.21 131.681 736.335 131.545C740.026 127.474 750.373 116.322 751.112 115.469C751.811 114.664 751.598 112.631 751.561 112.436C751.454 111.836 751.105 108.88 757.756 110.384C759.863 111.064 771.574 113.932 772.302 114.219C801.6 124.706 816.499 136.766 819.974 139.583C820.077 139.667 820.198 139.524 820.114 139.421C816.065 134.6 811.348 126.588 799.137 118.94C799.045 118.881 799.225 118.738 799.324 118.775C802.49 119.984 806.439 121.466 809.105 123.577C814.374 127.754 818.845 132.839 823.849 137.332C828.78 141.763 840.921 147.083 840.921 147.083C840.921 147.083 841.127 146.999 841.076 146.903C838.73 142.55 826.008 131.81 822.695 128.691C824.405 131.041 840.076 138.325 842.936 138.836C840.418 135.067 824.022 125.496 821.22 122.488C821.143 122.408 821.213 122.279 821.323 122.279C823.239 122.253 833.99 121.79 837.208 121.65C837.358 121.643 837.391 121.437 837.244 121.4C825.541 118.503 805.016 110.73 801.964 109.138C801.839 109.071 801.898 108.891 802.038 108.895C804.659 108.968 817.135 109.101 820.893 104.03C821.058 103.81 820.93 103.49 820.661 103.431C812.888 101.74 789.338 94.61 784.73 84.9065C784.679 84.7962 784.797 84.6786 784.907 84.7337C787.069 85.7963 796.28 87.1017 799.045 86.7009C799.298 86.6641 799.361 86.3258 799.133 86.2118C796.136 84.7558 784.558 80.3177 784.771 78.3322C784.969 76.4753 794.136 77.7365 795.842 78.0049C797.655 78.0049 780.759 69.1178 775.343 66.9631C773.685 66.3049 764.323 61.9992 755.988 61.2197C752.226 60.8704 737.702 54.0754 733.831 53.1194C727.238 51.4905 715.968 50.0565 708.382 52.8657C708.64 51.2405 712.115 47.6996 713.666 47.1554C709.669 49.2697 706.007 52.009 702.841 55.241C702.738 55.344 702.599 55.2484 702.65 55.1123C703.121 53.9136 702.885 52.4208 701.966 51.5016C700.404 53.9872 698.311 56.1419 695.87 57.7707C695.778 56.3845 695.686 54.9947 695.598 53.6084C695.381 56.2264 692.531 57.609 690.391 59.1312C687.207 61.3962 684.905 64.9224 683.203 68.3861C681.442 71.96 679.21 75.534 678.272 79.461C677.507 82.6673 677.647 86.2008 679.265 89.0725C679.997 90.3704 683.64 94.4335 684.637 95.1358C685.527 95.7608 687.023 95.8344 687.759 96.4043C689.038 97.3897 688.608 100.375 688.748 102.023C689.097 106.078 690.421 109.421 692.572 112.781C692.7 112.984 693.028 112.892 693.006 112.653C692.774 109.98 692.318 102.137 694.406 97.4816L695.013 97.9891L695.002 97.9854Z" stroke="#C49339" stroke-width="1.10308" stroke-linejoin="round"/>
<path d="M699.731 113.399C700.154 112.807 700.124 112.017 700.08 111.292C700.014 110.2 699.944 109.079 699.514 108.071C699.084 107.064 698.216 106.17 697.131 106.019C695.583 105.806 694.186 107.17 693.712 108.66C693.16 110.388 693.568 112.469 694.958 113.634C696.348 114.8 698.705 114.741 699.834 113.318" stroke="#C49339" stroke-width="1.10308" stroke-linejoin="round"/>
<path d="M688.178 87.8885C689.093 90.2197 688.299 90.2234 686.799 89.2674C686.799 89.2674 685.42 88.6496 685.42 87.8885C685.42 87.1274 686.038 86.5097 686.799 86.5097C687.56 86.5097 688.178 87.8885 688.178 87.8885Z" stroke="#C49339" stroke-width="1.10308" stroke-linejoin="round"/>
<path d="M747.369 73.7948C762.948 77.5673 778.13 89.2379 793.29 101.346C793.29 101.346 791.893 109.145 751.388 86.0353" stroke="#C49339" stroke-width="1.10308" stroke-linejoin="round"/>
<path d="M755.763 94.0437C755.763 94.0437 775.976 108.163 788.073 107.689L770.699 96.2168" stroke="#C49339" stroke-width="1.10308" stroke-linejoin="round"/>
<path d="M804.762 236.996C806.939 236.801 809.175 236.558 811.102 235.529C813.028 234.499 814.587 232.484 814.429 230.304C814.311 228.693 813.315 227.296 812.267 226.068C806.329 219.107 797.754 214.765 788.86 212.625C779.965 210.485 770.707 210.393 761.57 210.808C757.69 210.985 753.789 211.253 750.035 212.242C742.659 214.188 735.768 219.188 731.805 225.74C725.76 235.731 735.243 236.132 743.012 236.613C763.559 237.889 784.216 238.823 804.762 236.992V236.996Z" stroke="#C49339" stroke-width="1.10308" stroke-linejoin="round"/>
<path d="M752.094 265.999C754.433 267.86 755.069 271.838 755.105 274.662C755.113 275.144 755.098 275.684 754.756 276.026C754.41 276.372 753.859 276.383 753.37 276.372C750.329 276.295 747.292 276.217 744.251 276.137C743.244 276.111 742.126 276.041 741.42 275.32C740.501 274.383 740.732 272.853 741.03 271.57C741.681 268.775 743.538 266.194 746.318 265.198C748.23 264.51 750.506 264.738 752.094 265.999Z" stroke="#C49339" stroke-width="1.10308" stroke-linejoin="round"/>
<path d="M754.509 267.882C754.315 268.794 754.958 269.72 755.782 270.162C756.605 270.603 757.569 270.669 758.503 270.728C761.44 270.912 764.378 271.095 767.313 271.279C770.519 271.478 772.394 270.805 772.556 267.378C772.578 266.941 772.593 266.488 772.416 266.087C772.21 265.621 771.769 265.304 771.35 265.014C768.853 263.275 765.665 263.554 762.749 264.139C761.227 264.444 754.892 266.04 754.509 267.878V267.882Z" stroke="#C49339" stroke-width="1.10308" stroke-linejoin="round"/>
<path d="M620.732 161.339C620.732 161.339 619.57 228.91 620.037 230.219C620.037 237.543 643.492 246.773 661.314 244.184C662.696 243.919 663.851 242.971 664.458 241.702C664.458 241.702 685.659 213.305 692.002 188.666C692.138 188.302 692.675 188.375 692.693 188.765C692.785 190.442 692.384 198.358 693.186 200.826C697.594 214.375 705.915 191.633 707.415 187.129C709.36 181.286 711.982 175.58 712.824 169.586C713.218 166.785 713.317 158.276 713.317 158.276C713.81 146.966 709.544 144.204 709.544 144.204C707.426 141.66 703.536 141.237 700.403 142.307C696.274 143.719 690.281 147.054 693.101 151.768C690.752 148.882 688.148 143.789 686.63 140.421C686.519 140.178 686.416 139.932 686.321 139.678C685.141 136.553 687.082 133.688 689.825 131.776C690.461 131.335 691.016 130.795 691.424 130.074C694.719 124.239 683.556 119.668 677.684 117.69C671.749 115.995 659.968 113.425 659.365 120.095C659.292 120.918 659.446 121.68 659.715 122.404C660.887 125.533 660.862 128.997 658.115 130.898C657.894 131.052 657.67 131.195 657.442 131.335C655.173 132.707 652.136 133.983 649.658 134.931C647.014 135.946 643.764 136.865 641.014 138.325C636.02 140.976 623.64 144.668 620.46 160.89L620.721 161.335L620.732 161.339Z" stroke="#C49339" stroke-width="1.10308" stroke-linejoin="round"/>
<path d="M668.047 254.501C667.852 255.413 668.495 256.34 669.319 256.781C670.142 257.222 671.106 257.289 672.04 257.347C674.978 257.531 677.915 257.715 680.85 257.899C684.056 258.098 685.931 257.425 686.093 253.998C686.115 253.56 686.13 253.108 685.953 252.707C685.747 252.24 685.306 251.924 684.887 251.633C682.39 249.894 679.202 250.174 676.287 250.758C674.764 251.064 668.429 252.659 668.047 254.498V254.501Z" stroke="#C49339" stroke-width="1.10308" stroke-linejoin="round"/>
<path d="M668.105 252.619C670.444 254.479 671.08 258.458 671.117 261.282C671.124 261.763 671.109 262.304 670.767 262.646C670.422 262.992 669.87 263.003 669.381 262.992C666.34 262.914 663.303 262.837 660.262 262.756C659.255 262.73 658.137 262.661 657.431 261.94C656.512 261.002 656.743 259.473 657.041 258.189C657.692 255.395 659.549 252.814 662.329 251.817C664.241 251.13 666.517 251.358 668.105 252.619Z" stroke="#C49339" stroke-width="1.10308" stroke-linejoin="round"/>
<path d="M752.355 23.259C751.965 19.7108 754.694 16.3795 757.962 15.2102C761.231 14.0373 764.857 14.6072 768.159 15.6735C768.258 11.5443 770.585 7.68354 773.792 5.20896C776.994 2.73438 780.987 1.53202 784.969 1.12388C801.214 -0.534415 814.495 14.7359 803.189 30.1349C806.564 29.0061 810.491 29.8444 813.157 32.2602C815.823 34.6759 817.128 38.5882 816.473 42.1842C820.79 39.3603 827.269 41.0958 829.71 45.7251C832.152 50.3544 830.045 56.9067 825.405 59.1128" stroke="#C49339" stroke-width="1.10308" stroke-linejoin="round"/>
<path d="M611 264.5C656 272.5 681.335 278.501 697.002 254.965L697.418 254.24C705.088 252.895 711.03 250.909 718.722 252.089C715.615 248.526 712.512 244.96 709.404 241.397C714.137 242.989 718.523 245.6 722.178 248.997C722.862 245.008 725.476 241.393 729.05 239.492C727.819 242.838 727.888 246.261 729.297 249.773C734.044 245.247 738.386 243.802 744.927 243.291C735.275 249.497 737.066 256.91 737.066 256.91C737.066 256.91 743.045 255.704 750.068 257.818" stroke="#C49339" stroke-width="1.10308" stroke-linejoin="round"/>
</svg>
