<svg width="113" height="82" viewBox="0 0 113 82" fill="none" xmlns="http://www.w3.org/2000/svg">
<g clip-path="url(#clip0_1_151)">
<g style="mix-blend-mode:multiply">
<path d="M93.0655 63.3282C91.9879 62.8173 90.9002 62.3265 89.8023 61.8457C89.5482 61.7455 89.2534 61.6253 88.8874 61.475C87.1288 60.7839 85.3702 60.0927 83.6115 59.3915C78.5898 57.378 73.5883 55.3245 68.7089 53.0006C60.9424 49.2942 53.5724 44.8967 46.1211 40.6294C43.0409 38.8564 40.0116 37.0333 37.0331 35.1501H13.7439C13.5609 35.9414 13.4491 36.7428 13.4491 37.5642C13.4491 38.1151 13.4897 38.6661 13.5711 39.207L13.4999 43.9451C13.4694 44.2857 13.4491 44.6363 13.4491 44.9769C13.4491 46.0587 13.6117 47.1105 13.9167 48.1322C14.3538 49.5947 15.0959 50.9771 16.0921 52.2593C16.1633 52.3595 16.2446 52.4496 16.3157 52.5498C17.6576 54.1926 19.4162 55.6551 21.49 56.8672C21.6933 56.9874 21.8966 57.0976 22.1101 57.2178C26.034 59.3514 31.0049 60.6236 36.413 60.6236C41.821 60.6236 46.3549 59.4616 50.1974 57.4882C50.1365 57.959 50.0958 58.4298 50.0958 58.9207C50.0958 59.4716 50.1365 60.0226 50.2178 60.5635L50.1466 65.3016C50.1161 65.6421 50.0958 65.9927 50.0958 66.3333C50.0958 68.2266 50.5837 70.0396 51.4885 71.7125C51.6206 71.9529 51.7528 72.1933 51.8951 72.4237C52.1899 72.8945 52.505 73.3453 52.8608 73.7961C53.0336 74.0164 53.2166 74.2368 53.4097 74.4472C53.9892 75.0883 54.6296 75.7093 55.331 76.2903C55.5648 76.4807 55.8088 76.671 56.0528 76.8613C60.2511 80.0067 66.3098 81.9901 73.0495 81.9901C79.7893 81.9901 85.543 80.1068 89.721 77.0917C90.0768 76.8312 90.4326 76.5708 90.7579 76.2903C91.4593 75.7093 92.0997 75.0983 92.6792 74.4472C92.9841 74.1066 93.2586 73.756 93.5229 73.4054C93.7669 73.0849 93.9905 72.7543 94.1938 72.4237C94.3362 72.1933 94.4785 71.9529 94.6005 71.7125C95.5052 70.0296 95.9931 68.2266 95.9931 66.3333V64.4201C94.9867 64.1095 94.0007 63.7489 93.0553 63.3082L93.0655 63.3282Z" fill="#D6D6D6"/>
</g>
<path d="M56.6525 34.4888C52.7795 29.5905 45.1757 26.2548 36.4333 26.2548C27.691 26.2548 20.0871 29.5905 16.2141 34.4888H13.6219L13.5202 41.2303C13.5101 41.4607 13.4694 41.6811 13.4694 41.9115C13.4694 50.5563 23.7467 57.5682 36.4333 57.5682C49.1199 57.5682 59.3972 50.5563 59.3972 41.9115V34.4888H56.6525Z" fill="#00DEBF"/>
<path d="M36.4333 57.5682C49.1159 57.5682 59.3972 50.5585 59.3972 41.9115C59.3972 33.2645 49.1159 26.2548 36.4333 26.2548C23.7507 26.2548 13.4694 33.2645 13.4694 41.9115C13.4694 50.5585 23.7507 57.5682 36.4333 57.5682Z" fill="white"/>
<path d="M56.6525 34.4888C52.7795 29.5905 45.1757 26.2548 36.4333 26.2548C27.691 26.2548 20.0871 29.5905 16.2141 34.4888H13.6219L13.5202 41.2303C13.5101 41.4607 13.4694 41.6811 13.4694 41.9115C13.4694 50.5563 23.7467 57.5682 36.4333 57.5682C49.1199 57.5682 59.3972 50.5563 59.3972 41.9115V34.4888H56.6525Z" stroke="#222D4E" stroke-width="1.50032" stroke-linejoin="round"/>
<path d="M36.4333 57.5682C49.1159 57.5682 59.3972 50.5585 59.3972 41.9115C59.3972 33.2645 49.1159 26.2548 36.4333 26.2548C23.7507 26.2548 13.4694 33.2645 13.4694 41.9115C13.4694 50.5585 23.7507 57.5682 36.4333 57.5682Z" stroke="#222D4E" stroke-width="1.50032" stroke-linejoin="round"/>
<path d="M36.4333 50.1456C49.1159 50.1456 59.3972 43.1359 59.3972 34.4889C59.3972 25.8419 49.1159 18.8322 36.4333 18.8322C23.7507 18.8322 13.4694 25.8419 13.4694 34.4889C13.4694 43.1359 23.7507 50.1456 36.4333 50.1456Z" fill="white"/>
<path d="M36.4333 50.1456C49.1159 50.1456 59.3972 43.1359 59.3972 34.4889C59.3972 25.8419 49.1159 18.8322 36.4333 18.8322C23.7507 18.8322 13.4694 25.8419 13.4694 34.4889C13.4694 43.1359 23.7507 50.1456 36.4333 50.1456Z" stroke="#222D4E" stroke-width="1.50032" stroke-linejoin="round"/>
<path d="M36.5656 57.5383C36.5656 57.358 36.5656 57.1776 36.5859 56.9973V50.2158" stroke="#222D4E" stroke-width="1.50032" stroke-linejoin="round"/>
<path d="M41.5568 57.0275V49.7951" stroke="#222D4E" stroke-width="1.50032" stroke-linejoin="round"/>
<path d="M46.294 55.9957V48.7533" stroke="#222D4E" stroke-width="1.50032" stroke-linejoin="round"/>
<path d="M50.6653 54.2526V46.9802" stroke="#222D4E" stroke-width="1.50032" stroke-linejoin="round"/>
<path d="M54.3959 51.7984V44.486" stroke="#222D4E" stroke-width="1.50032" stroke-linejoin="round"/>
<path d="M57.7811 47.6813V40.4089" stroke="#222D4E" stroke-width="1.50032" stroke-linejoin="round"/>
<path d="M31.4828 57.0275V49.7952" stroke="#222D4E" stroke-width="1.50032" stroke-linejoin="round"/>
<path d="M26.7354 55.9957V48.7533" stroke="#222D4E" stroke-width="1.50032" stroke-linejoin="round"/>
<path d="M22.3745 54.2527V46.9803" stroke="#222D4E" stroke-width="1.50032" stroke-linejoin="round"/>
<path d="M18.6437 51.7985V44.486" stroke="#222D4E" stroke-width="1.50032" stroke-linejoin="round"/>
<path d="M15.2586 47.6815V40.4091" stroke="#222D4E" stroke-width="1.50032" stroke-linejoin="round"/>
<path d="M36.4333 46.5896C46.2358 46.5896 54.1823 41.172 54.1823 34.489C54.1823 27.806 46.2358 22.3883 36.4333 22.3883C26.6308 22.3883 18.6843 27.806 18.6843 34.489C18.6843 41.172 26.6308 46.5896 36.4333 46.5896Z" fill="white"/>
<path d="M36.4333 46.5896C46.2358 46.5896 54.1823 41.172 54.1823 34.489C54.1823 27.806 46.2358 22.3883 36.4333 22.3883C26.6308 22.3883 18.6843 27.806 18.6843 34.489C18.6843 41.172 26.6308 46.5896 36.4333 46.5896Z" stroke="#222D4E" stroke-width="1.50032" stroke-linejoin="round"/>
<path d="M37.704 30.0414L33.0787 31.9146L32.2654 31.4738C31.4014 31.003 30.7813 30.7125 30.4051 30.6123C30.029 30.5122 29.6732 30.5322 29.3174 30.6725C29.0328 30.7826 28.9413 30.9329 29.0328 31.1232C29.1243 31.3135 29.3988 31.5239 29.8562 31.7743C30.6288 32.1951 31.3099 32.4355 31.9096 32.4855C32.4992 32.5356 33.9326 32.5256 36.1995 32.4555C38.1309 32.3854 39.5033 32.3854 40.3369 32.4254C41.1704 32.4655 42.0955 32.6358 43.1222 32.9163C44.1489 33.1968 45.2062 33.6375 46.304 34.2385C48.0525 35.1902 49.0284 36.1017 49.2317 36.9732C49.435 37.8447 48.8657 38.6561 47.5137 39.4274L49.3639 40.4391L47.2393 41.3006L45.3281 40.2588C43.966 40.6896 42.3801 40.8498 40.5808 40.7497C38.7815 40.6495 36.7891 39.9884 34.5933 38.7963L33.6378 38.2754L38.2631 36.4022L39.4626 37.0634C40.7841 37.7846 41.6482 38.2153 42.065 38.3456C42.4818 38.4858 42.8681 38.4758 43.234 38.3255C43.5492 38.1953 43.6712 38.045 43.6 37.8547C43.5288 37.6744 43.2747 37.464 42.8376 37.2236C41.7397 36.6226 40.8756 36.2219 40.2555 36.0216C39.6354 35.8212 38.6291 35.7411 37.216 35.7812C34.8678 35.8413 33.2108 35.8513 32.2654 35.8212C31.32 35.7812 30.2527 35.6209 29.0836 35.3404C27.9146 35.0499 26.8167 34.6292 25.8103 34.0783C24.3465 33.2769 23.5841 32.4855 23.5332 31.7142C23.4824 30.9429 24.133 30.1816 25.5054 29.4403L23.9399 28.5789L26.0645 27.7174L27.63 28.5789C29.2463 28.1081 30.8219 27.9478 32.3569 28.1081C33.8919 28.2683 35.3761 28.7492 36.8298 29.5405C37.0331 29.6507 37.3279 29.821 37.704 30.0614V30.0414Z" fill="white"/>
<path d="M37.704 30.0414L33.0787 31.9146L32.2654 31.4738C31.4014 31.003 30.7813 30.7125 30.4051 30.6123C30.029 30.5122 29.6732 30.5322 29.3174 30.6725C29.0328 30.7826 28.9413 30.9329 29.0328 31.1232C29.1243 31.3135 29.3988 31.5239 29.8562 31.7743C30.6288 32.1951 31.3099 32.4355 31.9096 32.4855C32.4992 32.5356 33.9326 32.5256 36.1995 32.4555C38.1309 32.3854 39.5033 32.3854 40.3369 32.4254C41.1704 32.4655 42.0955 32.6358 43.1222 32.9163C44.1489 33.1968 45.2062 33.6375 46.304 34.2385C48.0525 35.1902 49.0284 36.1017 49.2317 36.9732C49.435 37.8447 48.8657 38.6561 47.5137 39.4274L49.3639 40.4391L47.2393 41.3006L45.3281 40.2588C43.966 40.6896 42.3801 40.8498 40.5808 40.7497C38.7815 40.6495 36.7891 39.9884 34.5933 38.7963L33.6378 38.2754L38.2631 36.4022L39.4626 37.0634C40.7841 37.7846 41.6482 38.2153 42.065 38.3456C42.4818 38.4858 42.8681 38.4758 43.234 38.3255C43.5492 38.1953 43.6712 38.045 43.6 37.8547C43.5288 37.6744 43.2747 37.464 42.8376 37.2236C41.7397 36.6226 40.8756 36.2219 40.2555 36.0216C39.6354 35.8212 38.6291 35.7411 37.216 35.7812C34.8678 35.8413 33.2108 35.8513 32.2654 35.8212C31.32 35.7812 30.2527 35.6209 29.0836 35.3404C27.9146 35.0499 26.8167 34.6292 25.8103 34.0783C24.3465 33.2769 23.5841 32.4855 23.5332 31.7142C23.4824 30.9429 24.133 30.1816 25.5054 29.4403L23.9399 28.5789L26.0645 27.7174L27.63 28.5789C29.2463 28.1081 30.8219 27.9478 32.3569 28.1081C33.8919 28.2683 35.3761 28.7492 36.8298 29.5405C37.0331 29.6507 37.3279 29.821 37.704 30.0614V30.0414Z" stroke="#222D4E" stroke-width="1.50032" stroke-linejoin="round"/>
<path d="M93.2993 55.8554C89.4263 50.957 81.8225 47.6213 73.0801 47.6213C64.3377 47.6213 56.7339 50.957 52.8609 55.8554H50.2687L50.167 62.5969C50.1568 62.8273 50.1162 63.0477 50.1162 63.2781C50.1162 71.9228 60.3935 78.9348 73.0801 78.9348C85.7667 78.9348 96.044 71.9228 96.044 63.2781V55.8554H93.2993Z" fill="#00DEBF"/>
<path d="M73.0801 78.9348C85.7627 78.9348 96.044 71.925 96.044 63.2781C96.044 54.6311 85.7627 47.6213 73.0801 47.6213C60.3975 47.6213 50.1162 54.6311 50.1162 63.2781C50.1162 71.925 60.3975 78.9348 73.0801 78.9348Z" fill="white"/>
<path d="M93.2993 55.8554C89.4263 50.957 81.8225 47.6213 73.0801 47.6213C64.3377 47.6213 56.7339 50.957 52.8609 55.8554H50.2687L50.167 62.5969C50.1568 62.8273 50.1162 63.0477 50.1162 63.2781C50.1162 71.9228 60.3935 78.9348 73.0801 78.9348C85.7667 78.9348 96.044 71.9228 96.044 63.2781V55.8554H93.2993Z" stroke="#222D4E" stroke-width="1.50032" stroke-linejoin="round"/>
<path d="M73.0801 78.9348C85.7627 78.9348 96.044 71.925 96.044 63.2781C96.044 54.6311 85.7627 47.6213 73.0801 47.6213C60.3975 47.6213 50.1162 54.6311 50.1162 63.2781C50.1162 71.925 60.3975 78.9348 73.0801 78.9348Z" stroke="#222D4E" stroke-width="1.50032" stroke-linejoin="round"/>
<path d="M73.0801 71.5122C85.7627 71.5122 96.044 64.5024 96.044 55.8555C96.044 47.2085 85.7627 40.1987 73.0801 40.1987C60.3975 40.1987 50.1162 47.2085 50.1162 55.8555C50.1162 64.5024 60.3975 71.5122 73.0801 71.5122Z" fill="white"/>
<path d="M73.0801 71.5122C85.7627 71.5122 96.044 64.5024 96.044 55.8555C96.044 47.2085 85.7627 40.1987 73.0801 40.1987C60.3975 40.1987 50.1162 47.2085 50.1162 55.8555C50.1162 64.5024 60.3975 71.5122 73.0801 71.5122Z" stroke="#222D4E" stroke-width="1.50032" stroke-linejoin="round"/>
<path d="M73.202 78.905C73.202 78.7246 73.202 78.5443 73.2223 78.364V71.5825" stroke="#222D4E" stroke-width="1.50032" stroke-linejoin="round"/>
<path d="M78.1933 78.3942V71.1618" stroke="#222D4E" stroke-width="1.50032" stroke-linejoin="round"/>
<path d="M82.9405 77.3624V70.12" stroke="#222D4E" stroke-width="1.50032" stroke-linejoin="round"/>
<path d="M87.3015 75.6193V68.3469" stroke="#222D4E" stroke-width="1.50032" stroke-linejoin="round"/>
<path d="M91.0324 73.1652V65.8527" stroke="#222D4E" stroke-width="1.50032" stroke-linejoin="round"/>
<path d="M94.4174 69.0481V61.7757" stroke="#222D4E" stroke-width="1.50032" stroke-linejoin="round"/>
<path d="M68.1193 78.3942V71.1618" stroke="#222D4E" stroke-width="1.50032" stroke-linejoin="round"/>
<path d="M63.3822 77.3624V70.12" stroke="#222D4E" stroke-width="1.50032" stroke-linejoin="round"/>
<path d="M59.011 75.6193V68.3469" stroke="#222D4E" stroke-width="1.50032" stroke-linejoin="round"/>
<path d="M55.2904 73.1652V65.8527" stroke="#222D4E" stroke-width="1.50032" stroke-linejoin="round"/>
<path d="M51.8951 69.0481V61.7757" stroke="#222D4E" stroke-width="1.50032" stroke-linejoin="round"/>
<path d="M73.0801 67.9562C82.8826 67.9562 90.8291 62.5385 90.8291 55.8555C90.8291 49.1725 82.8826 43.7549 73.0801 43.7549C63.2776 43.7549 55.3311 49.1725 55.3311 55.8555C55.3311 62.5385 63.2776 67.9562 73.0801 67.9562Z" fill="white"/>
<path d="M73.0801 67.9562C82.8826 67.9562 90.8291 62.5385 90.8291 55.8555C90.8291 49.1725 82.8826 43.7549 73.0801 43.7549C63.2776 43.7549 55.3311 49.1725 55.3311 55.8555C55.3311 62.5385 63.2776 67.9562 73.0801 67.9562Z" stroke="#222D4E" stroke-width="1.50032" stroke-linejoin="round"/>
<path d="M74.3406 51.4081L69.7153 53.2813L68.9021 52.8405C68.038 52.3697 67.4179 52.0792 67.0418 51.979C66.6657 51.8789 66.3099 51.8989 65.9541 52.0392C65.6695 52.1493 65.578 52.2996 65.6695 52.4899C65.7609 52.6802 66.0354 52.8906 66.4929 53.141C67.2654 53.5617 67.9465 53.8022 68.5463 53.8522C69.1359 53.9023 70.5692 53.8923 72.8362 53.8222C74.7676 53.7521 76.14 53.7521 76.9735 53.7921C77.8071 53.8322 78.7322 54.0025 79.7589 54.283C80.7856 54.5635 81.8428 55.0042 82.9407 55.6052C84.6892 56.5569 85.6651 57.4684 85.8684 58.3399C86.0717 59.2114 85.5024 60.0228 84.1504 60.7941L86.0005 61.8058L83.8759 62.6673L81.9648 61.6255C80.6026 62.0563 79.0168 62.2165 77.2175 62.1164C75.4182 62.0162 73.4258 61.3551 71.23 60.163L70.2744 59.6421L74.8998 57.7689L76.0993 58.4301C77.4208 59.1513 78.2849 59.582 78.7017 59.7123C79.1184 59.8525 79.5047 59.8425 79.8707 59.6922C80.1858 59.562 80.3078 59.4117 80.2367 59.2214C80.1655 59.0411 79.9114 58.8307 79.4742 58.5903C78.3764 57.9893 77.5123 57.5886 76.8922 57.3883C76.2721 57.1879 75.2657 57.1078 73.8527 57.1479C71.5045 57.208 69.8475 57.218 68.9021 57.1879C67.9567 57.1479 66.8893 56.9876 65.7203 56.7071C64.5513 56.4166 63.4534 55.9959 62.447 55.445C60.9832 54.6436 60.2207 53.8522 60.1699 53.0809C60.1191 52.3096 60.7697 51.5483 62.142 50.807L60.5765 49.9456L62.7011 49.0841L64.2666 49.9456C65.8829 49.4748 67.4586 49.3145 68.9936 49.4748C70.5286 49.635 72.0127 50.1159 73.4664 50.9072C73.6697 51.0174 73.9645 51.1877 74.3406 51.4281V51.4081Z" fill="white"/>
<path d="M74.3406 51.4081L69.7153 53.2813L68.9021 52.8405C68.038 52.3697 67.4179 52.0792 67.0418 51.979C66.6657 51.8789 66.3099 51.8989 65.9541 52.0392C65.6695 52.1493 65.578 52.2996 65.6695 52.4899C65.7609 52.6802 66.0354 52.8906 66.4929 53.141C67.2654 53.5618 67.9465 53.8022 68.5463 53.8522C69.1359 53.9023 70.5692 53.8923 72.8362 53.8222C74.7676 53.7521 76.14 53.7521 76.9735 53.7921C77.8071 53.8322 78.7322 54.0025 79.7589 54.283C80.7856 54.5635 81.8428 55.0042 82.9407 55.6052C84.6892 56.5569 85.665 57.4684 85.8684 58.3399C86.0717 59.2114 85.5024 60.0228 84.1504 60.7941L86.0005 61.8058L83.8759 62.6673L81.9648 61.6255C80.6026 62.0563 79.0168 62.2165 77.2175 62.1164C75.4182 62.0162 73.4258 61.3551 71.23 60.163L70.2744 59.6421L74.8998 57.7689L76.0993 58.4301C77.4208 59.1513 78.2849 59.582 78.7017 59.7123C79.1184 59.8525 79.5047 59.8425 79.8707 59.6922C80.1858 59.562 80.3078 59.4117 80.2367 59.2214C80.1655 59.0411 79.9114 58.8307 79.4742 58.5903C78.3764 57.9893 77.5123 57.5886 76.8922 57.3883C76.2721 57.1879 75.2657 57.1078 73.8527 57.1479C71.5045 57.208 69.8475 57.218 68.9021 57.1879C67.9567 57.1479 66.8893 56.9876 65.7203 56.7071C64.5513 56.4166 63.4534 55.9959 62.447 55.445C60.9832 54.6436 60.2207 53.8522 60.1699 53.0809C60.1191 52.3096 60.7697 51.5483 62.142 50.807L60.5765 49.9456L62.7011 49.0841L64.2666 49.9456C65.8829 49.4748 67.4586 49.3145 68.9936 49.4748C70.5286 49.635 72.0127 50.1159 73.4664 50.9072C73.6697 51.0174 73.9645 51.1877 74.3406 51.4281V51.4081Z" stroke="#222D4E" stroke-width="1.50032" stroke-linejoin="round"/>
<path d="M1.57573 55.8454L40.2352 78.3238C41.882 79.2754 43.9253 79.2754 45.5823 78.3238L111.77 40.3189C112.898 39.6678 112.898 38.0551 111.77 37.414L71.667 14.3045C70.254 13.4931 68.5157 13.4931 67.1027 14.3045L1.59606 51.7184C-0.0100908 52.64 -0.0202565 54.9239 1.5859 55.8555L1.57573 55.8454Z" fill="white"/>
<path d="M1.57573 55.8454L40.2352 78.3238C41.882 79.2754 43.9253 79.2754 45.5823 78.3238L111.77 40.3189C112.898 39.6678 112.898 38.0551 111.77 37.414L71.667 14.3045C70.254 13.4931 68.5157 13.4931 67.1027 14.3045L1.59606 51.7184C-0.0100908 52.64 -0.0202565 54.9239 1.5859 55.8555L1.57573 55.8454Z" stroke="#222D4E" stroke-width="1.50032" stroke-linejoin="round"/>
<path d="M1.5757 54.5532L40.2352 77.0316C41.882 77.9832 43.9253 77.9832 45.5823 77.0316L111.77 39.0267C112.898 38.3756 112.898 36.7628 111.77 36.1217L71.667 13.0123C70.254 12.2009 68.5157 12.2009 67.1027 13.0123L1.59603 50.4262C-0.0101213 51.3477 -0.020287 53.6316 1.58587 54.5632L1.5757 54.5532Z" fill="white"/>
<path d="M1.5757 54.5532L40.2352 77.0316C41.882 77.9832 43.9253 77.9832 45.5823 77.0316L111.77 39.0267C112.898 38.3756 112.898 36.7628 111.77 36.1217L71.667 13.0123C70.254 12.2009 68.5157 12.2009 67.1027 13.0123L1.59603 50.4262C-0.0101213 51.3477 -0.020287 53.6316 1.58587 54.5632L1.5757 54.5532Z" stroke="#222D4E" stroke-width="1.50032" stroke-linejoin="round"/>
<path d="M99.1343 37.4339C99.1343 36.282 99.8662 35.2502 101.025 34.539L74.2491 19.0726C73.3139 20.2546 71.5044 21.0459 69.4408 21.0459C67.3772 21.0459 65.6287 20.2746 64.6732 19.1227L11.0195 49.5346C12.1886 50.2358 12.9307 51.2776 12.9307 52.4395C12.9307 53.6015 12.2292 54.5732 11.1212 55.2844L38.2631 71.1014C39.2289 69.9895 40.9773 69.2482 42.9698 69.2482C44.9622 69.2482 46.8225 70.0396 47.7679 71.2016L101.493 40.5893C100.07 39.8981 99.1343 38.7462 99.1343 37.4439V37.4339Z" fill="#00DEBF"/>
<path d="M99.1343 37.4339C99.1343 36.282 99.8662 35.2502 101.025 34.539L74.2491 19.0726C73.3139 20.2546 71.5044 21.0459 69.4408 21.0459C67.3772 21.0459 65.6287 20.2746 64.6732 19.1227L11.0195 49.5346C12.1886 50.2358 12.9307 51.2776 12.9307 52.4395C12.9307 53.6015 12.2292 54.5732 11.1212 55.2844L38.2631 71.1014C39.2289 69.9895 40.9773 69.2482 42.9698 69.2482C44.9622 69.2482 46.8225 70.0396 47.7679 71.2016L101.493 40.5893C100.07 39.8981 99.1343 38.7462 99.1343 37.4439V37.4339Z" stroke="#222D4E" stroke-width="1.50032" stroke-linejoin="round"/>
<path d="M57.8013 55.5449C67.6038 55.5449 75.5503 50.1272 75.5503 43.4442C75.5503 36.7612 67.6038 31.3436 57.8013 31.3436C47.9987 31.3436 40.0522 36.7612 40.0522 43.4442C40.0522 50.1272 47.9987 55.5449 57.8013 55.5449Z" fill="white"/>
<path d="M57.8013 55.5449C67.6038 55.5449 75.5503 50.1272 75.5503 43.4442C75.5503 36.7612 67.6038 31.3436 57.8013 31.3436C47.9987 31.3436 40.0522 36.7612 40.0522 43.4442C40.0522 50.1272 47.9987 55.5449 57.8013 55.5449Z" stroke="#222D4E" stroke-width="1.50032" stroke-linejoin="round"/>
<path d="M59.0618 38.9867L54.4365 40.8599L53.6232 40.4191C52.7592 39.9483 52.1391 39.6578 51.763 39.5577C51.3868 39.4575 51.031 39.4775 50.6752 39.6178C50.3906 39.728 50.2991 39.8782 50.3906 40.0685C50.4821 40.2488 50.7566 40.4692 51.214 40.7196C51.9866 41.1404 52.6677 41.3808 53.2675 41.4309C53.8571 41.4809 55.2904 41.4709 57.5573 41.4008C59.4888 41.3307 60.8611 41.3307 61.6947 41.3708C62.5181 41.4208 63.4533 41.5811 64.48 41.8616C65.5067 42.1421 66.564 42.5828 67.6618 43.1839C69.4103 44.1355 70.3862 45.047 70.5895 45.9185C70.7928 46.79 70.2236 47.6014 68.8715 48.3727L70.7217 49.3844L68.5971 50.2459L66.6859 49.2041C65.3238 49.6349 63.7379 49.7951 61.9386 49.695C60.1393 49.5948 58.1469 48.9437 55.9512 47.7416L54.9956 47.2207L59.6209 45.3475L60.8204 46.0087C62.142 46.7299 63.006 47.1606 63.4228 47.2909C63.8396 47.4311 64.2259 47.4211 64.5919 47.2708C64.907 47.1406 65.029 46.9904 64.9578 46.8C64.8867 46.6197 64.6325 46.4094 64.1954 46.169C63.0975 45.5679 62.2334 45.1672 61.6134 44.9669C60.9933 44.7666 59.9869 44.6864 58.5739 44.7265C56.2256 44.7866 54.5686 44.7966 53.6232 44.7666C52.6779 44.7265 51.6105 44.5662 50.4414 44.2857C49.2724 43.9952 48.1745 43.5745 47.1681 43.0236C45.7043 42.2222 44.9419 41.4309 44.8911 40.6595C44.8402 39.8882 45.501 39.1269 46.8632 38.3857L45.2977 37.5242L47.4223 36.6627L48.9878 37.5242C50.6041 37.0534 52.1797 36.8931 53.7147 37.0534C55.2497 37.2137 56.7339 37.6945 58.1876 38.4858C58.3909 38.596 58.6857 38.7663 59.0618 39.0067V38.9867Z" fill="white"/>
<path d="M59.0618 38.9867L54.4365 40.8599L53.6232 40.4191C52.7592 39.9483 52.1391 39.6578 51.763 39.5577C51.3868 39.4575 51.031 39.4775 50.6752 39.6178C50.3906 39.728 50.2991 39.8782 50.3906 40.0685C50.4821 40.2488 50.7566 40.4692 51.214 40.7196C51.9866 41.1404 52.6677 41.3808 53.2675 41.4309C53.8571 41.4809 55.2904 41.4709 57.5573 41.4008C59.4888 41.3307 60.8611 41.3307 61.6947 41.3708C62.5181 41.4208 63.4533 41.5811 64.48 41.8616C65.5067 42.1421 66.564 42.5828 67.6618 43.1839C69.4103 44.1355 70.3862 45.047 70.5895 45.9185C70.7928 46.79 70.2236 47.6014 68.8715 48.3727L70.7217 49.3844L68.5971 50.2459L66.6859 49.2041C65.3238 49.6349 63.7379 49.7951 61.9386 49.695C60.1393 49.5948 58.1469 48.9437 55.9512 47.7416L54.9956 47.2207L59.6209 45.3475L60.8204 46.0087C62.142 46.7299 63.006 47.1606 63.4228 47.2909C63.8396 47.4311 64.2259 47.4211 64.5919 47.2708C64.907 47.1406 65.029 46.9904 64.9578 46.8C64.8867 46.6197 64.6325 46.4094 64.1954 46.169C63.0975 45.5679 62.2334 45.1672 61.6134 44.9669C60.9933 44.7666 59.9869 44.6864 58.5739 44.7265C56.2256 44.7866 54.5686 44.7966 53.6232 44.7666C52.6779 44.7265 51.6105 44.5662 50.4414 44.2857C49.2724 43.9952 48.1745 43.5745 47.1681 43.0236C45.7043 42.2222 44.9419 41.4309 44.8911 40.6595C44.8402 39.8882 45.501 39.1269 46.8632 38.3857L45.2977 37.5242L47.4223 36.6627L48.9878 37.5242C50.6041 37.0534 52.1797 36.8931 53.7147 37.0534C55.2497 37.2137 56.7339 37.6945 58.1876 38.4858C58.3909 38.596 58.6857 38.7663 59.0618 39.0067V38.9867Z" stroke="#222D4E" stroke-width="1.50032" stroke-linejoin="round"/>
<path d="M35.3863 54.3829C33.0178 54.3829 31.0965 55.6951 31.0965 57.3079C31.0965 58.9206 33.0178 60.2329 35.3863 60.2329C37.7549 60.2329 39.6762 58.9206 39.6762 57.3079C39.6762 55.6951 37.7549 54.3829 35.3863 54.3829Z" fill="white"/>
<path d="M79.8604 28.8392C77.4918 28.8392 75.5706 30.1515 75.5706 31.7642C75.5706 33.377 77.4918 34.6892 79.8604 34.6892C82.229 34.6892 84.1503 33.377 84.1503 31.7642C84.1503 30.1515 82.229 28.8392 79.8604 28.8392Z" fill="white"/>
<path d="M1.57573 49.8351L40.2352 72.3135C41.882 73.2651 43.9253 73.2651 45.5823 72.3135L111.77 34.3086C112.898 33.6575 112.898 32.0448 111.77 31.4037L71.667 8.29421C70.254 7.48282 68.5157 7.48282 67.1027 8.29421L1.59606 45.7081C-0.0100908 46.6297 -0.0202565 48.9136 1.5859 49.8451L1.57573 49.8351Z" fill="white"/>
<path d="M1.57573 49.8351L40.2352 72.3135C41.882 73.2651 43.9253 73.2651 45.5823 72.3135L111.77 34.3086C112.898 33.6575 112.898 32.0448 111.77 31.4037L71.667 8.29421C70.254 7.48282 68.5157 7.48282 67.1027 8.29421L1.59606 45.7081C-0.0100908 46.6297 -0.0202565 48.9136 1.5859 49.8451L1.57573 49.8351Z" stroke="#222D4E" stroke-width="1.50032" stroke-linejoin="round"/>
<path d="M1.5757 48.543L40.2352 71.0213C41.882 71.973 43.9253 71.973 45.5823 71.0213L111.77 33.0165C112.898 32.3653 112.898 30.7526 111.77 30.1115L71.667 6.99202C70.254 6.18064 68.5157 6.18064 67.1027 6.99202L1.59603 44.4159C-0.0101213 45.3375 -0.020287 47.6214 1.58587 48.553L1.5757 48.543Z" fill="white"/>
<path d="M1.5757 48.543L40.2352 71.0213C41.882 71.973 43.9253 71.973 45.5823 71.0213L111.77 33.0165C112.898 32.3653 112.898 30.7526 111.77 30.1115L71.667 6.99202C70.254 6.18064 68.5157 6.18064 67.1027 6.99202L1.59603 44.4159C-0.0101213 45.3375 -0.020287 47.6214 1.58587 48.553L1.5757 48.543Z" stroke="#222D4E" stroke-width="1.50032" stroke-linejoin="round"/>
<path d="M99.1343 31.4237C99.1343 30.2717 99.8662 29.2399 101.025 28.5287L74.2491 13.0623C73.3139 14.2443 71.5044 15.0357 69.4408 15.0357C67.3772 15.0357 65.6287 14.2644 64.6732 13.1124L11.0195 43.5243C12.1886 44.2255 12.9307 45.2673 12.9307 46.4293C12.9307 47.5913 12.2292 48.5629 11.1212 49.2741L38.2631 65.0912C39.2289 63.9793 40.9773 63.238 42.9698 63.238C44.9622 63.238 46.8225 64.0293 47.7679 65.1913L101.493 34.5791C100.07 33.8879 99.1343 32.7359 99.1343 31.4337V31.4237Z" fill="#00DEBF"/>
<path d="M99.1343 31.4237C99.1343 30.2717 99.8662 29.2399 101.025 28.5287L74.2491 13.0623C73.3139 14.2443 71.5044 15.0357 69.4408 15.0357C67.3772 15.0357 65.6287 14.2644 64.6732 13.1124L11.0195 43.5243C12.1886 44.2255 12.9307 45.2673 12.9307 46.4293C12.9307 47.5913 12.2292 48.5629 11.1212 49.2741L38.2631 65.0912C39.2289 63.9793 40.9773 63.238 42.9698 63.238C44.9622 63.238 46.8225 64.0293 47.7679 65.1913L101.493 34.5791C100.07 33.8879 99.1343 32.7359 99.1343 31.4337V31.4237Z" stroke="#222D4E" stroke-width="1.50032" stroke-linejoin="round"/>
<path d="M57.8013 49.5346C67.6038 49.5346 75.5503 44.1169 75.5503 37.4339C75.5503 30.7509 67.6038 25.3333 57.8013 25.3333C47.9987 25.3333 40.0522 30.7509 40.0522 37.4339C40.0522 44.1169 47.9987 49.5346 57.8013 49.5346Z" fill="white"/>
<path d="M57.8013 49.5346C67.6038 49.5346 75.5503 44.1169 75.5503 37.4339C75.5503 30.7509 67.6038 25.3333 57.8013 25.3333C47.9987 25.3333 40.0522 30.7509 40.0522 37.4339C40.0522 44.1169 47.9987 49.5346 57.8013 49.5346Z" stroke="#222D4E" stroke-width="1.50032" stroke-linejoin="round"/>
<path d="M59.0618 32.9764L54.4365 34.8496L53.6232 34.4088C52.7592 33.938 52.1391 33.6475 51.763 33.5473C51.3868 33.4472 51.031 33.4672 50.6752 33.6074C50.3906 33.7176 50.2991 33.8679 50.3906 34.0582C50.4821 34.2385 50.7566 34.4589 51.214 34.7093C51.9866 35.1301 52.6677 35.3705 53.2675 35.4205C53.8571 35.4706 55.2904 35.4606 57.5573 35.3905C59.4888 35.3204 60.8611 35.3204 61.6947 35.3604C62.5181 35.4105 63.4533 35.5708 64.48 35.8513C65.5067 36.1318 66.564 36.5725 67.6618 37.1735C69.4103 38.1252 70.3862 39.0367 70.5895 39.9082C70.7928 40.7797 70.2236 41.5911 68.8715 42.3624L70.7217 43.3741L68.5971 44.2356L66.6859 43.1938C65.3238 43.6245 63.7379 43.7848 61.9386 43.6847C60.1393 43.5845 58.1469 42.9334 55.9512 41.7313L54.9956 41.2104L59.6209 39.3372L60.8204 39.9984C62.142 40.7196 63.006 41.1503 63.4228 41.2805C63.8396 41.4208 64.2259 41.4108 64.5919 41.2605C64.907 41.1303 65.029 40.98 64.9578 40.7897C64.8867 40.6094 64.6325 40.399 64.1954 40.1586C63.0975 39.5576 62.2334 39.1569 61.6134 38.9566C60.9933 38.7562 59.9869 38.6761 58.5739 38.7162C56.2256 38.7763 54.5686 38.7863 53.6232 38.7562C52.6779 38.7162 51.6105 38.5559 50.4414 38.2754C49.2724 37.9849 48.1745 37.5642 47.1681 37.0133C45.7043 36.2119 44.9419 35.4205 44.8911 34.6492C44.8402 33.8779 45.501 33.1166 46.8632 32.3753L45.2977 31.5139L47.4223 30.6524L48.9878 31.5139C50.6041 31.0431 52.1797 30.8828 53.7147 31.0431C55.2497 31.2033 56.7339 31.6842 58.1876 32.4755C58.3909 32.5857 58.6857 32.756 59.0618 32.9964V32.9764Z" fill="white"/>
<path d="M59.0618 32.9764L54.4365 34.8496L53.6232 34.4088C52.7592 33.938 52.1391 33.6475 51.763 33.5473C51.3868 33.4472 51.031 33.4672 50.6752 33.6074C50.3906 33.7176 50.2991 33.8679 50.3906 34.0582C50.4821 34.2385 50.7566 34.4589 51.214 34.7093C51.9866 35.1301 52.6677 35.3705 53.2675 35.4205C53.8571 35.4706 55.2904 35.4606 57.5573 35.3905C59.4888 35.3204 60.8611 35.3204 61.6947 35.3604C62.5181 35.4105 63.4533 35.5708 64.48 35.8513C65.5067 36.1318 66.564 36.5725 67.6618 37.1735C69.4103 38.1252 70.3862 39.0367 70.5895 39.9082C70.7928 40.7797 70.2236 41.5911 68.8715 42.3624L70.7217 43.3741L68.5971 44.2356L66.6859 43.1938C65.3238 43.6246 63.7379 43.7848 61.9386 43.6847C60.1393 43.5845 58.1469 42.9334 55.9512 41.7313L54.9956 41.2104L59.6209 39.3372L60.8204 39.9984C62.142 40.7196 63.006 41.1503 63.4228 41.2805C63.8396 41.4208 64.2259 41.4108 64.5919 41.2605C64.907 41.1303 65.029 40.98 64.9578 40.7897C64.8867 40.6094 64.6325 40.399 64.1954 40.1586C63.0975 39.5576 62.2334 39.1569 61.6134 38.9566C60.9933 38.7562 59.9869 38.6761 58.5739 38.7162C56.2256 38.7763 54.5686 38.7863 53.6232 38.7562C52.6779 38.7162 51.6105 38.5559 50.4414 38.2754C49.2724 37.9849 48.1745 37.5642 47.1681 37.0133C45.7043 36.2119 44.9419 35.4205 44.8911 34.6492C44.8402 33.8779 45.501 33.1166 46.8632 32.3753L45.2977 31.5139L47.4223 30.6524L48.9878 31.5139C50.6041 31.0431 52.1797 30.8828 53.7147 31.0431C55.2497 31.2033 56.7339 31.6842 58.1876 32.4755C58.3909 32.5857 58.6857 32.756 59.0618 32.9964V32.9764Z" stroke="#222D4E" stroke-width="1.50032" stroke-linejoin="round"/>
<path d="M35.3863 48.3727C33.0178 48.3727 31.0965 49.6849 31.0965 51.2977C31.0965 52.9104 33.0178 54.2227 35.3863 54.2227C37.7549 54.2227 39.6762 52.9104 39.6762 51.2977C39.6762 49.6849 37.7549 48.3727 35.3863 48.3727Z" fill="white"/>
<path d="M79.8604 22.829C77.4918 22.829 75.5706 24.1413 75.5706 25.754C75.5706 27.3668 77.4918 28.679 79.8604 28.679C82.229 28.679 84.1503 27.3668 84.1503 25.754C84.1503 24.1413 82.229 22.829 79.8604 22.829Z" fill="white"/>
<path d="M1.5757 43.8249L40.2352 66.3033C41.882 67.2549 43.9253 67.2549 45.5823 66.3033L111.77 28.2984C112.898 27.6473 112.898 26.0345 111.77 25.3934L71.667 2.27394C70.254 1.46256 68.5157 1.46256 67.1027 2.27394L1.59603 39.6978C-0.0101213 40.6194 -0.020287 42.9033 1.58587 43.8349L1.5757 43.8249Z" fill="white"/>
<path d="M1.5757 43.8249L40.2352 66.3033C41.882 67.2549 43.9253 67.2549 45.5823 66.3033L111.77 28.2984C112.898 27.6473 112.898 26.0345 111.77 25.3934L71.667 2.27394C70.254 1.46256 68.5157 1.46256 67.1027 2.27394L1.59603 39.6978C-0.0101213 40.6194 -0.020287 42.9033 1.58587 43.8349L1.5757 43.8249Z" stroke="#222D4E" stroke-width="1.50032" stroke-linejoin="round"/>
<path d="M1.57567 42.5326L40.2352 65.011C41.882 65.9627 43.9252 65.9627 45.5822 65.011L111.77 27.0061C112.898 26.355 112.898 24.7423 111.77 24.1012L71.667 0.981708C70.254 0.170323 68.5157 0.170323 67.1026 0.981708L1.596 38.4056C-0.0101519 39.3272 -0.0203175 41.6111 1.58584 42.5427L1.57567 42.5326Z" fill="white"/>
<path d="M1.57567 42.5326L40.2352 65.011C41.882 65.9627 43.9252 65.9627 45.5822 65.011L111.77 27.0061C112.898 26.355 112.898 24.7423 111.77 24.1012L71.667 0.981708C70.254 0.170323 68.5157 0.170323 67.1026 0.981708L1.596 38.4056C-0.0101519 39.3272 -0.0203175 41.6111 1.58584 42.5427L1.57567 42.5326Z" stroke="#222D4E" stroke-width="1.50032" stroke-linejoin="round"/>
<path d="M99.1343 25.4134C99.1343 24.2614 99.8662 23.2297 101.025 22.5185L74.2491 7.05206C73.3139 8.23408 71.5044 9.02543 69.4408 9.02543C67.3772 9.02543 65.6287 8.25412 64.6732 7.10215L11.0195 37.5141C12.1885 38.2153 12.9306 39.257 12.9306 40.419C12.9306 41.581 12.2292 42.5527 11.1212 43.2639L38.2631 59.0809C39.2288 57.969 40.9773 57.2277 42.9698 57.2277C44.9622 57.2277 46.8225 58.0191 47.7679 59.1811L101.493 28.5688C100.07 27.8776 99.1343 26.7257 99.1343 25.4234V25.4134Z" fill="#C49339"/>
<path d="M99.1343 25.4134C99.1343 24.2614 99.8662 23.2297 101.025 22.5185L74.2491 7.05206C73.3139 8.23408 71.5044 9.02543 69.4408 9.02543C67.3772 9.02543 65.6287 8.25412 64.6732 7.10215L11.0195 37.5141C12.1885 38.2153 12.9306 39.257 12.9306 40.419C12.9306 41.581 12.2292 42.5527 11.1212 43.2639L38.2631 59.0809C39.2288 57.969 40.9773 57.2277 42.9698 57.2277C44.9622 57.2277 46.8225 58.0191 47.7679 59.1811L101.493 28.5688C100.07 27.8776 99.1343 26.7257 99.1343 25.4234V25.4134Z" stroke="#222D4E" stroke-width="1.50032" stroke-linejoin="round"/>
<path d="M57.8012 43.5244C67.6037 43.5244 75.5502 38.1067 75.5502 31.4237C75.5502 24.7407 67.6037 19.3231 57.8012 19.3231C47.9987 19.3231 40.0522 24.7407 40.0522 31.4237C40.0522 38.1067 47.9987 43.5244 57.8012 43.5244Z" fill="white"/>
<path d="M57.8012 43.5244C67.6037 43.5244 75.5502 38.1067 75.5502 31.4237C75.5502 24.7407 67.6037 19.3231 57.8012 19.3231C47.9987 19.3231 40.0522 24.7407 40.0522 31.4237C40.0522 38.1067 47.9987 43.5244 57.8012 43.5244Z" stroke="#222D4E" stroke-width="1.50032" stroke-linejoin="round"/>
<path d="M59.0618 26.9662L54.4365 28.8394L53.6232 28.3987C52.7591 27.9279 52.139 27.6374 51.7629 27.5372C51.3868 27.437 51.031 27.4571 50.6752 27.5973C50.3906 27.7075 50.2991 27.8578 50.3906 28.0481C50.4821 28.2284 50.7565 28.4488 51.214 28.6992C51.9866 29.1199 52.6677 29.3603 53.2674 29.4104C53.857 29.4605 55.2904 29.4505 57.5573 29.3804C59.4887 29.3102 60.8611 29.3102 61.6946 29.3503C62.518 29.4004 63.4533 29.5607 64.48 29.8411C65.5067 30.1216 66.5639 30.5624 67.6618 31.1634C69.4103 32.115 70.3862 33.0266 70.5895 33.8981C70.7928 34.7696 70.2235 35.5809 68.8715 36.3523L70.7216 37.364L68.597 38.2255L66.6859 37.1837C65.3237 37.6144 63.7379 37.7747 61.9386 37.6745C60.1393 37.5744 58.1469 36.9232 55.9511 35.7212L54.9956 35.2003L59.6209 33.3271L60.8204 33.9882C62.1419 34.7095 63.006 35.1402 63.4228 35.2704C63.8396 35.4107 64.2259 35.4006 64.5918 35.2504C64.907 35.1202 65.0289 34.9699 64.9578 34.7796C64.8866 34.5993 64.6325 34.3889 64.1954 34.1485C63.0975 33.5475 62.2334 33.1468 61.6133 32.9464C60.9932 32.7461 59.9868 32.666 58.5738 32.706C56.2256 32.7661 54.5686 32.7762 53.6232 32.7461C52.6778 32.706 51.6104 32.5458 50.4414 32.2653C49.2724 31.9748 48.1745 31.5541 47.1681 31.0031C45.7043 30.2018 44.9419 29.4104 44.891 28.6391C44.8402 27.8678 45.501 27.1065 46.8631 26.3652L45.2977 25.5037L47.4222 24.6423L48.9877 25.5037C50.6041 25.0329 52.1797 24.8727 53.7147 25.0329C55.2497 25.1932 56.7339 25.674 58.1875 26.4654C58.3908 26.5756 58.6856 26.7459 59.0618 26.9863V26.9662Z" fill="white"/>
<path d="M59.0618 26.9662L54.4365 28.8394L53.6232 28.3987C52.7591 27.9279 52.139 27.6374 51.7629 27.5372C51.3868 27.437 51.031 27.4571 50.6752 27.5973C50.3906 27.7075 50.2991 27.8578 50.3906 28.0481C50.4821 28.2284 50.7565 28.4488 51.214 28.6992C51.9866 29.1199 52.6677 29.3603 53.2674 29.4104C53.857 29.4605 55.2904 29.4505 57.5573 29.3804C59.4887 29.3102 60.8611 29.3102 61.6946 29.3503C62.5181 29.4004 63.4533 29.5607 64.48 29.8411C65.5067 30.1216 66.5639 30.5624 67.6618 31.1634C69.4103 32.115 70.3862 33.0266 70.5895 33.8981C70.7928 34.7696 70.2235 35.5809 68.8715 36.3523L70.7216 37.364L68.597 38.2255L66.6859 37.1837C65.3237 37.6144 63.7379 37.7747 61.9386 37.6745C60.1393 37.5744 58.1469 36.9232 55.9511 35.7212L54.9956 35.2003L59.6209 33.3271L60.8204 33.9882C62.1419 34.7095 63.006 35.1402 63.4228 35.2704C63.8396 35.4107 64.2259 35.4006 64.5918 35.2504C64.907 35.1202 65.0289 34.9699 64.9578 34.7796C64.8866 34.5993 64.6325 34.3889 64.1954 34.1485C63.0975 33.5475 62.2334 33.1468 61.6133 32.9464C60.9932 32.7461 59.9868 32.666 58.5738 32.706C56.2256 32.7661 54.5686 32.7762 53.6232 32.7461C52.6778 32.706 51.6104 32.5458 50.4414 32.2653C49.2724 31.9748 48.1745 31.5541 47.1681 31.0031C45.7043 30.2018 44.9419 29.4104 44.891 28.6391C44.8402 27.8678 45.501 27.1065 46.8631 26.3652L45.2977 25.5037L47.4222 24.6423L48.9877 25.5037C50.6041 25.0329 52.1797 24.8727 53.7147 25.0329C55.2497 25.1932 56.7339 25.674 58.1875 26.4654C58.3908 26.5756 58.6856 26.7459 59.0618 26.9863V26.9662Z" stroke="#222D4E" stroke-width="1.50032" stroke-linejoin="round"/>
<path d="M35.3863 42.3624C33.0177 42.3624 31.0964 43.6747 31.0964 45.2874C31.0964 46.9002 33.0177 48.2124 35.3863 48.2124C37.7549 48.2124 39.6761 46.9002 39.6761 45.2874C39.6761 43.6747 37.7549 42.3624 35.3863 42.3624Z" fill="white"/>
<path d="M79.8603 16.8188C77.4918 16.8188 75.5705 18.131 75.5705 19.7438C75.5705 21.3565 77.4918 22.6688 79.8603 22.6688C82.2289 22.6688 84.1502 21.3565 84.1502 19.7438C84.1502 18.131 82.2289 16.8188 79.8603 16.8188Z" fill="white"/>
</g>
<defs>
<clipPath id="clip0_1_151">
<rect width="113" height="82" fill="white"/>
</clipPath>
</defs>
</svg>
