<svg width="566" height="441" viewBox="0 0 566 441" fill="none" xmlns="http://www.w3.org/2000/svg">
<path d="M350.858 315.481L346.767 383.285H368.686M387.098 315.481L390.605 383.285H368.686M368.686 383.285H341.506C341.056 389.52 337.322 403.626 325.983 410.173C318.762 416.252 322.023 422.837 324.556 425.37H412.817C416.129 423.032 420.533 416.719 411.648 410.173C400.542 401.99 396.451 392.053 396.451 388.546C396.451 385.74 396.451 383.87 396.451 383.285H368.686Z" stroke="#282828" stroke-width="1.16903"/>
<path d="M385.345 245.34C390.605 245.34 391.774 249.432 392.943 254.693C392.943 247.211 398.789 245.34 401.711 245.34L388.267 293.855H347.936C346.572 287.23 342.325 268.253 336.246 245.34C343.727 245.34 345.208 251.575 345.013 254.693C345.013 250.016 347.936 245.34 352.612 245.34M385.345 245.34C380.084 245.34 377.162 249.432 376.577 254.693C376.577 249.432 374.824 245.34 368.978 245.34C364.302 245.34 361.575 251.575 360.795 254.693C360.795 248.847 357.288 245.34 352.612 245.34M385.345 245.34V243.002C385.345 240.42 383.251 238.326 380.669 238.326H377.162M352.612 245.34V243.002C352.612 240.42 354.706 238.326 357.288 238.326H360.795M360.795 238.326C360.795 237.547 360.795 235.053 360.795 231.312C360.795 226.636 366.056 225.467 368.978 225.467C371.901 225.467 377.162 227.22 377.162 231.312C377.162 234.585 377.162 237.352 377.162 238.326M360.795 238.326H377.162" stroke="#282828" stroke-width="1.16903"/>
<path d="M349.105 265.214L353.781 280.996" stroke="#282828" stroke-width="1.16903"/>
<path d="M215.251 337.693C215.641 342.954 216.42 354.644 216.42 359.32C216.676 365.733 213.779 373.26 210.274 379.778M205.899 409.004C204.34 407.64 200.989 404.211 200.054 401.405C199.118 398.599 200.833 394.391 201.807 392.637C204.094 389.823 207.389 385.142 210.274 379.778M205.899 409.004C203.95 410.173 200.054 412.978 200.054 414.849C200.054 417.187 209.991 418.356 217.005 418.356C224.019 418.356 253.829 416.018 258.505 414.849C263.181 413.68 268.442 408.419 259.674 405.497M205.899 409.004C210.185 409.783 221.681 410.991 233.371 409.588C245.061 408.185 255.777 406.276 259.674 405.497M259.674 405.497C261.233 405.107 264.467 403.509 264.935 400.236C265.519 396.144 265.519 392.637 259.674 386.792C257.555 384.673 254.591 381.017 251.645 376.855M239.216 336.524C239.606 340.421 240.502 349.734 240.97 355.813C241.342 360.657 246.465 369.538 251.645 376.855M210.274 379.778C213.491 381.337 222.733 384.103 233.956 382.701C245.178 381.298 250.425 378.219 251.645 376.855M253.245 386.792C255.193 388.351 258.505 392.637 256.167 397.313C253.829 401.99 247.789 401.99 245.061 401.405M232.787 309.052C234.735 312.169 237.112 319.105 231.033 321.911" stroke="#282828" stroke-width="1.16903"/>
<path d="M204.73 220.791L232.202 278.073M202.976 189.812L250.322 283.334M216.42 329.51C213.692 327.367 208.237 321.444 208.237 314.898C208.237 306.714 212.329 297.362 225.188 297.362C238.047 297.362 242.139 305.545 242.139 313.729C242.139 320.275 237.073 326.198 234.54 328.341" stroke="#282828" stroke-width="1.16903"/>
<path d="M164.983 187.473L143.51 402.2C142.835 408.956 148.64 414.573 155.37 413.676L177.258 410.758M166.737 216.114L150.879 393.278C150.304 399.702 155.592 405.126 162.029 404.715L177.258 403.743" stroke="#282828" stroke-width="1.16903"/>
<path d="M172.582 78.1689H170.244C164.21 78.1689 159.412 83.2333 159.738 89.2586L177.888 424.77C178.19 430.351 182.804 434.723 188.394 434.723H188.948" stroke="#282828" stroke-width="1.16903"/>
<path d="M246.362 77H176.083C170.051 77 165.254 82.0608 165.577 88.0841L183.666 425.757C183.993 431.862 189.437 436.403 195.501 435.632L270.85 426.042C276.386 425.337 280.409 420.431 280.016 414.864L256.858 86.7804C256.469 81.2709 251.886 77 246.362 77Z" stroke="#282828" stroke-width="1.16903"/>
<path d="M241.14 82.2607H180.174C174.142 82.2607 169.345 87.3212 169.668 93.3442L187.167 420.364C187.496 426.517 193.019 431.072 199.122 430.223L266.264 420.885C271.762 420.121 275.72 415.217 275.307 409.682L251.632 92.0001C251.223 86.5079 246.648 82.2607 241.14 82.2607Z" stroke="#282828" stroke-width="1.16903"/>
<rect x="205.339" y="329.477" width="39.747" height="8.38823" rx="4.19412" transform="rotate(-2.44546 205.339 329.477)" stroke="#282828" stroke-width="1.16903"/>
<rect x="339.753" y="293.855" width="58.4514" height="10.5213" rx="5.26063" stroke="#282828" stroke-width="1.16903"/>
<rect x="336.246" y="304.376" width="65.4656" height="10.5213" rx="5.26063" stroke="#282828" stroke-width="1.16903"/>
<rect x="317.541" y="425.955" width="102.875" height="9.35223" rx="4.67611" stroke="#282828" stroke-width="1.16903"/>
</svg>
