<svg width="771" height="298" viewBox="0 0 771 298" fill="none" xmlns="http://www.w3.org/2000/svg">
<path d="M5.242 162.426L15 166.108L15 167.578L5.242 171.26L5.242 169.902L13.656 166.836L5.242 163.77L5.242 162.426ZM11.136 161.755C10.352 161.755 9.666 161.597 9.078 161.279C8.48067 160.962 8.01867 160.528 7.692 159.977C7.36533 159.417 7.202 158.797 7.202 158.115C7.202 157.443 7.34667 156.86 7.636 156.365C7.92533 155.871 8.28933 155.502 8.728 155.259L7.328 155.259L7.328 153.971L15 153.971L15 155.259L13.572 155.259C14.02 155.511 14.3933 155.889 14.692 156.393C14.9813 156.888 15.126 157.467 15.126 158.129C15.126 158.811 14.958 159.427 14.622 159.977C14.286 160.528 13.8147 160.962 13.208 161.279C12.6013 161.597 11.9107 161.755 11.136 161.755ZM11.15 155.259C10.5713 155.259 10.0673 155.376 9.638 155.609C9.20867 155.843 8.882 156.16 8.658 156.561C8.42467 156.953 8.308 157.387 8.308 157.863C8.308 158.339 8.42 158.773 8.644 159.165C8.868 159.557 9.19467 159.87 9.624 160.103C10.0533 160.337 10.5573 160.453 11.136 160.453C11.724 160.453 12.2373 160.337 12.676 160.103C13.1053 159.87 13.4367 159.557 13.67 159.165C13.894 158.773 14.006 158.339 14.006 157.863C14.006 157.387 13.894 156.953 13.67 156.561C13.4367 156.16 13.1053 155.843 12.676 155.609C12.2373 155.376 11.7287 155.259 11.15 155.259ZM4.64 150.794L15 150.794L15 152.068L4.64 152.068L4.64 150.794ZM7.328 142.069L15 142.069L15 143.343L13.866 143.343C14.258 143.586 14.566 143.927 14.79 144.365C15.0047 144.795 15.112 145.271 15.112 145.793C15.112 146.391 14.9907 146.927 14.748 147.403C14.496 147.879 14.1227 148.257 13.628 148.537C13.1333 148.808 12.5313 148.943 11.822 148.943L7.328 148.943L7.328 147.683L11.654 147.683C12.41 147.683 12.9933 147.492 13.404 147.109C13.8053 146.727 14.006 146.204 14.006 145.541C14.006 144.86 13.796 144.323 13.376 143.931C12.956 143.539 12.3447 143.343 11.542 143.343L7.328 143.343L7.328 142.069ZM10.87 133.168C11.1127 133.168 11.3693 133.182 11.64 133.21L11.64 139.342C12.396 139.295 12.9887 139.039 13.418 138.572C13.838 138.096 14.048 137.522 14.048 136.85C14.048 136.299 13.922 135.842 13.67 135.478C13.4087 135.105 13.0633 134.843 12.634 134.694L12.634 133.322C13.3713 133.527 13.9733 133.938 14.44 134.554C14.8973 135.17 15.126 135.935 15.126 136.85C15.126 137.578 14.9627 138.231 14.636 138.81C14.3093 139.379 13.8473 139.827 13.25 140.154C12.6433 140.481 11.9433 140.644 11.15 140.644C10.3567 140.644 9.66133 140.485 9.064 140.168C8.46666 139.851 8.00933 139.407 7.692 138.838C7.36533 138.259 7.202 137.597 7.202 136.85C7.202 136.122 7.36066 135.478 7.678 134.918C7.99533 134.358 8.434 133.929 8.994 133.63C9.54466 133.322 10.17 133.168 10.87 133.168ZM10.604 134.484C10.1187 134.484 9.70333 134.591 9.358 134.806C9.00333 135.021 8.73733 135.315 8.56 135.688C8.37333 136.052 8.28 136.458 8.28 136.906C8.28 137.55 8.48533 138.101 8.896 138.558C9.30666 139.006 9.876 139.263 10.604 139.328L10.604 134.484ZM15.126 129.02C15.126 129.608 15.028 130.136 14.832 130.602C14.6267 131.069 14.3467 131.438 13.992 131.708C13.628 131.979 13.2127 132.128 12.746 132.156L12.746 130.84C13.1287 130.803 13.4413 130.626 13.684 130.308C13.9267 129.982 14.048 129.557 14.048 129.034C14.048 128.549 13.9407 128.166 13.726 127.886C13.5113 127.606 13.2407 127.466 12.914 127.466C12.578 127.466 12.3307 127.616 12.172 127.914C12.004 128.213 11.8407 128.675 11.682 129.3C11.5327 129.87 11.3833 130.336 11.234 130.7C11.0753 131.055 10.8467 131.363 10.548 131.624C10.24 131.876 9.83866 132.002 9.344 132.002C8.952 132.002 8.59266 131.886 8.266 131.652C7.93933 131.419 7.68266 131.088 7.496 130.658C7.3 130.229 7.202 129.739 7.202 129.188C7.202 128.339 7.41666 127.653 7.846 127.13C8.27533 126.608 8.86333 126.328 9.61 126.29L9.61 127.564C9.20866 127.592 8.88666 127.756 8.644 128.054C8.40133 128.344 8.28 128.736 8.28 129.23C8.28 129.688 8.378 130.052 8.574 130.322C8.77 130.593 9.02666 130.728 9.344 130.728C9.596 130.728 9.806 130.649 9.974 130.49C10.1327 130.322 10.2633 130.117 10.366 129.874C10.4593 129.622 10.5667 129.277 10.688 128.838C10.8373 128.288 10.9867 127.84 11.136 127.494C11.276 127.149 11.4907 126.855 11.78 126.612C12.0693 126.36 12.4473 126.23 12.914 126.22C13.334 126.22 13.712 126.337 14.048 126.57C14.384 126.804 14.65 127.135 14.846 127.564C15.0327 127.984 15.126 128.47 15.126 129.02Z" fill="black"/>
<path d="M33.8427 5.32V4.324H36.0987V13H34.9947V5.32H33.8427ZM38.2525 13.072C38.0445 13.072 37.8685 13 37.7245 12.856C37.5805 12.712 37.5085 12.536 37.5085 12.328C37.5085 12.12 37.5805 11.944 37.7245 11.8C37.8685 11.656 38.0445 11.584 38.2525 11.584C38.4525 11.584 38.6205 11.656 38.7565 11.8C38.9005 11.944 38.9725 12.12 38.9725 12.328C38.9725 12.536 38.9005 12.712 38.7565 12.856C38.6205 13 38.4525 13.072 38.2525 13.072ZM39.994 8.572C39.994 7.196 40.218 6.124 40.666 5.356C41.114 4.58 41.898 4.192 43.018 4.192C44.13 4.192 44.91 4.58 45.358 5.356C45.806 6.124 46.03 7.196 46.03 8.572C46.03 9.972 45.806 11.06 45.358 11.836C44.91 12.612 44.13 13 43.018 13C41.898 13 41.114 12.612 40.666 11.836C40.218 11.06 39.994 9.972 39.994 8.572ZM44.95 8.572C44.95 7.876 44.902 7.288 44.806 6.808C44.718 6.32 44.53 5.928 44.242 5.632C43.962 5.336 43.554 5.188 43.018 5.188C42.474 5.188 42.058 5.336 41.77 5.632C41.49 5.928 41.302 6.32 41.206 6.808C41.118 7.288 41.074 7.876 41.074 8.572C41.074 9.292 41.118 9.896 41.206 10.384C41.302 10.872 41.49 11.264 41.77 11.56C42.058 11.856 42.474 12.004 43.018 12.004C43.554 12.004 43.962 11.856 44.242 11.56C44.53 11.264 44.718 10.872 44.806 10.384C44.902 9.896 44.95 9.292 44.95 8.572ZM52.8112 5.272H48.5992V8.008C48.7832 7.752 49.0552 7.544 49.4152 7.384C49.7752 7.216 50.1632 7.132 50.5792 7.132C51.2432 7.132 51.7832 7.272 52.1992 7.552C52.6152 7.824 52.9112 8.18 53.0872 8.62C53.2712 9.052 53.3632 9.512 53.3632 10C53.3632 10.576 53.2552 11.092 53.0392 11.548C52.8232 12.004 52.4912 12.364 52.0432 12.628C51.6032 12.892 51.0552 13.024 50.3992 13.024C49.5592 13.024 48.8792 12.808 48.3592 12.376C47.8392 11.944 47.5232 11.368 47.4112 10.648H48.4792C48.5832 11.104 48.8032 11.46 49.1392 11.716C49.4752 11.972 49.8992 12.1 50.4112 12.1C51.0432 12.1 51.5192 11.912 51.8392 11.536C52.1592 11.152 52.3192 10.648 52.3192 10.024C52.3192 9.4 52.1592 8.92 51.8392 8.584C51.5192 8.24 51.0472 8.068 50.4232 8.068C49.9992 8.068 49.6272 8.172 49.3072 8.38C48.9952 8.58 48.7672 8.856 48.6232 9.208H47.5912V4.312H52.8112V5.272ZM55.8363 12.112H58.7643V13H54.7443V4.636H55.8363V12.112Z" fill="#666666"/>
<path d="M69 9H771" stroke="#E2E2E2"/>
<path d="M69 9H771" stroke="#E2E2E2"/>
<path d="M50.6826 75.32V74.324H52.9386V83H51.8346V75.32H50.6826ZM55.8363 82.112H58.7643V83H54.7443V74.636H55.8363V82.112Z" fill="#666666"/>
<path d="M69 79H771" stroke="#E2E2E2"/>
<path d="M69 79H771" stroke="#E2E2E2"/>
<path d="M30.4159 148.572C30.4159 147.196 30.6399 146.124 31.0879 145.356C31.5359 144.58 32.3199 144.192 33.4399 144.192C34.5519 144.192 35.3319 144.58 35.7799 145.356C36.2279 146.124 36.4519 147.196 36.4519 148.572C36.4519 149.972 36.2279 151.06 35.7799 151.836C35.3319 152.612 34.5519 153 33.4399 153C32.3199 153 31.5359 152.612 31.0879 151.836C30.6399 151.06 30.4159 149.972 30.4159 148.572ZM35.3719 148.572C35.3719 147.876 35.3239 147.288 35.2279 146.808C35.1399 146.32 34.9519 145.928 34.6639 145.632C34.3839 145.336 33.9759 145.188 33.4399 145.188C32.8959 145.188 32.4799 145.336 32.1919 145.632C31.9119 145.928 31.7239 146.32 31.6279 146.808C31.5399 147.288 31.4959 147.876 31.4959 148.572C31.4959 149.292 31.5399 149.896 31.6279 150.384C31.7239 150.872 31.9119 151.264 32.1919 151.56C32.4799 151.856 32.8959 152.004 33.4399 152.004C33.9759 152.004 34.3839 151.856 34.6639 151.56C34.9519 151.264 35.1399 150.872 35.2279 150.384C35.3239 149.896 35.3719 149.292 35.3719 148.572ZM38.229 153.072C38.021 153.072 37.845 153 37.701 152.856C37.557 152.712 37.485 152.536 37.485 152.328C37.485 152.12 37.557 151.944 37.701 151.8C37.845 151.656 38.021 151.584 38.229 151.584C38.429 151.584 38.597 151.656 38.733 151.8C38.877 151.944 38.949 152.12 38.949 152.328C38.949 152.536 38.877 152.712 38.733 152.856C38.597 153 38.429 153.072 38.229 153.072ZM41.3746 150.672C41.4546 151.128 41.6386 151.48 41.9266 151.728C42.2226 151.976 42.6186 152.1 43.1146 152.1C43.7786 152.1 44.2666 151.84 44.5786 151.32C44.8986 150.8 45.0506 149.924 45.0346 148.692C44.8666 149.052 44.5866 149.336 44.1946 149.544C43.8026 149.744 43.3666 149.844 42.8866 149.844C42.3506 149.844 41.8706 149.736 41.4466 149.52C41.0306 149.296 40.7026 148.972 40.4626 148.548C40.2226 148.124 40.1026 147.612 40.1026 147.012C40.1026 146.156 40.3506 145.468 40.8466 144.948C41.3426 144.42 42.0466 144.156 42.9586 144.156C44.0786 144.156 44.8626 144.52 45.3106 145.248C45.7666 145.976 45.9946 147.06 45.9946 148.5C45.9946 149.508 45.9026 150.34 45.7186 150.996C45.5426 151.652 45.2386 152.152 44.8066 152.496C44.3826 152.84 43.7986 153.012 43.0546 153.012C42.2386 153.012 41.6026 152.792 41.1466 152.352C40.6906 151.912 40.4306 151.352 40.3666 150.672H41.3746ZM43.0666 148.92C43.6026 148.92 44.0426 148.756 44.3866 148.428C44.7306 148.092 44.9026 147.64 44.9026 147.072C44.9026 146.472 44.7346 145.988 44.3986 145.62C44.0626 145.252 43.5906 145.068 42.9826 145.068C42.4226 145.068 41.9746 145.244 41.6386 145.596C41.3106 145.948 41.1466 146.412 41.1466 146.988C41.1466 147.572 41.3106 148.04 41.6386 148.392C41.9666 148.744 42.4426 148.92 43.0666 148.92ZM52.8112 145.272H48.5992V148.008C48.7832 147.752 49.0552 147.544 49.4152 147.384C49.7752 147.216 50.1632 147.132 50.5792 147.132C51.2432 147.132 51.7832 147.272 52.1992 147.552C52.6152 147.824 52.9112 148.18 53.0872 148.62C53.2712 149.052 53.3632 149.512 53.3632 150C53.3632 150.576 53.2552 151.092 53.0392 151.548C52.8232 152.004 52.4912 152.364 52.0432 152.628C51.6032 152.892 51.0552 153.024 50.3992 153.024C49.5592 153.024 48.8792 152.808 48.3592 152.376C47.8392 151.944 47.5232 151.368 47.4112 150.648H48.4792C48.5832 151.104 48.8032 151.46 49.1392 151.716C49.4752 151.972 49.8992 152.1 50.4112 152.1C51.0432 152.1 51.5192 151.912 51.8392 151.536C52.1592 151.152 52.3192 150.648 52.3192 150.024C52.3192 149.4 52.1592 148.92 51.8392 148.584C51.5192 148.24 51.0472 148.068 50.4232 148.068C49.9992 148.068 49.6272 148.172 49.3072 148.38C48.9952 148.58 48.7672 148.856 48.6232 149.208H47.5912V144.312H52.8112V145.272ZM55.8363 152.112H58.7643V153H54.7443V144.636H55.8363V152.112Z" fill="#666666"/>
<path d="M69 149H771" stroke="#E2E2E2"/>
<path d="M69 149H771" stroke="#E2E2E2"/>
<path d="M37.701 218.572C37.701 217.196 37.925 216.124 38.373 215.356C38.821 214.58 39.605 214.192 40.725 214.192C41.837 214.192 42.617 214.58 43.065 215.356C43.513 216.124 43.737 217.196 43.737 218.572C43.737 219.972 43.513 221.06 43.065 221.836C42.617 222.612 41.837 223 40.725 223C39.605 223 38.821 222.612 38.373 221.836C37.925 221.06 37.701 219.972 37.701 218.572ZM42.657 218.572C42.657 217.876 42.609 217.288 42.513 216.808C42.425 216.32 42.237 215.928 41.949 215.632C41.669 215.336 41.261 215.188 40.725 215.188C40.181 215.188 39.765 215.336 39.477 215.632C39.197 215.928 39.009 216.32 38.913 216.808C38.825 217.288 38.781 217.876 38.781 218.572C38.781 219.292 38.825 219.896 38.913 220.384C39.009 220.872 39.197 221.264 39.477 221.56C39.765 221.856 40.181 222.004 40.725 222.004C41.261 222.004 41.669 221.856 41.949 221.56C42.237 221.264 42.425 220.872 42.513 220.384C42.609 219.896 42.657 219.292 42.657 218.572ZM45.5142 223.072C45.3062 223.072 45.1302 223 44.9862 222.856C44.8422 222.712 44.7702 222.536 44.7702 222.328C44.7702 222.12 44.8422 221.944 44.9862 221.8C45.1302 221.656 45.3062 221.584 45.5142 221.584C45.7142 221.584 45.8822 221.656 46.0182 221.8C46.1622 221.944 46.2342 222.12 46.2342 222.328C46.2342 222.536 46.1622 222.712 46.0182 222.856C45.8822 223 45.7142 223.072 45.5142 223.072ZM48.6597 220.672C48.7397 221.128 48.9237 221.48 49.2117 221.728C49.5077 221.976 49.9037 222.1 50.3997 222.1C51.0637 222.1 51.5517 221.84 51.8637 221.32C52.1837 220.8 52.3357 219.924 52.3197 218.692C52.1517 219.052 51.8717 219.336 51.4797 219.544C51.0877 219.744 50.6517 219.844 50.1717 219.844C49.6357 219.844 49.1557 219.736 48.7317 219.52C48.3157 219.296 47.9877 218.972 47.7477 218.548C47.5077 218.124 47.3877 217.612 47.3877 217.012C47.3877 216.156 47.6357 215.468 48.1317 214.948C48.6277 214.42 49.3317 214.156 50.2437 214.156C51.3637 214.156 52.1477 214.52 52.5957 215.248C53.0517 215.976 53.2797 217.06 53.2797 218.5C53.2797 219.508 53.1877 220.34 53.0037 220.996C52.8277 221.652 52.5237 222.152 52.0917 222.496C51.6677 222.84 51.0837 223.012 50.3397 223.012C49.5237 223.012 48.8877 222.792 48.4317 222.352C47.9757 221.912 47.7157 221.352 47.6517 220.672H48.6597ZM50.3517 218.92C50.8877 218.92 51.3277 218.756 51.6717 218.428C52.0157 218.092 52.1877 217.64 52.1877 217.072C52.1877 216.472 52.0197 215.988 51.6837 215.62C51.3477 215.252 50.8757 215.068 50.2677 215.068C49.7077 215.068 49.2597 215.244 48.9237 215.596C48.5957 215.948 48.4317 216.412 48.4317 216.988C48.4317 217.572 48.5957 218.04 48.9237 218.392C49.2517 218.744 49.7277 218.92 50.3517 218.92ZM55.8363 222.112H58.7643V223H54.7443V214.636H55.8363V222.112Z" fill="#666666"/>
<path d="M69 219H771" stroke="#E2E2E2"/>
<path d="M69 219H771" stroke="#E2E2E2"/>
<path d="M30.4042 288.572C30.4042 287.196 30.6282 286.124 31.0762 285.356C31.5242 284.58 32.3082 284.192 33.4282 284.192C34.5402 284.192 35.3202 284.58 35.7682 285.356C36.2162 286.124 36.4402 287.196 36.4402 288.572C36.4402 289.972 36.2162 291.06 35.7682 291.836C35.3202 292.612 34.5402 293 33.4282 293C32.3082 293 31.5242 292.612 31.0762 291.836C30.6282 291.06 30.4042 289.972 30.4042 288.572ZM35.3602 288.572C35.3602 287.876 35.3122 287.288 35.2162 286.808C35.1282 286.32 34.9402 285.928 34.6522 285.632C34.3722 285.336 33.9642 285.188 33.4282 285.188C32.8842 285.188 32.4682 285.336 32.1802 285.632C31.9002 285.928 31.7122 286.32 31.6162 286.808C31.5282 287.288 31.4842 287.876 31.4842 288.572C31.4842 289.292 31.5282 289.896 31.6162 290.384C31.7122 290.872 31.9002 291.264 32.1802 291.56C32.4682 291.856 32.8842 292.004 33.4282 292.004C33.9642 292.004 34.3722 291.856 34.6522 291.56C34.9402 291.264 35.1282 290.872 35.2162 290.384C35.3122 289.896 35.3602 289.292 35.3602 288.572ZM38.2173 293.072C38.0093 293.072 37.8333 293 37.6893 292.856C37.5453 292.712 37.4733 292.536 37.4733 292.328C37.4733 292.12 37.5453 291.944 37.6893 291.8C37.8333 291.656 38.0093 291.584 38.2173 291.584C38.4173 291.584 38.5853 291.656 38.7213 291.8C38.8653 291.944 38.9373 292.12 38.9373 292.328C38.9373 292.536 38.8653 292.712 38.7213 292.856C38.5853 293 38.4173 293.072 38.2173 293.072ZM41.5428 288.488C41.0948 288.312 40.7508 288.056 40.5108 287.72C40.2708 287.384 40.1508 286.976 40.1508 286.496C40.1508 286.064 40.2588 285.676 40.4748 285.332C40.6908 284.98 41.0108 284.704 41.4348 284.504C41.8668 284.296 42.3868 284.192 42.9948 284.192C43.6028 284.192 44.1188 284.296 44.5428 284.504C44.9748 284.704 45.2988 284.98 45.5148 285.332C45.7388 285.676 45.8508 286.064 45.8508 286.496C45.8508 286.96 45.7268 287.368 45.4788 287.72C45.2308 288.064 44.8908 288.32 44.4588 288.488C44.9548 288.64 45.3468 288.908 45.6348 289.292C45.9308 289.668 46.0788 290.124 46.0788 290.66C46.0788 291.18 45.9508 291.636 45.6948 292.028C45.4388 292.412 45.0748 292.712 44.6028 292.928C44.1388 293.136 43.6028 293.24 42.9948 293.24C42.3868 293.24 41.8508 293.136 41.3868 292.928C40.9308 292.712 40.5748 292.412 40.3188 292.028C40.0628 291.636 39.9348 291.18 39.9348 290.66C39.9348 290.124 40.0788 289.664 40.3668 289.28C40.6548 288.896 41.0468 288.632 41.5428 288.488ZM44.7948 286.628C44.7948 286.14 44.6348 285.764 44.3148 285.5C43.9948 285.236 43.5548 285.104 42.9948 285.104C42.4428 285.104 42.0068 285.236 41.6868 285.5C41.3668 285.764 41.2068 286.144 41.2068 286.64C41.2068 287.088 41.3708 287.448 41.6988 287.72C42.0348 287.992 42.4668 288.128 42.9948 288.128C43.5308 288.128 43.9628 287.992 44.2908 287.72C44.6268 287.44 44.7948 287.076 44.7948 286.628ZM42.9948 288.968C42.4028 288.968 41.9188 289.108 41.5428 289.388C41.1668 289.66 40.9788 290.072 40.9788 290.624C40.9788 291.136 41.1588 291.548 41.5188 291.86C41.8868 292.172 42.3788 292.328 42.9948 292.328C43.6108 292.328 44.0988 292.172 44.4588 291.86C44.8188 291.548 44.9988 291.136 44.9988 290.624C44.9988 290.088 44.8148 289.68 44.4468 289.4C44.0788 289.112 43.5948 288.968 42.9948 288.968ZM52.8112 285.272H48.5992V288.008C48.7832 287.752 49.0552 287.544 49.4152 287.384C49.7752 287.216 50.1632 287.132 50.5792 287.132C51.2432 287.132 51.7832 287.272 52.1992 287.552C52.6152 287.824 52.9112 288.18 53.0872 288.62C53.2712 289.052 53.3632 289.512 53.3632 290C53.3632 290.576 53.2552 291.092 53.0392 291.548C52.8232 292.004 52.4912 292.364 52.0432 292.628C51.6032 292.892 51.0552 293.024 50.3992 293.024C49.5592 293.024 48.8792 292.808 48.3592 292.376C47.8392 291.944 47.5232 291.368 47.4112 290.648H48.4792C48.5832 291.104 48.8032 291.46 49.1392 291.716C49.4752 291.972 49.8992 292.1 50.4112 292.1C51.0432 292.1 51.5192 291.912 51.8392 291.536C52.1592 291.152 52.3192 290.648 52.3192 290.024C52.3192 289.4 52.1592 288.92 51.8392 288.584C51.5192 288.24 51.0472 288.068 50.4232 288.068C49.9992 288.068 49.6272 288.172 49.3072 288.38C48.9952 288.58 48.7672 288.856 48.6232 289.208H47.5912V284.312H52.8112V285.272ZM55.8363 292.112H58.7643V293H54.7443V284.636H55.8363V292.112Z" fill="#666666"/>
<path d="M69 289H771" stroke="#666666"/>
</svg>
