<svg width="771" height="323" viewBox="0 0 771 323" fill="none" xmlns="http://www.w3.org/2000/svg">
<path d="M5.242 162.426L15 166.108L15 167.578L5.242 171.26L5.242 169.902L13.656 166.836L5.242 163.77L5.242 162.426ZM11.136 161.755C10.352 161.755 9.666 161.597 9.078 161.279C8.48067 160.962 8.01867 160.528 7.692 159.977C7.36533 159.417 7.202 158.797 7.202 158.115C7.202 157.443 7.34667 156.86 7.636 156.365C7.92533 155.871 8.28933 155.502 8.728 155.259L7.328 155.259L7.328 153.971L15 153.971L15 155.259L13.572 155.259C14.02 155.511 14.3933 155.889 14.692 156.393C14.9813 156.888 15.126 157.467 15.126 158.129C15.126 158.811 14.958 159.427 14.622 159.977C14.286 160.528 13.8147 160.962 13.208 161.279C12.6013 161.597 11.9107 161.755 11.136 161.755ZM11.15 155.259C10.5713 155.259 10.0673 155.376 9.638 155.609C9.20867 155.843 8.882 156.16 8.658 156.561C8.42467 156.953 8.308 157.387 8.308 157.863C8.308 158.339 8.42 158.773 8.644 159.165C8.868 159.557 9.19467 159.87 9.624 160.103C10.0533 160.337 10.5573 160.453 11.136 160.453C11.724 160.453 12.2373 160.337 12.676 160.103C13.1053 159.87 13.4367 159.557 13.67 159.165C13.894 158.773 14.006 158.339 14.006 157.863C14.006 157.387 13.894 156.953 13.67 156.561C13.4367 156.16 13.1053 155.843 12.676 155.609C12.2373 155.376 11.7287 155.259 11.15 155.259ZM4.64 150.794L15 150.794L15 152.068L4.64 152.068L4.64 150.794ZM7.328 142.069L15 142.069L15 143.343L13.866 143.343C14.258 143.586 14.566 143.927 14.79 144.365C15.0047 144.795 15.112 145.271 15.112 145.793C15.112 146.391 14.9907 146.927 14.748 147.403C14.496 147.879 14.1227 148.257 13.628 148.537C13.1333 148.808 12.5313 148.943 11.822 148.943L7.328 148.943L7.328 147.683L11.654 147.683C12.41 147.683 12.9933 147.492 13.404 147.109C13.8053 146.727 14.006 146.204 14.006 145.541C14.006 144.86 13.796 144.323 13.376 143.931C12.956 143.539 12.3447 143.343 11.542 143.343L7.328 143.343L7.328 142.069ZM10.87 133.168C11.1127 133.168 11.3693 133.182 11.64 133.21L11.64 139.342C12.396 139.295 12.9887 139.039 13.418 138.572C13.838 138.096 14.048 137.522 14.048 136.85C14.048 136.299 13.922 135.842 13.67 135.478C13.4087 135.105 13.0633 134.843 12.634 134.694L12.634 133.322C13.3713 133.527 13.9733 133.938 14.44 134.554C14.8973 135.17 15.126 135.935 15.126 136.85C15.126 137.578 14.9627 138.231 14.636 138.81C14.3093 139.379 13.8473 139.827 13.25 140.154C12.6433 140.481 11.9433 140.644 11.15 140.644C10.3567 140.644 9.66133 140.485 9.064 140.168C8.46666 139.851 8.00933 139.407 7.692 138.838C7.36533 138.259 7.202 137.597 7.202 136.85C7.202 136.122 7.36066 135.478 7.678 134.918C7.99533 134.358 8.434 133.929 8.994 133.63C9.54466 133.322 10.17 133.168 10.87 133.168ZM10.604 134.484C10.1187 134.484 9.70333 134.591 9.358 134.806C9.00333 135.021 8.73733 135.315 8.56 135.688C8.37333 136.052 8.28 136.458 8.28 136.906C8.28 137.55 8.48533 138.101 8.896 138.558C9.30666 139.006 9.876 139.263 10.604 139.328L10.604 134.484ZM15.126 129.02C15.126 129.608 15.028 130.136 14.832 130.602C14.6267 131.069 14.3467 131.438 13.992 131.708C13.628 131.979 13.2127 132.128 12.746 132.156L12.746 130.84C13.1287 130.803 13.4413 130.626 13.684 130.308C13.9267 129.982 14.048 129.557 14.048 129.034C14.048 128.549 13.9407 128.166 13.726 127.886C13.5113 127.606 13.2407 127.466 12.914 127.466C12.578 127.466 12.3307 127.616 12.172 127.914C12.004 128.213 11.8407 128.675 11.682 129.3C11.5327 129.87 11.3833 130.336 11.234 130.7C11.0753 131.055 10.8467 131.363 10.548 131.624C10.24 131.876 9.83866 132.002 9.344 132.002C8.952 132.002 8.59266 131.886 8.266 131.652C7.93933 131.419 7.68266 131.088 7.496 130.658C7.3 130.229 7.202 129.739 7.202 129.188C7.202 128.339 7.41666 127.653 7.846 127.13C8.27533 126.608 8.86333 126.328 9.61 126.29L9.61 127.564C9.20866 127.592 8.88666 127.756 8.644 128.054C8.40133 128.344 8.28 128.736 8.28 129.23C8.28 129.688 8.378 130.052 8.574 130.322C8.77 130.593 9.02666 130.728 9.344 130.728C9.596 130.728 9.806 130.649 9.974 130.49C10.1327 130.322 10.2633 130.117 10.366 129.874C10.4593 129.622 10.5667 129.277 10.688 128.838C10.8373 128.288 10.9867 127.84 11.136 127.494C11.276 127.149 11.4907 126.855 11.78 126.612C12.0693 126.36 12.4473 126.23 12.914 126.22C13.334 126.22 13.712 126.337 14.048 126.57C14.384 126.804 14.65 127.135 14.846 127.564C15.0327 127.984 15.126 128.47 15.126 129.02Z" fill="black"/>
<path d="M33.8427 5.32V4.324H36.0987V13H34.9947V5.32H33.8427ZM38.2525 13.072C38.0445 13.072 37.8685 13 37.7245 12.856C37.5805 12.712 37.5085 12.536 37.5085 12.328C37.5085 12.12 37.5805 11.944 37.7245 11.8C37.8685 11.656 38.0445 11.584 38.2525 11.584C38.4525 11.584 38.6205 11.656 38.7565 11.8C38.9005 11.944 38.9725 12.12 38.9725 12.328C38.9725 12.536 38.9005 12.712 38.7565 12.856C38.6205 13 38.4525 13.072 38.2525 13.072ZM39.994 8.572C39.994 7.196 40.218 6.124 40.666 5.356C41.114 4.58 41.898 4.192 43.018 4.192C44.13 4.192 44.91 4.58 45.358 5.356C45.806 6.124 46.03 7.196 46.03 8.572C46.03 9.972 45.806 11.06 45.358 11.836C44.91 12.612 44.13 13 43.018 13C41.898 13 41.114 12.612 40.666 11.836C40.218 11.06 39.994 9.972 39.994 8.572ZM44.95 8.572C44.95 7.876 44.902 7.288 44.806 6.808C44.718 6.32 44.53 5.928 44.242 5.632C43.962 5.336 43.554 5.188 43.018 5.188C42.474 5.188 42.058 5.336 41.77 5.632C41.49 5.928 41.302 6.32 41.206 6.808C41.118 7.288 41.074 7.876 41.074 8.572C41.074 9.292 41.118 9.896 41.206 10.384C41.302 10.872 41.49 11.264 41.77 11.56C42.058 11.856 42.474 12.004 43.018 12.004C43.554 12.004 43.962 11.856 44.242 11.56C44.53 11.264 44.718 10.872 44.806 10.384C44.902 9.896 44.95 9.292 44.95 8.572ZM52.8112 5.272H48.5992V8.008C48.7832 7.752 49.0552 7.544 49.4152 7.384C49.7752 7.216 50.1632 7.132 50.5792 7.132C51.2432 7.132 51.7832 7.272 52.1992 7.552C52.6152 7.824 52.9112 8.18 53.0872 8.62C53.2712 9.052 53.3632 9.512 53.3632 10C53.3632 10.576 53.2552 11.092 53.0392 11.548C52.8232 12.004 52.4912 12.364 52.0432 12.628C51.6032 12.892 51.0552 13.024 50.3992 13.024C49.5592 13.024 48.8792 12.808 48.3592 12.376C47.8392 11.944 47.5232 11.368 47.4112 10.648H48.4792C48.5832 11.104 48.8032 11.46 49.1392 11.716C49.4752 11.972 49.8992 12.1 50.4112 12.1C51.0432 12.1 51.5192 11.912 51.8392 11.536C52.1592 11.152 52.3192 10.648 52.3192 10.024C52.3192 9.4 52.1592 8.92 51.8392 8.584C51.5192 8.24 51.0472 8.068 50.4232 8.068C49.9992 8.068 49.6272 8.172 49.3072 8.38C48.9952 8.58 48.7672 8.856 48.6232 9.208H47.5912V4.312H52.8112V5.272ZM55.8363 12.112H58.7643V13H54.7443V4.636H55.8363V12.112Z" fill="#666666"/>
<path d="M69 9H771" stroke="#E2E2E2"/>
<path d="M69 9H771" stroke="#E2E2E2"/>
<path d="M50.6826 75.32V74.324H52.9386V83H51.8346V75.32H50.6826ZM55.8363 82.112H58.7643V83H54.7443V74.636H55.8363V82.112Z" fill="#666666"/>
<path d="M69 79H771" stroke="#E2E2E2"/>
<path d="M69 79H771" stroke="#E2E2E2"/>
<path d="M30.4159 148.572C30.4159 147.196 30.6399 146.124 31.0879 145.356C31.5359 144.58 32.3199 144.192 33.4399 144.192C34.5519 144.192 35.3319 144.58 35.7799 145.356C36.2279 146.124 36.4519 147.196 36.4519 148.572C36.4519 149.972 36.2279 151.06 35.7799 151.836C35.3319 152.612 34.5519 153 33.4399 153C32.3199 153 31.5359 152.612 31.0879 151.836C30.6399 151.06 30.4159 149.972 30.4159 148.572ZM35.3719 148.572C35.3719 147.876 35.3239 147.288 35.2279 146.808C35.1399 146.32 34.9519 145.928 34.6639 145.632C34.3839 145.336 33.9759 145.188 33.4399 145.188C32.8959 145.188 32.4799 145.336 32.1919 145.632C31.9119 145.928 31.7239 146.32 31.6279 146.808C31.5399 147.288 31.4959 147.876 31.4959 148.572C31.4959 149.292 31.5399 149.896 31.6279 150.384C31.7239 150.872 31.9119 151.264 32.1919 151.56C32.4799 151.856 32.8959 152.004 33.4399 152.004C33.9759 152.004 34.3839 151.856 34.6639 151.56C34.9519 151.264 35.1399 150.872 35.2279 150.384C35.3239 149.896 35.3719 149.292 35.3719 148.572ZM38.229 153.072C38.021 153.072 37.845 153 37.701 152.856C37.557 152.712 37.485 152.536 37.485 152.328C37.485 152.12 37.557 151.944 37.701 151.8C37.845 151.656 38.021 151.584 38.229 151.584C38.429 151.584 38.597 151.656 38.733 151.8C38.877 151.944 38.949 152.12 38.949 152.328C38.949 152.536 38.877 152.712 38.733 152.856C38.597 153 38.429 153.072 38.229 153.072ZM41.3746 150.672C41.4546 151.128 41.6386 151.48 41.9266 151.728C42.2226 151.976 42.6186 152.1 43.1146 152.1C43.7786 152.1 44.2666 151.84 44.5786 151.32C44.8986 150.8 45.0506 149.924 45.0346 148.692C44.8666 149.052 44.5866 149.336 44.1946 149.544C43.8026 149.744 43.3666 149.844 42.8866 149.844C42.3506 149.844 41.8706 149.736 41.4466 149.52C41.0306 149.296 40.7026 148.972 40.4626 148.548C40.2226 148.124 40.1026 147.612 40.1026 147.012C40.1026 146.156 40.3506 145.468 40.8466 144.948C41.3426 144.42 42.0466 144.156 42.9586 144.156C44.0786 144.156 44.8626 144.52 45.3106 145.248C45.7666 145.976 45.9946 147.06 45.9946 148.5C45.9946 149.508 45.9026 150.34 45.7186 150.996C45.5426 151.652 45.2386 152.152 44.8066 152.496C44.3826 152.84 43.7986 153.012 43.0546 153.012C42.2386 153.012 41.6026 152.792 41.1466 152.352C40.6906 151.912 40.4306 151.352 40.3666 150.672H41.3746ZM43.0666 148.92C43.6026 148.92 44.0426 148.756 44.3866 148.428C44.7306 148.092 44.9026 147.64 44.9026 147.072C44.9026 146.472 44.7346 145.988 44.3986 145.62C44.0626 145.252 43.5906 145.068 42.9826 145.068C42.4226 145.068 41.9746 145.244 41.6386 145.596C41.3106 145.948 41.1466 146.412 41.1466 146.988C41.1466 147.572 41.3106 148.04 41.6386 148.392C41.9666 148.744 42.4426 148.92 43.0666 148.92ZM52.8112 145.272H48.5992V148.008C48.7832 147.752 49.0552 147.544 49.4152 147.384C49.7752 147.216 50.1632 147.132 50.5792 147.132C51.2432 147.132 51.7832 147.272 52.1992 147.552C52.6152 147.824 52.9112 148.18 53.0872 148.62C53.2712 149.052 53.3632 149.512 53.3632 150C53.3632 150.576 53.2552 151.092 53.0392 151.548C52.8232 152.004 52.4912 152.364 52.0432 152.628C51.6032 152.892 51.0552 153.024 50.3992 153.024C49.5592 153.024 48.8792 152.808 48.3592 152.376C47.8392 151.944 47.5232 151.368 47.4112 150.648H48.4792C48.5832 151.104 48.8032 151.46 49.1392 151.716C49.4752 151.972 49.8992 152.1 50.4112 152.1C51.0432 152.1 51.5192 151.912 51.8392 151.536C52.1592 151.152 52.3192 150.648 52.3192 150.024C52.3192 149.4 52.1592 148.92 51.8392 148.584C51.5192 148.24 51.0472 148.068 50.4232 148.068C49.9992 148.068 49.6272 148.172 49.3072 148.38C48.9952 148.58 48.7672 148.856 48.6232 149.208H47.5912V144.312H52.8112V145.272ZM55.8363 152.112H58.7643V153H54.7443V144.636H55.8363V152.112Z" fill="#666666"/>
<path d="M69 149H771" stroke="#E2E2E2"/>
<path d="M69 149H771" stroke="#E2E2E2"/>
<path d="M37.701 218.572C37.701 217.196 37.925 216.124 38.373 215.356C38.821 214.58 39.605 214.192 40.725 214.192C41.837 214.192 42.617 214.58 43.065 215.356C43.513 216.124 43.737 217.196 43.737 218.572C43.737 219.972 43.513 221.06 43.065 221.836C42.617 222.612 41.837 223 40.725 223C39.605 223 38.821 222.612 38.373 221.836C37.925 221.06 37.701 219.972 37.701 218.572ZM42.657 218.572C42.657 217.876 42.609 217.288 42.513 216.808C42.425 216.32 42.237 215.928 41.949 215.632C41.669 215.336 41.261 215.188 40.725 215.188C40.181 215.188 39.765 215.336 39.477 215.632C39.197 215.928 39.009 216.32 38.913 216.808C38.825 217.288 38.781 217.876 38.781 218.572C38.781 219.292 38.825 219.896 38.913 220.384C39.009 220.872 39.197 221.264 39.477 221.56C39.765 221.856 40.181 222.004 40.725 222.004C41.261 222.004 41.669 221.856 41.949 221.56C42.237 221.264 42.425 220.872 42.513 220.384C42.609 219.896 42.657 219.292 42.657 218.572ZM45.5142 223.072C45.3062 223.072 45.1302 223 44.9862 222.856C44.8422 222.712 44.7702 222.536 44.7702 222.328C44.7702 222.12 44.8422 221.944 44.9862 221.8C45.1302 221.656 45.3062 221.584 45.5142 221.584C45.7142 221.584 45.8822 221.656 46.0182 221.8C46.1622 221.944 46.2342 222.12 46.2342 222.328C46.2342 222.536 46.1622 222.712 46.0182 222.856C45.8822 223 45.7142 223.072 45.5142 223.072ZM48.6597 220.672C48.7397 221.128 48.9237 221.48 49.2117 221.728C49.5077 221.976 49.9037 222.1 50.3997 222.1C51.0637 222.1 51.5517 221.84 51.8637 221.32C52.1837 220.8 52.3357 219.924 52.3197 218.692C52.1517 219.052 51.8717 219.336 51.4797 219.544C51.0877 219.744 50.6517 219.844 50.1717 219.844C49.6357 219.844 49.1557 219.736 48.7317 219.52C48.3157 219.296 47.9877 218.972 47.7477 218.548C47.5077 218.124 47.3877 217.612 47.3877 217.012C47.3877 216.156 47.6357 215.468 48.1317 214.948C48.6277 214.42 49.3317 214.156 50.2437 214.156C51.3637 214.156 52.1477 214.52 52.5957 215.248C53.0517 215.976 53.2797 217.06 53.2797 218.5C53.2797 219.508 53.1877 220.34 53.0037 220.996C52.8277 221.652 52.5237 222.152 52.0917 222.496C51.6677 222.84 51.0837 223.012 50.3397 223.012C49.5237 223.012 48.8877 222.792 48.4317 222.352C47.9757 221.912 47.7157 221.352 47.6517 220.672H48.6597ZM50.3517 218.92C50.8877 218.92 51.3277 218.756 51.6717 218.428C52.0157 218.092 52.1877 217.64 52.1877 217.072C52.1877 216.472 52.0197 215.988 51.6837 215.62C51.3477 215.252 50.8757 215.068 50.2677 215.068C49.7077 215.068 49.2597 215.244 48.9237 215.596C48.5957 215.948 48.4317 216.412 48.4317 216.988C48.4317 217.572 48.5957 218.04 48.9237 218.392C49.2517 218.744 49.7277 218.92 50.3517 218.92ZM55.8363 222.112H58.7643V223H54.7443V214.636H55.8363V222.112Z" fill="#666666"/>
<path d="M69 219H771" stroke="#E2E2E2"/>
<path d="M69 219H771" stroke="#E2E2E2"/>
<path d="M30.4042 288.572C30.4042 287.196 30.6282 286.124 31.0762 285.356C31.5242 284.58 32.3082 284.192 33.4282 284.192C34.5402 284.192 35.3202 284.58 35.7682 285.356C36.2162 286.124 36.4402 287.196 36.4402 288.572C36.4402 289.972 36.2162 291.06 35.7682 291.836C35.3202 292.612 34.5402 293 33.4282 293C32.3082 293 31.5242 292.612 31.0762 291.836C30.6282 291.06 30.4042 289.972 30.4042 288.572ZM35.3602 288.572C35.3602 287.876 35.3122 287.288 35.2162 286.808C35.1282 286.32 34.9402 285.928 34.6522 285.632C34.3722 285.336 33.9642 285.188 33.4282 285.188C32.8842 285.188 32.4682 285.336 32.1802 285.632C31.9002 285.928 31.7122 286.32 31.6162 286.808C31.5282 287.288 31.4842 287.876 31.4842 288.572C31.4842 289.292 31.5282 289.896 31.6162 290.384C31.7122 290.872 31.9002 291.264 32.1802 291.56C32.4682 291.856 32.8842 292.004 33.4282 292.004C33.9642 292.004 34.3722 291.856 34.6522 291.56C34.9402 291.264 35.1282 290.872 35.2162 290.384C35.3122 289.896 35.3602 289.292 35.3602 288.572ZM38.2173 293.072C38.0093 293.072 37.8333 293 37.6893 292.856C37.5453 292.712 37.4733 292.536 37.4733 292.328C37.4733 292.12 37.5453 291.944 37.6893 291.8C37.8333 291.656 38.0093 291.584 38.2173 291.584C38.4173 291.584 38.5853 291.656 38.7213 291.8C38.8653 291.944 38.9373 292.12 38.9373 292.328C38.9373 292.536 38.8653 292.712 38.7213 292.856C38.5853 293 38.4173 293.072 38.2173 293.072ZM41.5428 288.488C41.0948 288.312 40.7508 288.056 40.5108 287.72C40.2708 287.384 40.1508 286.976 40.1508 286.496C40.1508 286.064 40.2588 285.676 40.4748 285.332C40.6908 284.98 41.0108 284.704 41.4348 284.504C41.8668 284.296 42.3868 284.192 42.9948 284.192C43.6028 284.192 44.1188 284.296 44.5428 284.504C44.9748 284.704 45.2988 284.98 45.5148 285.332C45.7388 285.676 45.8508 286.064 45.8508 286.496C45.8508 286.96 45.7268 287.368 45.4788 287.72C45.2308 288.064 44.8908 288.32 44.4588 288.488C44.9548 288.64 45.3468 288.908 45.6348 289.292C45.9308 289.668 46.0788 290.124 46.0788 290.66C46.0788 291.18 45.9508 291.636 45.6948 292.028C45.4388 292.412 45.0748 292.712 44.6028 292.928C44.1388 293.136 43.6028 293.24 42.9948 293.24C42.3868 293.24 41.8508 293.136 41.3868 292.928C40.9308 292.712 40.5748 292.412 40.3188 292.028C40.0628 291.636 39.9348 291.18 39.9348 290.66C39.9348 290.124 40.0788 289.664 40.3668 289.28C40.6548 288.896 41.0468 288.632 41.5428 288.488ZM44.7948 286.628C44.7948 286.14 44.6348 285.764 44.3148 285.5C43.9948 285.236 43.5548 285.104 42.9948 285.104C42.4428 285.104 42.0068 285.236 41.6868 285.5C41.3668 285.764 41.2068 286.144 41.2068 286.64C41.2068 287.088 41.3708 287.448 41.6988 287.72C42.0348 287.992 42.4668 288.128 42.9948 288.128C43.5308 288.128 43.9628 287.992 44.2908 287.72C44.6268 287.44 44.7948 287.076 44.7948 286.628ZM42.9948 288.968C42.4028 288.968 41.9188 289.108 41.5428 289.388C41.1668 289.66 40.9788 290.072 40.9788 290.624C40.9788 291.136 41.1588 291.548 41.5188 291.86C41.8868 292.172 42.3788 292.328 42.9948 292.328C43.6108 292.328 44.0988 292.172 44.4588 291.86C44.8188 291.548 44.9988 291.136 44.9988 290.624C44.9988 290.088 44.8148 289.68 44.4468 289.4C44.0788 289.112 43.5948 288.968 42.9948 288.968ZM52.8112 285.272H48.5992V288.008C48.7832 287.752 49.0552 287.544 49.4152 287.384C49.7752 287.216 50.1632 287.132 50.5792 287.132C51.2432 287.132 51.7832 287.272 52.1992 287.552C52.6152 287.824 52.9112 288.18 53.0872 288.62C53.2712 289.052 53.3632 289.512 53.3632 290C53.3632 290.576 53.2552 291.092 53.0392 291.548C52.8232 292.004 52.4912 292.364 52.0432 292.628C51.6032 292.892 51.0552 293.024 50.3992 293.024C49.5592 293.024 48.8792 292.808 48.3592 292.376C47.8392 291.944 47.5232 291.368 47.4112 290.648H48.4792C48.5832 291.104 48.8032 291.46 49.1392 291.716C49.4752 291.972 49.8992 292.1 50.4112 292.1C51.0432 292.1 51.5192 291.912 51.8392 291.536C52.1592 291.152 52.3192 290.648 52.3192 290.024C52.3192 289.4 52.1592 288.92 51.8392 288.584C51.5192 288.24 51.0472 288.068 50.4232 288.068C49.9992 288.068 49.6272 288.172 49.3072 288.38C48.9952 288.58 48.7672 288.856 48.6232 289.208H47.5912V284.312H52.8112V285.272ZM55.8363 292.112H58.7643V293H54.7443V284.636H55.8363V292.112Z" fill="#666666"/>
<path d="M69 289H771" stroke="#666666"/>
<path d="M94 301V289" stroke="#666666"/>
<path d="M76.0163 309.636C76.9283 309.636 77.7163 309.808 78.3803 310.152C79.0523 310.488 79.5643 310.972 79.9163 311.604C80.2763 312.236 80.4563 312.98 80.4563 313.836C80.4563 314.692 80.2763 315.436 79.9163 316.068C79.5643 316.692 79.0523 317.172 78.3803 317.508C77.7163 317.836 76.9283 318 76.0163 318H73.4123V309.636H76.0163ZM76.0163 317.1C77.0963 317.1 77.9203 316.816 78.4883 316.248C79.0563 315.672 79.3403 314.868 79.3403 313.836C79.3403 312.796 79.0523 311.984 78.4763 311.4C77.9083 310.816 77.0883 310.524 76.0163 310.524H74.5043V317.1H76.0163ZM87.6467 314.46C87.6467 314.668 87.6347 314.888 87.6107 315.12H82.3547C82.3947 315.768 82.6147 316.276 83.0147 316.644C83.4227 317.004 83.9147 317.184 84.4907 317.184C84.9627 317.184 85.3547 317.076 85.6667 316.86C85.9867 316.636 86.2107 316.34 86.3387 315.972H87.5147C87.3387 316.604 86.9867 317.12 86.4587 317.52C85.9307 317.912 85.2747 318.108 84.4907 318.108C83.8667 318.108 83.3067 317.968 82.8107 317.688C82.3227 317.408 81.9387 317.012 81.6587 316.5C81.3787 315.98 81.2387 315.38 81.2387 314.7C81.2387 314.02 81.3747 313.424 81.6467 312.912C81.9187 312.4 82.2987 312.008 82.7867 311.736C83.2827 311.456 83.8507 311.316 84.4907 311.316C85.1147 311.316 85.6667 311.452 86.1467 311.724C86.6267 311.996 86.9947 312.372 87.2507 312.852C87.5147 313.324 87.6467 313.86 87.6467 314.46ZM86.5187 314.232C86.5187 313.816 86.4267 313.46 86.2427 313.164C86.0587 312.86 85.8067 312.632 85.4867 312.48C85.1747 312.32 84.8267 312.24 84.4427 312.24C83.8907 312.24 83.4187 312.416 83.0267 312.768C82.6427 313.12 82.4227 313.608 82.3667 314.232H86.5187ZM88.4301 314.7C88.4301 314.02 88.5661 313.428 88.8381 312.924C89.1101 312.412 89.4861 312.016 89.9661 311.736C90.4541 311.456 91.0101 311.316 91.6341 311.316C92.4421 311.316 93.1061 311.512 93.6261 311.904C94.1541 312.296 94.5021 312.84 94.6701 313.536H93.4941C93.3821 313.136 93.1621 312.82 92.8341 312.588C92.5141 312.356 92.1141 312.24 91.6341 312.24C91.0101 312.24 90.5061 312.456 90.1221 312.888C89.7381 313.312 89.5461 313.916 89.5461 314.7C89.5461 315.492 89.7381 316.104 90.1221 316.536C90.5061 316.968 91.0101 317.184 91.6341 317.184C92.1141 317.184 92.5141 317.072 92.8341 316.848C93.1541 316.624 93.3741 316.304 93.4941 315.888H94.6701C94.4941 316.56 94.1421 317.1 93.6141 317.508C93.0861 317.908 92.4261 318.108 91.6341 318.108C91.0101 318.108 90.4541 317.968 89.9661 317.688C89.4861 317.408 89.1101 317.012 88.8381 316.5C88.5661 315.988 88.4301 315.388 88.4301 314.7ZM100.437 313.14V314.064H95.6491V313.14H100.437ZM101.925 317.124C102.941 316.308 103.737 315.64 104.312 315.12C104.889 314.592 105.373 314.044 105.765 313.476C106.165 312.9 106.365 312.336 106.365 311.784C106.365 311.264 106.237 310.856 105.981 310.56C105.733 310.256 105.329 310.104 104.769 310.104C104.225 310.104 103.801 310.276 103.497 310.62C103.201 310.956 103.041 311.408 103.017 311.976H101.961C101.993 311.08 102.265 310.388 102.777 309.9C103.289 309.412 103.949 309.168 104.757 309.168C105.581 309.168 106.233 309.396 106.713 309.852C107.201 310.308 107.445 310.936 107.445 311.736C107.445 312.4 107.245 313.048 106.845 313.68C106.453 314.304 106.005 314.856 105.501 315.336C104.997 315.808 104.353 316.36 103.569 316.992H107.697V317.904H101.925V317.124ZM108.445 316.068V315.24L112.657 309.408H113.965V315.12H115.165V316.068H113.965V318H112.885V316.068H108.445ZM112.933 310.548L109.705 315.12H112.933V310.548Z" fill="#666666"/>
<path d="M210.602 301V289" stroke="#666666"/>
<path d="M192.618 309.636C193.53 309.636 194.318 309.808 194.982 310.152C195.654 310.488 196.166 310.972 196.518 311.604C196.878 312.236 197.058 312.98 197.058 313.836C197.058 314.692 196.878 315.436 196.518 316.068C196.166 316.692 195.654 317.172 194.982 317.508C194.318 317.836 193.53 318 192.618 318H190.014V309.636H192.618ZM192.618 317.1C193.698 317.1 194.522 316.816 195.09 316.248C195.658 315.672 195.942 314.868 195.942 313.836C195.942 312.796 195.654 311.984 195.078 311.4C194.51 310.816 193.69 310.524 192.618 310.524H191.106V317.1H192.618ZM204.248 314.46C204.248 314.668 204.236 314.888 204.212 315.12H198.956C198.996 315.768 199.216 316.276 199.616 316.644C200.024 317.004 200.516 317.184 201.092 317.184C201.564 317.184 201.956 317.076 202.268 316.86C202.588 316.636 202.812 316.34 202.94 315.972H204.116C203.94 316.604 203.588 317.12 203.06 317.52C202.532 317.912 201.876 318.108 201.092 318.108C200.468 318.108 199.908 317.968 199.412 317.688C198.924 317.408 198.54 317.012 198.26 316.5C197.98 315.98 197.84 315.38 197.84 314.7C197.84 314.02 197.976 313.424 198.248 312.912C198.52 312.4 198.9 312.008 199.388 311.736C199.884 311.456 200.452 311.316 201.092 311.316C201.716 311.316 202.268 311.452 202.748 311.724C203.228 311.996 203.596 312.372 203.852 312.852C204.116 313.324 204.248 313.86 204.248 314.46ZM203.12 314.232C203.12 313.816 203.028 313.46 202.844 313.164C202.66 312.86 202.408 312.632 202.088 312.48C201.776 312.32 201.428 312.24 201.044 312.24C200.492 312.24 200.02 312.416 199.628 312.768C199.244 313.12 199.024 313.608 198.968 314.232H203.12ZM205.032 314.7C205.032 314.02 205.168 313.428 205.44 312.924C205.712 312.412 206.088 312.016 206.568 311.736C207.056 311.456 207.612 311.316 208.236 311.316C209.044 311.316 209.708 311.512 210.228 311.904C210.756 312.296 211.104 312.84 211.272 313.536H210.096C209.984 313.136 209.764 312.82 209.436 312.588C209.116 312.356 208.716 312.24 208.236 312.24C207.612 312.24 207.108 312.456 206.724 312.888C206.34 313.312 206.148 313.916 206.148 314.7C206.148 315.492 206.34 316.104 206.724 316.536C207.108 316.968 207.612 317.184 208.236 317.184C208.716 317.184 209.116 317.072 209.436 316.848C209.756 316.624 209.976 316.304 210.096 315.888H211.272C211.096 316.56 210.744 317.1 210.216 317.508C209.688 317.908 209.028 318.108 208.236 318.108C207.612 318.108 207.056 317.968 206.568 317.688C206.088 317.408 205.712 317.012 205.44 316.5C205.168 315.988 205.032 315.388 205.032 314.7ZM217.039 313.14V314.064H212.251V313.14H217.039ZM218.526 317.124C219.542 316.308 220.338 315.64 220.914 315.12C221.49 314.592 221.974 314.044 222.366 313.476C222.766 312.9 222.966 312.336 222.966 311.784C222.966 311.264 222.838 310.856 222.582 310.56C222.334 310.256 221.93 310.104 221.37 310.104C220.826 310.104 220.402 310.276 220.098 310.62C219.802 310.956 219.642 311.408 219.618 311.976H218.562C218.594 311.08 218.866 310.388 219.378 309.9C219.89 309.412 220.55 309.168 221.358 309.168C222.182 309.168 222.834 309.396 223.314 309.852C223.802 310.308 224.046 310.936 224.046 311.736C224.046 312.4 223.846 313.048 223.446 313.68C223.054 314.304 222.606 314.856 222.102 315.336C221.598 315.808 220.954 316.36 220.17 316.992H224.298V317.904H218.526V317.124ZM225.046 316.068V315.24L229.258 309.408H230.566V315.12H231.766V316.068H230.566V318H229.486V316.068H225.046ZM229.534 310.548L226.306 315.12H229.534V310.548Z" fill="#666666"/>
<path d="M327.199 301V289" stroke="#666666"/>
<path d="M309.215 309.636C310.128 309.636 310.916 309.808 311.58 310.152C312.252 310.488 312.764 310.972 313.116 311.604C313.476 312.236 313.656 312.98 313.656 313.836C313.656 314.692 313.476 315.436 313.116 316.068C312.764 316.692 312.252 317.172 311.58 317.508C310.916 317.836 310.128 318 309.215 318H306.612V309.636H309.215ZM309.215 317.1C310.296 317.1 311.12 316.816 311.688 316.248C312.256 315.672 312.54 314.868 312.54 313.836C312.54 312.796 312.252 311.984 311.676 311.4C311.108 310.816 310.288 310.524 309.215 310.524H307.704V317.1H309.215ZM320.846 314.46C320.846 314.668 320.834 314.888 320.81 315.12H315.554C315.594 315.768 315.814 316.276 316.214 316.644C316.622 317.004 317.114 317.184 317.69 317.184C318.162 317.184 318.554 317.076 318.866 316.86C319.186 316.636 319.41 316.34 319.538 315.972H320.714C320.538 316.604 320.186 317.12 319.658 317.52C319.13 317.912 318.474 318.108 317.69 318.108C317.066 318.108 316.506 317.968 316.01 317.688C315.522 317.408 315.138 317.012 314.858 316.5C314.578 315.98 314.438 315.38 314.438 314.7C314.438 314.02 314.574 313.424 314.846 312.912C315.118 312.4 315.498 312.008 315.986 311.736C316.482 311.456 317.05 311.316 317.69 311.316C318.314 311.316 318.866 311.452 319.346 311.724C319.826 311.996 320.194 312.372 320.45 312.852C320.714 313.324 320.846 313.86 320.846 314.46ZM319.718 314.232C319.718 313.816 319.626 313.46 319.442 313.164C319.258 312.86 319.006 312.632 318.686 312.48C318.374 312.32 318.026 312.24 317.642 312.24C317.09 312.24 316.618 312.416 316.226 312.768C315.842 313.12 315.622 313.608 315.566 314.232H319.718ZM321.629 314.7C321.629 314.02 321.765 313.428 322.037 312.924C322.309 312.412 322.685 312.016 323.165 311.736C323.653 311.456 324.209 311.316 324.833 311.316C325.641 311.316 326.305 311.512 326.825 311.904C327.353 312.296 327.701 312.84 327.869 313.536H326.693C326.581 313.136 326.361 312.82 326.033 312.588C325.713 312.356 325.313 312.24 324.833 312.24C324.209 312.24 323.705 312.456 323.321 312.888C322.937 313.312 322.745 313.916 322.745 314.7C322.745 315.492 322.937 316.104 323.321 316.536C323.705 316.968 324.209 317.184 324.833 317.184C325.313 317.184 325.713 317.072 326.033 316.848C326.353 316.624 326.573 316.304 326.693 315.888H327.869C327.693 316.56 327.341 317.1 326.813 317.508C326.285 317.908 325.625 318.108 324.833 318.108C324.209 318.108 323.653 317.968 323.165 317.688C322.685 317.408 322.309 317.012 322.037 316.5C321.765 315.988 321.629 315.388 321.629 314.7ZM333.636 313.14V314.064H328.848V313.14H333.636ZM335.124 317.124C336.14 316.308 336.936 315.64 337.512 315.12C338.088 314.592 338.572 314.044 338.964 313.476C339.364 312.9 339.564 312.336 339.564 311.784C339.564 311.264 339.436 310.856 339.18 310.56C338.932 310.256 338.528 310.104 337.968 310.104C337.424 310.104 337 310.276 336.696 310.62C336.4 310.956 336.24 311.408 336.216 311.976H335.16C335.192 311.08 335.464 310.388 335.976 309.9C336.488 309.412 337.148 309.168 337.956 309.168C338.78 309.168 339.432 309.396 339.912 309.852C340.4 310.308 340.644 310.936 340.644 311.736C340.644 312.4 340.444 313.048 340.044 313.68C339.652 314.304 339.204 314.856 338.7 315.336C338.196 315.808 337.552 316.36 336.768 316.992H340.896V317.904H335.124V317.124ZM341.644 316.068V315.24L345.856 309.408H347.164V315.12H348.364V316.068H347.164V318H346.084V316.068H341.644ZM346.132 310.548L342.904 315.12H346.132V310.548Z" fill="#666666"/>
<path d="M443.801 301V289" stroke="#666666"/>
<path d="M425.817 309.636C426.729 309.636 427.517 309.808 428.181 310.152C428.853 310.488 429.365 310.972 429.717 311.604C430.077 312.236 430.257 312.98 430.257 313.836C430.257 314.692 430.077 315.436 429.717 316.068C429.365 316.692 428.853 317.172 428.181 317.508C427.517 317.836 426.729 318 425.817 318H423.213V309.636H425.817ZM425.817 317.1C426.897 317.1 427.721 316.816 428.289 316.248C428.857 315.672 429.141 314.868 429.141 313.836C429.141 312.796 428.853 311.984 428.277 311.4C427.709 310.816 426.889 310.524 425.817 310.524H424.305V317.1H425.817ZM437.447 314.46C437.447 314.668 437.435 314.888 437.411 315.12H432.155C432.195 315.768 432.415 316.276 432.815 316.644C433.223 317.004 433.715 317.184 434.291 317.184C434.763 317.184 435.155 317.076 435.467 316.86C435.787 316.636 436.011 316.34 436.139 315.972H437.315C437.139 316.604 436.787 317.12 436.259 317.52C435.731 317.912 435.075 318.108 434.291 318.108C433.667 318.108 433.107 317.968 432.611 317.688C432.123 317.408 431.739 317.012 431.459 316.5C431.179 315.98 431.039 315.38 431.039 314.7C431.039 314.02 431.175 313.424 431.447 312.912C431.719 312.4 432.099 312.008 432.587 311.736C433.083 311.456 433.651 311.316 434.291 311.316C434.915 311.316 435.467 311.452 435.947 311.724C436.427 311.996 436.795 312.372 437.051 312.852C437.315 313.324 437.447 313.86 437.447 314.46ZM436.319 314.232C436.319 313.816 436.227 313.46 436.043 313.164C435.859 312.86 435.607 312.632 435.287 312.48C434.975 312.32 434.627 312.24 434.243 312.24C433.691 312.24 433.219 312.416 432.827 312.768C432.443 313.12 432.223 313.608 432.167 314.232H436.319ZM438.231 314.7C438.231 314.02 438.367 313.428 438.639 312.924C438.911 312.412 439.287 312.016 439.767 311.736C440.255 311.456 440.811 311.316 441.435 311.316C442.243 311.316 442.907 311.512 443.427 311.904C443.955 312.296 444.303 312.84 444.471 313.536H443.295C443.183 313.136 442.963 312.82 442.635 312.588C442.315 312.356 441.915 312.24 441.435 312.24C440.811 312.24 440.307 312.456 439.923 312.888C439.539 313.312 439.347 313.916 439.347 314.7C439.347 315.492 439.539 316.104 439.923 316.536C440.307 316.968 440.811 317.184 441.435 317.184C441.915 317.184 442.315 317.072 442.635 316.848C442.955 316.624 443.175 316.304 443.295 315.888H444.471C444.295 316.56 443.943 317.1 443.415 317.508C442.887 317.908 442.227 318.108 441.435 318.108C440.811 318.108 440.255 317.968 439.767 317.688C439.287 317.408 438.911 317.012 438.639 316.5C438.367 315.988 438.231 315.388 438.231 314.7ZM450.238 313.14V314.064H445.45V313.14H450.238ZM451.725 317.124C452.741 316.308 453.537 315.64 454.113 315.12C454.689 314.592 455.173 314.044 455.565 313.476C455.965 312.9 456.165 312.336 456.165 311.784C456.165 311.264 456.037 310.856 455.781 310.56C455.533 310.256 455.129 310.104 454.569 310.104C454.025 310.104 453.601 310.276 453.297 310.62C453.001 310.956 452.841 311.408 452.817 311.976H451.761C451.793 311.08 452.065 310.388 452.577 309.9C453.089 309.412 453.749 309.168 454.557 309.168C455.381 309.168 456.033 309.396 456.513 309.852C457.001 310.308 457.245 310.936 457.245 311.736C457.245 312.4 457.045 313.048 456.645 313.68C456.253 314.304 455.805 314.856 455.301 315.336C454.797 315.808 454.153 316.36 453.369 316.992H457.497V317.904H451.725V317.124ZM458.246 316.068V315.24L462.458 309.408H463.766V315.12H464.966V316.068H463.766V318H462.686V316.068H458.246ZM462.734 310.548L459.506 315.12H462.734V310.548Z" fill="#666666"/>
<path d="M560.398 301V289" stroke="#666666"/>
<path d="M542.415 309.636C543.327 309.636 544.115 309.808 544.779 310.152C545.451 310.488 545.963 310.972 546.315 311.604C546.675 312.236 546.855 312.98 546.855 313.836C546.855 314.692 546.675 315.436 546.315 316.068C545.963 316.692 545.451 317.172 544.779 317.508C544.115 317.836 543.327 318 542.415 318H539.811V309.636H542.415ZM542.415 317.1C543.495 317.1 544.319 316.816 544.887 316.248C545.455 315.672 545.739 314.868 545.739 313.836C545.739 312.796 545.451 311.984 544.875 311.4C544.307 310.816 543.487 310.524 542.415 310.524H540.903V317.1H542.415ZM554.045 314.46C554.045 314.668 554.033 314.888 554.009 315.12H548.753C548.793 315.768 549.013 316.276 549.413 316.644C549.821 317.004 550.313 317.184 550.889 317.184C551.361 317.184 551.753 317.076 552.065 316.86C552.385 316.636 552.609 316.34 552.737 315.972H553.913C553.737 316.604 553.385 317.12 552.857 317.52C552.329 317.912 551.673 318.108 550.889 318.108C550.265 318.108 549.705 317.968 549.209 317.688C548.721 317.408 548.337 317.012 548.057 316.5C547.777 315.98 547.637 315.38 547.637 314.7C547.637 314.02 547.773 313.424 548.045 312.912C548.317 312.4 548.697 312.008 549.185 311.736C549.681 311.456 550.249 311.316 550.889 311.316C551.513 311.316 552.065 311.452 552.545 311.724C553.025 311.996 553.393 312.372 553.649 312.852C553.913 313.324 554.045 313.86 554.045 314.46ZM552.917 314.232C552.917 313.816 552.825 313.46 552.641 313.164C552.457 312.86 552.205 312.632 551.885 312.48C551.573 312.32 551.225 312.24 550.841 312.24C550.289 312.24 549.817 312.416 549.425 312.768C549.041 313.12 548.821 313.608 548.765 314.232H552.917ZM554.829 314.7C554.829 314.02 554.965 313.428 555.237 312.924C555.509 312.412 555.885 312.016 556.365 311.736C556.853 311.456 557.409 311.316 558.033 311.316C558.841 311.316 559.505 311.512 560.025 311.904C560.553 312.296 560.901 312.84 561.069 313.536H559.893C559.781 313.136 559.561 312.82 559.233 312.588C558.913 312.356 558.513 312.24 558.033 312.24C557.409 312.24 556.905 312.456 556.521 312.888C556.137 313.312 555.945 313.916 555.945 314.7C555.945 315.492 556.137 316.104 556.521 316.536C556.905 316.968 557.409 317.184 558.033 317.184C558.513 317.184 558.913 317.072 559.233 316.848C559.553 316.624 559.773 316.304 559.893 315.888H561.069C560.893 316.56 560.541 317.1 560.013 317.508C559.485 317.908 558.825 318.108 558.033 318.108C557.409 318.108 556.853 317.968 556.365 317.688C555.885 317.408 555.509 317.012 555.237 316.5C554.965 315.988 554.829 315.388 554.829 314.7ZM566.836 313.14V314.064H562.048V313.14H566.836ZM568.323 317.124C569.339 316.308 570.135 315.64 570.711 315.12C571.287 314.592 571.771 314.044 572.163 313.476C572.563 312.9 572.763 312.336 572.763 311.784C572.763 311.264 572.635 310.856 572.379 310.56C572.131 310.256 571.727 310.104 571.167 310.104C570.623 310.104 570.199 310.276 569.895 310.62C569.599 310.956 569.439 311.408 569.415 311.976H568.359C568.391 311.08 568.663 310.388 569.175 309.9C569.687 309.412 570.347 309.168 571.155 309.168C571.979 309.168 572.631 309.396 573.111 309.852C573.599 310.308 573.843 310.936 573.843 311.736C573.843 312.4 573.643 313.048 573.243 313.68C572.851 314.304 572.403 314.856 571.899 315.336C571.395 315.808 570.751 316.36 569.967 316.992H574.095V317.904H568.323V317.124ZM574.843 316.068V315.24L579.055 309.408H580.363V315.12H581.563V316.068H580.363V318H579.283V316.068H574.843ZM579.331 310.548L576.103 315.12H579.331V310.548Z" fill="#666666"/>
<path d="M677 301V289" stroke="#666666"/>
<path d="M659.016 309.636C659.928 309.636 660.716 309.808 661.38 310.152C662.052 310.488 662.564 310.972 662.916 311.604C663.276 312.236 663.456 312.98 663.456 313.836C663.456 314.692 663.276 315.436 662.916 316.068C662.564 316.692 662.052 317.172 661.38 317.508C660.716 317.836 659.928 318 659.016 318H656.412V309.636H659.016ZM659.016 317.1C660.096 317.1 660.92 316.816 661.488 316.248C662.056 315.672 662.34 314.868 662.34 313.836C662.34 312.796 662.052 311.984 661.476 311.4C660.908 310.816 660.088 310.524 659.016 310.524H657.504V317.1H659.016ZM670.647 314.46C670.647 314.668 670.635 314.888 670.611 315.12H665.355C665.395 315.768 665.615 316.276 666.015 316.644C666.423 317.004 666.915 317.184 667.491 317.184C667.963 317.184 668.355 317.076 668.667 316.86C668.987 316.636 669.211 316.34 669.339 315.972H670.515C670.339 316.604 669.987 317.12 669.459 317.52C668.931 317.912 668.275 318.108 667.491 318.108C666.867 318.108 666.307 317.968 665.811 317.688C665.323 317.408 664.939 317.012 664.659 316.5C664.379 315.98 664.239 315.38 664.239 314.7C664.239 314.02 664.375 313.424 664.647 312.912C664.919 312.4 665.299 312.008 665.787 311.736C666.283 311.456 666.851 311.316 667.491 311.316C668.115 311.316 668.667 311.452 669.147 311.724C669.627 311.996 669.995 312.372 670.251 312.852C670.515 313.324 670.647 313.86 670.647 314.46ZM669.519 314.232C669.519 313.816 669.427 313.46 669.243 313.164C669.059 312.86 668.807 312.632 668.487 312.48C668.175 312.32 667.827 312.24 667.443 312.24C666.891 312.24 666.419 312.416 666.027 312.768C665.643 313.12 665.423 313.608 665.367 314.232H669.519ZM671.43 314.7C671.43 314.02 671.566 313.428 671.838 312.924C672.11 312.412 672.486 312.016 672.966 311.736C673.454 311.456 674.01 311.316 674.634 311.316C675.442 311.316 676.106 311.512 676.626 311.904C677.154 312.296 677.502 312.84 677.67 313.536H676.494C676.382 313.136 676.162 312.82 675.834 312.588C675.514 312.356 675.114 312.24 674.634 312.24C674.01 312.24 673.506 312.456 673.122 312.888C672.738 313.312 672.546 313.916 672.546 314.7C672.546 315.492 672.738 316.104 673.122 316.536C673.506 316.968 674.01 317.184 674.634 317.184C675.114 317.184 675.514 317.072 675.834 316.848C676.154 316.624 676.374 316.304 676.494 315.888H677.67C677.494 316.56 677.142 317.1 676.614 317.508C676.086 317.908 675.426 318.108 674.634 318.108C674.01 318.108 673.454 317.968 672.966 317.688C672.486 317.408 672.11 317.012 671.838 316.5C671.566 315.988 671.43 315.388 671.43 314.7ZM683.437 313.14V314.064H678.649V313.14H683.437ZM684.925 317.124C685.941 316.308 686.737 315.64 687.312 315.12C687.889 314.592 688.373 314.044 688.765 313.476C689.165 312.9 689.365 312.336 689.365 311.784C689.365 311.264 689.237 310.856 688.981 310.56C688.733 310.256 688.329 310.104 687.769 310.104C687.225 310.104 686.801 310.276 686.497 310.62C686.201 310.956 686.041 311.408 686.017 311.976H684.961C684.993 311.08 685.265 310.388 685.777 309.9C686.289 309.412 686.949 309.168 687.757 309.168C688.581 309.168 689.233 309.396 689.713 309.852C690.201 310.308 690.445 310.936 690.445 311.736C690.445 312.4 690.245 313.048 689.845 313.68C689.453 314.304 689.005 314.856 688.501 315.336C687.997 315.808 687.353 316.36 686.569 316.992H690.697V317.904H684.925V317.124ZM691.445 316.068V315.24L695.657 309.408H696.965V315.12H698.165V316.068H696.965V318H695.885V316.068H691.445ZM695.933 310.548L692.705 315.12H695.933V310.548Z" fill="#666666"/>
<path d="M75.8125 80.6863L80.1455 72.1664L84.6217 82.9968L88.0874 72.1664L95.7409 71.3L103.25 50.65L107.293 45.8846L111.048 34.621L115.38 32.4549H123.034L126.499 33.4657L134.008 30L138.052 35.7762L142.095 30H153.359L157.402 46.751L165.489 68.5563L168.954 94.5493H176.752L180.651 89.2063H188.882L195.814 87.1846H203.612L208.233 92.8164L211.843 90.6503L215.309 83.43L219.063 63.7909L223.251 70.2891H230.76L234.659 99.8923L238.702 93.6828L242.312 99.8923L247.367 115.632L250.255 127.474H258.053L261.663 161.553L264.984 147.402L269.461 142.925L273.071 132.672L277.114 134.261H284.623L288.667 126.174L292.132 148.701L296.32 152.167L300.363 142.925L304.262 156.644H312.06L315.815 182.348L319.858 181.337L323.035 161.553L327.367 157.943L331.266 139.893H338.631L343.108 150.579L345.851 134.261L346.862 130.362L350.472 127.474L355.815 134.261L365.779 135.272L369.678 152.167L373.721 178.882L377.476 181.337H381.231L385.563 198.666H393.361L396.682 197.222L400.436 199.821L408.09 186.102L412.711 195.2H420.22L423.975 209.207L428.451 212.24H431.917L435.816 220.76L439.715 246.031H448.235L454.877 243.143L458.632 220.76L462.531 210.362H474.083L477.982 221.915L482.459 218.594L489.679 226.825H500.953L505.275 220.76L509.029 196.211L520.437 157.943H527.802L531.99 141.481L536.9 149.857L539.788 157.943L543.687 149.135L547.875 154.044H559.138L562.748 170.218L567.08 157.943L570.546 160.254L574.72 187.511H581.953L586.067 231.182L590.079 208.372L594.091 215.479H597.644L601.885 190.835H612.774L617.129 156.908L621.37 147.165L624.694 132.035H635.927L639.939 112.206L644.065 106.704L647.848 96.8466L652.203 101.202L653.006 109.111L655.642 121.605H663.207L666.875 105.787L671.001 104.755L675.013 110.143H679.368L682.348 111.174H689.799L694.384 99.9414L698.051 114.04L702.178 107.621L704.241 116.561L706.419 123.897L709.972 132.379H716.964L721.319 79.1951L725.102 88.8232L729.228 79.1951L732.094 66.8161L733.011 61.429L736.678 56.1564H748.484L752.152 73.9226L756.164 65.2114L759.717 73.2349L764.187 61.429" stroke="#AD8E53" stroke-width="2" stroke-linecap="round" stroke-linejoin="round"/>
<path d="M77.5312 80.0402L79.9219 76.3109H84.4162L87.4761 74.7809H95.7954L99.1422 69.1392L103.732 62.5411H106.888L111.191 54.5088L115.016 50.3013H123.239L130.22 52.0226L134.332 48.1976L138.444 53.4569L142.268 48.1976H150.301L153.552 46.572L157.951 59.6724L160.954 71.6254L166.27 77.3628L168.278 89.0289H176.597L184.343 76.0241H203.85L207.484 85.2039L211.596 81.2834H215.803L219.915 67.5136L223.262 71.2429H231.007L233.111 77.3628L234.45 83.2915L238.466 84.2477L242.386 89.0289H246.498L249.845 109.492H257.973L261.702 131.39L269.543 114.082L276.906 101.651H289.954L296.7 106.432L300.239 100.982L302.438 108.536L304.063 114.752H311.713L313.626 125.461L314.869 133.111L315.921 138.562L319.937 141.813H342.982L344.512 126.609L345.851 112.17L346.52 106.432L350.632 98.6868L358.186 100.982H366.028L370.426 113.795L372.434 126.609L373.677 133.111H377.694L381.327 127.087L385.63 136.745L396.914 136.267L401.217 130.243L404.946 127.087L408.58 122.975L412.596 126.609H419.959L423.593 135.406L427.992 144.491H431.721L435.641 150.324L437.458 159.503L439.275 169.544H447.212L451.133 167.249L454.575 172.03L458.591 151.758L461.173 142.1L462.32 137.606L466.432 140.187H474.082L477.907 150.324L486.226 156.539L489.956 164.954H504.49L506.212 154.435L508.889 135.693L520.364 115.708H528.014L532.03 106.624L539.68 120.202L543.696 116.951L547.617 125.653H555.649L559.187 127.565L562.916 133.589L566.741 128.521L570.949 137.414H581.954L586.153 221.946L590.265 204.16L593.898 193.259H597.915L601.931 174.229H612.928L617.039 150.897H621.438L624.498 144.873H640.085L647.639 115.325L652.229 108.536L655.767 121.828H663.417L666.859 115.325H670.971L675.178 119.055H697.746L701.953 114.369L706.543 119.915L709.699 116.664H717.062L721.843 80.3271L724.903 87.3076L731.883 64.8361L736.473 55.6562H744.984L748.331 52.8832L752.251 59.7681L755.885 56.4212L759.71 60.9155L764.013 57.5687" stroke="#282828" stroke-width="2" stroke-linecap="round" stroke-linejoin="round"/>
</svg>
