<svg width="283" height="257" viewBox="0 0 283 257" fill="none" xmlns="http://www.w3.org/2000/svg">
<path d="M222.714 138.899C212.804 137.2 190.264 130.291 179.391 116.246C166.082 101.522 153.623 80.8513 148.809 74.6218C143.996 68.3922 131.253 56.2163 125.024 52.2521C118.794 48.2879 115.113 46.5889 106.335 54.2342C105.975 54.4507 105.597 54.6844 105.203 54.9354M95.0089 88.7797C91.611 92.7439 85.0983 95.2924 80.2846 91.6113C78.9196 90.5675 78.4629 88.9236 78.5389 87.0807M95.0089 88.7797C96.3033 87.2696 98.2961 84.6913 100.768 81.9838M95.0089 88.7797L85.9478 103.787L98.69 112.848C98.8076 112.939 98.9317 113.033 99.0619 113.131M137.2 97.8408C133.896 92.8383 126.836 82.2104 125.024 79.7185C122.759 76.6038 117.945 71.5069 115.68 71.7901C112.281 72.4272 109.002 74.4186 106.052 76.868M120.777 89.346C118.511 86.313 112.395 79.5711 106.052 76.868M106.052 76.868C104.133 78.4617 102.352 80.2493 100.768 81.9838M100.768 81.9838C107.249 85.7593 120.493 93.5368 121.626 94.4429C123.042 95.5755 121.343 96.7082 120.21 97.8408M113.698 109.167C112.659 112.093 110.13 118.002 108.317 118.228C106.592 118.444 101.649 115.083 99.0619 113.131M171.179 149.093C167.876 146.922 159.909 141.617 154.473 137.766C147.677 132.953 138.332 124.175 132.952 121.626C127.572 119.078 111.715 113.415 113.131 105.203C114.547 96.9913 123.042 98.9734 126.723 100.106C130.404 101.239 139.748 103.221 149.376 107.468C157.078 110.866 163.534 113.981 165.799 115.114M202.61 189.868C188.452 185.243 157.927 174.917 149.093 170.613C140.258 166.309 134.085 161.457 132.103 159.57M117.945 146.828C113.32 138.993 103.617 122.476 101.805 119.078C99.9926 115.68 99.2211 113.698 99.0619 113.131M78.5389 87.0807C78.6772 83.7243 80.5821 79.7077 81.9835 77.4533C90.2023 66.053 99.414 58.6245 105.203 54.9354M78.5389 87.0807C75.7229 89.6292 68.9582 93.8199 64.4276 90.1955C62.5022 88.6551 61.4933 87.0122 61.1115 85.3817M105.203 54.9354C100.463 53.9608 97.69 54.719 91.1468 57.632M61.1115 85.3817C60.3702 82.2165 61.9924 79.0981 63.8613 76.868C66.6929 73.489 71.2235 66.6932 83.6825 61.03C86.6617 59.6758 89.0904 58.5475 91.1468 57.632M61.1115 85.3817C58.4414 85.6649 52.7048 85.2119 51.1191 81.1343C49.137 76.0375 49.6215 72.0732 55.3665 69.5248C57.8897 68.4055 60.8183 66.9585 63.8613 65.5436M91.1468 57.632C88.4865 58.053 84.7184 58.7868 80.2846 59.8335M63.8613 65.5436C67.7468 63.737 71.8186 61.9827 75.4709 61.03C77.1427 60.5938 78.7533 60.195 80.2846 59.8335M63.8613 65.5436C62.5399 63.8503 59.9537 59.5575 60.1802 55.9331C60.4634 51.4025 64.7108 49.7036 65.2771 49.1372C65.8434 48.5709 67.8256 48.2878 70.6572 50.553C73.4888 52.8183 78.5856 56.6553 80.2846 59.8335M55.3665 76.3204C56.8767 76.0372 60.4068 74.6214 62.4455 71.2235M71.2235 75.754C71.8842 76.698 72.8092 79.2655 71.2235 81.9838C69.6378 84.7022 67.5424 85.7591 66.6929 85.9478M85.9478 88.2131C86.8917 87.3636 88.8927 85.155 89.3457 83.1162C89.7988 81.0774 89.157 79.0576 88.7794 78.3025M117.379 108.034C120.965 109.544 128.705 111.319 130.97 106.335" stroke="black" stroke-width="1.35333"/>
<path d="M264.905 144.845C269.436 145.978 277.176 146.827 280.479 147.111C281.234 148.809 282.745 152.66 282.745 154.473C282.745 156.285 282.367 167.12 282.178 172.312C281.895 173.727 280.932 177.975 279.347 183.638C277.365 190.717 272.834 209.406 272.551 210.255C272.268 211.105 269.153 211.105 266.038 210.821C262.923 210.538 258.959 210.538 253.296 209.406C247.633 208.273 203.743 199.212 199.779 198.079C196.607 197.173 196.569 196.38 196.947 196.097C200.345 188.924 208.217 172.198 212.521 162.684C217.901 150.791 218.467 134.935 218.75 134.368C219.033 133.802 222.998 134.368 227.245 135.784C231.493 137.2 241.686 140.315 245.934 141.447C250.181 142.58 259.242 143.43 264.905 144.845Z" fill="#282828"/>
<path d="M63.0117 160.355C67.1099 161.78 71.0398 163.172 74.3381 164.383C85.438 168.461 111.243 179.485 122.759 184.488L134.085 153.34C125.401 149.753 105.146 141.277 93.593 136.067C82.0401 130.857 57.4429 122.759 46.5884 119.361C45.9277 121.154 44.1532 126.1 42.341 131.537C40.5288 136.973 38.188 147.205 37.2441 151.641C42.684 153.432 53.3182 156.986 63.0117 160.355ZM63.0117 160.355L69.5244 200.061L33.8462 185.903L63.0117 160.355ZM140.881 209.745C147.157 208.55 152.866 207.467 157.587 206.574L148.526 179.391L137.483 180.24L93.593 193.265L13.4587 215.352L19.405 236.589C26.484 234.324 44.5497 228.944 60.1801 225.546C72.9675 222.766 112.654 215.122 140.881 209.745ZM140.881 209.745C125.703 214.321 123.419 230.492 124.174 238.005C125.307 251.37 140.503 255.278 147.96 255.561C153.717 255.938 165.856 251.993 168.347 233.191C170.839 214.389 151.075 209.726 140.881 209.745ZM4.96387 236.589C18.3668 236.495 48.7404 235.909 63.0117 234.324C77.283 232.738 105.769 231.398 118.228 230.926V254.428C103.504 254.428 72.4693 254.428 66.1265 254.428C58.198 254.428 28.7493 254.428 19.405 254.428C11.9296 254.428 6.66283 253.673 4.96387 253.295V236.589Z" stroke="black" stroke-width="1.35333"/>
<path d="M45.4562 1L56.4994 23.6528M28.7497 15.158L45.4562 31.2981M21.1044 31.2981L36.6782 38.9435M169.059 16.3041C169.766 14.5069 170.614 12.9386 171.179 12.0433C170.047 13.8366 167.781 18.3294 167.781 21.9539C167.781 20.1553 168.339 18.143 169.04 16.3527M169.059 16.3041C169.052 16.3203 169.046 16.3365 169.04 16.3527M169.059 16.3041L165.516 12.8927L173.161 20.2549L169.101 16.3446M169.059 16.3041L169.101 16.3446M169.04 16.3527C166.897 16.6381 164.952 17.0923 163.817 17.4233C166.082 16.7626 171.576 15.6111 175.427 16.2907C173.523 15.9548 171.219 16.0662 169.101 16.3446M169.04 16.3527C169.06 16.35 169.08 16.3473 169.101 16.3446M10.0611 98.4071C9.58919 102.277 7.11626 110.187 1 110.866C6.94637 112.565 8.64533 111.433 9.77797 119.644C10.0611 118.228 8.92849 110.017 18.5559 107.468C15.7243 107.468 7.51269 110.583 10.0611 98.4071ZM186.47 43.474C186.376 48.9485 183.638 60.2371 173.445 61.5963C180.807 60.4637 186.47 58.1984 183.922 75.7543C185.337 69.8079 187.886 60.7468 198.929 55.0836C191.85 56.7826 189.018 55.9331 188.169 54.2341C187.489 52.875 186.753 46.4944 186.47 43.474ZM252.446 97.2745L257.543 103.787L253.296 108.884L248.482 102.938L252.446 97.2745Z" stroke="black" stroke-width="1.35333"/>
<path d="M201.195 225.546C203.366 228.095 208.104 234.721 209.69 240.837M200.345 239.421C202.894 238.383 207.934 234.324 207.707 226.396M197.797 232.342C202.327 232.531 211.898 233.135 213.937 234.041" stroke="black" stroke-width="1.35333"/>
</svg>
