<svg width="243" height="294" viewBox="0 0 243 294" fill="none" xmlns="http://www.w3.org/2000/svg">
<path d="M57.8385 134.629L46.2461 72.1794H189.842L205.548 98.7298L186.477 130.141L189.842 186.982L168.153 180.251L138.237 290.191L125.523 245.318L104.582 230.36L106.826 201.192L94.8594 197.826L82.893 144.352L57.8385 134.629Z" fill="white" stroke="black" stroke-width="1.62466"/>
<path d="M154.691 88.2597C172.267 89.3816 207.418 90.1295 207.418 84.1463M227.237 82.6505C235.838 84.271 249.749 89.8303 236.586 99.1042C223.423 108.378 176.505 107.705 154.691 106.209M152.074 118.55C166.658 119.173 198.967 118.998 211.531 113.314M107.574 143.604L96.3552 173.894L104.956 166.789L99.3468 186.608M125.897 192.217V246.066M109.069 180.999L106.826 201.566M135.246 178.381L134.498 200.818M145.342 185.486L135.246 210.167L146.838 197.827L135.246 232.978M145.342 222.133L139.359 241.205M92.2417 54.6044C88.0037 55.8509 78.7048 59.3161 75.4141 63.2052M100.843 59.4657C96.3552 61.4601 86.7073 66.7203 84.0149 71.806M125.897 88.2597C136.118 79.6589 155.663 53.3329 152.074 16.8356" stroke="black" stroke-width="1.62466"/>
<path d="M44.75 71.8055L110.191 2.625L113.183 57.2215L152.447 16.835L205.922 99.1037" stroke="black" stroke-width="1.62466"/>
<path d="M26.8024 69.5623C20.196 70.4348 5.78654 74.7975 1 85.2681M39.5167 77.4152C30.5419 77.4152 13.4151 80.5563 16.7058 93.121C19.9966 105.686 54.7239 108.079 71.6763 107.705M11.8445 109.575C21.0686 113.813 45.0511 121.765 67.1889 119.671M91.1216 107.705C100.969 109.076 125.525 110.697 144.97 106.209M58.5881 88.2597C68.4354 91.7499 93.2905 96.9353 113.932 89.7555" stroke="black" stroke-width="1.62466"/>
</svg>
