<svg xmlns="http://www.w3.org/2000/svg" width="16" height="16" viewBox="0 0 16 16" fill="none">
  <path d="M7.9987 1.33334C9.81003 1.33334 10.036 1.34001 10.7467 1.37334C11.4567 1.40668 11.94 1.51801 12.3654 1.68334C12.8054 1.85268 13.176 2.08201 13.5467 2.45201C13.8857 2.78527 14.148 3.1884 14.3154 3.63334C14.48 4.05801 14.592 4.54201 14.6254 5.25201C14.6567 5.96268 14.6654 6.18868 14.6654 8.00001C14.6654 9.81134 14.6587 10.0373 14.6254 10.748C14.592 11.458 14.48 11.9413 14.3154 12.3667C14.1485 12.8119 13.8861 13.2151 13.5467 13.548C13.2133 13.8869 12.8102 14.1492 12.3654 14.3167C11.9407 14.4813 11.4567 14.5933 10.7467 14.6267C10.036 14.658 9.81003 14.6667 7.9987 14.6667C6.18736 14.6667 5.96136 14.66 5.2507 14.6267C4.5407 14.5933 4.05736 14.4813 3.63203 14.3167C3.18692 14.1497 2.78372 13.8873 2.4507 13.548C2.11164 13.2148 1.84932 12.8117 1.68203 12.3667C1.5167 11.942 1.40536 11.458 1.37203 10.748C1.3407 10.0373 1.33203 9.81134 1.33203 8.00001C1.33203 6.18868 1.3387 5.96268 1.37203 5.25201C1.40536 4.54134 1.5167 4.05868 1.68203 3.63334C1.84886 3.18813 2.11123 2.78489 2.4507 2.45201C2.78381 2.11283 3.18698 1.8505 3.63203 1.68334C4.05736 1.51801 4.54003 1.40668 5.2507 1.37334C5.96136 1.34201 6.18736 1.33334 7.9987 1.33334ZM7.9987 4.66668C7.11464 4.66668 6.2668 5.01787 5.64168 5.64299C5.01655 6.26811 4.66536 7.11596 4.66536 8.00001C4.66536 8.88407 5.01655 9.73191 5.64168 10.357C6.2668 10.9822 7.11464 11.3333 7.9987 11.3333C8.88275 11.3333 9.7306 10.9822 10.3557 10.357C10.9808 9.73191 11.332 8.88407 11.332 8.00001C11.332 7.11596 10.9808 6.26811 10.3557 5.64299C9.7306 5.01787 8.88275 4.66668 7.9987 4.66668V4.66668ZM12.332 4.50001C12.332 4.279 12.2442 4.06703 12.088 3.91075C11.9317 3.75447 11.7197 3.66668 11.4987 3.66668C11.2777 3.66668 11.0657 3.75447 10.9094 3.91075C10.7532 4.06703 10.6654 4.279 10.6654 4.50001C10.6654 4.72102 10.7532 4.93299 10.9094 5.08927C11.0657 5.24555 11.2777 5.33334 11.4987 5.33334C11.7197 5.33334 11.9317 5.24555 12.088 5.08927C12.2442 4.93299 12.332 4.72102 12.332 4.50001ZM7.9987 6.00001C8.52913 6.00001 9.03784 6.21072 9.41291 6.5858C9.78798 6.96087 9.9987 7.46958 9.9987 8.00001C9.9987 8.53044 9.78798 9.03915 9.41291 9.41422C9.03784 9.7893 8.52913 10 7.9987 10C7.46827 10 6.95956 9.7893 6.58448 9.41422C6.20941 9.03915 5.9987 8.53044 5.9987 8.00001C5.9987 7.46958 6.20941 6.96087 6.58448 6.5858C6.95956 6.21072 7.46827 6.00001 7.9987 6.00001V6.00001Z" fill="#404040"/>
</svg>