<svg width="263" height="551" viewBox="0 0 263 551" fill="none" xmlns="http://www.w3.org/2000/svg">
<g clip-path="url(#clip0_1_1508)">
<path d="M139.496 55.7871C139.496 55.7871 128.713 44.6969 126.809 42.027C124.905 39.3571 123.953 29.4618 126.809 24.1315C129.666 18.8011 138.992 2.43648 151.557 0.914847C164.122 -0.606789 166.978 1.29759 173.065 13.6667C179.151 26.0358 181.056 33.6533 186.956 48.3096C192.856 62.9658 186.956 91.8956 186.956 91.8956L186.004 112.265L172.869 148.625" stroke="black" stroke-width="0.933519" stroke-miterlimit="10"/>
<path d="M145.648 51.857L107.373 75.8017C107.373 75.8017 87.5174 73.4493 84.2781 73.3186C81.0388 73.1879 79.2371 73.5799 74.7002 77.7154C70.1633 81.8509 60.3427 91.1674 59.5679 96.0871C58.793 101.007 56.8513 110.193 56.8513 111.098C56.8513 112.004 58.9237 114.851 62.9285 115.112" stroke="black" stroke-width="0.933519" stroke-miterlimit="10"/>
<path d="M60.6041 134.52C60.6041 134.52 62.2844 119.901 63.9647 109.94C65.6451 99.9798 67.8482 97.646 72.1144 96.8712C76.3805 96.0964 87.9002 94.4161 96.5632 89.3657C105.226 84.3154 108.979 82.1216 112.218 80.3106C115.458 78.4996 120.629 77.8555 120.629 77.8555" stroke="black" stroke-width="0.933519" stroke-miterlimit="10"/>
<path d="M94.4253 90.0565C94.4253 90.0565 83.2885 89.7391 81.5708 89.7391C79.8531 89.7391 75.4656 95.975 75.4656 95.975" stroke="black" stroke-width="0.933519" stroke-miterlimit="10"/>
<path d="M79.1531 85.725L81.5709 89.7391" stroke="black" stroke-width="0.933519" stroke-miterlimit="10"/>
<path d="M75.4656 127.78L80.3665 114.011C80.3665 114.011 97.954 109.455 102.51 109.054" stroke="black" stroke-width="0.933519" stroke-miterlimit="10"/>
<path d="M77.314 110.267L80.3572 114.011" stroke="black" stroke-width="0.933519" stroke-miterlimit="10"/>
<path d="M141.185 89.7391H131.738C131.738 89.7391 84.7541 121.059 80.3573 126.398C79.1717 132.989 75.4563 150.278 75.4563 150.278" stroke="black" stroke-width="0.933519" stroke-miterlimit="10"/>
<path d="M153.004 106.188L144.35 105.357C144.35 105.357 106.216 124.074 102.5 126.548C98.785 129.022 88.731 136.434 86.7893 137.853C84.8476 139.272 72.8425 153.741 72.8425 153.741C72.8425 153.741 65.3183 163.674 63.8527 165.475C65.8878 169.312 71.1902 171.459 78.2943 168.071C85.3983 164.682 93.1932 152.836 93.1932 152.836C93.1932 152.836 103.014 152.724 112.713 141.437C121.516 140.532 150.521 133.764 150.521 133.764L162.712 130.833" stroke="black" stroke-width="0.933519" stroke-miterlimit="10"/>
<path d="M158.334 180.29C158.334 180.29 154.824 184.678 150.409 189.224C139.365 183.632 146.656 171.357 146.656 171.357" stroke="black" stroke-width="0.933519" stroke-miterlimit="10"/>
<path d="M188.319 83.4846L220.646 70.3873L240.026 85.725L186.237 107.448" stroke="black" stroke-width="0.933519" stroke-miterlimit="10"/>
<path d="M182.512 121.946L238.346 100.297L240.026 85.725" stroke="black" stroke-width="0.933519" stroke-miterlimit="10"/>
<path d="M235.48 92.8477L227.583 95.9657" stroke="black" stroke-width="0.933519" stroke-miterlimit="10"/>
<path d="M191.707 110.267L200.398 107.131" stroke="black" stroke-width="0.933519" stroke-miterlimit="10"/>
<path d="M206.14 108.699L214.131 104.75" stroke="black" stroke-width="0.933519" stroke-miterlimit="10"/>
<path d="M72.8425 153.732L23.0486 172.075L3.77142 157.27L80.3573 126.398" stroke="black" stroke-width="0.933519" stroke-miterlimit="10"/>
<path d="M66.6253 168.425L21.0136 186.694L0.522827 172.075L3.77147 157.27" stroke="black" stroke-width="0.933519" stroke-miterlimit="10"/>
<path d="M23.0486 172.076L21.0135 186.694" stroke="black" stroke-width="0.933519" stroke-miterlimit="10"/>
<path d="M5.31165 166.297L12.5184 171.982" stroke="black" stroke-width="0.933519" stroke-miterlimit="10"/>
<path d="M25.4197 179.385L33.2239 176.444" stroke="black" stroke-width="0.933519" stroke-miterlimit="10"/>
<path d="M40.6361 173.69L48.8324 170.694" stroke="black" stroke-width="0.933519" stroke-miterlimit="10"/>
<path d="M46.704 166.829L55.3017 163.59" stroke="black" stroke-width="0.933519" stroke-miterlimit="10"/>
<path d="M153.909 132.942L224.325 189.224L222.738 204.198L200.398 213.524L130.562 158.81L118.071 148.625L87.62 160.098C87.62 160.098 89.6644 169.798 84.9315 173.681C80.1986 177.565 77.8834 179.096 73.4679 178.61" stroke="black" stroke-width="0.933519" stroke-miterlimit="10"/>
<path d="M131.43 143.855L201.631 199.624L224.325 189.224" stroke="black" stroke-width="0.933519" stroke-miterlimit="10"/>
<path d="M220.273 195.404L211.265 198.214" stroke="black" stroke-width="0.933519" stroke-miterlimit="10"/>
<path d="M214.131 202.088L206.14 204.73" stroke="black" stroke-width="0.933519" stroke-miterlimit="10"/>
<path d="M188.431 196.814L196.048 201.388" stroke="black" stroke-width="0.933519" stroke-miterlimit="10"/>
<path d="M170.311 185.023L177.172 189.224" stroke="black" stroke-width="0.933519" stroke-miterlimit="10"/>
<path d="M155.972 168.491L162.703 173.69" stroke="black" stroke-width="0.933519" stroke-miterlimit="10"/>
<path d="M133.372 155.646L140.411 160.92" stroke="black" stroke-width="0.933519" stroke-miterlimit="10"/>
<path d="M58.709 100.969L16.3272 67.288L18.7824 53.4253L42.0643 43.8194L79.153 74.3268" stroke="black" stroke-width="0.933519" stroke-miterlimit="10"/>
<path d="M63.0872 89.7391L18.7824 53.4253" stroke="black" stroke-width="0.933519" stroke-miterlimit="10"/>
<path d="M20.6962 65.6824L28.0616 71.5822" stroke="black" stroke-width="0.933519" stroke-miterlimit="10"/>
<path d="M36.5192 78.3969L43.5766 83.9047" stroke="black" stroke-width="0.933519" stroke-miterlimit="10"/>
<path d="M46.6013 81.5055L53.8081 87.088" stroke="black" stroke-width="0.933519" stroke-miterlimit="10"/>
<path d="M79.1531 117.409L84.9409 122.403" stroke="black" stroke-width="0.933519" stroke-miterlimit="10"/>
<path d="M91.9796 111.145L95.4243 114.664" stroke="black" stroke-width="0.933519" stroke-miterlimit="10"/>
<path d="M86.4438 126.081C86.4438 126.081 90.1592 127.183 90.626 128.405" stroke="black" stroke-width="0.933519" stroke-miterlimit="10"/>
<path d="M106.225 128.891L110.006 131.337" stroke="black" stroke-width="0.933519" stroke-miterlimit="10"/>
<path d="M39.7773 58.7277C41.8756 58.7277 43.5767 57.7706 43.5767 56.5899C43.5767 55.4093 41.8756 54.4521 39.7773 54.4521C37.6789 54.4521 35.9778 55.4093 35.9778 56.5899C35.9778 57.7706 37.6789 58.7277 39.7773 58.7277Z" fill="black"/>
<path d="M24.6635 161.937C26.6743 161.937 28.3043 161.152 28.3043 160.182C28.3043 159.213 26.6743 158.427 24.6635 158.427C22.6528 158.427 21.0228 159.213 21.0228 160.182C21.0228 161.152 22.6528 161.937 24.6635 161.937Z" fill="black"/>
<path d="M203.712 187.124C205.543 187.124 207.026 186.292 207.026 185.266C207.026 184.24 205.543 183.408 203.712 183.408C201.882 183.408 200.398 184.24 200.398 185.266C200.398 186.292 201.882 187.124 203.712 187.124Z" fill="black"/>
<path d="M218.854 84.8102C220.88 84.8102 222.523 83.9784 222.523 82.9525C222.523 81.9265 220.88 81.0948 218.854 81.0948C216.828 81.0948 215.185 81.9265 215.185 82.9525C215.185 83.9784 216.828 84.8102 218.854 84.8102Z" fill="black"/>
<path d="M201.631 550.991C235.045 550.991 262.132 540.705 262.132 528.017C262.132 515.329 235.045 505.043 201.631 505.043C168.217 505.043 141.129 515.329 141.129 528.017C141.129 540.705 168.217 550.991 201.631 550.991Z" fill="black"/>
<path d="M16.9153 370.299L25.9798 334.004L182.811 236.199L173.746 272.494L16.9153 370.299Z" fill="white" stroke="black" stroke-width="0.933519"/>
<path d="M182.811 236.199L204.104 272.494L191.595 301.116L173.746 272.494L182.811 236.199Z" fill="#B78935"/>
<path d="M249.642 412.933C249.642 412.933 257.418 434.6 256.83 466.507C246.552 445.428 243.686 432.107 243.686 432.107L249.642 412.933Z" fill="#B78935"/>
<path d="M152.584 459.319C152.584 459.319 171.973 505.314 215.036 483.889C212.842 504.744 192.361 512.455 192.361 512.455L154.068 506.817L136.872 474.461L152.584 459.319Z" fill="#B78935"/>
<path d="M162.105 319.506L175.95 341.705L205.449 323.305L222.205 350.172L190.96 369.664C199.381 390.108 200.118 408.312 193.173 424.266C186.228 440.229 170.488 455.856 145.956 471.156L155.608 486.634C161.321 495.792 167.707 501.804 174.783 504.698C181.859 507.582 189.971 506.182 199.119 500.469C208.268 494.756 212.655 488.576 213.458 481.182C214.252 473.789 211.685 465.322 205.729 455.781L243.695 432.107C255.569 452.019 259.397 470.521 255.187 487.614C250.976 504.707 238.934 519.447 219.078 531.835C198.438 544.708 179.208 548.993 161.387 544.699C143.556 540.405 128.032 527.643 114.795 506.415L90.5699 467.571C111.406 454.577 126.454 444.448 135.715 437.185C144.975 429.923 150.95 423.024 153.629 416.48C156.308 409.945 156 402.29 152.705 393.534L65.3836 447.996L48.6269 421.129L137.414 365.762L123.57 343.563L34.7828 398.93L16.934 370.308L173.765 272.503L191.614 301.125L162.115 319.525L162.105 319.506Z" fill="white" stroke="black" stroke-width="0.933519"/>
<path d="M205.71 455.79L211.199 436.803L249.641 412.933L243.686 432.107L205.71 455.79Z" fill="white" stroke="black" stroke-width="0.933519"/>
<path d="M28.3043 183.772L48.6083 421.12" stroke="black" stroke-width="0.933519" stroke-miterlimit="10"/>
<path d="M48.8324 321.522L44.7343 177.191" stroke="black" stroke-width="0.933519" stroke-miterlimit="10"/>
<path d="M43.5767 141.223L40.048 87.088" stroke="black" stroke-width="0.933519" stroke-miterlimit="10"/>
<path d="M201.631 268.265L200.398 213.524L201.631 199.624" stroke="black" stroke-width="0.933519" stroke-miterlimit="10"/>
<path d="M218.107 108.139V185.266" stroke="black" stroke-width="0.933519" stroke-miterlimit="10"/>
<path d="M218.107 206.13L220.273 431.164" stroke="black" stroke-width="0.933519" stroke-miterlimit="10"/>
<path d="M58.485 102.174C58.485 102.174 61.0802 102.174 61.0802 104.47C61.0802 106.767 59.5118 114.113 59.5118 114.113L56.8607 111.098L58.485 102.174Z" fill="black" stroke="black" stroke-width="0.933519" stroke-miterlimit="10"/>
<path d="M68.3429 169.238C68.3429 169.238 72.7398 165.317 74.1494 162.031C75.559 158.745 75.1483 155.842 74.1494 152.164C69.8179 157.709 63.8434 165.466 63.8434 165.466C63.8434 165.466 65.7104 168.733 68.3429 169.238Z" fill="black" stroke="black" stroke-width="0.933519" stroke-miterlimit="10"/>
<path d="M78.2943 168.061L77.9582 178.209L73.468 178.61V169.592C73.468 169.592 75.8952 169.48 78.285 168.052L78.2943 168.061Z" fill="black" stroke="black" stroke-width="0.933519" stroke-miterlimit="10"/>
<path d="M87.6201 160.098L93.1932 152.826C93.1932 152.826 102.51 153.582 112.713 141.428C129.731 139.421 148.654 134.203 150.521 133.755C153.909 132.933 154.619 133.064 148.887 135.771C143.155 138.478 134.809 140.831 132.205 142.968C129.6 145.106 130.637 153.76 130.637 153.76L130.553 158.81L118.062 148.626L87.6108 160.098H87.6201Z" fill="black" stroke="black" stroke-width="0.933519" stroke-miterlimit="10"/>
<path d="M154.367 177.471L147.039 186.816L150.409 189.224L157.821 180.925L157.335 179.796L154.367 177.471Z" fill="black" stroke="black" stroke-width="0.933519" stroke-miterlimit="10"/>
<circle cx="0.933519" cy="0.933519" r="0.933519" transform="matrix(1 0 0 -1 110.155 226.845)" fill="#222D4E"/>
<circle cx="0.933519" cy="0.933519" r="0.933519" transform="matrix(1 0 0 -1 110.155 226.845)" fill="#222D4E"/>
<circle cx="0.933519" cy="0.933519" r="0.933519" transform="matrix(1 0 0 -1 66.2798 189.504)" fill="#222D4E"/>
<circle cx="0.933519" cy="0.933519" r="0.933519" transform="matrix(1 0 0 -1 86.8173 270.72)" fill="#222D4E"/>
<circle cx="0.933519" cy="0.933519" r="0.933519" transform="matrix(1 0 0 -1 185.77 218.443)" fill="#222D4E"/>
<circle cx="0.933519" cy="0.933519" r="0.933519" transform="matrix(1 0 0 -1 249.25 318.33)" fill="#222D4E"/>
<circle cx="0.933519" cy="0.933519" r="0.933519" transform="matrix(1 0 0 -1 14.9363 466.759)" fill="#222D4E"/>
</g>
<defs>
<clipPath id="clip0_1_1508">
<rect width="262.123" height="551" fill="white"/>
</clipPath>
</defs>
</svg>
