<svg xmlns="http://www.w3.org/2000/svg" width="16" height="16" viewBox="0 0 16 16" fill="none">
  <path d="M4.6276 3.33333C4.62743 3.68695 4.48678 4.02602 4.23661 4.27594C3.98644 4.52587 3.64723 4.66617 3.2936 4.666C2.93998 4.66582 2.60091 4.52517 2.35099 4.275C2.10107 4.02483 1.96076 3.68562 1.96094 3.332C1.96111 2.97837 2.10176 2.63931 2.35193 2.38938C2.60211 2.13946 2.94132 1.99915 3.29494 1.99933C3.64856 1.99951 3.98763 2.14015 4.23755 2.39032C4.48748 2.6405 4.62778 2.97971 4.6276 3.33333V3.33333ZM4.6676 5.65333H2.00094V14H4.6676V5.65333ZM8.88094 5.65333H6.2276V14H8.85427V9.62C8.85427 7.18 12.0343 6.95333 12.0343 9.62V14H14.6676V8.71333C14.6676 4.6 9.96094 4.75333 8.85427 6.77333L8.88094 5.65333V5.65333Z" fill="#404040"/>
</svg>