<svg xmlns="http://www.w3.org/2000/svg" width="37" height="41" viewBox="0 0 37 41" fill="none">
  <path d="M32.5814 7.26717L22.9213 1.68618C20.1849 0.104608 16.817 0.104608 14.0805 1.68618L4.42042 7.26717C1.68397 8.84305 0 11.7616 0 14.9247V26.081C0 29.2384 1.68397 32.1569 4.42042 33.7385L14.0805 39.3138C16.817 40.8954 20.1849 40.8954 22.9213 39.3138L32.5814 33.7385C35.3179 32.1569 37.0019 29.2384 37.0019 26.081V14.9247C37.0019 11.7672 35.3179 8.84874 32.5814 7.26717Z" fill="url(#paint0_linear_1_1670)"/>
  <path d="M32.0524 7.56878L22.9214 2.30068C20.185 0.719109 16.817 0.719109 14.0806 2.30068L4.94959 7.56878C2.21313 9.15034 0.529163 12.0688 0.529163 15.2263V25.7682C0.529163 28.9256 2.21313 31.8441 4.94959 33.4257L14.0806 38.6995C16.817 40.2811 20.185 40.2811 22.9214 38.6995L32.0524 33.4257C34.7889 31.8441 36.4728 28.9256 36.4728 25.7682V15.2263C36.4728 12.0688 34.7889 9.15034 32.0524 7.56878Z" fill="#1D1B1C"/>
  <path d="M31.8475 12.8994L22.8133 33.6418H21.7608L18.592 26.519L15.4971 33.6418H14.3479L5.16001 12.8994H9.33011L14.8315 25.4438L16.4301 21.6606L13.4149 14.8735H23.6496L20.7481 21.5525L22.4548 25.4438L27.7571 12.8994H31.8475ZM18.353 6.79496C16.4415 6.79496 14.894 8.3424 14.894 10.2539C14.894 12.1655 16.4415 13.7129 18.353 13.7129C20.2645 13.7129 21.812 12.1655 21.812 10.2539C21.812 8.3424 20.2645 6.79496 18.353 6.79496Z" fill="url(#paint1_linear_1_1670)"/>
  <defs>
    <linearGradient id="paint0_linear_1_1670" x1="0" y1="20.5" x2="37.0019" y2="20.5" gradientUnits="userSpaceOnUse">
      <stop stop-color="#D49A29"/>
      <stop offset="0.32" stop-color="#F9F18F"/>
      <stop offset="0.68" stop-color="#FDE35B"/>
      <stop offset="1" stop-color="#AC722A"/>
    </linearGradient>
    <linearGradient id="paint1_linear_1_1670" x1="5.16001" y1="20.2212" x2="31.8475" y2="20.2212" gradientUnits="userSpaceOnUse">
      <stop stop-color="#D49A29"/>
      <stop offset="0.32" stop-color="#F9F18F"/>
      <stop offset="0.68" stop-color="#FDE35B"/>
      <stop offset="1" stop-color="#AC722A"/>
    </linearGradient>
  </defs>
</svg>