<svg xmlns="http://www.w3.org/2000/svg" width="87" height="14" viewBox="0 0 87 14" fill="none">
  <path d="M11.247 4.23667H11.0815C10.7856 2.76206 10.3592 1.66363 8.39308 1.66363H7.09903V11.4141C7.09903 12.3972 7.46016 12.9038 7.87145 12.9038V13.0693H3.39746V12.9038C3.78869 12.9038 4.14982 12.3972 4.14982 11.4141V1.66363H2.85577C0.889629 1.66363 0.463297 2.76206 0.167372 4.23667H0.00185394L0.0821066 1.1721H11.1617L11.242 4.23667H11.247Z" fill="black"/>
  <path d="M18.0834 7.09058C18.0834 6.10751 17.6069 5.61597 16.674 5.61597C16.1022 5.61597 15.4953 5.9771 15.1341 6.53384V11.2686C15.1341 12.0711 15.4953 12.9088 15.9066 12.9088V13.0743H11.578V12.9088C11.9893 12.9088 12.3504 12.0912 12.3504 11.3338V2.94262C12.3504 2.12507 11.9893 1.3376 11.578 1.3376V1.17209C12.7918 1.09184 14.1009 0.876162 14.9385 0.499987H15.1341V5.79152C15.7561 5.01911 16.8545 4.39717 18.0984 4.39717C19.884 4.39717 20.8671 5.51064 20.8671 7.52695V11.2636C20.8671 12.0661 21.2282 12.9037 21.6395 12.9037V13.0693H17.3109V12.9037C17.7222 12.9037 18.0834 12.0862 18.0834 11.3288V7.08557V7.09058Z" fill="black"/>
  <path d="M29.7047 8.30439H24.3931C24.5084 10.3859 25.5066 11.5495 26.9812 11.5495C27.573 11.5495 29.2081 11.4492 29.5693 9.76395H29.7348C29.5392 12.011 27.9642 13.2398 25.8827 13.2398C23.3448 13.2398 21.5542 11.4041 21.5542 8.78088C21.5542 6.15768 23.2595 4.40721 25.7022 4.40721C27.9291 4.40721 29.6997 5.96207 29.6997 7.96332V8.3094L29.7047 8.30439ZM27.0012 7.90815C26.936 5.99216 26.4595 4.80846 25.7724 4.80846C24.9548 4.80846 24.4432 6.23291 24.378 7.90815H27.0012Z" fill="black"/>
  <path d="M35.8639 2.92758C35.5379 1.9094 34.931 1.33761 34.5849 1.33761V1.1721H39.6006V1.33761C38.9285 1.33761 38.6827 1.9094 39.0439 2.99279L41.2558 9.76395L42.7956 5.05924L42.1235 2.92758C41.7975 1.9094 41.1906 1.33761 40.8445 1.33761V1.1721H45.8602V1.33761C45.1881 1.33761 44.9423 1.9094 45.3034 2.99279L47.5153 9.76395L49.7925 2.81222C50.1385 1.7489 49.8276 1.33761 49.1555 1.33761V1.1721H51.9241V1.33761C51.3022 1.33761 50.6301 1.94451 50.3342 2.86238L47.1041 13.0743H45.3185L43.0915 5.99216L40.8445 13.0743H39.0589L35.8639 2.92758Z" fill="black"/>
  <path d="M57.958 8.30439H52.6464C52.7617 10.3859 53.7599 11.5495 55.2345 11.5495C55.8263 11.5495 57.4614 11.4492 57.8225 9.76395H57.9881C57.7924 12.011 56.2175 13.2398 54.136 13.2398C51.5981 13.2398 49.8075 11.4041 49.8075 8.78088C49.8075 6.15768 51.5128 4.40721 53.9555 4.40721C56.1824 4.40721 57.953 5.96207 57.953 7.96332V8.3094L57.958 8.30439ZM55.2545 7.90815C55.1893 5.99216 54.7128 4.80846 54.0257 4.80846C53.2081 4.80846 52.6965 6.23291 52.6313 7.90815H55.2545Z" fill="black"/>
  <path d="M65.9529 11.71C65.9529 12.0712 66.0683 12.3019 66.3291 12.3019C66.4946 12.3019 66.6401 12.2367 66.7705 11.9558H66.936C66.936 12.6931 66.1837 13.2348 65.1805 13.2348C64.1172 13.2348 63.5103 12.9389 63.2645 12.3019C62.758 12.9589 61.9855 13.2348 61.0677 13.2348C59.5931 13.2348 58.3141 12.2367 58.3141 10.5313C58.3141 8.08871 60.4608 7.2862 61.9203 7.2862C62.8232 7.2862 63.1642 7.54701 63.1642 7.54701V6.36833C63.1642 5.43541 62.8031 4.81347 62.3116 4.81347C61.8852 4.81347 61.6746 5.2398 61.6746 6.10751C61.6746 6.82977 61.0526 7.37146 60.0846 7.37146C59.3122 7.37146 58.8859 6.94513 58.8859 6.28808C58.8859 5.08933 60.3304 4.40219 62.1661 4.40219C64.6589 4.40219 65.9529 5.942 65.9529 8.35454V11.715V11.71ZM63.1692 8.61535C63.1692 8.23918 62.9736 7.84294 62.4971 7.84294C61.7448 7.84294 61.2031 8.84106 61.2031 10.5965C61.2031 11.6799 61.6595 12.3019 62.2012 12.3019C62.5774 12.3019 62.8884 12.1564 63.1692 11.7953V8.61535Z" fill="black"/>
  <path d="M70.3317 11.2686C70.3317 12.0711 70.6928 12.9088 71.1041 12.9088V13.0743H66.7755V12.9088C67.1868 12.9088 67.548 12.0912 67.548 11.3338V2.94262C67.548 2.12507 67.1868 1.3376 66.7755 1.3376V1.17209C67.9893 1.09184 69.2984 0.876162 70.136 0.499987H70.3317V11.2686Z" fill="black"/>
  <path d="M74.2639 2.14011H74.5899V4.5677H76.4608V4.97898H74.5899V10.6016C74.5899 11.4041 74.9009 11.8454 75.4426 11.8454C75.9191 11.8454 76.3103 11.4693 76.3755 11.1583H76.541C76.541 12.357 75.5078 13.2398 74.0984 13.2398C72.5887 13.2398 71.8062 12.3219 71.8062 10.6016V4.97898H70.773V4.5677H71.0188C72.5285 4.5677 73.968 3.53447 74.2639 2.14011Z" fill="black"/>
  <path d="M82.9661 7.09058C82.9661 6.10751 82.4896 5.61597 81.5567 5.61597C80.9849 5.61597 80.378 5.9771 80.0169 6.53384V11.2686C80.0169 12.0711 80.378 12.9088 80.7893 12.9088V13.0743H76.4608V12.9088C76.8721 12.9088 77.2332 12.0912 77.2332 11.3338V2.94262C77.2332 2.12507 76.8721 1.3376 76.4608 1.3376V1.17209C77.6746 1.09184 78.9837 0.876162 79.8213 0.499987H80.0169V5.79152C80.6388 5.01911 81.7373 4.39717 82.9811 4.39717C84.7667 4.39717 85.7498 5.51064 85.7498 7.52695V11.2636C85.7498 12.0661 86.1109 12.9037 86.5222 12.9037V13.0693H82.1937V12.9037C82.605 12.9037 82.9661 12.0862 82.9661 11.3288V7.08557V7.09058Z" fill="black"/>
</svg>