<svg xmlns="http://www.w3.org/2000/svg" width="73" height="17" viewBox="0 0 73 17" fill="none">
  <path d="M10.7375 3.35392C10.7224 4.23667 10.1456 4.99404 9.24782 4.99404C8.21459 4.99404 7.77321 4.3721 7.78826 3.48432C7.80331 2.53134 8.01898 0.991532 6.36381 0.991532C4.87416 0.991532 3.50989 2.46614 3.50989 5.82664C3.50989 8.82602 4.91929 10.7119 7.14625 10.7119C9.0171 10.7119 10.3111 9.54827 10.5068 7.69749H10.6723C10.8679 10.6818 8.93685 12.7433 5.93748 12.7433C2.65723 12.7433 0.530579 10.3357 0.530579 6.62915C0.530579 2.92257 3.08857 0.499996 6.42901 0.499996C9.06726 0.499996 10.7726 1.82915 10.7375 3.35392Z" fill="black"/>
  <path d="M15.8334 3.91066C18.3914 3.91066 20.3726 5.8116 20.3726 8.33448C20.3726 10.8574 18.3914 12.7433 15.8334 12.7433C13.2754 12.7433 11.244 10.8423 11.244 8.33448C11.244 5.82664 13.2453 3.91066 15.8334 3.91066ZM15.8133 12.337C16.681 12.337 17.3882 11.4693 17.3882 8.31943C17.3882 5.16959 16.681 4.32194 15.8133 4.32194C14.9456 4.32194 14.2234 5.18965 14.2234 8.31943C14.2234 11.4492 14.9456 12.337 15.8133 12.337Z" fill="black"/>
  <path d="M26.3864 6.59906C26.3864 5.61598 25.9751 5.12445 25.1425 5.12445C24.6359 5.12445 24.0942 5.48558 23.7682 6.02727V10.7821C23.7682 11.5846 24.1293 12.4223 24.5406 12.4223V12.5878H20.2121V12.4223C20.6234 12.4223 20.9845 11.6047 20.9845 10.8473V6.5188C20.9845 5.70125 20.6234 4.91379 20.2121 4.91379V4.74827C21.4259 4.66802 22.735 4.45235 23.5726 4.07617H23.7682V5.28997C24.3601 4.51755 25.3933 3.91567 26.572 3.91567C27.7507 3.91567 28.508 4.42225 28.8992 5.39028C29.471 4.57272 30.5544 3.91567 31.7682 3.91567C33.4585 3.91567 34.3764 5.02915 34.3764 7.04545V10.7821C34.3764 11.5846 34.7375 12.4223 35.1488 12.4223V12.5878H30.8202V12.4223C31.2315 12.4223 31.5927 11.6047 31.5927 10.8473V6.60407C31.5927 5.621 31.1814 5.12946 30.3488 5.12946C29.8923 5.12946 29.3958 5.42539 29.0698 5.88181C29.135 6.2279 29.1851 6.61912 29.1851 7.04545V10.7821C29.1851 11.5846 29.5463 12.4223 29.9575 12.4223V12.5878H25.629V12.4223C26.0403 12.4223 26.4014 11.6047 26.4014 10.8473V6.60407L26.3864 6.59906Z" fill="black"/>
  <path d="M38.5293 4.07617V4.95893C39.3318 4.28683 40.35 3.91066 41.318 3.91066C43.3343 3.91066 44.8591 5.50062 44.8591 8.17398C44.8591 10.8473 43.3193 12.7483 40.977 12.7483C39.8635 12.7483 39.1061 12.337 38.5343 11.6348V14.5188C38.5343 15.3213 38.8955 16.1589 39.3067 16.1589V16.3244H34.9782V16.1589C35.3895 16.1589 35.7506 15.3414 35.7506 14.584V6.51881C35.7506 5.70125 35.3895 4.91379 34.9782 4.91379V4.74827C36.192 4.66802 37.5011 4.45235 38.3387 4.07617H38.5343H38.5293ZM38.5293 10.2204C38.8403 11.5295 39.5124 12.0411 40.2647 12.0411C41.2478 12.0411 41.9049 10.5965 41.9049 8.28934C41.9049 5.98213 41.1525 4.73323 40.0691 4.73323C39.5425 4.73323 38.8252 5.22476 38.5293 5.7815V10.2254V10.2204Z" fill="black"/>
  <path d="M52.824 11.2185C52.824 11.5796 52.9394 11.8103 53.2002 11.8103C53.3657 11.8103 53.5111 11.7451 53.6415 11.4643H53.8071C53.8071 12.2016 53.0547 12.7433 52.0516 12.7433C50.9883 12.7433 50.3814 12.4473 50.1356 11.8103C49.629 12.4674 48.8566 12.7433 47.9387 12.7433C46.4641 12.7433 45.1851 11.7451 45.1851 10.0398C45.1851 7.59718 47.3318 6.79467 48.7914 6.79467C49.6942 6.79467 50.0353 7.05548 50.0353 7.05548V5.8768C50.0353 4.94388 49.6741 4.32194 49.1826 4.32194C48.7563 4.32194 48.5456 4.74827 48.5456 5.61598C48.5456 6.33824 47.9237 6.87993 46.9557 6.87993C46.1832 6.87993 45.7569 6.4536 45.7569 5.79655C45.7569 4.5978 47.2014 3.91066 49.0372 3.91066C51.53 3.91066 52.824 5.45047 52.824 7.86301V11.2235V11.2185ZM50.0353 8.12382C50.0353 7.74765 49.8397 7.35141 49.3632 7.35141C48.6108 7.35141 48.0691 8.34953 48.0691 10.105C48.0691 11.1884 48.5256 11.8103 49.0673 11.8103C49.4434 11.8103 49.7544 11.6649 50.0353 11.3038V8.12382Z" fill="black"/>
  <path d="M60.2321 6.59906C60.2321 5.61598 59.7556 5.12445 58.8227 5.12445C58.2509 5.12445 57.6441 5.48558 57.2829 6.04232V10.7771C57.2829 11.5796 57.6441 12.4172 58.0553 12.4172V12.5828H53.7268V12.4172C54.1381 12.4172 54.4992 11.5997 54.4992 10.8423V6.51379C54.4992 5.69624 54.1381 4.90877 53.7268 4.90877V4.74326C54.9406 4.66301 56.2497 4.44733 57.0873 4.07116H57.2829V5.3C57.9049 4.52758 59.0033 3.90564 60.2472 3.90564C62.0328 3.90564 63.0158 5.01912 63.0158 7.03542V10.7721C63.0158 11.5746 63.377 12.4122 63.7883 12.4122V12.5777H59.4597V12.4122C59.871 12.4122 60.2321 11.5947 60.2321 10.8373V6.59404V6.59906Z" fill="black"/>
  <path d="M63.9337 13.631C65.5387 13.631 64.9168 15.3514 66.0001 15.3514C66.3763 15.3514 66.7375 15.0906 67.0484 14.3984L63.9337 5.86176C63.5876 4.90879 63.0509 4.2417 62.6396 4.2417V4.07618H67.229V4.2417C66.8378 4.2417 66.6572 4.9138 66.9983 5.86176L68.6033 10.2856L70.2735 5.81161C70.6196 4.90879 70.0779 4.23669 69.6817 4.23669V4.07117H72.2697V4.23669C71.8585 4.23669 70.9907 4.90879 70.6647 5.81161L67.6002 14.0724C66.9933 15.7276 66.0754 16.5 64.7663 16.5C62.2936 16.5 62.1581 13.631 63.9287 13.631H63.9337Z" fill="black"/>
</svg>