<svg width="210" height="41" viewBox="0 0 210 41" fill="none" xmlns="http://www.w3.org/2000/svg">
<path d="M32.5814 7.26717L22.9213 1.68618C20.1849 0.104608 16.817 0.104608 14.0805 1.68618L4.42042 7.26717C1.68397 8.84305 0 11.7616 0 14.9247V26.081C0 29.2384 1.68397 32.1569 4.42042 33.7385L14.0805 39.3138C16.817 40.8954 20.1849 40.8954 22.9213 39.3138L32.5814 33.7385C35.3179 32.1569 37.0019 29.2384 37.0019 26.081V14.9247C37.0019 11.7672 35.3179 8.84874 32.5814 7.26717Z" fill="url(#paint0_linear_1_2467)"/>
<path d="M32.0523 7.56878L22.9213 2.30068C20.1849 0.719109 16.8169 0.719109 14.0805 2.30068L4.94948 7.56878C2.21302 9.15034 0.529053 12.0688 0.529053 15.2263V25.7682C0.529053 28.9256 2.21302 31.8441 4.94948 33.4257L14.0805 38.6995C16.8169 40.2811 20.1849 40.2811 22.9213 38.6995L32.0523 33.4257C34.7888 31.8441 36.4727 28.9256 36.4727 25.7682V15.2263C36.4727 12.0688 34.7888 9.15034 32.0523 7.56878Z" fill="#1D1B1C"/>
<path d="M31.8474 12.8994L22.8132 33.6418H21.7607L18.5919 26.519L15.497 33.6418H14.3478L5.15991 12.8994H9.33002L14.8314 25.4438L16.43 21.6606L13.4148 14.8735H23.6495L20.748 21.5525L22.4548 25.4438L27.757 12.8994H31.8474ZM18.3529 6.79496C16.4414 6.79496 14.8939 8.3424 14.8939 10.2539C14.8939 12.1655 16.4414 13.7129 18.3529 13.7129C20.2644 13.7129 21.8119 12.1655 21.8119 10.2539C21.8119 8.3424 20.2644 6.79496 18.3529 6.79496Z" fill="url(#paint1_linear_1_2467)"/>
<path d="M56.2471 6.23667H56.0816C55.7857 4.76206 55.3593 3.66363 53.3932 3.66363H52.0991V13.4141C52.0991 14.3972 52.4603 14.9038 52.8715 14.9038V15.0693H48.3976V14.9038C48.7888 14.9038 49.1499 14.3972 49.1499 13.4141V3.66363H47.8559C45.8897 3.66363 45.4634 4.76206 45.1675 6.23667H45.002L45.0822 3.1721H56.1618L56.2421 6.23667H56.2471Z" fill="black"/>
<path d="M63.0835 9.09058C63.0835 8.10751 62.607 7.61597 61.674 7.61597C61.1023 7.61597 60.4954 7.9771 60.1342 8.53384V13.2686C60.1342 14.0711 60.4954 14.9088 60.9067 14.9088V15.0743H56.5781V14.9088C56.9894 14.9088 57.3505 14.0912 57.3505 13.3338V4.94262C57.3505 4.12507 56.9894 3.3376 56.5781 3.3376V3.17209C57.7919 3.09184 59.101 2.87616 59.9386 2.49999H60.1342V7.79152C60.7562 7.01911 61.8546 6.39717 63.0985 6.39717C64.8841 6.39717 65.8672 7.51064 65.8672 9.52695V13.2636C65.8672 14.0661 66.2283 14.9037 66.6396 14.9037V15.0693H62.311V14.9037C62.7223 14.9037 63.0835 14.0862 63.0835 13.3288V9.08557V9.09058Z" fill="black"/>
<path d="M74.7049 10.3044H69.3933C69.5087 12.3859 70.5068 13.5495 71.9814 13.5495C72.5733 13.5495 74.2084 13.4492 74.5695 11.7639H74.735C74.5394 14.011 72.9645 15.2398 70.883 15.2398C68.345 15.2398 66.5544 13.4041 66.5544 10.7809C66.5544 8.15768 68.2598 6.40721 70.7024 6.40721C72.9294 6.40721 74.6999 7.96207 74.6999 9.96332V10.3094L74.7049 10.3044ZM72.0015 9.90815C71.9363 7.99216 71.4598 6.80846 70.7726 6.80846C69.9551 6.80846 69.4435 8.23291 69.3783 9.90815H72.0015Z" fill="black"/>
<path d="M80.864 4.92758C80.5379 3.9094 79.931 3.33761 79.585 3.33761V3.1721H84.6006V3.33761C83.9285 3.33761 83.6828 3.9094 84.0439 4.99279L86.2558 11.7639L87.7956 7.05924L87.1235 4.92758C86.7975 3.9094 86.1906 3.33761 85.8445 3.33761V3.1721H90.8602V3.33761C90.1881 3.33761 89.9423 3.9094 90.3035 4.99279L92.5154 11.7639L94.7925 4.81222C95.1386 3.7489 94.8276 3.33761 94.1555 3.33761V3.1721H96.9241V3.33761C96.3022 3.33761 95.6301 3.94451 95.3342 4.86238L92.1041 15.0743H90.3185L88.0915 7.99216L85.8445 15.0743H84.0589L80.864 4.92758Z" fill="black"/>
<path d="M102.958 10.3044H97.6465C97.7619 12.3859 98.76 13.5495 100.235 13.5495C100.826 13.5495 102.462 13.4492 102.823 11.7639H102.988C102.793 14.011 101.218 15.2398 99.1361 15.2398C96.5982 15.2398 94.8076 13.4041 94.8076 10.7809C94.8076 8.15768 96.5129 6.40721 98.9556 6.40721C101.183 6.40721 102.953 7.96207 102.953 9.96332V10.3094L102.958 10.3044ZM100.255 9.90815C100.189 7.99216 99.7129 6.80846 99.0258 6.80846C98.2082 6.80846 97.6966 8.23291 97.6314 9.90815H100.255Z" fill="black"/>
<path d="M110.953 13.71C110.953 14.0712 111.068 14.3019 111.329 14.3019C111.495 14.3019 111.64 14.2367 111.771 13.9558H111.936C111.936 14.6931 111.184 15.2348 110.181 15.2348C109.117 15.2348 108.51 14.9389 108.265 14.3019C107.758 14.9589 106.986 15.2348 106.068 15.2348C104.593 15.2348 103.314 14.2367 103.314 12.5313C103.314 10.0887 105.461 9.2862 106.92 9.2862C107.823 9.2862 108.164 9.54701 108.164 9.54701V8.36833C108.164 7.43541 107.803 6.81347 107.312 6.81347C106.885 6.81347 106.675 7.2398 106.675 8.10751C106.675 8.82977 106.053 9.37146 105.085 9.37146C104.312 9.37146 103.886 8.94513 103.886 8.28808C103.886 7.08933 105.331 6.40219 107.166 6.40219C109.659 6.40219 110.953 7.942 110.953 10.3545V13.715V13.71ZM108.169 10.6154C108.169 10.2392 107.974 9.84294 107.497 9.84294C106.745 9.84294 106.203 10.8411 106.203 12.5965C106.203 13.6799 106.66 14.3019 107.201 14.3019C107.578 14.3019 107.888 14.1564 108.169 13.7953V10.6154Z" fill="black"/>
<path d="M115.332 13.2686C115.332 14.0711 115.693 14.9088 116.104 14.9088V15.0743H111.776V14.9088C112.187 14.9088 112.548 14.0912 112.548 13.3338V4.94262C112.548 4.12507 112.187 3.3376 111.776 3.3376V3.17209C112.989 3.09184 114.299 2.87616 115.136 2.49999H115.332V13.2686Z" fill="black"/>
<path d="M119.264 4.14011H119.59V6.5677H121.461V6.97898H119.59V12.6016C119.59 13.4041 119.901 13.8454 120.443 13.8454C120.919 13.8454 121.31 13.4693 121.376 13.1583H121.541C121.541 14.357 120.508 15.2398 119.099 15.2398C117.589 15.2398 116.806 14.3219 116.806 12.6016V6.97898H115.773V6.5677H116.019C117.529 6.5677 118.968 5.53447 119.264 4.14011Z" fill="black"/>
<path d="M127.966 9.09058C127.966 8.10751 127.49 7.61597 126.557 7.61597C125.985 7.61597 125.378 7.9771 125.017 8.53384V13.2686C125.017 14.0711 125.378 14.9088 125.789 14.9088V15.0743H121.461V14.9088C121.872 14.9088 122.233 14.0912 122.233 13.3338V4.94262C122.233 4.12507 121.872 3.3376 121.461 3.3376V3.17209C122.675 3.09184 123.984 2.87616 124.821 2.49999H125.017V7.79152C125.639 7.01911 126.737 6.39717 127.981 6.39717C129.767 6.39717 130.75 7.51064 130.75 9.52695V13.2636C130.75 14.0661 131.111 14.9037 131.522 14.9037V15.0693H127.194V14.9037C127.605 14.9037 127.966 14.0862 127.966 13.3288V9.08557V9.09058Z" fill="black"/>
<path d="M147.738 5.35392C147.723 6.23667 147.146 6.99404 146.248 6.99404C145.215 6.99404 144.773 6.3721 144.788 5.48432C144.803 4.53134 145.019 2.99153 143.364 2.99153C141.874 2.99153 140.51 4.46614 140.51 7.82664C140.51 10.826 141.919 12.7119 144.146 12.7119C146.017 12.7119 147.311 11.5483 147.507 9.69749H147.672C147.868 12.6818 145.937 14.7433 142.938 14.7433C139.657 14.7433 137.531 12.3357 137.531 8.62915C137.531 4.92257 140.089 2.5 143.429 2.5C146.067 2.5 147.773 3.82915 147.738 5.35392Z" fill="black"/>
<path d="M152.833 5.91066C155.391 5.91066 157.373 7.8116 157.373 10.3345C157.373 12.8574 155.391 14.7433 152.833 14.7433C150.275 14.7433 148.244 12.8423 148.244 10.3345C148.244 7.82664 150.245 5.91066 152.833 5.91066ZM152.813 14.337C153.681 14.337 154.388 13.4693 154.388 10.3194C154.388 7.16959 153.681 6.32194 152.813 6.32194C151.946 6.32194 151.223 7.18965 151.223 10.3194C151.223 13.4492 151.946 14.337 152.813 14.337Z" fill="black"/>
<path d="M163.386 8.59906C163.386 7.61598 162.975 7.12445 162.143 7.12445C161.636 7.12445 161.094 7.48558 160.768 8.02727V12.7821C160.768 13.5846 161.129 14.4223 161.541 14.4223V14.5878H157.212V14.4223C157.623 14.4223 157.985 13.6047 157.985 12.8473V8.5188C157.985 7.70125 157.623 6.91379 157.212 6.91379V6.74827C158.426 6.66802 159.735 6.45235 160.573 6.07617H160.768V7.28997C161.36 6.51755 162.393 5.91567 163.572 5.91567C164.751 5.91567 165.508 6.42225 165.899 7.39028C166.471 6.57272 167.554 5.91567 168.768 5.91567C170.459 5.91567 171.376 7.02915 171.376 9.04545V12.7821C171.376 13.5846 171.738 14.4223 172.149 14.4223V14.5878H167.82V14.4223C168.232 14.4223 168.593 13.6047 168.593 12.8473V8.60407C168.593 7.621 168.181 7.12946 167.349 7.12946C166.892 7.12946 166.396 7.42539 166.07 7.88181C166.135 8.2279 166.185 8.61912 166.185 9.04545V12.7821C166.185 13.5846 166.546 14.4223 166.958 14.4223V14.5878H162.629V14.4223C163.04 14.4223 163.401 13.6047 163.401 12.8473V8.60407L163.386 8.59906Z" fill="black"/>
<path d="M175.53 6.07617V6.95893C176.332 6.28683 177.35 5.91066 178.318 5.91066C180.335 5.91066 181.859 7.50062 181.859 10.174C181.859 12.8473 180.32 14.7483 177.977 14.7483C176.864 14.7483 176.106 14.337 175.535 13.6348V16.5188C175.535 17.3213 175.896 18.1589 176.307 18.1589V18.3244H171.979V18.1589C172.39 18.1589 172.751 17.3414 172.751 16.584V8.51881C172.751 7.70125 172.39 6.91379 171.979 6.91379V6.74827C173.192 6.66802 174.501 6.45235 175.339 6.07617H175.535H175.53ZM175.53 12.2204C175.841 13.5295 176.513 14.0411 177.265 14.0411C178.248 14.0411 178.905 12.5965 178.905 10.2893C178.905 7.98213 178.153 6.73323 177.069 6.73323C176.543 6.73323 175.826 7.22476 175.53 7.7815V12.2254V12.2204Z" fill="black"/>
<path d="M189.824 13.2185C189.824 13.5796 189.94 13.8103 190.2 13.8103C190.366 13.8103 190.511 13.7451 190.642 13.4643H190.807C190.807 14.2016 190.055 14.7433 189.052 14.7433C187.988 14.7433 187.382 14.4473 187.136 13.8103C186.629 14.4674 185.857 14.7433 184.939 14.7433C183.464 14.7433 182.185 13.7451 182.185 12.0398C182.185 9.59718 184.332 8.79467 185.792 8.79467C186.694 8.79467 187.035 9.05548 187.035 9.05548V7.8768C187.035 6.94388 186.674 6.32194 186.183 6.32194C185.756 6.32194 185.546 6.74827 185.546 7.61598C185.546 8.33824 184.924 8.87993 183.956 8.87993C183.183 8.87993 182.757 8.4536 182.757 7.79655C182.757 6.5978 184.202 5.91066 186.037 5.91066C188.53 5.91066 189.824 7.45047 189.824 9.86301V13.2235V13.2185ZM187.035 10.1238C187.035 9.74765 186.84 9.35141 186.363 9.35141C185.611 9.35141 185.069 10.3495 185.069 12.105C185.069 13.1884 185.526 13.8103 186.067 13.8103C186.444 13.8103 186.755 13.6649 187.035 13.3038V10.1238Z" fill="black"/>
<path d="M197.232 8.59906C197.232 7.61598 196.756 7.12445 195.823 7.12445C195.251 7.12445 194.644 7.48558 194.283 8.04232V12.7771C194.283 13.5796 194.644 14.4172 195.056 14.4172V14.5828H190.727V14.4172C191.138 14.4172 191.499 13.5997 191.499 12.8423V8.51379C191.499 7.69624 191.138 6.90877 190.727 6.90877V6.74326C191.941 6.66301 193.25 6.44733 194.088 6.07116H194.283V7.3C194.905 6.52758 196.004 5.90564 197.247 5.90564C199.033 5.90564 200.016 7.01912 200.016 9.03542V12.7721C200.016 13.5746 200.377 14.4122 200.788 14.4122V14.5777H196.46V14.4122C196.871 14.4122 197.232 13.5947 197.232 12.8373V8.59404V8.59906Z" fill="black"/>
<path d="M200.934 15.631C202.539 15.631 201.917 17.3514 203 17.3514C203.377 17.3514 203.738 17.0906 204.049 16.3984L200.934 7.86176C200.588 6.90879 200.051 6.2417 199.64 6.2417V6.07618H204.229V6.2417C203.838 6.2417 203.657 6.9138 203.999 7.86176L205.604 12.2856L207.274 7.81161C207.62 6.90879 207.078 6.23669 206.682 6.23669V6.07117H209.27V6.23669C208.859 6.23669 207.991 6.90879 207.665 7.81161L204.6 16.0724C203.993 17.7276 203.076 18.5 201.767 18.5C199.294 18.5 199.158 15.631 200.929 15.631H200.934Z" fill="black"/>
<path d="M54.686 25.16V33.5H53.318V27.788L50.774 33.5H49.826L47.27 27.788V33.5H45.902V25.16H47.378L50.306 31.7L53.222 25.16H54.686ZM57.84 25.16V30.476C57.84 31.108 58.004 31.584 58.332 31.904C58.668 32.224 59.132 32.384 59.724 32.384C60.324 32.384 60.788 32.224 61.116 31.904C61.452 31.584 61.62 31.108 61.62 30.476V25.16H62.988V30.452C62.988 31.132 62.84 31.708 62.544 32.18C62.248 32.652 61.852 33.004 61.356 33.236C60.86 33.468 60.312 33.584 59.712 33.584C59.112 33.584 58.564 33.468 58.068 33.236C57.58 33.004 57.192 32.652 56.904 32.18C56.616 31.708 56.472 31.132 56.472 30.452V25.16H57.84ZM70.1571 25.16V26.276H67.9371V33.5H66.5691V26.276H64.3371V25.16H70.1571ZM72.8986 25.16V30.476C72.8986 31.108 73.0626 31.584 73.3906 31.904C73.7266 32.224 74.1906 32.384 74.7826 32.384C75.3826 32.384 75.8466 32.224 76.1746 31.904C76.5106 31.584 76.6786 31.108 76.6786 30.476V25.16H78.0466V30.452C78.0466 31.132 77.8986 31.708 77.6026 32.18C77.3066 32.652 76.9106 33.004 76.4146 33.236C75.9186 33.468 75.3706 33.584 74.7706 33.584C74.1706 33.584 73.6226 33.468 73.1266 33.236C72.6386 33.004 72.2506 32.652 71.9626 32.18C71.6746 31.708 71.5306 31.132 71.5306 30.452V25.16H72.8986ZM84.8557 31.796H81.3637L80.7637 33.5H79.3357L82.3237 25.148H83.9077L86.8957 33.5H85.4557L84.8557 31.796ZM84.4717 30.68L83.1157 26.804L81.7477 30.68H84.4717ZM89.5629 32.396H92.3829V33.5H88.1949V25.16H89.5629V32.396ZM101.552 25.16V26.276H98.0121V28.736H100.772V29.852H98.0121V33.5H96.6441V25.16H101.552ZM104.176 25.16V30.476C104.176 31.108 104.34 31.584 104.668 31.904C105.004 32.224 105.468 32.384 106.06 32.384C106.66 32.384 107.124 32.224 107.452 31.904C107.788 31.584 107.956 31.108 107.956 30.476V25.16H109.324V30.452C109.324 31.132 109.176 31.708 108.88 32.18C108.584 32.652 108.188 33.004 107.692 33.236C107.196 33.468 106.648 33.584 106.048 33.584C105.448 33.584 104.9 33.468 104.404 33.236C103.916 33.004 103.528 32.652 103.24 32.18C102.952 31.708 102.808 31.132 102.808 30.452V25.16H104.176ZM117.957 33.5H116.589L112.473 27.272V33.5H111.105V25.148H112.473L116.589 31.364V25.148H117.957V33.5ZM122.478 25.16C123.366 25.16 124.142 25.332 124.806 25.676C125.478 26.012 125.994 26.5 126.354 27.14C126.722 27.772 126.906 28.512 126.906 29.36C126.906 30.208 126.722 30.944 126.354 31.568C125.994 32.192 125.478 32.672 124.806 33.008C124.142 33.336 123.366 33.5 122.478 33.5H119.754V25.16H122.478ZM122.478 32.384C123.454 32.384 124.202 32.12 124.722 31.592C125.242 31.064 125.502 30.32 125.502 29.36C125.502 28.392 125.242 27.636 124.722 27.092C124.202 26.548 123.454 26.276 122.478 26.276H121.122V32.384H122.478Z" fill="#C49339"/>
<defs>
<linearGradient id="paint0_linear_1_2467" x1="0" y1="20.5" x2="37.0019" y2="20.5" gradientUnits="userSpaceOnUse">
<stop stop-color="#D49A29"/>
<stop offset="0.32" stop-color="#F9F18F"/>
<stop offset="0.68" stop-color="#FDE35B"/>
<stop offset="1" stop-color="#AC722A"/>
</linearGradient>
<linearGradient id="paint1_linear_1_2467" x1="5.15991" y1="20.2212" x2="31.8474" y2="20.2212" gradientUnits="userSpaceOnUse">
<stop stop-color="#D49A29"/>
<stop offset="0.32" stop-color="#F9F18F"/>
<stop offset="0.68" stop-color="#FDE35B"/>
<stop offset="1" stop-color="#AC722A"/>
</linearGradient>
</defs>
</svg>
