<svg width="147" height="28" viewBox="0 0 147 28" fill="none" xmlns="http://www.w3.org/2000/svg">
<path d="M22.807 4.73702L16.0449 0.830323C14.1294 -0.276774 11.7719 -0.276774 9.85635 0.830323L3.0943 4.73702C1.17878 5.84014 0 7.88309 0 10.0973V17.9067C0 20.1169 1.17878 22.1599 3.0943 23.267L9.85635 27.1697C11.7719 28.2768 14.1294 28.2768 16.0449 27.1697L22.807 23.267C24.7225 22.1599 25.9013 20.1169 25.9013 17.9067V10.0973C25.9013 7.88707 24.7225 5.84412 22.807 4.73702Z" fill="url(#paint0_linear_125_638)"/>
<path d="M22.4364 4.94817L16.0447 1.2605C14.1292 0.153402 11.7716 0.153402 9.85611 1.2605L3.46441 4.94817C1.5489 6.05526 0.370117 8.09822 0.370117 10.3084V17.6877C0.370117 19.898 1.5489 21.9409 3.46441 23.048L9.85611 26.7397C11.7716 27.8468 14.1292 27.8468 16.0447 26.7397L22.4364 23.048C24.3519 21.9409 25.5307 19.898 25.5307 17.6877V10.3084C25.5307 8.09822 24.3519 6.05526 22.4364 4.94817Z" fill="#1D1B1C"/>
<path d="M22.2936 8.67933L15.9696 23.199H15.2328L13.0147 18.2131L10.8483 23.199H10.0438L3.6123 8.67933H6.53138L10.3823 17.4604L11.5014 14.8122L9.39071 10.0612H16.555L14.524 14.7365L15.7187 17.4604L19.4303 8.67933H22.2936ZM12.8474 4.40625C11.5093 4.40625 10.4261 5.48945 10.4261 6.82753C10.4261 8.1656 11.5093 9.2488 12.8474 9.2488C14.1855 9.2488 15.2687 8.1656 15.2687 6.82753C15.2687 5.48945 14.1855 4.40625 12.8474 4.40625Z" fill="url(#paint1_linear_125_638)"/>
<path d="M39.3726 3.8161H39.2567C39.0496 2.78388 38.7511 2.01497 37.3748 2.01497H36.469V8.8403C36.469 9.52845 36.7218 9.88306 37.0097 9.88306V9.99892H33.8779V9.88306C34.1518 9.88306 34.4045 9.52845 34.4045 8.8403V2.01497H33.4987C32.1224 2.01497 31.824 2.78388 31.6168 3.8161H31.501L31.5572 1.6709H39.3129L39.3691 3.8161H39.3726Z" fill="black"/>
<path d="M44.1582 5.81361C44.1582 5.12546 43.8247 4.78139 43.1716 4.78139C42.7714 4.78139 42.3466 5.03418 42.0938 5.42389V8.73825C42.0938 9.30001 42.3466 9.88634 42.6345 9.88634V10.0022H39.6045V9.88634C39.8924 9.88634 40.1452 9.31405 40.1452 8.78389V2.91004C40.1452 2.33775 39.8924 1.78653 39.6045 1.78653V1.67067C40.4541 1.61449 41.3705 1.46352 41.9568 1.2002H42.0938V4.90427C42.5291 4.36358 43.298 3.92822 44.1688 3.92822C45.4187 3.92822 46.1068 4.70766 46.1068 6.11907V8.73474C46.1068 9.2965 46.3596 9.88283 46.6475 9.88283V9.99869H43.6175V9.88283C43.9054 9.88283 44.1582 9.31054 44.1582 8.78038V5.8101V5.81361Z" fill="black"/>
<path d="M52.2932 6.66308H48.5751C48.6559 8.12014 49.3545 8.93468 50.3868 8.93468C50.8011 8.93468 51.9456 8.86446 52.1984 7.68478H52.3143C52.1774 9.25769 51.0749 10.1179 49.6179 10.1179C47.8413 10.1179 46.5879 8.83286 46.5879 6.99663C46.5879 5.16039 47.7816 3.93506 49.4915 3.93506C51.0503 3.93506 52.2897 5.02346 52.2897 6.42434V6.66659L52.2932 6.66308ZM50.4008 6.38572C50.3552 5.04453 50.0216 4.21594 49.5406 4.21594C48.9683 4.21594 48.6102 5.21305 48.5646 6.38572H50.4008Z" fill="black"/>
<path d="M56.6043 2.89974C56.3761 2.18701 55.9512 1.78676 55.709 1.78676V1.6709H59.22V1.78676C58.7495 1.78676 58.5774 2.18701 58.8302 2.94538L60.3786 7.68519L61.4564 4.3919L60.986 2.89974C60.7578 2.18701 60.3329 1.78676 60.0907 1.78676V1.6709H63.6016V1.78676C63.1312 1.78676 62.9591 2.18701 63.2119 2.94538L64.7603 7.68519L66.3542 2.81899C66.5965 2.07466 66.3788 1.78676 65.9084 1.78676V1.6709H67.8464V1.78676C67.411 1.78676 66.9406 2.21159 66.7334 2.8541L64.4724 10.0024H63.2225L61.6636 5.04494L60.0907 10.0024H58.8408L56.6043 2.89974Z" fill="black"/>
<path d="M72.0706 6.66308H68.3524C68.4332 8.12014 69.1319 8.93468 70.1641 8.93468C70.5784 8.93468 71.723 8.86446 71.9758 7.68478H72.0916C71.9547 9.25769 70.8523 10.1179 69.3952 10.1179C67.6187 10.1179 66.3652 8.83286 66.3652 6.99663C66.3652 5.16039 67.559 3.93506 69.2688 3.93506C70.8277 3.93506 72.0671 5.02346 72.0671 6.42434V6.66659L72.0706 6.66308ZM70.1782 6.38572C70.1325 5.04453 69.799 4.21594 69.318 4.21594C68.7457 4.21594 68.3876 5.21305 68.3419 6.38572H70.1782Z" fill="black"/>
<path d="M77.6665 9.04713C77.6665 9.29992 77.7473 9.46142 77.9299 9.46142C78.0457 9.46142 78.1475 9.41578 78.2388 9.21916H78.3547C78.3547 9.73528 77.8281 10.1145 77.1259 10.1145C76.3815 10.1145 75.9567 9.90731 75.7847 9.46142C75.4301 9.92136 74.8894 10.1145 74.2469 10.1145C73.2146 10.1145 72.3193 9.41578 72.3193 8.22205C72.3193 6.5122 73.822 5.95045 74.8437 5.95045C75.4757 5.95045 75.7144 6.13302 75.7144 6.13302V5.30794C75.7144 4.6549 75.4617 4.21954 75.1176 4.21954C74.8191 4.21954 74.6717 4.51797 74.6717 5.12537C74.6717 5.63095 74.2363 6.01014 73.5587 6.01014C73.018 6.01014 72.7196 5.7117 72.7196 5.25177C72.7196 4.41264 73.7307 3.93164 75.0158 3.93164C76.7607 3.93164 77.6665 5.00951 77.6665 6.69829V9.05064V9.04713ZM75.718 6.88086C75.718 6.61753 75.581 6.34017 75.2475 6.34017C74.7208 6.34017 74.3417 7.03885 74.3417 8.26769C74.3417 9.02606 74.6612 9.46142 75.0403 9.46142C75.3037 9.46142 75.5213 9.3596 75.718 9.10681V6.88086Z" fill="black"/>
<path d="M80.7315 8.73825C80.7315 9.30001 80.9843 9.88634 81.2722 9.88634V10.0022H78.2422V9.88634C78.5301 9.88634 78.7829 9.31405 78.7829 8.78389V2.91004C78.7829 2.33775 78.5301 1.78653 78.2422 1.78653V1.67067C79.0918 1.61449 80.0082 1.46352 80.5945 1.2002H80.7315V8.73825Z" fill="black"/>
<path d="M83.4847 2.34814H83.7129V4.04745H85.0225V4.33535H83.7129V8.27115C83.7129 8.83291 83.9305 9.14188 84.3097 9.14188C84.6433 9.14188 84.9171 8.87855 84.9628 8.66087H85.0786C85.0786 9.49999 84.3554 10.1179 83.3688 10.1179C82.312 10.1179 81.7643 9.47542 81.7643 8.27115V4.33535H81.041V4.04745H81.2131C82.2699 4.04745 83.2775 3.32419 83.4847 2.34814Z" fill="black"/>
<path d="M89.5762 5.81361C89.5762 5.12546 89.2427 4.78139 88.5896 4.78139C88.1894 4.78139 87.7645 5.03418 87.5117 5.42389V8.73825C87.5117 9.30001 87.7645 9.88634 88.0524 9.88634V10.0022H85.0225V9.88634C85.3104 9.88634 85.5632 9.31405 85.5632 8.78389V2.91004C85.5632 2.33775 85.3104 1.78653 85.0225 1.78653V1.67067C85.8721 1.61449 86.7885 1.46352 87.3748 1.2002H87.5117V4.90427C87.9471 4.36358 88.716 3.92822 89.5867 3.92822C90.8366 3.92822 91.5248 4.70766 91.5248 6.11907V8.73474C91.5248 9.2965 91.7776 9.88283 92.0655 9.88283V9.99869H89.0355V9.88283C89.3234 9.88283 89.5762 9.31054 89.5762 8.78038V5.8101V5.81361Z" fill="black"/>
<path d="M103.416 3.19794C103.406 3.81587 103.002 4.34603 102.374 4.34603C101.65 4.34603 101.341 3.91067 101.352 3.28922C101.362 2.62214 101.513 1.54427 100.355 1.54427C99.312 1.54427 98.357 2.5765 98.357 4.92885C98.357 7.02841 99.3436 8.34853 100.902 8.34853C102.212 8.34853 103.118 7.53399 103.255 6.23844H103.371C103.508 8.32747 102.156 9.77048 100.056 9.77048C97.7601 9.77048 96.2715 8.08521 96.2715 5.4906C96.2715 2.896 98.0621 1.2002 100.4 1.2002C102.247 1.2002 103.441 2.1306 103.416 3.19794Z" fill="black"/>
<path d="M106.983 3.58789C108.774 3.58789 110.16 4.91855 110.16 6.68457C110.16 8.45059 108.774 9.77071 106.983 9.77071C105.192 9.77071 103.771 8.44005 103.771 6.68457C103.771 4.92908 105.171 3.58789 106.983 3.58789ZM106.969 9.48632C107.576 9.48632 108.071 8.87892 108.071 6.67403C108.071 4.46914 107.576 3.87579 106.969 3.87579C106.362 3.87579 105.856 4.48319 105.856 6.67403C105.856 8.86488 106.362 9.48632 106.969 9.48632Z" fill="black"/>
<path d="M114.371 5.46968C114.371 4.78153 114.083 4.43745 113.5 4.43745C113.146 4.43745 112.766 4.69024 112.538 5.06943V8.39783C112.538 8.95958 112.791 9.54592 113.079 9.54592V9.66178H110.049V9.54592C110.337 9.54592 110.59 8.97363 110.59 8.44347V5.4135C110.59 4.84121 110.337 4.28999 110.049 4.28999V4.17413C110.898 4.11795 111.815 3.96698 112.401 3.70366H112.538V4.55332C112.952 4.01263 113.676 3.59131 114.501 3.59131C115.326 3.59131 115.856 3.94592 116.13 4.62353C116.53 4.05125 117.288 3.59131 118.138 3.59131C119.321 3.59131 119.964 4.37074 119.964 5.78216V8.39783C119.964 8.95958 120.217 9.54592 120.505 9.54592V9.66178H117.475V9.54592C117.762 9.54592 118.015 8.97363 118.015 8.44347V5.47319C118.015 4.78504 117.727 4.44096 117.144 4.44096C116.825 4.44096 116.477 4.64811 116.249 4.96761C116.295 5.20987 116.33 5.48372 116.33 5.78216V8.39783C116.33 8.95958 116.583 9.54592 116.871 9.54592V9.66178H113.841V9.54592C114.129 9.54592 114.381 8.97363 114.381 8.44347V5.47319L114.371 5.46968Z" fill="black"/>
<path d="M122.871 3.70375V4.32168C123.432 3.85121 124.145 3.58789 124.823 3.58789C126.234 3.58789 127.301 4.70087 127.301 6.57222C127.301 8.44356 126.224 9.77422 124.584 9.77422C123.804 9.77422 123.274 9.48632 122.874 8.99479V11.0136C122.874 11.5754 123.127 12.1617 123.415 12.1617V12.2775H120.385V12.1617C120.673 12.1617 120.925 11.5894 120.925 11.0592V5.41359C120.925 4.84131 120.673 4.29009 120.385 4.29009V4.17422C121.234 4.11805 122.151 3.96707 122.737 3.70375H122.874H122.871ZM122.871 8.00469C123.088 8.92106 123.559 9.27918 124.085 9.27918C124.773 9.27918 125.233 8.26802 125.233 6.65297C125.233 5.03792 124.707 4.16369 123.948 4.16369C123.58 4.16369 123.078 4.50777 122.871 4.89748V8.0082V8.00469Z" fill="black"/>
<path d="M132.877 8.70338C132.877 8.95617 132.957 9.11767 133.14 9.11767C133.256 9.11767 133.358 9.07203 133.449 8.87541H133.565C133.565 9.39153 133.038 9.77071 132.336 9.77071C131.591 9.77071 131.167 9.56356 130.995 9.11767C130.64 9.57761 130.099 9.77071 129.457 9.77071C128.425 9.77071 127.529 9.07203 127.529 7.8783C127.529 6.16845 129.032 5.6067 130.054 5.6067C130.686 5.6067 130.924 5.78927 130.924 5.78927V4.96419C130.924 4.31115 130.672 3.87579 130.328 3.87579C130.029 3.87579 129.882 4.17422 129.882 4.78162C129.882 5.2872 129.446 5.66639 128.769 5.66639C128.228 5.66639 127.93 5.36795 127.93 4.90802C127.93 4.06889 128.941 3.58789 130.226 3.58789C131.971 3.58789 132.877 4.66576 132.877 6.35454V8.70689V8.70338ZM130.924 6.53711C130.924 6.27378 130.787 5.99642 130.454 5.99642C129.927 5.99642 129.548 6.6951 129.548 7.92394C129.548 8.68231 129.868 9.11767 130.247 9.11767C130.51 9.11767 130.728 9.01585 130.924 8.76306V6.53711Z" fill="black"/>
<path d="M138.063 5.46938C138.063 4.78123 137.729 4.43715 137.076 4.43715C136.676 4.43715 136.251 4.68994 135.998 5.07966V8.39402C135.998 8.95577 136.251 9.5421 136.539 9.5421V9.65797H133.509V9.5421C133.797 9.5421 134.049 8.96982 134.049 8.43966V5.40969C134.049 4.8374 133.797 4.28618 133.509 4.28618V4.17032C134.358 4.11414 135.275 3.96317 135.861 3.69985H135.998V4.56003C136.433 4.01934 137.202 3.58398 138.073 3.58398C139.323 3.58398 140.011 4.36342 140.011 5.77483V8.3905C140.011 8.95226 140.264 9.53859 140.552 9.53859V9.65445H137.522V9.53859C137.81 9.53859 138.063 8.9663 138.063 8.43615V5.46587V5.46938Z" fill="black"/>
<path d="M140.654 10.3921C141.777 10.3921 141.342 11.5964 142.1 11.5964C142.364 11.5964 142.617 11.4138 142.834 10.9293L140.654 4.95361C140.412 4.28653 140.036 3.81957 139.748 3.81957V3.70371H142.961V3.81957C142.687 3.81957 142.56 4.29004 142.799 4.95361L143.923 8.05029L145.092 4.9185C145.334 4.28653 144.955 3.81606 144.677 3.81606V3.7002H146.489V3.81606C146.201 3.81606 145.594 4.28653 145.366 4.9185L143.22 10.7011C142.796 11.8597 142.153 12.4004 141.237 12.4004C139.506 12.4004 139.411 10.3921 140.65 10.3921H140.654Z" fill="black"/>
<path d="M38.2798 16.9623V22.8003H37.3222V18.8019L35.5414 22.8003H34.8778L33.0886 18.8019V22.8003H32.131V16.9623H33.1642L35.2138 21.5403L37.255 16.9623H38.2798ZM40.4876 16.9623V20.6835C40.4876 21.1259 40.6024 21.4591 40.832 21.6831C41.0672 21.9071 41.392 22.0191 41.8064 22.0191C42.2264 22.0191 42.5512 21.9071 42.7808 21.6831C43.016 21.4591 43.1336 21.1259 43.1336 20.6835V16.9623H44.0912V20.6667C44.0912 21.1427 43.9876 21.5459 43.7804 21.8763C43.5732 22.2067 43.296 22.4531 42.9488 22.6155C42.6016 22.7779 42.218 22.8591 41.798 22.8591C41.378 22.8591 40.9944 22.7779 40.6472 22.6155C40.3056 22.4531 40.034 22.2067 39.8324 21.8763C39.6308 21.5459 39.53 21.1427 39.53 20.6667V16.9623H40.4876ZM49.1096 16.9623V17.7435H47.5556V22.8003H46.598V17.7435H45.0356V16.9623H49.1096ZM51.0286 16.9623V20.6835C51.0286 21.1259 51.1434 21.4591 51.373 21.6831C51.6082 21.9071 51.933 22.0191 52.3474 22.0191C52.7674 22.0191 53.0922 21.9071 53.3218 21.6831C53.557 21.4591 53.6746 21.1259 53.6746 20.6835V16.9623H54.6322V20.6667C54.6322 21.1427 54.5286 21.5459 54.3214 21.8763C54.1142 22.2067 53.837 22.4531 53.4898 22.6155C53.1426 22.7779 52.759 22.8591 52.339 22.8591C51.919 22.8591 51.5354 22.7779 51.1882 22.6155C50.8466 22.4531 50.575 22.2067 50.3734 21.8763C50.1718 21.5459 50.071 21.1427 50.071 20.6667V16.9623H51.0286ZM59.3986 21.6075H56.9542L56.5342 22.8003H55.5346L57.6262 16.9539H58.735L60.8266 22.8003H59.8186L59.3986 21.6075ZM59.1298 20.8263L58.1806 18.1131L57.223 20.8263H59.1298ZM62.6937 22.0275H64.6677V22.8003H61.7361V16.9623H62.6937V22.0275ZM71.0861 16.9623V17.7435H68.6081V19.4655H70.5401V20.2467H68.6081V22.8003H67.6505V16.9623H71.0861ZM72.9228 16.9623V20.6835C72.9228 21.1259 73.0376 21.4591 73.2672 21.6831C73.5024 21.9071 73.8272 22.0191 74.2416 22.0191C74.6616 22.0191 74.9864 21.9071 75.216 21.6831C75.4512 21.4591 75.5688 21.1259 75.5688 20.6835V16.9623H76.5264V20.6667C76.5264 21.1427 76.4228 21.5459 76.2156 21.8763C76.0084 22.2067 75.7312 22.4531 75.384 22.6155C75.0368 22.7779 74.6532 22.8591 74.2332 22.8591C73.8132 22.8591 73.4296 22.7779 73.0824 22.6155C72.7408 22.4531 72.4692 22.2067 72.2676 21.8763C72.066 21.5459 71.9652 21.1427 71.9652 20.6667V16.9623H72.9228ZM82.5696 22.8003H81.612L78.7308 18.4407V22.8003H77.7732V16.9539H78.7308L81.612 21.3051V16.9539H82.5696V22.8003ZM85.7339 16.9623C86.3555 16.9623 86.8987 17.0827 87.3635 17.3235C87.8339 17.5587 88.1951 17.9003 88.4471 18.3483C88.7047 18.7907 88.8335 19.3087 88.8335 19.9023C88.8335 20.4959 88.7047 21.0111 88.4471 21.4479C88.1951 21.8847 87.8339 22.2207 87.3635 22.4559C86.8987 22.6855 86.3555 22.8003 85.7339 22.8003H83.8271V16.9623H85.7339ZM85.7339 22.0191C86.4171 22.0191 86.9407 21.8343 87.3047 21.4647C87.6687 21.0951 87.8507 20.5743 87.8507 19.9023C87.8507 19.2247 87.6687 18.6955 87.3047 18.3147C86.9407 17.9339 86.4171 17.7435 85.7339 17.7435H84.7847V22.0191H85.7339Z" fill="#C49339"/>
<defs>
<linearGradient id="paint0_linear_125_638" x1="0" y1="14" x2="25.9013" y2="14" gradientUnits="userSpaceOnUse">
<stop stop-color="#D49A29"/>
<stop offset="0.32" stop-color="#F9F18F"/>
<stop offset="0.68" stop-color="#FDE35B"/>
<stop offset="1" stop-color="#AC722A"/>
</linearGradient>
<linearGradient id="paint1_linear_125_638" x1="3.6123" y1="13.8046" x2="22.2936" y2="13.8046" gradientUnits="userSpaceOnUse">
<stop stop-color="#D49A29"/>
<stop offset="0.32" stop-color="#F9F18F"/>
<stop offset="0.68" stop-color="#FDE35B"/>
<stop offset="1" stop-color="#AC722A"/>
</linearGradient>
</defs>
</svg>
