<svg width="72" height="72" viewBox="0 0 72 72" fill="none" xmlns="http://www.w3.org/2000/svg">
<path d="M36 0L67.1769 18V54L36 72L4.82309 54V18L36 0Z" fill="#FCF5E8"/>
<g style="mix-blend-mode:multiply">
<path d="M52.5536 46.9253C52.0647 46.6906 51.5711 46.4651 51.073 46.2442C50.9576 46.1981 50.8239 46.1429 50.6578 46.0739C49.8598 45.7563 49.0618 45.4387 48.2638 45.1166C45.9851 44.1915 43.7157 43.2479 41.5015 42.1802C37.9774 40.4772 34.6332 38.4567 31.2521 36.4961C29.8544 35.6814 28.4798 34.8438 27.1283 33.9785H16.5605C16.4775 34.3421 16.4268 34.7103 16.4268 35.0877C16.4268 35.3409 16.4452 35.594 16.4821 35.8425L16.4498 38.0195C16.436 38.176 16.4268 38.3371 16.4268 38.4936C16.4268 38.9906 16.5006 39.4739 16.6389 39.9434C16.8373 40.6153 17.174 41.2505 17.6261 41.8396C17.6584 41.8856 17.6953 41.927 17.7275 41.9731C18.3364 42.7279 19.1344 43.3998 20.0754 43.9567C20.1677 44.012 20.2599 44.0626 20.3568 44.1178C22.1373 45.0981 24.3929 45.6827 26.8469 45.6827C29.3009 45.6827 31.3582 45.1488 33.1018 44.2421C33.0741 44.4584 33.0556 44.6747 33.0556 44.9002C33.0556 45.1534 33.0741 45.4065 33.111 45.6551L33.0787 47.832C33.0649 47.9885 33.0556 48.1496 33.0556 48.3061C33.0556 49.176 33.2771 50.009 33.6876 50.7776C33.7476 50.8881 33.8075 50.9986 33.8721 51.1044C34.0059 51.3207 34.1489 51.5278 34.3103 51.735C34.3887 51.8362 34.4718 51.9375 34.5594 52.0341C34.8223 52.3287 35.1129 52.614 35.4312 52.881C35.5373 52.9684 35.648 53.0559 35.7587 53.1433C37.6638 54.5885 40.4129 55.4998 43.4712 55.4998C46.5294 55.4998 49.1402 54.6345 51.0361 53.2492C51.1975 53.1295 51.359 53.0098 51.5066 52.881C51.8248 52.614 52.1154 52.3333 52.3784 52.0341C52.5167 51.8776 52.6413 51.7165 52.7612 51.5555C52.8719 51.4082 52.9734 51.2563 53.0657 51.1044C53.1302 50.9986 53.1948 50.8881 53.2502 50.7776C53.6607 50.0044 53.8821 49.176 53.8821 48.3061V47.427C53.4255 47.2843 52.978 47.1186 52.549 46.9161L52.5536 46.9253Z" fill="#D6D6D6"/>
</g>
<path d="M36.0304 33.6749C34.273 31.4242 30.8226 29.8916 26.8557 29.8916C22.8888 29.8916 19.4384 31.4242 17.681 33.6749H16.5047L16.4586 36.7723C16.454 36.8782 16.4355 36.9794 16.4355 37.0853C16.4355 41.0573 21.099 44.279 26.8557 44.279C32.6124 44.279 37.2759 41.0573 37.2759 37.0853V33.6749H36.0304Z" fill="#00DEBF"/>
<path d="M26.8557 44.279C32.6106 44.279 37.2759 41.0583 37.2759 37.0853C37.2759 33.1123 32.6106 29.8916 26.8557 29.8916C21.1008 29.8916 16.4355 33.1123 16.4355 37.0853C16.4355 41.0583 21.1008 44.279 26.8557 44.279Z" fill="white"/>
<path d="M36.0304 33.6749C34.273 31.4242 30.8226 29.8916 26.8557 29.8916C22.8888 29.8916 19.4384 31.4242 17.681 33.6749H16.5047L16.4586 36.7723C16.454 36.8782 16.4355 36.9794 16.4355 37.0853C16.4355 41.0573 21.099 44.279 26.8557 44.279C32.6124 44.279 37.2759 41.0573 37.2759 37.0853V33.6749H36.0304Z" stroke="#222D4E" stroke-width="0.393922" stroke-linejoin="round"/>
<path d="M26.8557 44.279C32.6106 44.279 37.2759 41.0583 37.2759 37.0853C37.2759 33.1123 32.6106 29.8916 26.8557 29.8916C21.1008 29.8916 16.4355 33.1123 16.4355 37.0853C16.4355 41.0583 21.1008 44.279 26.8557 44.279Z" stroke="#222D4E" stroke-width="0.393922" stroke-linejoin="round"/>
<path d="M26.8557 40.8689C32.6106 40.8689 37.2759 37.6481 37.2759 33.6751C37.2759 29.7022 32.6106 26.4814 26.8557 26.4814C21.1008 26.4814 16.4355 29.7022 16.4355 33.6751C16.4355 37.6481 21.1008 40.8689 26.8557 40.8689Z" fill="white"/>
<path d="M26.8557 40.8689C32.6106 40.8689 37.2759 37.6481 37.2759 33.6751C37.2759 29.7022 32.6106 26.4814 26.8557 26.4814C21.1008 26.4814 16.4355 29.7022 16.4355 33.6751C16.4355 37.6481 21.1008 40.8689 26.8557 40.8689Z" stroke="#222D4E" stroke-width="0.393922" stroke-linejoin="round"/>
<path d="M26.918 44.2653C26.918 44.1825 26.918 44.0996 26.9272 44.0168V40.9009" stroke="#222D4E" stroke-width="0.393922" stroke-linejoin="round"/>
<path d="M29.1826 44.0305V40.7075" stroke="#222D4E" stroke-width="0.393922" stroke-linejoin="round"/>
<path d="M31.333 43.5566V40.229" stroke="#222D4E" stroke-width="0.393922" stroke-linejoin="round"/>
<path d="M33.3164 42.7555V39.4141" stroke="#222D4E" stroke-width="0.393922" stroke-linejoin="round"/>
<path d="M35.0098 41.6284V38.2686" stroke="#222D4E" stroke-width="0.393922" stroke-linejoin="round"/>
<path d="M36.5449 39.7364V36.395" stroke="#222D4E" stroke-width="0.393922" stroke-linejoin="round"/>
<path d="M24.6123 44.0305V40.7075" stroke="#222D4E" stroke-width="0.393922" stroke-linejoin="round"/>
<path d="M22.4561 43.5566V40.229" stroke="#222D4E" stroke-width="0.393922" stroke-linejoin="round"/>
<path d="M20.4785 42.7555V39.4141" stroke="#222D4E" stroke-width="0.393922" stroke-linejoin="round"/>
<path d="M18.7852 41.6284V38.2686" stroke="#222D4E" stroke-width="0.393922" stroke-linejoin="round"/>
<path d="M17.25 39.7364V36.395" stroke="#222D4E" stroke-width="0.393922" stroke-linejoin="round"/>
<path d="M26.8566 39.2349C31.3046 39.2349 34.9104 36.7457 34.9104 33.6751C34.9104 30.6044 31.3046 28.1152 26.8566 28.1152C22.4086 28.1152 18.8027 30.6044 18.8027 33.6751C18.8027 36.7457 22.4086 39.2349 26.8566 39.2349Z" fill="white"/>
<path d="M26.8566 39.2349C31.3046 39.2349 34.9104 36.7457 34.9104 33.6751C34.9104 30.6044 31.3046 28.1152 26.8566 28.1152C22.4086 28.1152 18.8027 30.6044 18.8027 33.6751C18.8027 36.7457 22.4086 39.2349 26.8566 39.2349Z" stroke="#222D4E" stroke-width="0.393922" stroke-linejoin="round"/>
<path d="M27.4333 31.6317L25.3346 32.4924L24.9655 32.2899C24.5735 32.0736 24.2921 31.9401 24.1214 31.8941C23.9507 31.8481 23.7893 31.8573 23.6278 31.9217C23.4987 31.9723 23.4572 32.0414 23.4987 32.1288C23.5402 32.2163 23.6648 32.3129 23.8723 32.428C24.2229 32.6213 24.5319 32.7317 24.8041 32.7548C25.0716 32.7778 25.722 32.7732 26.7507 32.7409C27.6271 32.7087 28.2498 32.7087 28.628 32.7271C29.0063 32.7455 29.426 32.8238 29.8919 32.9527C30.3578 33.0815 30.8375 33.284 31.3357 33.5602C32.1291 33.9974 32.5719 34.4163 32.6642 34.8167C32.7564 35.2171 32.4981 35.5899 31.8846 35.9443L32.7241 36.4091L31.7601 36.805L30.8929 36.3263C30.2748 36.5242 29.5552 36.5978 28.7388 36.5518C27.9223 36.5058 27.0182 36.202 26.0219 35.6543L25.5883 35.415L27.687 34.5543L28.2314 34.8581C28.831 35.1895 29.2231 35.3874 29.4122 35.4472C29.6013 35.5116 29.7766 35.507 29.9427 35.438C30.0857 35.3782 30.141 35.3091 30.1087 35.2217C30.0764 35.1388 29.9611 35.0422 29.7628 34.9317C29.2646 34.6556 28.8725 34.4715 28.5911 34.3794C28.3098 34.2874 27.8531 34.2506 27.2119 34.269C26.1464 34.2966 25.3945 34.3012 24.9655 34.2874C24.5366 34.269 24.0522 34.1953 23.5218 34.0665C22.9913 33.933 22.4931 33.7397 22.0365 33.4866C21.3722 33.1184 21.0263 32.7548 21.0032 32.4004C20.9801 32.046 21.2754 31.6962 21.8981 31.3556L21.1877 30.9598L22.1518 30.564L22.8621 30.9598C23.5956 30.7435 24.3105 30.6698 25.0071 30.7435C25.7036 30.8171 26.377 31.038 27.0367 31.4016C27.1289 31.4522 27.2627 31.5305 27.4333 31.6409V31.6317Z" fill="white"/>
<path d="M27.4333 31.6317L25.3346 32.4924L24.9655 32.2899C24.5735 32.0736 24.2921 31.9401 24.1214 31.8941C23.9507 31.8481 23.7893 31.8573 23.6278 31.9217C23.4987 31.9723 23.4572 32.0414 23.4987 32.1288C23.5402 32.2163 23.6648 32.3129 23.8723 32.428C24.2229 32.6213 24.5319 32.7317 24.8041 32.7548C25.0716 32.7778 25.722 32.7732 26.7507 32.7409C27.6271 32.7087 28.2498 32.7087 28.628 32.7271C29.0063 32.7455 29.426 32.8238 29.8919 32.9527C30.3578 33.0815 30.8375 33.284 31.3357 33.5602C32.1291 33.9974 32.5719 34.4163 32.6642 34.8167C32.7564 35.2171 32.4981 35.5899 31.8846 35.9443L32.7241 36.4091L31.7601 36.805L30.8929 36.3263C30.2748 36.5242 29.5552 36.5978 28.7388 36.5518C27.9223 36.5058 27.0182 36.202 26.0219 35.6543L25.5883 35.415L27.687 34.5543L28.2314 34.8581C28.831 35.1895 29.2231 35.3874 29.4122 35.4472C29.6013 35.5116 29.7766 35.507 29.9427 35.438C30.0857 35.3782 30.141 35.3091 30.1087 35.2217C30.0764 35.1388 29.9611 35.0422 29.7628 34.9317C29.2646 34.6556 28.8725 34.4715 28.5911 34.3794C28.3098 34.2874 27.8531 34.2506 27.2119 34.269C26.1464 34.2966 25.3945 34.3012 24.9655 34.2874C24.5366 34.269 24.0522 34.1953 23.5218 34.0665C22.9913 33.933 22.4931 33.7397 22.0365 33.4866C21.3722 33.1184 21.0263 32.7548 21.0032 32.4004C20.9801 32.046 21.2754 31.6962 21.8981 31.3556L21.1877 30.9598L22.1518 30.564L22.8621 30.9598C23.5956 30.7435 24.3105 30.6698 25.0071 30.7435C25.7036 30.8171 26.377 31.038 27.0367 31.4016C27.1289 31.4522 27.2627 31.5305 27.4333 31.6409V31.6317Z" stroke="#222D4E" stroke-width="0.393922" stroke-linejoin="round"/>
<path d="M52.6642 43.4922C50.9068 41.2416 47.4564 39.709 43.4895 39.709C39.5225 39.709 36.0722 41.2416 34.3148 43.4922H33.1385L33.0924 46.5897C33.0878 46.6956 33.0693 46.7968 33.0693 46.9027C33.0693 50.8746 37.7328 54.0964 43.4895 54.0964C49.2462 54.0964 53.9096 50.8746 53.9096 46.9027V43.4922H52.6642Z" fill="#00DEBF"/>
<path d="M43.4895 54.0964C49.2444 54.0964 53.9096 50.8757 53.9096 46.9027C53.9096 42.9297 49.2444 39.709 43.4895 39.709C37.7346 39.709 33.0693 42.9297 33.0693 46.9027C33.0693 50.8757 37.7346 54.0964 43.4895 54.0964Z" fill="white"/>
<path d="M52.6642 43.4922C50.9068 41.2416 47.4564 39.709 43.4895 39.709C39.5225 39.709 36.0722 41.2416 34.3148 43.4922H33.1385L33.0924 46.5897C33.0878 46.6956 33.0693 46.7968 33.0693 46.9027C33.0693 50.8746 37.7328 54.0964 43.4895 54.0964C49.2462 54.0964 53.9096 50.8746 53.9096 46.9027V43.4922H52.6642Z" stroke="#222D4E" stroke-width="0.393922" stroke-linejoin="round"/>
<path d="M43.4895 54.0964C49.2444 54.0964 53.9096 50.8757 53.9096 46.9027C53.9096 42.9297 49.2444 39.709 43.4895 39.709C37.7346 39.709 33.0693 42.9297 33.0693 46.9027C33.0693 50.8757 37.7346 54.0964 43.4895 54.0964Z" stroke="#222D4E" stroke-width="0.393922" stroke-linejoin="round"/>
<path d="M43.4924 50.6857C49.2473 50.6857 53.9126 47.465 53.9126 43.492C53.9126 39.5191 49.2473 36.2983 43.4924 36.2983C37.7375 36.2983 33.0723 39.5191 33.0723 43.492C33.0723 47.465 37.7375 50.6857 43.4924 50.6857Z" fill="white"/>
<path d="M43.4924 50.6857C49.2473 50.6857 53.9126 47.465 53.9126 43.492C53.9126 39.5191 49.2473 36.2983 43.4924 36.2983C37.7375 36.2983 33.0723 39.5191 33.0723 43.492C33.0723 47.465 37.7375 50.6857 43.4924 50.6857Z" stroke="#222D4E" stroke-width="0.393922" stroke-linejoin="round"/>
<path d="M43.5479 54.0827C43.5479 53.9998 43.5479 53.917 43.5571 53.8342V50.7183" stroke="#222D4E" stroke-width="0.393922" stroke-linejoin="round"/>
<path d="M45.8125 53.8479V50.5249" stroke="#222D4E" stroke-width="0.393922" stroke-linejoin="round"/>
<path d="M47.9658 53.374V50.0464" stroke="#222D4E" stroke-width="0.393922" stroke-linejoin="round"/>
<path d="M49.9463 52.5733V49.2319" stroke="#222D4E" stroke-width="0.393922" stroke-linejoin="round"/>
<path d="M51.6367 51.4458V48.0859" stroke="#222D4E" stroke-width="0.393922" stroke-linejoin="round"/>
<path d="M53.1748 49.5538V46.2124" stroke="#222D4E" stroke-width="0.393922" stroke-linejoin="round"/>
<path d="M41.2422 53.8479V50.5249" stroke="#222D4E" stroke-width="0.393922" stroke-linejoin="round"/>
<path d="M39.0918 53.374V50.0464" stroke="#222D4E" stroke-width="0.393922" stroke-linejoin="round"/>
<path d="M37.1084 52.5733V49.2319" stroke="#222D4E" stroke-width="0.393922" stroke-linejoin="round"/>
<path d="M35.4209 51.4458V48.0859" stroke="#222D4E" stroke-width="0.393922" stroke-linejoin="round"/>
<path d="M33.8799 49.5538V46.2124" stroke="#222D4E" stroke-width="0.393922" stroke-linejoin="round"/>
<path d="M43.4913 49.0518C47.9393 49.0518 51.5451 46.5625 51.5451 43.4919C51.5451 40.4213 47.9393 37.9321 43.4913 37.9321C39.0433 37.9321 35.4375 40.4213 35.4375 43.4919C35.4375 46.5625 39.0433 49.0518 43.4913 49.0518Z" fill="white"/>
<path d="M43.4913 49.0518C47.9393 49.0518 51.5451 46.5625 51.5451 43.4919C51.5451 40.4213 47.9393 37.9321 43.4913 37.9321C39.0433 37.9321 35.4375 40.4213 35.4375 43.4919C35.4375 46.5625 39.0433 49.0518 43.4913 49.0518Z" stroke="#222D4E" stroke-width="0.393922" stroke-linejoin="round"/>
<path d="M44.0593 41.4486L41.9605 42.3093L41.5915 42.1068C41.1994 41.8905 40.9181 41.757 40.7474 41.711C40.5767 41.665 40.4153 41.6742 40.2538 41.7386C40.1247 41.7892 40.0832 41.8583 40.1247 41.9457C40.1662 42.0332 40.2907 42.1298 40.4983 42.2449C40.8489 42.4382 41.1579 42.5486 41.4301 42.5716C41.6976 42.5947 42.348 42.5901 43.3766 42.5578C44.2531 42.5256 44.8758 42.5256 45.254 42.544C45.6323 42.5624 46.052 42.6407 46.5179 42.7696C46.9838 42.8984 47.4635 43.1009 47.9617 43.3771C48.7551 43.8143 49.1979 44.2332 49.2902 44.6336C49.3824 45.034 49.1241 45.4068 48.5106 45.7612L49.3501 46.226L48.3861 46.6218L47.5189 46.1432C46.9008 46.3411 46.1812 46.4147 45.3647 46.3687C44.5483 46.3227 43.6442 46.0189 42.6478 45.4712L42.2142 45.2319L44.313 44.3712L44.8573 44.675C45.457 45.0064 45.8491 45.2043 46.0382 45.2641C46.2273 45.3285 46.4026 45.3239 46.5687 45.2549C46.7116 45.1951 46.767 45.126 46.7347 45.0386C46.7024 44.9557 46.5871 44.8591 46.3888 44.7486C45.8906 44.4725 45.4985 44.2884 45.2171 44.1963C44.9357 44.1043 44.4791 44.0675 43.8379 44.0859C42.7724 44.1135 42.0205 44.1181 41.5915 44.1043C41.1625 44.0859 40.6782 44.0122 40.1477 43.8834C39.6173 43.7499 39.1191 43.5566 38.6624 43.3034C37.9982 42.9352 37.6522 42.5716 37.6292 42.2173C37.6061 41.8629 37.9013 41.5131 38.5241 41.1725L37.8137 40.7767L38.7778 40.3809L39.4881 40.7767C40.2215 40.5604 40.9365 40.4867 41.633 40.5604C42.3296 40.634 43.003 40.8549 43.6626 41.2185C43.7549 41.2691 43.8887 41.3474 44.0593 41.4578V41.4486Z" fill="white"/>
<path d="M44.0593 41.4486L41.9605 42.3093L41.5915 42.1068C41.1994 41.8905 40.9181 41.757 40.7474 41.711C40.5767 41.665 40.4153 41.6742 40.2538 41.7386C40.1247 41.7892 40.0832 41.8583 40.1247 41.9457C40.1662 42.0332 40.2907 42.1298 40.4983 42.2449C40.8489 42.4382 41.1579 42.5486 41.4301 42.5716C41.6976 42.5947 42.348 42.5901 43.3766 42.5578C44.2531 42.5256 44.8758 42.5256 45.254 42.544C45.6323 42.5624 46.052 42.6407 46.5179 42.7696C46.9838 42.8984 47.4635 43.1009 47.9617 43.3771C48.7551 43.8143 49.1979 44.2332 49.2902 44.6336C49.3824 45.034 49.1241 45.4068 48.5106 45.7612L49.3501 46.226L48.3861 46.6218L47.5189 46.1432C46.9008 46.3411 46.1812 46.4147 45.3647 46.3687C44.5483 46.3227 43.6442 46.0189 42.6478 45.4712L42.2142 45.2319L44.313 44.3712L44.8573 44.675C45.457 45.0064 45.8491 45.2043 46.0382 45.2641C46.2273 45.3285 46.4026 45.3239 46.5687 45.2549C46.7116 45.1951 46.767 45.126 46.7347 45.0386C46.7024 44.9557 46.5871 44.8591 46.3888 44.7486C45.8906 44.4725 45.4985 44.2884 45.2171 44.1963C44.9357 44.1043 44.4791 44.0675 43.8379 44.0859C42.7724 44.1135 42.0205 44.1181 41.5915 44.1043C41.1625 44.0859 40.6782 44.0122 40.1477 43.8834C39.6173 43.7499 39.1191 43.5566 38.6624 43.3034C37.9982 42.9352 37.6522 42.5716 37.6292 42.2173C37.6061 41.8629 37.9013 41.5131 38.5241 41.1725L37.8137 40.7767L38.7778 40.3809L39.4881 40.7767C40.2215 40.5604 40.9365 40.4867 41.633 40.5604C42.3296 40.634 43.003 40.8549 43.6626 41.2185C43.7549 41.2691 43.8887 41.3474 44.0593 41.4578V41.4486Z" stroke="#222D4E" stroke-width="0.393922" stroke-linejoin="round"/>
<path d="M11.0397 43.4877L28.5819 53.8157C29.3292 54.253 30.2563 54.253 31.0082 53.8157L61.0417 36.3539C61.5537 36.0547 61.5537 35.3137 61.0417 35.0191L42.8445 24.4012C42.2033 24.0284 41.4145 24.0284 40.7733 24.4012L11.0489 41.5915C10.3201 42.0149 10.3155 43.0643 11.0443 43.4923L11.0397 43.4877Z" fill="white"/>
<path d="M11.0397 43.4877L28.5819 53.8157C29.3292 54.253 30.2563 54.253 31.0082 53.8157L61.0417 36.3539C61.5537 36.0547 61.5537 35.3137 61.0417 35.0191L42.8445 24.4012C42.2033 24.0284 41.4145 24.0284 40.7733 24.4012L11.0489 41.5915C10.3201 42.0149 10.3155 43.0643 11.0443 43.4923L11.0397 43.4877Z" stroke="#222D4E" stroke-width="0.393922" stroke-linejoin="round"/>
<path d="M11.0397 42.894L28.5819 53.222C29.3292 53.6592 30.2563 53.6592 31.0082 53.222L61.0417 35.7601C61.5537 35.461 61.5537 34.72 61.0417 34.4254L42.8445 23.8074C42.2033 23.4346 41.4145 23.4346 40.7733 23.8074L11.0489 40.9978C10.3201 41.4212 10.3155 42.4706 11.0443 42.8986L11.0397 42.894Z" fill="white"/>
<path d="M11.0397 42.894L28.5819 53.222C29.3292 53.6592 30.2563 53.6592 31.0082 53.222L61.0417 35.7601C61.5537 35.461 61.5537 34.72 61.0417 34.4254L42.8445 23.8074C42.2033 23.4346 41.4145 23.4346 40.7733 23.8074L11.0489 40.9978C10.3201 41.4212 10.3155 42.4706 11.0443 42.8986L11.0397 42.894Z" stroke="#222D4E" stroke-width="0.393922" stroke-linejoin="round"/>
<path d="M55.3083 35.0282C55.3083 34.4989 55.6404 34.0248 56.1663 33.6981L44.0164 26.5918C43.592 27.1349 42.7709 27.4985 41.8345 27.4985C40.8982 27.4985 40.1048 27.1441 39.6712 26.6148L15.3252 40.588C15.8557 40.9102 16.1924 41.3888 16.1924 41.9227C16.1924 42.4566 15.8741 42.903 15.3713 43.2298L27.6873 50.4972C28.1255 49.9863 28.9189 49.6457 29.823 49.6457C30.7271 49.6457 31.5712 50.0093 32.0002 50.5432L56.3785 36.478C55.7327 36.1604 55.3083 35.6311 55.3083 35.0328V35.0282Z" fill="#00DEBF"/>
<path d="M55.3083 35.0282C55.3083 34.4989 55.6404 34.0248 56.1663 33.6981L44.0164 26.5918C43.592 27.1349 42.7709 27.4985 41.8345 27.4985C40.8982 27.4985 40.1048 27.1441 39.6712 26.6148L15.3252 40.588C15.8557 40.9102 16.1924 41.3888 16.1924 41.9227C16.1924 42.4566 15.8741 42.903 15.3713 43.2298L27.6873 50.4972C28.1255 49.9863 28.9189 49.6457 29.823 49.6457C30.7271 49.6457 31.5712 50.0093 32.0002 50.5432L56.3785 36.478C55.7327 36.1604 55.3083 35.6311 55.3083 35.0328V35.0282Z" stroke="#222D4E" stroke-width="0.393922" stroke-linejoin="round"/>
<path d="M36.5528 43.3496C41.0008 43.3496 44.6067 40.8604 44.6067 37.7898C44.6067 34.7192 41.0008 32.23 36.5528 32.23C32.1048 32.23 28.499 34.7192 28.499 37.7898C28.499 40.8604 32.1048 43.3496 36.5528 43.3496Z" fill="white"/>
<path d="M36.5528 43.3496C41.0008 43.3496 44.6067 40.8604 44.6067 37.7898C44.6067 34.7192 41.0008 32.23 36.5528 32.23C32.1048 32.23 28.499 34.7192 28.499 37.7898C28.499 40.8604 32.1048 43.3496 36.5528 43.3496Z" stroke="#222D4E" stroke-width="0.393922" stroke-linejoin="round"/>
<path d="M37.1238 35.7416L35.025 36.6023L34.656 36.3998C34.2639 36.1834 33.9825 36.05 33.8118 36.004C33.6412 35.9579 33.4797 35.9671 33.3183 36.0316C33.1891 36.0822 33.1476 36.1512 33.1891 36.2387C33.2306 36.3215 33.3552 36.4228 33.5627 36.5378C33.9133 36.7311 34.2224 36.8416 34.4945 36.8646C34.762 36.8876 35.4124 36.883 36.4411 36.8508C37.3175 36.8186 37.9402 36.8186 38.3185 36.837C38.6921 36.86 39.1165 36.9337 39.5823 37.0625C40.0482 37.1914 40.528 37.3939 41.0261 37.6701C41.8195 38.1073 42.2623 38.5261 42.3546 38.9265C42.4469 39.327 42.1885 39.6998 41.575 40.0541L42.4146 40.519L41.4505 40.9148L40.5833 40.4362C39.9652 40.6341 39.2456 40.7077 38.4292 40.6617C37.6127 40.6157 36.7086 40.3165 35.7123 39.7642L35.2787 39.5249L37.3775 38.6642L37.9218 38.968C38.5214 39.2993 38.9135 39.4972 39.1026 39.5571C39.2917 39.6215 39.467 39.6169 39.6331 39.5479C39.7761 39.488 39.8314 39.419 39.7991 39.3316C39.7669 39.2487 39.6515 39.1521 39.4532 39.0416C38.955 38.7654 38.5629 38.5813 38.2816 38.4893C38.0002 38.3972 37.5435 38.3604 36.9023 38.3788C35.8368 38.4065 35.0849 38.4111 34.656 38.3972C34.227 38.3788 33.7426 38.3052 33.2122 38.1763C32.6817 38.0429 32.1835 37.8496 31.7269 37.5964C31.0626 37.2282 30.7167 36.8646 30.6936 36.5102C30.6706 36.1558 30.9704 35.806 31.5885 35.4655L30.8781 35.0696L31.8422 34.6738L32.5525 35.0696C33.286 34.8533 34.0009 34.7797 34.6975 34.8533C35.394 34.927 36.0674 35.1479 36.7271 35.5115C36.8193 35.5621 36.9531 35.6404 37.1238 35.7508V35.7416Z" fill="white"/>
<path d="M37.1238 35.7416L35.025 36.6023L34.656 36.3998C34.2639 36.1834 33.9825 36.05 33.8118 36.004C33.6412 35.9579 33.4797 35.9671 33.3183 36.0316C33.1891 36.0822 33.1476 36.1512 33.1891 36.2387C33.2306 36.3215 33.3552 36.4228 33.5627 36.5378C33.9133 36.7311 34.2224 36.8416 34.4945 36.8646C34.762 36.8876 35.4124 36.883 36.4411 36.8508C37.3175 36.8186 37.9402 36.8186 38.3185 36.837C38.6921 36.86 39.1165 36.9337 39.5823 37.0625C40.0482 37.1914 40.528 37.3939 41.0261 37.6701C41.8195 38.1073 42.2623 38.5261 42.3546 38.9265C42.4469 39.327 42.1885 39.6998 41.575 40.0541L42.4146 40.519L41.4505 40.9148L40.5833 40.4362C39.9652 40.6341 39.2456 40.7077 38.4292 40.6617C37.6127 40.6157 36.7086 40.3165 35.7123 39.7642L35.2787 39.5249L37.3775 38.6642L37.9218 38.968C38.5214 39.2993 38.9135 39.4972 39.1026 39.5571C39.2917 39.6215 39.467 39.6169 39.6331 39.5479C39.7761 39.488 39.8314 39.419 39.7991 39.3316C39.7669 39.2487 39.6515 39.1521 39.4532 39.0416C38.955 38.7654 38.5629 38.5813 38.2816 38.4893C38.0002 38.3972 37.5435 38.3604 36.9023 38.3788C35.8368 38.4065 35.0849 38.4111 34.656 38.3972C34.227 38.3788 33.7426 38.3052 33.2122 38.1763C32.6817 38.0429 32.1835 37.8496 31.7269 37.5964C31.0626 37.2282 30.7167 36.8646 30.6936 36.5102C30.6706 36.1558 30.9704 35.806 31.5885 35.4655L30.8781 35.0696L31.8422 34.6738L32.5525 35.0696C33.286 34.8533 34.0009 34.7797 34.6975 34.8533C35.394 34.927 36.0674 35.1479 36.7271 35.5115C36.8193 35.5621 36.9531 35.6404 37.1238 35.7508V35.7416Z" stroke="#222D4E" stroke-width="0.393922" stroke-linejoin="round"/>
<path d="M26.3821 42.8154C25.3074 42.8154 24.4355 43.4184 24.4355 44.1594C24.4355 44.9004 25.3074 45.5033 26.3821 45.5033C27.4569 45.5033 28.3287 44.9004 28.3287 44.1594C28.3287 43.4184 27.4569 42.8154 26.3821 42.8154Z" fill="white"/>
<path d="M46.5618 31.0791C45.487 31.0791 44.6152 31.682 44.6152 32.423C44.6152 33.164 45.487 33.767 46.5618 33.767C47.6366 33.767 48.5084 33.164 48.5084 32.423C48.5084 31.682 47.6366 31.0791 46.5618 31.0791Z" fill="white"/>
<path d="M11.0397 40.726L28.5819 51.054C29.3292 51.4913 30.2563 51.4913 31.0082 51.054L61.0417 33.5921C61.5537 33.293 61.5537 32.552 61.0417 32.2574L42.8445 21.6395C42.2033 21.2667 41.4145 21.2667 40.7733 21.6395L11.0489 38.8298C10.3201 39.2532 10.3155 40.3026 11.0443 40.7306L11.0397 40.726Z" fill="white"/>
<path d="M11.0397 40.726L28.5819 51.054C29.3292 51.4913 30.2563 51.4913 31.0082 51.054L61.0417 33.5921C61.5537 33.293 61.5537 32.552 61.0417 32.2574L42.8445 21.6395C42.2033 21.2667 41.4145 21.2667 40.7733 21.6395L11.0489 38.8298C10.3201 39.2532 10.3155 40.3026 11.0443 40.7306L11.0397 40.726Z" stroke="#222D4E" stroke-width="0.393922" stroke-linejoin="round"/>
<path d="M11.0397 40.1325L28.5819 50.4605C29.3292 50.8977 30.2563 50.8977 31.0082 50.4605L61.0417 32.9986C61.5537 32.6994 61.5537 31.9584 61.0417 31.6639L42.8445 21.0413C42.2033 20.6685 41.4145 20.6685 40.7733 21.0413L11.0489 38.2363C10.3201 38.6597 10.3155 39.7091 11.0443 40.1371L11.0397 40.1325Z" fill="white"/>
<path d="M11.0397 40.1325L28.5819 50.4605C29.3292 50.8977 30.2563 50.8977 31.0082 50.4605L61.0417 32.9986C61.5537 32.6994 61.5537 31.9584 61.0417 31.6639L42.8445 21.0413C42.2033 20.6685 41.4145 20.6685 40.7733 21.0413L11.0489 38.2363C10.3201 38.6597 10.3155 39.7091 11.0443 40.1371L11.0397 40.1325Z" stroke="#222D4E" stroke-width="0.393922" stroke-linejoin="round"/>
<path d="M55.3083 32.2669C55.3083 31.7377 55.6404 31.2636 56.1663 30.9368L44.0164 23.8306C43.592 24.3737 42.7709 24.7373 41.8345 24.7373C40.8982 24.7373 40.1048 24.3829 39.6712 23.8536L15.3252 37.8268C15.8557 38.1489 16.1924 38.6276 16.1924 39.1615C16.1924 39.6954 15.8741 40.1418 15.3713 40.4686L27.6873 47.7359C28.1255 47.2251 28.9189 46.8845 29.823 46.8845C30.7271 46.8845 31.5712 47.2481 32.0002 47.782L56.3785 33.7167C55.7327 33.3992 55.3083 32.8699 55.3083 32.2715V32.2669Z" fill="#00DEBF"/>
<path d="M55.3083 32.2669C55.3083 31.7377 55.6404 31.2636 56.1663 30.9368L44.0164 23.8306C43.592 24.3737 42.7709 24.7373 41.8345 24.7373C40.8982 24.7373 40.1048 24.3829 39.6712 23.8536L15.3252 37.8268C15.8557 38.1489 16.1924 38.6276 16.1924 39.1615C16.1924 39.6954 15.8741 40.1418 15.3713 40.4686L27.6873 47.7359C28.1255 47.2251 28.9189 46.8845 29.823 46.8845C30.7271 46.8845 31.5712 47.2481 32.0002 47.782L56.3785 33.7167C55.7327 33.3992 55.3083 32.8699 55.3083 32.2715V32.2669Z" stroke="#222D4E" stroke-width="0.393922" stroke-linejoin="round"/>
<path d="M36.5528 40.5884C41.0008 40.5884 44.6067 38.0992 44.6067 35.0286C44.6067 31.958 41.0008 29.4688 36.5528 29.4688C32.1048 29.4688 28.499 31.958 28.499 35.0286C28.499 38.0992 32.1048 40.5884 36.5528 40.5884Z" fill="white"/>
<path d="M36.5528 40.5884C41.0008 40.5884 44.6067 38.0992 44.6067 35.0286C44.6067 31.958 41.0008 29.4688 36.5528 29.4688C32.1048 29.4688 28.499 31.958 28.499 35.0286C28.499 38.0992 32.1048 40.5884 36.5528 40.5884Z" stroke="#222D4E" stroke-width="0.393922" stroke-linejoin="round"/>
<path d="M37.1238 32.9804L35.025 33.841L34.656 33.6385C34.2639 33.4222 33.9825 33.2887 33.8118 33.2427C33.6412 33.1967 33.4797 33.2059 33.3183 33.2703C33.1891 33.321 33.1476 33.39 33.1891 33.4774C33.2306 33.5603 33.3552 33.6615 33.5627 33.7766C33.9133 33.9699 34.2224 34.0804 34.4945 34.1034C34.762 34.1264 35.4124 34.1218 36.4411 34.0896C37.3175 34.0574 37.9402 34.0574 38.3185 34.0758C38.6921 34.0988 39.1165 34.1724 39.5823 34.3013C40.0482 34.4302 40.528 34.6327 41.0261 34.9088C41.8195 35.3461 42.2623 35.7649 42.3546 36.1653C42.4469 36.5657 42.1885 36.9385 41.575 37.2929L42.4146 37.7578L41.4505 38.1536L40.5833 37.6749C39.9652 37.8728 39.2456 37.9465 38.4292 37.9004C37.6127 37.8544 36.7086 37.5553 35.7123 37.003L35.2787 36.7636L37.3775 35.903L37.9218 36.2067C38.5214 36.5381 38.9135 36.736 39.1026 36.7958C39.2917 36.8603 39.467 36.8557 39.6331 36.7866C39.7761 36.7268 39.8314 36.6578 39.7991 36.5703C39.7669 36.4875 39.6515 36.3908 39.4532 36.2804C38.955 36.0042 38.5629 35.8201 38.2816 35.7281C38.0002 35.636 37.5435 35.5992 36.9023 35.6176C35.8368 35.6452 35.0849 35.6498 34.656 35.636C34.227 35.6176 33.7426 35.544 33.2122 35.4151C32.6817 35.2816 32.1835 35.0883 31.7269 34.8352C31.0626 34.467 30.7167 34.1034 30.6936 33.749C30.6706 33.3946 30.9704 33.0448 31.5885 32.7042L30.8781 32.3084L31.8422 31.9126L32.5525 32.3084C33.286 32.0921 34.0009 32.0185 34.6975 32.0921C35.394 32.1657 36.0674 32.3867 36.7271 32.7503C36.8193 32.8009 36.9531 32.8791 37.1238 32.9896V32.9804Z" fill="white"/>
<path d="M37.1238 32.9804L35.025 33.841L34.656 33.6385C34.2639 33.4222 33.9825 33.2887 33.8118 33.2427C33.6412 33.1967 33.4797 33.2059 33.3183 33.2703C33.1891 33.321 33.1476 33.39 33.1891 33.4774C33.2306 33.5603 33.3552 33.6615 33.5627 33.7766C33.9133 33.9699 34.2224 34.0804 34.4945 34.1034C34.762 34.1264 35.4124 34.1218 36.4411 34.0896C37.3175 34.0574 37.9402 34.0574 38.3185 34.0758C38.6921 34.0988 39.1165 34.1724 39.5823 34.3013C40.0482 34.4302 40.528 34.6327 41.0261 34.9088C41.8195 35.3461 42.2623 35.7649 42.3546 36.1653C42.4469 36.5657 42.1885 36.9385 41.575 37.2929L42.4146 37.7578L41.4505 38.1536L40.5833 37.6749C39.9652 37.8728 39.2456 37.9465 38.4292 37.9004C37.6127 37.8544 36.7086 37.5553 35.7123 37.003L35.2787 36.7636L37.3775 35.903L37.9218 36.2067C38.5214 36.5381 38.9135 36.736 39.1026 36.7958C39.2917 36.8603 39.467 36.8557 39.6331 36.7866C39.7761 36.7268 39.8314 36.6578 39.7991 36.5703C39.7669 36.4875 39.6515 36.3908 39.4532 36.2804C38.955 36.0042 38.5629 35.8201 38.2816 35.7281C38.0002 35.636 37.5435 35.5992 36.9023 35.6176C35.8368 35.6452 35.0849 35.6498 34.656 35.636C34.227 35.6176 33.7426 35.544 33.2122 35.4151C32.6817 35.2816 32.1835 35.0883 31.7269 34.8352C31.0626 34.467 30.7167 34.1034 30.6936 33.749C30.6706 33.3946 30.9704 33.0448 31.5885 32.7042L30.8781 32.3084L31.8422 31.9126L32.5525 32.3084C33.286 32.0921 34.0009 32.0185 34.6975 32.0921C35.394 32.1657 36.0674 32.3867 36.7271 32.7503C36.8193 32.8009 36.9531 32.8791 37.1238 32.9896V32.9804Z" stroke="#222D4E" stroke-width="0.393922" stroke-linejoin="round"/>
<path d="M26.3821 40.0542C25.3074 40.0542 24.4355 40.6571 24.4355 41.3981C24.4355 42.1391 25.3074 42.7421 26.3821 42.7421C27.4569 42.7421 28.3287 42.1391 28.3287 41.3981C28.3287 40.6571 27.4569 40.0542 26.3821 40.0542Z" fill="white"/>
<path d="M46.5618 28.3179C45.487 28.3179 44.6152 28.9208 44.6152 29.6618C44.6152 30.4028 45.487 31.0057 46.5618 31.0057C47.6366 31.0057 48.5084 30.4028 48.5084 29.6618C48.5084 28.9208 47.6366 28.3179 46.5618 28.3179Z" fill="white"/>
<path d="M11.0397 37.9645L28.5819 48.2925C29.3292 48.7298 30.2563 48.7298 31.0082 48.2925L61.0417 30.8306C61.5537 30.5315 61.5537 29.7905 61.0417 29.4959L42.8445 18.8734C42.2033 18.5005 41.4145 18.5005 40.7733 18.8734L11.0489 36.0683C10.3201 36.4917 10.3155 37.5411 11.0443 37.9691L11.0397 37.9645Z" fill="white"/>
<path d="M11.0397 37.9645L28.5819 48.2925C29.3292 48.7298 30.2563 48.7298 31.0082 48.2925L61.0417 30.8306C61.5537 30.5315 61.5537 29.7905 61.0417 29.4959L42.8445 18.8734C42.2033 18.5005 41.4145 18.5005 40.7733 18.8734L11.0489 36.0683C10.3201 36.4917 10.3155 37.5411 11.0443 37.9691L11.0397 37.9645Z" stroke="#222D4E" stroke-width="0.393922" stroke-linejoin="round"/>
<path d="M11.0397 37.3708L28.5819 47.6988C29.3292 48.136 30.2563 48.136 31.0082 47.6988L61.0417 30.2369C61.5537 29.9377 61.5537 29.1967 61.0417 28.9022L42.8445 18.2796C42.2033 17.9068 41.4145 17.9068 40.7733 18.2796L11.0489 35.4745C10.3201 35.898 10.3155 36.9473 11.0443 37.3754L11.0397 37.3708Z" fill="white"/>
<path d="M11.0397 37.3708L28.5819 47.6988C29.3292 48.136 30.2563 48.136 31.0082 47.6988L61.0417 30.2369C61.5537 29.9377 61.5537 29.1967 61.0417 28.9022L42.8445 18.2796C42.2033 17.9068 41.4145 17.9068 40.7733 18.2796L11.0489 35.4745C10.3201 35.898 10.3155 36.9473 11.0443 37.3754L11.0397 37.3708Z" stroke="#222D4E" stroke-width="0.393922" stroke-linejoin="round"/>
<path d="M55.3083 29.5052C55.3083 28.9759 55.6404 28.5019 56.1663 28.1751L44.0164 21.0688C43.592 21.6119 42.7709 21.9755 41.8345 21.9755C40.8982 21.9755 40.1048 21.6211 39.6712 21.0919L15.3252 35.065C15.8557 35.3872 16.1924 35.8659 16.1924 36.3998C16.1924 36.9337 15.8741 37.3801 15.3713 37.7069L27.6873 44.9742C28.1255 44.4633 28.9189 44.1228 29.823 44.1228C30.7271 44.1228 31.5712 44.4864 32.0002 45.0202L56.3785 30.955C55.7327 30.6374 55.3083 30.1082 55.3083 29.5098V29.5052Z" fill="#C49339"/>
<path d="M55.3083 29.5052C55.3083 28.9759 55.6404 28.5019 56.1663 28.1751L44.0164 21.0688C43.592 21.6119 42.7709 21.9755 41.8345 21.9755C40.8982 21.9755 40.1048 21.6211 39.6712 21.0919L15.3252 35.065C15.8557 35.3872 16.1924 35.8659 16.1924 36.3998C16.1924 36.9337 15.8741 37.3801 15.3713 37.7069L27.6873 44.9742C28.1255 44.4633 28.9189 44.1228 29.823 44.1228C30.7271 44.1228 31.5712 44.4864 32.0002 45.0202L56.3785 30.955C55.7327 30.6374 55.3083 30.1082 55.3083 29.5098V29.5052Z" stroke="#222D4E" stroke-width="0.393922" stroke-linejoin="round"/>
<path d="M36.5528 37.8262C41.0008 37.8262 44.6067 35.337 44.6067 32.2664C44.6067 29.1958 41.0008 26.7065 36.5528 26.7065C32.1048 26.7065 28.499 29.1958 28.499 32.2664C28.499 35.337 32.1048 37.8262 36.5528 37.8262Z" fill="white"/>
<path d="M36.5528 37.8262C41.0008 37.8262 44.6067 35.337 44.6067 32.2664C44.6067 29.1958 41.0008 26.7065 36.5528 26.7065C32.1048 26.7065 28.499 29.1958 28.499 32.2664C28.499 35.337 32.1048 37.8262 36.5528 37.8262Z" stroke="#222D4E" stroke-width="0.393922" stroke-linejoin="round"/>
<path d="M37.1238 30.2182L35.025 31.0788L34.656 30.8763C34.2639 30.66 33.9825 30.5265 33.8118 30.4805C33.6412 30.4345 33.4797 30.4437 33.3183 30.5081C33.1891 30.5588 33.1476 30.6278 33.1891 30.7152C33.2306 30.7981 33.3552 30.8993 33.5627 31.0144C33.9133 31.2077 34.2224 31.3182 34.4945 31.3412C34.762 31.3642 35.4124 31.3596 36.4411 31.3274C37.3175 31.2952 37.9402 31.2952 38.3185 31.3136C38.6921 31.3366 39.1165 31.4102 39.5823 31.5391C40.0482 31.668 40.528 31.8705 41.0261 32.1466C41.8195 32.5839 42.2623 33.0027 42.3546 33.4031C42.4469 33.8035 42.1885 34.1763 41.575 34.5307L42.4146 34.9956L41.4505 35.3914L40.5833 34.9127C39.9652 35.1106 39.2456 35.1843 38.4292 35.1382C37.6127 35.0922 36.7086 34.7931 35.7123 34.2408L35.2787 34.0014L37.3775 33.1408L37.9218 33.4445C38.5214 33.7759 38.9135 33.9738 39.1026 34.0336C39.2917 34.0981 39.467 34.0935 39.6331 34.0244C39.7761 33.9646 39.8314 33.8956 39.7991 33.8081C39.7669 33.7253 39.6515 33.6286 39.4532 33.5182C38.955 33.242 38.5629 33.0579 38.2816 32.9659C38.0002 32.8738 37.5435 32.837 36.9023 32.8554C35.8368 32.883 35.0849 32.8876 34.656 32.8738C34.227 32.8554 33.7426 32.7818 33.2122 32.6529C32.6817 32.5194 32.1835 32.3261 31.7269 32.073C31.0626 31.7048 30.7167 31.3412 30.6936 30.9868C30.6706 30.6324 30.9704 30.2826 31.5885 29.942L30.8781 29.5462L31.8422 29.1504L32.5525 29.5462C33.286 29.3299 34.0009 29.2562 34.6975 29.3299C35.394 29.4035 36.0674 29.6244 36.7271 29.988C36.8193 30.0387 36.9531 30.1169 37.1238 30.2274V30.2182Z" fill="white"/>
<path d="M37.1238 30.2182L35.025 31.0788L34.656 30.8763C34.2639 30.66 33.9825 30.5265 33.8118 30.4805C33.6412 30.4345 33.4797 30.4437 33.3183 30.5081C33.1891 30.5588 33.1476 30.6278 33.1891 30.7152C33.2306 30.7981 33.3552 30.8993 33.5627 31.0144C33.9133 31.2077 34.2224 31.3182 34.4945 31.3412C34.762 31.3642 35.4124 31.3596 36.4411 31.3274C37.3175 31.2952 37.9402 31.2952 38.3185 31.3136C38.6921 31.3366 39.1165 31.4102 39.5823 31.5391C40.0482 31.668 40.528 31.8705 41.0261 32.1466C41.8195 32.5839 42.2623 33.0027 42.3546 33.4031C42.4469 33.8035 42.1885 34.1763 41.575 34.5307L42.4146 34.9956L41.4505 35.3914L40.5833 34.9127C39.9652 35.1106 39.2456 35.1843 38.4292 35.1382C37.6127 35.0922 36.7086 34.7931 35.7123 34.2408L35.2787 34.0014L37.3775 33.1408L37.9218 33.4445C38.5214 33.7759 38.9135 33.9738 39.1026 34.0336C39.2917 34.0981 39.467 34.0935 39.6331 34.0244C39.7761 33.9646 39.8314 33.8956 39.7991 33.8081C39.7669 33.7253 39.6515 33.6286 39.4532 33.5182C38.955 33.242 38.5629 33.0579 38.2816 32.9659C38.0002 32.8738 37.5435 32.837 36.9023 32.8554C35.8368 32.883 35.0849 32.8876 34.656 32.8738C34.227 32.8554 33.7426 32.7818 33.2122 32.6529C32.6817 32.5194 32.1835 32.3261 31.7269 32.073C31.0626 31.7048 30.7167 31.3412 30.6936 30.9868C30.6706 30.6324 30.9704 30.2826 31.5885 29.942L30.8781 29.5462L31.8422 29.1504L32.5525 29.5462C33.286 29.3299 34.0009 29.2562 34.6975 29.3299C35.394 29.4035 36.0674 29.6244 36.7271 29.988C36.8193 30.0387 36.9531 30.1169 37.1238 30.2274V30.2182Z" stroke="#222D4E" stroke-width="0.393922" stroke-linejoin="round"/>
<path d="M26.3821 37.2925C25.3074 37.2925 24.4355 37.8954 24.4355 38.6364C24.4355 39.3774 25.3074 39.9803 26.3821 39.9803C27.4569 39.9803 28.3287 39.3774 28.3287 38.6364C28.3287 37.8954 27.4569 37.2925 26.3821 37.2925Z" fill="white"/>
<path d="M46.5618 25.5562C45.487 25.5562 44.6152 26.1591 44.6152 26.9001C44.6152 27.6411 45.487 28.244 46.5618 28.244C47.6366 28.244 48.5084 27.6411 48.5084 26.9001C48.5084 26.1591 47.6366 25.5562 46.5618 25.5562Z" fill="white"/>
</svg>
