<svg width="279" height="150" viewBox="0 0 279 150" fill="none" xmlns="http://www.w3.org/2000/svg">
<g clip-path="url(#clip0_124_1151)">
<rect width="279" height="150" rx="12" fill="#474646"/>
<g clip-path="url(#clip1_124_1151)">
<g style="mix-blend-mode:multiply">
<path d="M262.353 154.204C254.163 149.024 246.342 143.314 238.332 137.863C230.672 132.643 222.672 127.943 215.051 122.673C213.271 121.443 211.541 120.163 209.821 118.863C208.071 117.533 206.331 116.183 204.611 114.813C206.061 115.873 205.911 115.753 204.161 114.463C200.331 111.703 196.361 109.152 192.521 106.392C189.451 104.192 186.41 101.902 183.51 99.4722V99.9422C183.47 100.282 183.45 100.632 183.45 100.972C183.45 102.132 183.64 103.262 183.99 104.352C183.64 105.442 183.45 106.572 183.45 107.732C183.45 108.282 183.49 108.832 183.57 109.373L183.5 114.103C183.47 114.443 183.45 114.793 183.45 115.133C183.45 116.343 183.66 117.523 184.03 118.653C183.65 119.783 183.45 120.963 183.45 122.173C183.45 122.723 183.49 123.273 183.57 123.813L183.5 128.543C183.47 128.883 183.45 129.233 183.45 129.573C183.45 130.493 183.57 131.403 183.8 132.283C183.58 133.163 183.45 134.063 183.45 134.993C183.45 135.543 183.49 136.093 183.57 136.633L183.5 141.364C183.47 141.704 183.45 142.054 183.45 142.394C183.45 143.474 183.61 144.524 183.91 145.544C184.34 147.004 185.07 148.384 186.05 149.664C186.12 149.764 186.2 149.854 186.27 149.954C187.59 151.594 189.321 153.054 191.361 154.264C191.561 154.384 191.761 154.494 191.971 154.614C195.831 156.744 200.721 158.014 206.041 158.014C211.361 158.014 215.821 156.854 219.602 154.884C219.542 155.354 219.502 155.824 219.502 156.314C219.502 156.864 219.542 157.414 219.622 157.954L219.552 162.684C219.522 163.024 219.502 163.374 219.502 163.714C219.502 165.604 219.982 167.414 220.872 169.085C221.002 169.325 221.132 169.565 221.272 169.795C221.562 170.265 221.872 170.715 222.222 171.165C222.392 171.385 222.572 171.605 222.762 171.815C223.332 172.455 223.962 173.075 224.652 173.655C224.882 173.845 225.122 174.035 225.362 174.225C229.492 177.365 235.452 179.345 242.082 179.345C248.713 179.345 254.373 177.465 258.483 174.455C258.833 174.195 259.183 173.935 259.503 173.655C260.193 173.075 260.823 172.465 261.393 171.815C261.693 171.475 261.963 171.125 262.223 170.775C262.463 170.455 262.683 170.125 262.883 169.795C263.023 169.565 263.163 169.325 263.283 169.085C264.173 167.404 264.653 165.604 264.653 163.714V156.304C264.653 155.964 264.623 155.634 264.583 155.304C263.803 154.974 263.043 154.614 262.333 154.154L262.353 154.204Z" fill="#D6D6D6"/>
</g>
<path d="M225.761 132.024C221.951 127.134 214.471 123.804 205.871 123.804C197.271 123.804 189.79 127.134 185.98 132.024H183.43L183.33 138.754C183.32 138.984 183.28 139.204 183.28 139.434C183.28 148.064 193.39 155.065 205.871 155.065C218.351 155.065 228.462 148.064 228.462 139.434V132.024H225.761Z" fill="#AD8E53"/>
<path d="M205.871 155.054C218.347 155.054 228.462 148.056 228.462 139.424C228.462 130.791 218.347 123.793 205.871 123.793C193.394 123.793 183.28 130.791 183.28 139.424C183.28 148.056 193.394 155.054 205.871 155.054Z" fill="#282828"/>
<path d="M225.761 132.024C221.951 127.134 214.471 123.804 205.871 123.804C197.271 123.804 189.79 127.134 185.98 132.024H183.43L183.33 138.754C183.32 138.984 183.28 139.204 183.28 139.434C183.28 148.064 193.39 155.065 205.871 155.065C218.351 155.065 228.462 148.064 228.462 139.434V132.024H225.761Z" stroke="#AD8E53" stroke-width="0.750025" stroke-linejoin="round"/>
<path d="M205.871 155.054C218.347 155.054 228.462 148.056 228.462 139.424C228.462 130.791 218.347 123.793 205.871 123.793C193.394 123.793 183.28 130.791 183.28 139.424C183.28 148.056 193.394 155.054 205.871 155.054Z" stroke="#AD8E53" stroke-width="0.750025" stroke-linejoin="round"/>
<path d="M205.871 147.654C218.347 147.654 228.462 140.656 228.462 132.024C228.462 123.391 218.347 116.393 205.871 116.393C193.394 116.393 183.28 123.391 183.28 132.024C183.28 140.656 193.394 147.654 205.871 147.654Z" fill="#282828"/>
<path d="M205.871 147.654C218.347 147.654 228.462 140.656 228.462 132.024C228.462 123.391 218.347 116.393 205.871 116.393C193.394 116.393 183.28 123.391 183.28 132.024C183.28 140.656 193.394 147.654 205.871 147.654Z" stroke="#AD8E53" stroke-width="0.750025" stroke-linejoin="round"/>
<path d="M206.001 155.024C206.001 154.844 206.001 154.664 206.021 154.484V147.714" stroke="#AD8E53" stroke-width="0.750025" stroke-linejoin="round"/>
<path d="M210.911 154.525V147.304" stroke="#AD8E53" stroke-width="0.750025" stroke-linejoin="round"/>
<path d="M215.571 153.485V146.264" stroke="#AD8E53" stroke-width="0.750025" stroke-linejoin="round"/>
<path d="M219.871 151.744V144.484" stroke="#AD8E53" stroke-width="0.750025" stroke-linejoin="round"/>
<path d="M223.542 149.304V142.004" stroke="#AD8E53" stroke-width="0.750025" stroke-linejoin="round"/>
<path d="M226.872 145.194V137.934" stroke="#AD8E53" stroke-width="0.750025" stroke-linejoin="round"/>
<path d="M201 154.525V147.304" stroke="#AD8E53" stroke-width="0.750025" stroke-linejoin="round"/>
<path d="M196.33 153.485V146.264" stroke="#AD8E53" stroke-width="0.750025" stroke-linejoin="round"/>
<path d="M192.04 151.744V144.484" stroke="#AD8E53" stroke-width="0.750025" stroke-linejoin="round"/>
<path d="M188.37 149.304V142.004" stroke="#AD8E53" stroke-width="0.750025" stroke-linejoin="round"/>
<path d="M185.04 145.194V137.934" stroke="#AD8E53" stroke-width="0.750025" stroke-linejoin="round"/>
<path d="M205.871 144.104C215.514 144.104 223.331 138.695 223.331 132.024C223.331 125.352 215.514 119.943 205.871 119.943C196.227 119.943 188.41 125.352 188.41 132.024C188.41 138.695 196.227 144.104 205.871 144.104Z" fill="#282828"/>
<path d="M205.871 144.104C215.514 144.104 223.331 138.695 223.331 132.024C223.331 125.352 215.514 119.943 205.871 119.943C196.227 119.943 188.41 125.352 188.41 132.024C188.41 138.695 196.227 144.104 205.871 144.104Z" stroke="#AD8E53" stroke-width="0.750025" stroke-linejoin="round"/>
<path d="M207.121 127.573L202.57 129.443L201.77 129.003C200.92 128.533 200.31 128.243 199.94 128.143C199.57 128.043 199.22 128.063 198.87 128.203C198.59 128.313 198.5 128.463 198.59 128.653C198.68 128.843 198.95 129.053 199.4 129.303C200.16 129.723 200.83 129.963 201.42 130.013C202 130.063 203.411 130.053 205.641 129.983C207.541 129.913 208.891 129.913 209.711 129.953C210.521 130.003 211.441 130.163 212.451 130.443C213.461 130.723 214.501 131.163 215.581 131.764C217.301 132.714 218.261 133.624 218.461 134.494C218.661 135.364 218.101 136.174 216.771 136.944L218.591 137.954L216.501 138.814L214.621 137.774C213.281 138.204 211.721 138.364 209.951 138.264C208.181 138.154 206.221 137.504 204.061 136.314L203.121 135.794L207.671 133.924L208.851 134.584C210.151 135.304 211.001 135.734 211.411 135.864C211.821 136.004 212.201 135.994 212.561 135.844C212.871 135.714 212.991 135.564 212.921 135.374C212.851 135.194 212.601 134.984 212.171 134.744C211.091 134.144 210.241 133.744 209.631 133.544C209.021 133.344 208.031 133.264 206.641 133.304C204.331 133.364 202.7 133.374 201.77 133.344C200.84 133.304 199.79 133.144 198.64 132.864C197.49 132.574 196.41 132.154 195.42 131.604C193.98 130.803 193.23 130.013 193.18 129.243C193.13 128.473 193.78 127.713 195.12 126.973L193.58 126.113L195.67 125.253L197.21 126.113C198.8 125.643 200.35 125.483 201.86 125.643C203.371 125.803 204.831 126.283 206.261 127.073C206.461 127.183 206.751 127.353 207.121 127.593V127.573Z" fill="#282828"/>
<path d="M207.121 127.573L202.57 129.443L201.77 129.003C200.92 128.533 200.31 128.243 199.94 128.143C199.57 128.043 199.22 128.063 198.87 128.203C198.59 128.313 198.5 128.463 198.59 128.653C198.68 128.843 198.95 129.053 199.4 129.303C200.16 129.723 200.83 129.963 201.42 130.013C202 130.063 203.411 130.053 205.641 129.983C207.541 129.913 208.891 129.913 209.711 129.953C210.521 130.003 211.441 130.163 212.451 130.443C213.461 130.723 214.501 131.163 215.581 131.764C217.301 132.714 218.261 133.624 218.461 134.494C218.661 135.364 218.101 136.174 216.771 136.944L218.591 137.954L216.501 138.814L214.621 137.774C213.281 138.204 211.721 138.364 209.951 138.264C208.181 138.154 206.221 137.504 204.061 136.314L203.121 135.794L207.671 133.924L208.851 134.584C210.151 135.304 211.001 135.734 211.411 135.864C211.821 136.004 212.201 135.994 212.561 135.844C212.871 135.714 212.991 135.564 212.921 135.374C212.851 135.194 212.601 134.984 212.171 134.744C211.091 134.144 210.241 133.744 209.631 133.544C209.021 133.344 208.031 133.264 206.641 133.304C204.331 133.364 202.7 133.374 201.77 133.344C200.84 133.304 199.79 133.144 198.64 132.864C197.49 132.574 196.41 132.154 195.42 131.604C193.98 130.803 193.23 130.013 193.18 129.243C193.13 128.473 193.78 127.713 195.12 126.973L193.58 126.113L195.67 125.253L197.21 126.113C198.8 125.643 200.35 125.483 201.86 125.643C203.371 125.803 204.831 126.283 206.261 127.073C206.461 127.183 206.751 127.353 207.121 127.593V127.573Z" stroke="#AD8E53" stroke-width="0.750025" stroke-linejoin="round"/>
<path d="M225.761 119.193C221.951 114.303 214.471 110.973 205.871 110.973C197.271 110.973 189.79 114.303 185.98 119.193H183.43L183.33 125.924C183.32 126.154 183.28 126.374 183.28 126.604C183.28 135.234 193.39 142.234 205.871 142.234C218.351 142.234 228.462 135.234 228.462 126.604V119.193H225.761Z" fill="#AD8E53"/>
<path d="M205.871 142.234C218.347 142.234 228.462 135.236 228.462 126.604C228.462 117.971 218.347 110.973 205.871 110.973C193.394 110.973 183.28 117.971 183.28 126.604C183.28 135.236 193.394 142.234 205.871 142.234Z" fill="#282828"/>
<path d="M225.761 119.193C221.951 114.303 214.471 110.973 205.871 110.973C197.271 110.973 189.79 114.303 185.98 119.193H183.43L183.33 125.924C183.32 126.154 183.28 126.374 183.28 126.604C183.28 135.234 193.39 142.234 205.871 142.234C218.351 142.234 228.462 135.234 228.462 126.604V119.193H225.761Z" stroke="#AD8E53" stroke-width="0.750025" stroke-linejoin="round"/>
<path d="M205.871 142.234C218.347 142.234 228.462 135.236 228.462 126.604C228.462 117.971 218.347 110.973 205.871 110.973C193.394 110.973 183.28 117.971 183.28 126.604C183.28 135.236 193.394 142.234 205.871 142.234Z" stroke="#AD8E53" stroke-width="0.750025" stroke-linejoin="round"/>
<path d="M205.871 134.824C218.347 134.824 228.462 127.826 228.462 119.193C228.462 110.561 218.347 103.563 205.871 103.563C193.394 103.563 183.28 110.561 183.28 119.193C183.28 127.826 193.394 134.824 205.871 134.824Z" fill="#282828"/>
<path d="M205.871 134.824C218.347 134.824 228.462 127.826 228.462 119.193C228.462 110.561 218.347 103.563 205.871 103.563C193.394 103.563 183.28 110.561 183.28 119.193C183.28 127.826 193.394 134.824 205.871 134.824Z" stroke="#AD8E53" stroke-width="0.750025" stroke-linejoin="round"/>
<path d="M206.001 142.204C206.001 142.024 206.001 141.844 206.021 141.664V134.894" stroke="#AD8E53" stroke-width="0.750025" stroke-linejoin="round"/>
<path d="M210.911 141.694V134.474" stroke="#AD8E53" stroke-width="0.750025" stroke-linejoin="round"/>
<path d="M215.571 140.654V133.434" stroke="#AD8E53" stroke-width="0.750025" stroke-linejoin="round"/>
<path d="M219.871 138.914V131.664" stroke="#AD8E53" stroke-width="0.750025" stroke-linejoin="round"/>
<path d="M223.542 136.474V129.173" stroke="#AD8E53" stroke-width="0.750025" stroke-linejoin="round"/>
<path d="M226.872 132.364V125.103" stroke="#AD8E53" stroke-width="0.750025" stroke-linejoin="round"/>
<path d="M201 141.694V134.474" stroke="#AD8E53" stroke-width="0.750025" stroke-linejoin="round"/>
<path d="M196.33 140.654V133.434" stroke="#AD8E53" stroke-width="0.750025" stroke-linejoin="round"/>
<path d="M192.04 138.914V131.664" stroke="#AD8E53" stroke-width="0.750025" stroke-linejoin="round"/>
<path d="M188.37 136.473V129.173" stroke="#AD8E53" stroke-width="0.750025" stroke-linejoin="round"/>
<path d="M185.04 132.364V125.104" stroke="#AD8E53" stroke-width="0.750025" stroke-linejoin="round"/>
<path d="M205.871 131.273C215.514 131.273 223.331 125.865 223.331 119.193C223.331 112.521 215.514 107.113 205.871 107.113C196.227 107.113 188.41 112.521 188.41 119.193C188.41 125.865 196.227 131.273 205.871 131.273Z" fill="#282828"/>
<path d="M205.871 131.273C215.514 131.273 223.331 125.865 223.331 119.193C223.331 112.521 215.514 107.113 205.871 107.113C196.227 107.113 188.41 112.521 188.41 119.193C188.41 125.865 196.227 131.273 205.871 131.273Z" stroke="#AD8E53" stroke-width="0.750025" stroke-linejoin="round"/>
<path d="M207.121 114.743L202.57 116.613L201.77 116.173C200.92 115.703 200.31 115.413 199.94 115.313C199.57 115.213 199.22 115.233 198.87 115.373C198.59 115.483 198.5 115.633 198.59 115.823C198.68 116.013 198.95 116.223 199.4 116.473C200.16 116.893 200.83 117.133 201.42 117.183C202 117.233 203.411 117.223 205.641 117.153C207.541 117.083 208.891 117.083 209.711 117.123C210.521 117.173 211.441 117.333 212.451 117.613C213.461 117.893 214.501 118.333 215.581 118.933C217.301 119.883 218.261 120.793 218.461 121.663C218.661 122.533 218.101 123.343 216.771 124.113L218.591 125.123L216.501 125.983L214.621 124.943C213.281 125.373 211.721 125.533 209.951 125.433C208.181 125.323 206.221 124.673 204.061 123.483L203.121 122.963L207.671 121.093L208.851 121.753C210.151 122.473 211.001 122.903 211.411 123.033C211.821 123.173 212.201 123.163 212.561 123.013C212.871 122.883 212.991 122.733 212.921 122.543C212.851 122.363 212.601 122.153 212.171 121.913C211.091 121.313 210.241 120.913 209.631 120.713C209.021 120.513 208.031 120.433 206.641 120.473C204.331 120.533 202.7 120.543 201.77 120.513C200.84 120.473 199.79 120.313 198.64 120.033C197.49 119.743 196.41 119.323 195.42 118.773C193.98 117.973 193.23 117.183 193.18 116.413C193.13 115.643 193.78 114.883 195.12 114.143L193.58 113.283L195.67 112.423L197.21 113.283C198.8 112.813 200.35 112.653 201.86 112.813C203.371 112.973 204.831 113.453 206.261 114.243C206.461 114.353 206.751 114.523 207.121 114.763V114.743Z" fill="#282828"/>
<path d="M207.121 114.743L202.57 116.613L201.77 116.173C200.92 115.703 200.31 115.413 199.94 115.313C199.57 115.213 199.22 115.233 198.87 115.373C198.59 115.483 198.5 115.633 198.59 115.823C198.68 116.013 198.95 116.223 199.4 116.473C200.16 116.893 200.83 117.133 201.42 117.183C202 117.233 203.411 117.223 205.641 117.153C207.541 117.083 208.891 117.083 209.711 117.123C210.521 117.173 211.441 117.333 212.451 117.613C213.461 117.893 214.501 118.333 215.581 118.933C217.301 119.883 218.261 120.793 218.461 121.663C218.661 122.533 218.101 123.343 216.771 124.113L218.591 125.123L216.501 125.983L214.621 124.943C213.281 125.373 211.721 125.533 209.951 125.433C208.181 125.323 206.221 124.673 204.061 123.483L203.121 122.963L207.671 121.093L208.851 121.753C210.151 122.473 211.001 122.903 211.411 123.033C211.821 123.173 212.201 123.163 212.561 123.013C212.871 122.883 212.991 122.733 212.921 122.543C212.851 122.363 212.601 122.153 212.171 121.913C211.091 121.313 210.241 120.913 209.631 120.713C209.021 120.513 208.031 120.433 206.641 120.473C204.331 120.533 202.7 120.543 201.77 120.513C200.84 120.473 199.79 120.313 198.64 120.033C197.49 119.743 196.41 119.323 195.42 118.773C193.98 117.973 193.23 117.183 193.18 116.413C193.13 115.643 193.78 114.883 195.12 114.143L193.58 113.283L195.67 112.423L197.21 113.283C198.8 112.813 200.35 112.653 201.86 112.813C203.371 112.973 204.831 113.453 206.261 114.243C206.461 114.353 206.751 114.523 207.121 114.763V114.743Z" stroke="#AD8E53" stroke-width="0.750025" stroke-linejoin="round"/>
<path d="M225.761 104.753C221.951 99.8628 214.471 96.5327 205.871 96.5327C197.271 96.5327 189.79 99.8628 185.98 104.753H183.43L183.33 111.483C183.32 111.713 183.28 111.933 183.28 112.163C183.28 120.794 193.39 127.794 205.871 127.794C218.351 127.794 228.462 120.794 228.462 112.163V104.753H225.761Z" fill="#AD8E53"/>
<path d="M205.871 127.784C218.347 127.784 228.462 120.785 228.462 112.153C228.462 103.52 218.347 96.5225 205.871 96.5225C193.394 96.5225 183.28 103.52 183.28 112.153C183.28 120.785 193.394 127.784 205.871 127.784Z" fill="#282828"/>
<path d="M225.761 104.753C221.951 99.8628 214.471 96.5327 205.871 96.5327C197.271 96.5327 189.79 99.8628 185.98 104.753H183.43L183.33 111.483C183.32 111.713 183.28 111.933 183.28 112.163C183.28 120.794 193.39 127.794 205.871 127.794C218.351 127.794 228.462 120.794 228.462 112.163V104.753H225.761Z" stroke="#AD8E53" stroke-width="0.750025" stroke-linejoin="round"/>
<path d="M205.871 127.784C218.347 127.784 228.462 120.785 228.462 112.153C228.462 103.52 218.347 96.5225 205.871 96.5225C193.394 96.5225 183.28 103.52 183.28 112.153C183.28 120.785 193.394 127.784 205.871 127.784Z" stroke="#AD8E53" stroke-width="0.750025" stroke-linejoin="round"/>
<path d="M205.871 120.383C218.347 120.383 228.462 113.385 228.462 104.753C228.462 96.1202 218.347 89.1222 205.871 89.1222C193.394 89.1222 183.28 96.1202 183.28 104.753C183.28 113.385 193.394 120.383 205.871 120.383Z" fill="#282828"/>
<path d="M205.871 120.383C218.347 120.383 228.462 113.385 228.462 104.753C228.462 96.1202 218.347 89.1222 205.871 89.1222C193.394 89.1222 183.28 96.1202 183.28 104.753C183.28 113.385 193.394 120.383 205.871 120.383Z" stroke="#AD8E53" stroke-width="0.750025" stroke-linejoin="round"/>
<path d="M206.001 127.753C206.001 127.573 206.001 127.393 206.021 127.213V120.443" stroke="#AD8E53" stroke-width="0.750025" stroke-linejoin="round"/>
<path d="M210.911 127.253V120.033" stroke="#AD8E53" stroke-width="0.750025" stroke-linejoin="round"/>
<path d="M215.571 126.214V118.993" stroke="#AD8E53" stroke-width="0.750025" stroke-linejoin="round"/>
<path d="M219.871 124.473V117.213" stroke="#AD8E53" stroke-width="0.750025" stroke-linejoin="round"/>
<path d="M223.542 122.033V114.733" stroke="#AD8E53" stroke-width="0.750025" stroke-linejoin="round"/>
<path d="M226.872 117.923V110.663" stroke="#AD8E53" stroke-width="0.750025" stroke-linejoin="round"/>
<path d="M201 127.254V120.033" stroke="#AD8E53" stroke-width="0.750025" stroke-linejoin="round"/>
<path d="M196.33 126.214V118.993" stroke="#AD8E53" stroke-width="0.750025" stroke-linejoin="round"/>
<path d="M192.04 124.473V117.213" stroke="#AD8E53" stroke-width="0.750025" stroke-linejoin="round"/>
<path d="M188.37 122.033V114.733" stroke="#AD8E53" stroke-width="0.750025" stroke-linejoin="round"/>
<path d="M185.04 117.923V110.663" stroke="#AD8E53" stroke-width="0.750025" stroke-linejoin="round"/>
<path d="M205.871 116.833C215.514 116.833 223.331 111.424 223.331 104.753C223.331 98.0808 215.514 92.6722 205.871 92.6722C196.227 92.6722 188.41 98.0808 188.41 104.753C188.41 111.424 196.227 116.833 205.871 116.833Z" fill="#282828"/>
<path d="M205.871 116.833C215.514 116.833 223.331 111.424 223.331 104.753C223.331 98.0808 215.514 92.6722 205.871 92.6722C196.227 92.6722 188.41 98.0808 188.41 104.753C188.41 111.424 196.227 116.833 205.871 116.833Z" stroke="#AD8E53" stroke-width="0.750025" stroke-linejoin="round"/>
<path d="M207.121 100.302L202.57 102.173L201.77 101.733C200.92 101.263 200.31 100.973 199.94 100.873C199.57 100.773 199.22 100.793 198.87 100.933C198.59 101.043 198.5 101.193 198.59 101.383C198.68 101.573 198.95 101.783 199.4 102.033C200.16 102.453 200.83 102.693 201.42 102.743C202 102.793 203.411 102.783 205.641 102.713C207.541 102.643 208.891 102.643 209.711 102.683C210.521 102.733 211.441 102.893 212.451 103.173C213.461 103.453 214.501 103.893 215.581 104.493C217.301 105.443 218.261 106.353 218.461 107.223C218.661 108.093 218.101 108.903 216.771 109.673L218.591 110.683L216.501 111.543L214.621 110.503C213.281 110.933 211.721 111.093 209.951 110.993C208.181 110.883 206.221 110.233 204.061 109.043L203.121 108.523L207.671 106.653L208.851 107.313C210.151 108.033 211.001 108.463 211.411 108.593C211.821 108.733 212.201 108.723 212.561 108.573C212.871 108.443 212.991 108.293 212.921 108.103C212.851 107.923 212.601 107.713 212.171 107.473C211.091 106.873 210.241 106.473 209.631 106.273C209.021 106.073 208.031 105.993 206.641 106.033C204.331 106.093 202.7 106.103 201.77 106.073C200.84 106.033 199.79 105.873 198.64 105.593C197.49 105.303 196.41 104.883 195.42 104.333C193.98 103.533 193.23 102.743 193.18 101.973C193.13 101.203 193.78 100.442 195.12 99.7025L193.58 98.8424L195.67 97.9824L197.21 98.8424C198.8 98.3724 200.35 98.2124 201.86 98.3724C203.371 98.5324 204.831 99.0125 206.261 99.8025C206.461 99.9125 206.751 100.082 207.121 100.322V100.302Z" fill="#282828"/>
<path d="M207.121 100.302L202.57 102.173L201.77 101.733C200.92 101.263 200.31 100.973 199.94 100.873C199.57 100.773 199.22 100.793 198.87 100.933C198.59 101.043 198.5 101.193 198.59 101.383C198.68 101.573 198.95 101.783 199.4 102.033C200.16 102.453 200.83 102.693 201.42 102.743C202 102.793 203.411 102.783 205.641 102.713C207.541 102.643 208.891 102.643 209.711 102.683C210.521 102.733 211.441 102.893 212.451 103.173C213.461 103.453 214.501 103.893 215.581 104.493C217.301 105.443 218.261 106.353 218.461 107.223C218.661 108.093 218.101 108.903 216.771 109.673L218.591 110.683L216.501 111.543L214.621 110.503C213.281 110.933 211.721 111.093 209.951 110.993C208.181 110.883 206.221 110.233 204.061 109.043L203.121 108.523L207.671 106.653L208.851 107.313C210.151 108.033 211.001 108.463 211.411 108.593C211.821 108.733 212.201 108.723 212.561 108.573C212.871 108.443 212.991 108.293 212.921 108.103C212.851 107.923 212.601 107.713 212.171 107.473C211.091 106.873 210.241 106.473 209.631 106.273C209.021 106.073 208.031 105.993 206.641 106.033C204.331 106.093 202.7 106.103 201.77 106.073C200.84 106.033 199.79 105.873 198.64 105.593C197.49 105.303 196.41 104.883 195.42 104.333C193.98 103.533 193.23 102.743 193.18 101.973C193.13 101.203 193.78 100.442 195.12 99.7025L193.58 98.8424L195.67 97.9824L197.21 98.8424C198.8 98.3724 200.35 98.2124 201.86 98.3724C203.371 98.5324 204.831 99.0125 206.261 99.8025C206.461 99.9125 206.751 100.082 207.121 100.322V100.302Z" stroke="#AD8E53" stroke-width="0.750025" stroke-linejoin="round"/>
<path d="M225.761 90.5722C221.951 85.682 214.471 82.3519 205.871 82.3519C197.271 82.3519 189.79 85.682 185.98 90.5722H183.43L183.33 97.3024C183.32 97.5324 183.28 97.7525 183.28 97.9825C183.28 106.613 193.39 113.613 205.871 113.613C218.351 113.613 228.462 106.613 228.462 97.9825V90.5722H225.761Z" fill="#AD8E53"/>
<path d="M205.871 113.613C218.347 113.613 228.462 106.615 228.462 97.9825C228.462 89.35 218.347 82.3519 205.871 82.3519C193.394 82.3519 183.28 89.35 183.28 97.9825C183.28 106.615 193.394 113.613 205.871 113.613Z" fill="#282828"/>
<path d="M225.761 90.5722C221.951 85.682 214.471 82.3519 205.871 82.3519C197.271 82.3519 189.79 85.682 185.98 90.5722H183.43L183.33 97.3024C183.32 97.5324 183.28 97.7525 183.28 97.9825C183.28 106.613 193.39 113.613 205.871 113.613C218.351 113.613 228.462 106.613 228.462 97.9825V90.5722H225.761Z" stroke="#AD8E53" stroke-width="0.750025" stroke-linejoin="round"/>
<path d="M205.871 113.613C218.347 113.613 228.462 106.615 228.462 97.9825C228.462 89.35 218.347 82.3519 205.871 82.3519C193.394 82.3519 183.28 89.35 183.28 97.9825C183.28 106.615 193.394 113.613 205.871 113.613Z" stroke="#AD8E53" stroke-width="0.750025" stroke-linejoin="round"/>
<path d="M205.871 106.203C218.347 106.203 228.462 99.2046 228.462 90.5721C228.462 81.9396 218.347 74.9415 205.871 74.9415C193.394 74.9415 183.28 81.9396 183.28 90.5721C183.28 99.2046 193.394 106.203 205.871 106.203Z" fill="#282828"/>
<path d="M205.871 106.203C218.347 106.203 228.462 99.2046 228.462 90.5721C228.462 81.9396 218.347 74.9415 205.871 74.9415C193.394 74.9415 183.28 81.9396 183.28 90.5721C183.28 99.2046 193.394 106.203 205.871 106.203Z" stroke="#AD8E53" stroke-width="0.750025" stroke-linejoin="round"/>
<path d="M206.001 113.583C206.001 113.403 206.001 113.223 206.021 113.043V106.273" stroke="#AD8E53" stroke-width="0.750025" stroke-linejoin="round"/>
<path d="M210.911 113.073V105.853" stroke="#AD8E53" stroke-width="0.750025" stroke-linejoin="round"/>
<path d="M215.571 112.033V104.812" stroke="#AD8E53" stroke-width="0.750025" stroke-linejoin="round"/>
<path d="M219.871 110.293V103.043" stroke="#AD8E53" stroke-width="0.750025" stroke-linejoin="round"/>
<path d="M223.542 107.852V100.552" stroke="#AD8E53" stroke-width="0.750025" stroke-linejoin="round"/>
<path d="M226.872 103.743V96.4823" stroke="#AD8E53" stroke-width="0.750025" stroke-linejoin="round"/>
<path d="M201.001 113.073V105.853" stroke="#AD8E53" stroke-width="0.750025" stroke-linejoin="round"/>
<path d="M196.331 112.033V104.812" stroke="#AD8E53" stroke-width="0.750025" stroke-linejoin="round"/>
<path d="M192.04 110.293V103.043" stroke="#AD8E53" stroke-width="0.750025" stroke-linejoin="round"/>
<path d="M188.37 107.852V100.552" stroke="#AD8E53" stroke-width="0.750025" stroke-linejoin="round"/>
<path d="M185.04 103.743V96.4823" stroke="#AD8E53" stroke-width="0.750025" stroke-linejoin="round"/>
<path d="M205.871 102.652C215.514 102.652 223.331 97.2438 223.331 90.572C223.331 83.9002 215.514 78.4916 205.871 78.4916C196.228 78.4916 188.41 83.9002 188.41 90.572C188.41 97.2438 196.228 102.652 205.871 102.652Z" fill="#282828"/>
<path d="M205.871 102.652C215.514 102.652 223.331 97.2438 223.331 90.572C223.331 83.9002 215.514 78.4916 205.871 78.4916C196.228 78.4916 188.41 83.9002 188.41 90.572C188.41 97.2438 196.228 102.652 205.871 102.652Z" stroke="#AD8E53" stroke-width="0.750025" stroke-linejoin="round"/>
<path d="M207.121 86.1218L202.57 87.9919L201.77 87.5519C200.92 87.0819 200.31 86.7919 199.94 86.6919C199.57 86.5919 199.22 86.6119 198.87 86.7519C198.59 86.8619 198.5 87.0119 198.59 87.2019C198.68 87.3919 198.95 87.6019 199.4 87.8519C200.16 88.2719 200.83 88.5119 201.42 88.5619C202 88.6119 203.411 88.6019 205.641 88.5319C207.541 88.4619 208.891 88.4619 209.711 88.5019C210.521 88.5519 211.441 88.7119 212.451 88.9919C213.461 89.2719 214.501 89.712 215.581 90.312C217.301 91.262 218.261 92.172 218.461 93.0421C218.661 93.9121 218.101 94.7221 216.771 95.4922L218.591 96.5022L216.501 97.3622L214.621 96.3222C213.281 96.7522 211.721 96.9122 209.951 96.8122C208.181 96.7022 206.221 96.0522 204.061 94.8621L203.121 94.3421L207.671 92.4721L208.851 93.1321C210.151 93.8521 211.001 94.2821 211.411 94.4121C211.821 94.5521 212.201 94.5421 212.561 94.3921C212.871 94.2621 212.991 94.1121 212.921 93.9221C212.851 93.7421 212.601 93.5321 212.171 93.2921C211.091 92.6921 210.241 92.292 209.631 92.092C209.021 91.892 208.031 91.812 206.641 91.852C204.331 91.912 202.7 91.922 201.77 91.892C200.84 91.852 199.79 91.692 198.64 91.412C197.49 91.122 196.41 90.702 195.42 90.152C193.98 89.3519 193.23 88.5619 193.18 87.7919C193.13 87.0219 193.78 86.2618 195.12 85.5218L193.58 84.6618L195.67 83.8018L197.21 84.6618C198.8 84.1918 200.35 84.0318 201.86 84.1918C203.371 84.3518 204.831 84.8318 206.261 85.6218C206.461 85.7318 206.751 85.9018 207.121 86.1418V86.1218Z" fill="#282828"/>
<path d="M207.121 86.1218L202.57 87.9919L201.77 87.5519C200.92 87.0819 200.31 86.7919 199.94 86.6919C199.57 86.5919 199.22 86.6119 198.87 86.7519C198.59 86.8619 198.5 87.0119 198.59 87.2019C198.68 87.3919 198.95 87.6019 199.4 87.8519C200.16 88.2719 200.83 88.5119 201.42 88.5619C202 88.6119 203.411 88.6019 205.641 88.5319C207.541 88.4619 208.891 88.4619 209.711 88.5019C210.521 88.5519 211.441 88.7119 212.451 88.9919C213.461 89.2719 214.501 89.712 215.581 90.312C217.301 91.262 218.261 92.172 218.461 93.0421C218.661 93.9121 218.101 94.7221 216.771 95.4922L218.591 96.5022L216.501 97.3622L214.621 96.3222C213.281 96.7522 211.721 96.9122 209.951 96.8122C208.181 96.7022 206.221 96.0522 204.061 94.8621L203.121 94.3421L207.671 92.4721L208.851 93.1321C210.151 93.8521 211.001 94.2821 211.411 94.4121C211.821 94.5521 212.201 94.5421 212.561 94.3921C212.871 94.2621 212.991 94.1121 212.921 93.9221C212.851 93.7421 212.601 93.5321 212.171 93.2921C211.091 92.6921 210.241 92.292 209.631 92.092C209.021 91.892 208.031 91.812 206.641 91.852C204.331 91.912 202.7 91.922 201.77 91.892C200.84 91.852 199.79 91.692 198.64 91.412C197.49 91.122 196.41 90.702 195.42 90.152C193.98 89.3519 193.23 88.5619 193.18 87.7919C193.13 87.0219 193.78 86.2618 195.12 85.5218L193.58 84.6618L195.67 83.8018L197.21 84.6618C198.8 84.1918 200.35 84.0318 201.86 84.1918C203.371 84.3518 204.831 84.8318 206.261 85.6218C206.461 85.7318 206.751 85.9018 207.121 86.1418V86.1218Z" stroke="#AD8E53" stroke-width="0.750025" stroke-linejoin="round"/>
<path d="M261.813 153.354C258.003 148.464 250.522 145.134 241.922 145.134C233.322 145.134 225.842 148.464 222.032 153.354H219.481L219.381 160.084C219.371 160.314 219.331 160.534 219.331 160.764C219.331 169.394 229.442 176.395 241.922 176.395C254.403 176.395 264.513 169.394 264.513 160.764V153.354H261.813Z" fill="#AD8E53"/>
<path d="M241.922 176.385C254.399 176.385 264.513 169.387 264.513 160.754C264.513 152.122 254.399 145.124 241.922 145.124C229.446 145.124 219.331 152.122 219.331 160.754C219.331 169.387 229.446 176.385 241.922 176.385Z" fill="#282828"/>
<path d="M261.813 153.354C258.003 148.464 250.522 145.134 241.922 145.134C233.322 145.134 225.842 148.464 222.032 153.354H219.481L219.381 160.084C219.371 160.314 219.331 160.534 219.331 160.764C219.331 169.394 229.442 176.395 241.922 176.395C254.403 176.395 264.513 169.394 264.513 160.764V153.354H261.813Z" stroke="#AD8E53" stroke-width="0.750025" stroke-linejoin="round"/>
<path d="M241.922 176.385C254.399 176.385 264.513 169.387 264.513 160.754C264.513 152.122 254.399 145.124 241.922 145.124C229.446 145.124 219.331 152.122 219.331 160.754C219.331 169.387 229.446 176.385 241.922 176.385Z" stroke="#AD8E53" stroke-width="0.750025" stroke-linejoin="round"/>
<path d="M241.922 168.985C254.399 168.985 264.513 161.987 264.513 153.354C264.513 144.722 254.399 137.724 241.922 137.724C229.446 137.724 219.331 144.722 219.331 153.354C219.331 161.987 229.446 168.985 241.922 168.985Z" fill="#282828"/>
<path d="M241.922 168.985C254.399 168.985 264.513 161.987 264.513 153.354C264.513 144.722 254.399 137.724 241.922 137.724C229.446 137.724 219.331 144.722 219.331 153.354C219.331 161.987 229.446 168.985 241.922 168.985Z" stroke="#AD8E53" stroke-width="0.750025" stroke-linejoin="round"/>
<path d="M241.922 165.434C251.565 165.434 259.383 160.026 259.383 153.354C259.383 146.682 251.565 141.273 241.922 141.273C232.279 141.273 224.461 146.682 224.461 153.354C224.461 160.026 232.279 165.434 241.922 165.434Z" fill="#282828"/>
<path d="M241.922 165.434C251.565 165.434 259.383 160.026 259.383 153.354C259.383 146.682 251.565 141.273 241.922 141.273C232.279 141.273 224.461 146.682 224.461 153.354C224.461 160.026 232.279 165.434 241.922 165.434Z" stroke="#AD8E53" stroke-width="0.750025" stroke-linejoin="round"/>
<path d="M243.162 148.903L238.612 150.774L237.812 150.334C236.962 149.863 236.352 149.573 235.982 149.473C235.612 149.373 235.262 149.393 234.912 149.533C234.632 149.643 234.542 149.793 234.632 149.983C234.722 150.173 234.992 150.383 235.442 150.634C236.202 151.054 236.872 151.294 237.462 151.344C238.042 151.394 239.452 151.384 241.682 151.314C243.582 151.244 244.932 151.244 245.752 151.284C246.562 151.334 247.482 151.494 248.492 151.774C249.502 152.054 250.542 152.494 251.622 153.094C253.342 154.044 254.303 154.954 254.503 155.824C254.703 156.694 254.143 157.504 252.812 158.274L254.633 159.284L252.542 160.144L250.662 159.104C249.322 159.534 247.762 159.694 245.992 159.594C244.222 159.484 242.262 158.834 240.102 157.644L239.162 157.124L243.712 155.254L244.892 155.914C246.192 156.634 247.042 157.064 247.452 157.194C247.862 157.334 248.242 157.324 248.602 157.174C248.912 157.044 249.032 156.894 248.962 156.704C248.892 156.524 248.642 156.314 248.212 156.074C247.132 155.474 246.282 155.074 245.672 154.874C245.062 154.674 244.072 154.594 242.682 154.634C240.372 154.694 238.742 154.704 237.812 154.674C236.882 154.634 235.832 154.474 234.682 154.194C233.532 153.904 232.452 153.484 231.462 152.934C230.022 152.134 229.272 151.344 229.222 150.574C229.172 149.803 229.822 149.043 231.162 148.303L229.622 147.443L231.712 146.583L233.252 147.443C234.842 146.973 236.392 146.813 237.902 146.973C239.412 147.133 240.872 147.613 242.302 148.403C242.502 148.513 242.792 148.683 243.162 148.923V148.903Z" fill="#282828"/>
<path d="M243.162 148.903L238.612 150.774L237.812 150.334C236.962 149.863 236.352 149.573 235.982 149.473C235.612 149.373 235.262 149.393 234.912 149.533C234.632 149.643 234.542 149.793 234.632 149.983C234.722 150.173 234.992 150.383 235.442 150.634C236.202 151.054 236.872 151.294 237.462 151.344C238.042 151.394 239.452 151.384 241.682 151.314C243.582 151.244 244.932 151.244 245.752 151.284C246.562 151.334 247.482 151.494 248.492 151.774C249.502 152.054 250.542 152.494 251.622 153.094C253.342 154.044 254.303 154.954 254.503 155.824C254.703 156.694 254.143 157.504 252.812 158.274L254.633 159.284L252.542 160.144L250.662 159.104C249.322 159.534 247.762 159.694 245.992 159.594C244.222 159.484 242.262 158.834 240.102 157.644L239.162 157.124L243.712 155.254L244.892 155.914C246.192 156.634 247.042 157.064 247.452 157.194C247.862 157.334 248.242 157.324 248.602 157.174C248.912 157.044 249.032 156.894 248.962 156.704C248.892 156.524 248.642 156.314 248.212 156.074C247.132 155.474 246.282 155.074 245.672 154.874C245.062 154.674 244.072 154.594 242.682 154.634C240.372 154.694 238.742 154.704 237.812 154.674C236.882 154.634 235.832 154.474 234.682 154.194C233.532 153.904 232.452 153.484 231.462 152.934C230.022 152.134 229.272 151.344 229.222 150.574C229.172 149.803 229.822 149.043 231.162 148.303L229.622 147.443L231.712 146.583L233.252 147.443C234.842 146.973 236.392 146.813 237.902 146.973C239.412 147.133 240.872 147.613 242.302 148.403C242.502 148.513 242.792 148.683 243.162 148.923V148.903Z" stroke="#AD8E53" stroke-width="0.750025" stroke-linejoin="round"/>
<path d="M261.813 140.524C258.003 135.633 250.522 132.303 241.922 132.303C233.322 132.303 225.842 135.633 222.032 140.524H219.481L219.381 147.254C219.371 147.484 219.331 147.704 219.331 147.934C219.331 156.564 229.442 163.564 241.922 163.564C254.403 163.564 264.513 156.564 264.513 147.934V140.524H261.813Z" fill="#AD8E53"/>
<path d="M241.922 163.564C254.399 163.564 264.513 156.566 264.513 147.934C264.513 139.301 254.399 132.303 241.922 132.303C229.446 132.303 219.331 139.301 219.331 147.934C219.331 156.566 229.446 163.564 241.922 163.564Z" fill="#282828"/>
<path d="M261.813 140.524C258.003 135.633 250.522 132.303 241.922 132.303C233.322 132.303 225.842 135.633 222.032 140.524H219.481L219.381 147.254C219.371 147.484 219.331 147.704 219.331 147.934C219.331 156.564 229.442 163.564 241.922 163.564C254.403 163.564 264.513 156.564 264.513 147.934V140.524H261.813Z" stroke="#AD8E53" stroke-width="0.750025" stroke-linejoin="round"/>
<path d="M241.922 163.564C254.399 163.564 264.513 156.566 264.513 147.934C264.513 139.301 254.399 132.303 241.922 132.303C229.446 132.303 219.331 139.301 219.331 147.934C219.331 156.566 229.446 163.564 241.922 163.564Z" stroke="#AD8E53" stroke-width="0.750025" stroke-linejoin="round"/>
<path d="M241.922 156.154C254.399 156.154 264.513 149.156 264.513 140.523C264.513 131.891 254.399 124.893 241.922 124.893C229.446 124.893 219.331 131.891 219.331 140.523C219.331 149.156 229.446 156.154 241.922 156.154Z" fill="#282828"/>
<path d="M241.922 156.154C254.399 156.154 264.513 149.156 264.513 140.523C264.513 131.891 254.399 124.893 241.922 124.893C229.446 124.893 219.331 131.891 219.331 140.523C219.331 149.156 229.446 156.154 241.922 156.154Z" stroke="#AD8E53" stroke-width="0.750025" stroke-linejoin="round"/>
<path d="M262.913 153.694V146.433" stroke="#AD8E53" stroke-width="0.750025" stroke-linejoin="round"/>
<path d="M221.081 153.694V146.434" stroke="#AD8E53" stroke-width="0.750025" stroke-linejoin="round"/>
<path d="M241.922 152.604C251.565 152.604 259.383 147.195 259.383 140.523C259.383 133.851 251.565 128.443 241.922 128.443C232.279 128.443 224.461 133.851 224.461 140.523C224.461 147.195 232.279 152.604 241.922 152.604Z" fill="#282828"/>
<path d="M241.922 152.604C251.565 152.604 259.383 147.195 259.383 140.523C259.383 133.851 251.565 128.443 241.922 128.443C232.279 128.443 224.461 133.851 224.461 140.523C224.461 147.195 232.279 152.604 241.922 152.604Z" stroke="#AD8E53" stroke-width="0.750025" stroke-linejoin="round"/>
<path d="M243.162 136.073L238.612 137.943L237.812 137.503C236.962 137.033 236.352 136.743 235.982 136.643C235.612 136.543 235.262 136.563 234.912 136.703C234.632 136.813 234.542 136.963 234.632 137.153C234.722 137.343 234.992 137.553 235.442 137.803C236.202 138.223 236.872 138.463 237.462 138.513C238.042 138.563 239.452 138.553 241.682 138.483C243.582 138.413 244.932 138.413 245.752 138.453C246.562 138.503 247.482 138.663 248.492 138.943C249.502 139.223 250.542 139.663 251.622 140.263C253.342 141.213 254.303 142.123 254.503 142.993C254.703 143.864 254.143 144.674 252.812 145.444L254.633 146.454L252.542 147.314L250.662 146.274C249.322 146.704 247.762 146.864 245.992 146.764C244.222 146.654 242.262 146.004 240.102 144.814L239.162 144.294L243.712 142.423L244.892 143.083C246.192 143.804 247.042 144.234 247.452 144.364C247.862 144.504 248.242 144.494 248.602 144.344C248.912 144.214 249.032 144.064 248.962 143.874C248.892 143.694 248.642 143.483 248.212 143.243C247.132 142.643 246.282 142.243 245.672 142.043C245.062 141.843 244.072 141.763 242.682 141.803C240.372 141.863 238.742 141.873 237.812 141.843C236.882 141.803 235.832 141.643 234.682 141.363C233.532 141.073 232.452 140.653 231.462 140.103C230.022 139.303 229.272 138.513 229.222 137.743C229.172 136.973 229.822 136.213 231.162 135.473L229.622 134.613L231.712 133.753L233.252 134.613C234.842 134.143 236.392 133.983 237.902 134.143C239.412 134.303 240.872 134.783 242.302 135.573C242.502 135.683 242.792 135.853 243.162 136.093V136.073Z" fill="#282828"/>
<path d="M243.162 136.073L238.612 137.943L237.812 137.503C236.962 137.033 236.352 136.743 235.982 136.643C235.612 136.543 235.262 136.563 234.912 136.703C234.632 136.813 234.542 136.963 234.632 137.153C234.722 137.343 234.992 137.553 235.442 137.803C236.202 138.223 236.872 138.463 237.462 138.513C238.042 138.563 239.452 138.553 241.682 138.483C243.582 138.413 244.932 138.413 245.752 138.453C246.562 138.503 247.482 138.663 248.492 138.943C249.502 139.223 250.542 139.663 251.622 140.263C253.342 141.213 254.303 142.123 254.503 142.993C254.703 143.864 254.143 144.674 252.812 145.444L254.633 146.454L252.542 147.314L250.662 146.274C249.322 146.704 247.762 146.864 245.992 146.764C244.222 146.654 242.262 146.004 240.102 144.814L239.162 144.294L243.712 142.423L244.892 143.083C246.192 143.804 247.042 144.234 247.452 144.364C247.862 144.504 248.242 144.494 248.602 144.344C248.912 144.214 249.032 144.064 248.962 143.874C248.892 143.694 248.642 143.483 248.212 143.243C247.132 142.643 246.282 142.243 245.672 142.043C245.062 141.843 244.072 141.763 242.682 141.803C240.372 141.863 238.742 141.873 237.812 141.843C236.882 141.803 235.832 141.643 234.682 141.363C233.532 141.073 232.452 140.653 231.462 140.103C230.022 139.303 229.272 138.513 229.222 137.743C229.172 136.973 229.822 136.213 231.162 135.473L229.622 134.613L231.712 133.753L233.252 134.613C234.842 134.143 236.392 133.983 237.902 134.143C239.412 134.303 240.872 134.783 242.302 135.573C242.502 135.683 242.792 135.853 243.162 136.093V136.073Z" stroke="#AD8E53" stroke-width="0.750025" stroke-linejoin="round"/>
<path d="M261.813 127.563C258.003 122.673 250.522 119.343 241.922 119.343C233.322 119.343 225.842 122.673 222.032 127.563H219.481L219.381 134.293C219.371 134.523 219.331 134.743 219.331 134.973C219.331 143.604 229.442 150.604 241.922 150.604C254.403 150.604 264.513 143.604 264.513 134.973V127.563H261.813Z" fill="#AD8E53"/>
<path d="M241.922 150.604C254.399 150.604 264.513 143.606 264.513 134.973C264.513 126.341 254.399 119.343 241.922 119.343C229.446 119.343 219.331 126.341 219.331 134.973C219.331 143.606 229.446 150.604 241.922 150.604Z" fill="#282828"/>
<path d="M261.813 127.563C258.003 122.673 250.522 119.343 241.922 119.343C233.322 119.343 225.842 122.673 222.032 127.563H219.481L219.381 134.293C219.371 134.523 219.331 134.743 219.331 134.973C219.331 143.604 229.442 150.604 241.922 150.604C254.403 150.604 264.513 143.604 264.513 134.973V127.563H261.813Z" stroke="#AD8E53" stroke-width="0.750025" stroke-linejoin="round"/>
<path d="M241.922 150.604C254.399 150.604 264.513 143.606 264.513 134.973C264.513 126.341 254.399 119.343 241.922 119.343C229.446 119.343 219.331 126.341 219.331 134.973C219.331 143.606 229.446 150.604 241.922 150.604Z" stroke="#AD8E53" stroke-width="0.750025" stroke-linejoin="round"/>
<path d="M241.922 143.194C254.399 143.194 264.513 136.196 264.513 127.563C264.513 118.931 254.399 111.932 241.922 111.932C229.446 111.932 219.331 118.931 219.331 127.563C219.331 136.196 229.446 143.194 241.922 143.194Z" fill="#282828"/>
<path d="M241.922 143.194C254.399 143.194 264.513 136.196 264.513 127.563C264.513 118.931 254.399 111.932 241.922 111.932C229.446 111.932 219.331 118.931 219.331 127.563C219.331 136.196 229.446 143.194 241.922 143.194Z" stroke="#AD8E53" stroke-width="0.750025" stroke-linejoin="round"/>
<path d="M242.042 150.574C242.042 150.394 242.042 150.214 242.062 150.034V143.263" stroke="#AD8E53" stroke-width="0.750025" stroke-linejoin="round"/>
<path d="M246.952 150.064V142.844" stroke="#AD8E53" stroke-width="0.750025" stroke-linejoin="round"/>
<path d="M251.622 149.024V141.804" stroke="#AD8E53" stroke-width="0.750025" stroke-linejoin="round"/>
<path d="M255.913 147.284V140.033" stroke="#AD8E53" stroke-width="0.750025" stroke-linejoin="round"/>
<path d="M259.583 144.844V137.543" stroke="#AD8E53" stroke-width="0.750025" stroke-linejoin="round"/>
<path d="M262.913 140.733V133.473" stroke="#AD8E53" stroke-width="0.750025" stroke-linejoin="round"/>
<path d="M237.042 150.064V142.844" stroke="#AD8E53" stroke-width="0.750025" stroke-linejoin="round"/>
<path d="M232.382 149.024V141.804" stroke="#AD8E53" stroke-width="0.750025" stroke-linejoin="round"/>
<path d="M228.082 147.284V140.034" stroke="#AD8E53" stroke-width="0.750025" stroke-linejoin="round"/>
<path d="M224.422 144.844V137.543" stroke="#AD8E53" stroke-width="0.750025" stroke-linejoin="round"/>
<path d="M221.081 140.733V133.473" stroke="#AD8E53" stroke-width="0.750025" stroke-linejoin="round"/>
<path d="M241.922 139.643C251.565 139.643 259.383 134.235 259.383 127.563C259.383 120.891 251.565 115.482 241.922 115.482C232.279 115.482 224.461 120.891 224.461 127.563C224.461 134.235 232.279 139.643 241.922 139.643Z" fill="#282828"/>
<path d="M241.922 139.643C251.565 139.643 259.383 134.235 259.383 127.563C259.383 120.891 251.565 115.482 241.922 115.482C232.279 115.482 224.461 120.891 224.461 127.563C224.461 134.235 232.279 139.643 241.922 139.643Z" stroke="#AD8E53" stroke-width="0.750025" stroke-linejoin="round"/>
<path d="M243.162 123.113L238.612 124.983L237.812 124.543C236.962 124.073 236.352 123.783 235.982 123.683C235.612 123.583 235.262 123.603 234.912 123.743C234.632 123.853 234.542 124.003 234.632 124.193C234.722 124.383 234.992 124.593 235.442 124.843C236.202 125.263 236.872 125.503 237.462 125.553C238.042 125.603 239.452 125.593 241.682 125.523C243.582 125.453 244.932 125.453 245.752 125.493C246.562 125.543 247.482 125.703 248.492 125.983C249.502 126.263 250.542 126.703 251.622 127.303C253.342 128.253 254.303 129.163 254.503 130.033C254.703 130.903 254.143 131.713 252.812 132.483L254.633 133.493L252.542 134.353L250.662 133.313C249.322 133.743 247.762 133.903 245.992 133.803C244.222 133.693 242.262 133.043 240.102 131.853L239.162 131.333L243.712 129.463L244.892 130.123C246.192 130.843 247.042 131.273 247.452 131.403C247.862 131.543 248.242 131.533 248.602 131.383C248.912 131.253 249.032 131.103 248.962 130.913C248.892 130.733 248.642 130.523 248.212 130.283C247.132 129.683 246.282 129.283 245.672 129.083C245.062 128.883 244.072 128.803 242.682 128.843C240.372 128.903 238.742 128.913 237.812 128.883C236.882 128.843 235.832 128.683 234.682 128.403C233.532 128.113 232.452 127.693 231.462 127.143C230.022 126.343 229.272 125.553 229.222 124.783C229.172 124.013 229.822 123.253 231.162 122.513L229.622 121.653L231.712 120.792L233.252 121.653C234.842 121.182 236.392 121.022 237.902 121.182C239.412 121.342 240.872 121.823 242.302 122.613C242.502 122.723 242.792 122.893 243.162 123.133V123.113Z" fill="#282828"/>
<path d="M243.162 123.113L238.612 124.983L237.812 124.543C236.962 124.073 236.352 123.783 235.982 123.683C235.612 123.583 235.262 123.603 234.912 123.743C234.632 123.853 234.542 124.003 234.632 124.193C234.722 124.383 234.992 124.593 235.442 124.843C236.202 125.263 236.872 125.503 237.462 125.553C238.042 125.603 239.452 125.593 241.682 125.523C243.582 125.453 244.932 125.453 245.752 125.493C246.562 125.543 247.482 125.703 248.492 125.983C249.502 126.263 250.542 126.703 251.622 127.303C253.342 128.253 254.303 129.163 254.503 130.033C254.703 130.903 254.143 131.713 252.812 132.483L254.633 133.493L252.542 134.353L250.662 133.313C249.322 133.743 247.762 133.903 245.992 133.803C244.222 133.693 242.262 133.043 240.102 131.853L239.162 131.333L243.712 129.463L244.892 130.123C246.192 130.843 247.042 131.273 247.452 131.403C247.862 131.543 248.242 131.533 248.602 131.383C248.912 131.253 249.032 131.103 248.962 130.913C248.892 130.733 248.642 130.523 248.212 130.283C247.132 129.683 246.282 129.283 245.672 129.083C245.062 128.883 244.072 128.803 242.682 128.843C240.372 128.903 238.742 128.913 237.812 128.883C236.882 128.843 235.832 128.683 234.682 128.403C233.532 128.113 232.452 127.693 231.462 127.143C230.022 126.343 229.272 125.553 229.222 124.783C229.172 124.013 229.822 123.253 231.162 122.513L229.622 121.653L231.712 120.792L233.252 121.653C234.842 121.182 236.392 121.022 237.902 121.182C239.412 121.342 240.872 121.823 242.302 122.613C242.502 122.723 242.792 122.893 243.162 123.133V123.113Z" stroke="#AD8E53" stroke-width="0.750025" stroke-linejoin="round"/>
<path d="M261.813 113.183C258.003 108.293 250.522 104.963 241.922 104.963C233.322 104.963 225.842 108.293 222.031 113.183H219.481L219.381 119.913C219.371 120.143 219.331 120.363 219.331 120.593C219.331 129.223 229.442 136.224 241.922 136.224C254.402 136.224 264.513 129.223 264.513 120.593V113.183H261.813Z" fill="#AD8E53"/>
<path d="M241.922 136.224C254.399 136.224 264.513 129.226 264.513 120.593C264.513 111.961 254.399 104.963 241.922 104.963C229.446 104.963 219.331 111.961 219.331 120.593C219.331 129.226 229.446 136.224 241.922 136.224Z" fill="#282828"/>
<path d="M261.813 113.183C258.003 108.293 250.522 104.963 241.922 104.963C233.322 104.963 225.842 108.293 222.031 113.183H219.481L219.381 119.913C219.371 120.143 219.331 120.363 219.331 120.593C219.331 129.223 229.442 136.224 241.922 136.224C254.402 136.224 264.513 129.223 264.513 120.593V113.183H261.813Z" stroke="#AD8E53" stroke-width="0.750025" stroke-linejoin="round"/>
<path d="M241.922 136.224C254.399 136.224 264.513 129.226 264.513 120.593C264.513 111.961 254.399 104.963 241.922 104.963C229.446 104.963 219.331 111.961 219.331 120.593C219.331 129.226 229.446 136.224 241.922 136.224Z" stroke="#AD8E53" stroke-width="0.750025" stroke-linejoin="round"/>
<path d="M241.922 128.813C254.399 128.813 264.513 121.815 264.513 113.183C264.513 104.55 254.399 97.5522 241.922 97.5522C229.446 97.5522 219.331 104.55 219.331 113.183C219.331 121.815 229.446 128.813 241.922 128.813Z" fill="#282828"/>
<path d="M241.922 128.813C254.399 128.813 264.513 121.815 264.513 113.183C264.513 104.55 254.399 97.5522 241.922 97.5522C229.446 97.5522 219.331 104.55 219.331 113.183C219.331 121.815 229.446 128.813 241.922 128.813Z" stroke="#AD8E53" stroke-width="0.750025" stroke-linejoin="round"/>
<path d="M242.042 136.193C242.042 136.013 242.042 135.833 242.062 135.653V128.883" stroke="#AD8E53" stroke-width="0.750025" stroke-linejoin="round"/>
<path d="M246.952 135.683V128.463" stroke="#AD8E53" stroke-width="0.750025" stroke-linejoin="round"/>
<path d="M251.622 134.653V127.433" stroke="#AD8E53" stroke-width="0.750025" stroke-linejoin="round"/>
<path d="M255.913 132.913V125.653" stroke="#AD8E53" stroke-width="0.750025" stroke-linejoin="round"/>
<path d="M259.583 130.463V123.163" stroke="#AD8E53" stroke-width="0.750025" stroke-linejoin="round"/>
<path d="M262.913 126.353V119.103" stroke="#AD8E53" stroke-width="0.750025" stroke-linejoin="round"/>
<path d="M237.042 135.683V128.463" stroke="#AD8E53" stroke-width="0.750025" stroke-linejoin="round"/>
<path d="M232.382 134.653V127.433" stroke="#AD8E53" stroke-width="0.750025" stroke-linejoin="round"/>
<path d="M228.082 132.913V125.653" stroke="#AD8E53" stroke-width="0.750025" stroke-linejoin="round"/>
<path d="M224.422 130.463V123.163" stroke="#AD8E53" stroke-width="0.750025" stroke-linejoin="round"/>
<path d="M221.081 126.353V119.103" stroke="#AD8E53" stroke-width="0.750025" stroke-linejoin="round"/>
<path d="M241.922 125.263C251.565 125.263 259.383 119.854 259.383 113.182C259.383 106.511 251.565 101.102 241.922 101.102C232.279 101.102 224.461 106.511 224.461 113.182C224.461 119.854 232.279 125.263 241.922 125.263Z" fill="#282828"/>
<path d="M241.922 125.263C251.565 125.263 259.383 119.854 259.383 113.182C259.383 106.511 251.565 101.102 241.922 101.102C232.279 101.102 224.461 106.511 224.461 113.182C224.461 119.854 232.279 125.263 241.922 125.263Z" stroke="#AD8E53" stroke-width="0.750025" stroke-linejoin="round"/>
<path d="M243.162 108.743L238.612 110.613L237.812 110.173C236.962 109.703 236.352 109.413 235.982 109.313C235.612 109.213 235.262 109.233 234.912 109.373C234.632 109.483 234.542 109.633 234.632 109.823C234.722 110.013 234.992 110.223 235.442 110.473C236.202 110.893 236.872 111.133 237.462 111.183C238.042 111.233 239.452 111.223 241.682 111.153C243.582 111.083 244.932 111.083 245.752 111.123C246.562 111.173 247.482 111.333 248.492 111.613C249.502 111.893 250.542 112.333 251.622 112.933C253.342 113.883 254.303 114.793 254.503 115.663C254.703 116.533 254.143 117.343 252.812 118.113L254.633 119.123L252.542 119.983L250.662 118.943C249.322 119.373 247.762 119.533 245.992 119.433C244.222 119.323 242.262 118.673 240.102 117.483L239.162 116.963L243.712 115.093L244.892 115.753C246.192 116.473 247.042 116.903 247.452 117.033C247.862 117.173 248.242 117.163 248.602 117.013C248.912 116.883 249.032 116.733 248.962 116.543C248.892 116.363 248.642 116.153 248.212 115.913C247.132 115.313 246.282 114.913 245.672 114.713C245.062 114.513 244.072 114.433 242.682 114.473C240.372 114.533 238.742 114.543 237.812 114.513C236.882 114.473 235.832 114.313 234.682 114.033C233.532 113.743 232.452 113.323 231.462 112.773C230.022 111.973 229.272 111.183 229.222 110.413C229.172 109.643 229.822 108.883 231.162 108.143L229.622 107.283L231.712 106.423L233.252 107.283C234.842 106.813 236.392 106.653 237.902 106.813C239.412 106.973 240.872 107.453 242.302 108.243C242.502 108.353 242.792 108.523 243.162 108.763V108.743Z" fill="#282828"/>
<path d="M243.162 108.743L238.612 110.613L237.812 110.173C236.962 109.703 236.352 109.413 235.982 109.313C235.612 109.213 235.262 109.233 234.912 109.373C234.632 109.483 234.542 109.633 234.632 109.823C234.722 110.013 234.992 110.223 235.442 110.473C236.202 110.893 236.872 111.133 237.462 111.183C238.042 111.233 239.452 111.223 241.682 111.153C243.582 111.083 244.932 111.083 245.752 111.123C246.562 111.173 247.482 111.333 248.492 111.613C249.502 111.893 250.542 112.333 251.622 112.933C253.342 113.883 254.303 114.793 254.503 115.663C254.703 116.533 254.143 117.343 252.812 118.113L254.633 119.123L252.542 119.983L250.662 118.943C249.322 119.373 247.762 119.533 245.992 119.433C244.222 119.323 242.262 118.673 240.102 117.483L239.162 116.963L243.712 115.093L244.892 115.753C246.192 116.473 247.042 116.903 247.452 117.033C247.862 117.173 248.242 117.163 248.602 117.013C248.912 116.883 249.032 116.733 248.962 116.543C248.892 116.363 248.642 116.153 248.212 115.913C247.132 115.313 246.282 114.913 245.672 114.713C245.062 114.513 244.072 114.433 242.682 114.473C240.372 114.533 238.742 114.543 237.812 114.513C236.882 114.473 235.832 114.313 234.682 114.033C233.532 113.743 232.452 113.323 231.462 112.773C230.022 111.973 229.272 111.183 229.222 110.413C229.172 109.643 229.822 108.883 231.162 108.143L229.622 107.283L231.712 106.423L233.252 107.283C234.842 106.813 236.392 106.653 237.902 106.813C239.412 106.973 240.872 107.453 242.302 108.243C242.502 108.353 242.792 108.523 243.162 108.763V108.743Z" stroke="#AD8E53" stroke-width="0.750025" stroke-linejoin="round"/>
<path d="M273.043 122.313L264.623 107.622L256.373 106.802L249.422 83.4816L241.232 83.3616L235.772 62.3109L225.972 64.231L217.121 31.3799L209.531 39.1601L205.101 52.7006L198.931 63.571L186.39 71.3012L273.043 122.313Z" fill="#282828"/>
<path d="M273.043 122.313L264.623 107.622L256.373 106.802L249.422 83.4816L241.232 83.3616L235.772 62.3109L225.972 64.231L217.121 31.3799L209.531 39.1601L205.101 52.7006L198.931 63.571L186.39 71.3012L273.043 122.313Z" stroke="#AD8E53" stroke-width="0.750025" stroke-linejoin="round"/>
<path d="M260.023 129.994L251.613 115.313L243.362 114.483L236.402 91.1622L228.222 91.0422L222.762 70.0015L212.961 71.9115L204.101 39.0604L196.521 46.8407L192.081 60.3811L185.92 71.2515L173.38 78.9918L260.023 129.994Z" fill="#282828"/>
<path d="M260.023 129.994L251.613 115.313L243.362 114.483L236.402 91.1622L228.222 91.0422L222.762 70.0015L212.961 71.9115L204.101 39.0604L196.521 46.8407L192.081 60.3811L185.92 71.2515L173.38 78.9918L260.023 129.994Z" stroke="#AD8E53" stroke-width="0.750025" stroke-linejoin="round"/>
<path d="M260.023 129.993L251.613 115.313L243.362 114.483L236.402 91.1619L228.222 91.0419L222.762 70.0012L212.961 71.9113L204.101 39.0601L217.121 31.3799L225.972 64.231L235.772 62.3109L241.232 83.3616L249.422 83.4816L256.373 106.802L264.623 107.622L273.043 122.313L260.023 129.993Z" fill="#AD8E53"/>
<path d="M260.023 129.993L251.613 115.313L243.362 114.483L236.402 91.1619L228.222 91.0419L222.762 70.0012L212.961 71.9113L204.101 39.0601L217.121 31.3799L225.972 64.231L235.772 62.3109L241.232 83.3616L249.422 83.4816L256.373 106.802L264.623 107.622L273.043 122.313L260.023 129.993Z" stroke="#AD8E53" stroke-width="0.750025" stroke-linejoin="round"/>
</g>
<path d="M18.352 38.242V48H17.078V38.242H18.352ZM24.2613 40.188C25.1946 40.188 25.9506 40.4727 26.5293 41.042C27.108 41.602 27.3973 42.414 27.3973 43.478V48H26.1373V43.66C26.1373 42.8947 25.946 42.3113 25.5633 41.91C25.1806 41.4993 24.658 41.294 23.9953 41.294C23.3233 41.294 22.7866 41.504 22.3853 41.924C21.9933 42.344 21.7973 42.9553 21.7973 43.758V48H20.5233V40.328H21.7973V41.42C22.0493 41.028 22.39 40.7247 22.8193 40.51C23.258 40.2953 23.7386 40.188 24.2613 40.188ZM32.3344 46.824L34.7144 40.328H36.0724L33.0624 48H31.5784L28.5684 40.328H29.9404L32.3344 46.824ZM44.326 43.87C44.326 44.1127 44.312 44.3693 44.284 44.64H38.152C38.1987 45.396 38.4554 45.9887 38.922 46.418C39.398 46.838 39.972 47.048 40.644 47.048C41.1947 47.048 41.652 46.922 42.016 46.67C42.3894 46.4087 42.6507 46.0633 42.8 45.634H44.172C43.9667 46.3713 43.556 46.9733 42.94 47.44C42.324 47.8973 41.5587 48.126 40.644 48.126C39.916 48.126 39.2627 47.9627 38.684 47.636C38.1147 47.3093 37.6667 46.8473 37.34 46.25C37.0134 45.6433 36.85 44.9433 36.85 44.15C36.85 43.3567 37.0087 42.6613 37.326 42.064C37.6434 41.4667 38.0867 41.0093 38.656 40.692C39.2347 40.3653 39.8974 40.202 40.644 40.202C41.372 40.202 42.016 40.3607 42.576 40.678C43.136 40.9953 43.5654 41.434 43.864 41.994C44.172 42.5447 44.326 43.17 44.326 43.87ZM43.01 43.604C43.01 43.1187 42.9027 42.7033 42.688 42.358C42.4734 42.0033 42.1794 41.7373 41.806 41.56C41.442 41.3733 41.036 41.28 40.588 41.28C39.944 41.28 39.3934 41.4853 38.936 41.896C38.488 42.3067 38.2314 42.876 38.166 43.604H43.01ZM48.7237 48.126C48.1357 48.126 47.6084 48.028 47.1417 47.832C46.675 47.6267 46.3064 47.3467 46.0357 46.992C45.765 46.628 45.6157 46.2127 45.5877 45.746H46.9037C46.941 46.1287 47.1184 46.4413 47.4357 46.684C47.7624 46.9267 48.187 47.048 48.7097 47.048C49.195 47.048 49.5777 46.9407 49.8577 46.726C50.1377 46.5113 50.2777 46.2407 50.2777 45.914C50.2777 45.578 50.1284 45.3307 49.8297 45.172C49.531 45.004 49.069 44.8407 48.4437 44.682C47.8744 44.5327 47.4077 44.3833 47.0437 44.234C46.689 44.0753 46.381 43.8467 46.1197 43.548C45.8677 43.24 45.7417 42.8387 45.7417 42.344C45.7417 41.952 45.8584 41.5927 46.0917 41.266C46.325 40.9393 46.6564 40.6827 47.0857 40.496C47.515 40.3 48.005 40.202 48.5557 40.202C49.405 40.202 50.091 40.4167 50.6137 40.846C51.1364 41.2753 51.4164 41.8633 51.4537 42.61H50.1797C50.1517 42.2087 49.9884 41.8867 49.6897 41.644C49.4004 41.4013 49.0084 41.28 48.5137 41.28C48.0564 41.28 47.6924 41.378 47.4217 41.574C47.151 41.77 47.0157 42.0267 47.0157 42.344C47.0157 42.596 47.095 42.806 47.2537 42.974C47.4217 43.1327 47.627 43.2633 47.8697 43.366C48.1217 43.4593 48.467 43.5667 48.9057 43.688C49.4564 43.8373 49.9044 43.9867 50.2497 44.136C50.595 44.276 50.889 44.4907 51.1317 44.78C51.3837 45.0693 51.5144 45.4473 51.5237 45.914C51.5237 46.334 51.407 46.712 51.1737 47.048C50.9404 47.384 50.609 47.65 50.1797 47.846C49.7597 48.0327 49.2744 48.126 48.7237 48.126ZM54.8761 41.378V45.9C54.8761 46.2733 54.9555 46.5393 55.1141 46.698C55.2728 46.8473 55.5481 46.922 55.9401 46.922H56.8781V48H55.7301C55.0208 48 54.4888 47.8367 54.1341 47.51C53.7795 47.1833 53.6021 46.6467 53.6021 45.9V41.378H52.6081V40.328H53.6021V38.396H54.8761V40.328H56.8781V41.378H54.8761ZM59.0798 39.082C58.8371 39.082 58.6318 38.998 58.4638 38.83C58.2958 38.662 58.2118 38.4567 58.2118 38.214C58.2118 37.9713 58.2958 37.766 58.4638 37.598C58.6318 37.43 58.8371 37.346 59.0798 37.346C59.3131 37.346 59.5091 37.43 59.6678 37.598C59.8358 37.766 59.9198 37.9713 59.9198 38.214C59.9198 38.4567 59.8358 38.662 59.6678 38.83C59.5091 38.998 59.3131 39.082 59.0798 39.082ZM59.6958 40.328V48H58.4218V40.328H59.6958ZM65.6051 40.188C66.5384 40.188 67.2944 40.4727 67.8731 41.042C68.4517 41.602 68.7411 42.414 68.7411 43.478V48H67.4811V43.66C67.4811 42.8947 67.2897 42.3113 66.9071 41.91C66.5244 41.4993 66.0017 41.294 65.3391 41.294C64.6671 41.294 64.1304 41.504 63.7291 41.924C63.3371 42.344 63.1411 42.9553 63.1411 43.758V48H61.8671V40.328H63.1411V41.42C63.3931 41.028 63.7337 40.7247 64.1631 40.51C64.6017 40.2953 65.0824 40.188 65.6051 40.188ZM73.9861 40.202C74.6488 40.202 75.2275 40.3467 75.7221 40.636C76.2261 40.9253 76.5995 41.2893 76.8421 41.728V40.328H78.1301V48.168C78.1301 48.868 77.9808 49.4887 77.6821 50.03C77.3835 50.5807 76.9541 51.01 76.3941 51.318C75.8435 51.626 75.1995 51.78 74.4621 51.78C73.4541 51.78 72.6141 51.542 71.9421 51.066C71.2701 50.59 70.8735 49.9413 70.7521 49.12H72.0121C72.1521 49.5867 72.4415 49.96 72.8801 50.24C73.3188 50.5293 73.8461 50.674 74.4621 50.674C75.1621 50.674 75.7315 50.4547 76.1701 50.016C76.6181 49.5773 76.8421 48.9613 76.8421 48.168V46.558C76.5901 47.006 76.2168 47.3793 75.7221 47.678C75.2275 47.9767 74.6488 48.126 73.9861 48.126C73.3048 48.126 72.6841 47.958 72.1241 47.622C71.5735 47.286 71.1395 46.8147 70.8221 46.208C70.5048 45.6013 70.3461 44.9107 70.3461 44.136C70.3461 43.352 70.5048 42.666 70.8221 42.078C71.1395 41.4807 71.5735 41.0187 72.1241 40.692C72.6841 40.3653 73.3048 40.202 73.9861 40.202ZM76.8421 44.15C76.8421 43.5713 76.7255 43.0673 76.4921 42.638C76.2588 42.2087 75.9415 41.882 75.5401 41.658C75.1481 41.4247 74.7141 41.308 74.2381 41.308C73.7621 41.308 73.3281 41.42 72.9361 41.644C72.5441 41.868 72.2315 42.1947 71.9981 42.624C71.7648 43.0533 71.6481 43.5573 71.6481 44.136C71.6481 44.724 71.7648 45.2373 71.9981 45.676C72.2315 46.1053 72.5441 46.4367 72.9361 46.67C73.3281 46.894 73.7621 47.006 74.2381 47.006C74.7141 47.006 75.1481 46.894 75.5401 46.67C75.9415 46.4367 76.2588 46.1053 76.4921 45.676C76.7255 45.2373 76.8421 44.7287 76.8421 44.15ZM81.5991 46.236L80.0311 50.002H79.1771L80.1991 46.236H81.5991ZM18.632 62.378V66.9C18.632 67.2733 18.7113 67.5393 18.87 67.698C19.0287 67.8473 19.304 67.922 19.696 67.922H20.634V69H19.486C18.7767 69 18.2447 68.8367 17.89 68.51C17.5353 68.1833 17.358 67.6467 17.358 66.9V62.378H16.364V61.328H17.358V59.396H18.632V61.328H20.634V62.378H18.632ZM25.9856 61.188C26.5643 61.188 27.0869 61.314 27.5536 61.566C28.0203 61.8087 28.3843 62.1773 28.6456 62.672C28.9163 63.1667 29.0516 63.7687 29.0516 64.478V69H27.7916V64.66C27.7916 63.8947 27.6003 63.3113 27.2176 62.91C26.8349 62.4993 26.3123 62.294 25.6496 62.294C24.9776 62.294 24.4409 62.504 24.0396 62.924C23.6476 63.344 23.4516 63.9553 23.4516 64.758V69H22.1776V58.64H23.4516V62.42C23.7036 62.028 24.0489 61.7247 24.4876 61.51C24.9356 61.2953 25.4349 61.188 25.9856 61.188ZM38.1327 64.87C38.1327 65.1127 38.1187 65.3693 38.0907 65.64H31.9587C32.0054 66.396 32.262 66.9887 32.7287 67.418C33.2047 67.838 33.7787 68.048 34.4507 68.048C35.0014 68.048 35.4587 67.922 35.8227 67.67C36.196 67.4087 36.4574 67.0633 36.6067 66.634H37.9787C37.7734 67.3713 37.3627 67.9733 36.7467 68.44C36.1307 68.8973 35.3654 69.126 34.4507 69.126C33.7227 69.126 33.0694 68.9627 32.4907 68.636C31.9214 68.3093 31.4734 67.8473 31.1467 67.25C30.82 66.6433 30.6567 65.9433 30.6567 65.15C30.6567 64.3567 30.8154 63.6613 31.1327 63.064C31.45 62.4667 31.8934 62.0093 32.4627 61.692C33.0414 61.3653 33.704 61.202 34.4507 61.202C35.1787 61.202 35.8227 61.3607 36.3827 61.678C36.9427 61.9953 37.372 62.434 37.6707 62.994C37.9787 63.5447 38.1327 64.17 38.1327 64.87ZM36.8167 64.604C36.8167 64.1187 36.7094 63.7033 36.4947 63.358C36.28 63.0033 35.986 62.7373 35.6127 62.56C35.2487 62.3733 34.8427 62.28 34.3947 62.28C33.7507 62.28 33.2 62.4853 32.7427 62.896C32.2947 63.3067 32.038 63.876 31.9727 64.604H36.8167ZM53.7668 61.328L51.3728 69H50.0568L48.2088 62.91L46.3608 69H45.0448L42.6368 61.328H43.9388L45.7028 67.768L47.6068 61.328H48.9088L50.7708 67.782L52.5068 61.328H53.7668ZM54.5551 65.136C54.5551 64.352 54.7138 63.666 55.0311 63.078C55.3485 62.4807 55.7825 62.0187 56.3331 61.692C56.8931 61.3653 57.5138 61.202 58.1951 61.202C58.8671 61.202 59.4505 61.3467 59.9451 61.636C60.4398 61.9253 60.8085 62.2893 61.0511 62.728V61.328H62.3391V69H61.0511V67.572C60.7991 68.02 60.4211 68.3933 59.9171 68.692C59.4225 68.9813 58.8438 69.126 58.1811 69.126C57.4998 69.126 56.8838 68.958 56.3331 68.622C55.7825 68.286 55.3485 67.8147 55.0311 67.208C54.7138 66.6013 54.5551 65.9107 54.5551 65.136ZM61.0511 65.15C61.0511 64.5713 60.9345 64.0673 60.7011 63.638C60.4678 63.2087 60.1505 62.882 59.7491 62.658C59.3571 62.4247 58.9231 62.308 58.4471 62.308C57.9711 62.308 57.5371 62.42 57.1451 62.644C56.7531 62.868 56.4405 63.1947 56.2071 63.624C55.9738 64.0533 55.8571 64.5573 55.8571 65.136C55.8571 65.724 55.9738 66.2373 56.2071 66.676C56.4405 67.1053 56.7531 67.4367 57.1451 67.67C57.5371 67.894 57.9711 68.006 58.4471 68.006C58.9231 68.006 59.3571 67.894 59.7491 67.67C60.1505 67.4367 60.4678 67.1053 60.7011 66.676C60.9345 66.2373 61.0511 65.7287 61.0511 65.15ZM71.1001 61.328L66.4801 72.612H65.1641L66.6761 68.916L63.5821 61.328H64.9961L67.4041 67.544L69.7841 61.328H71.1001ZM77.3872 59.242V69H76.1132V59.242H77.3872ZM81.1125 62.378V66.9C81.1125 67.2733 81.1918 67.5393 81.3505 67.698C81.5091 67.8473 81.7845 67.922 82.1765 67.922H83.1145V69H81.9665C81.2571 69 80.7251 68.8367 80.3705 68.51C80.0158 68.1833 79.8385 67.6467 79.8385 66.9V62.378H78.8445V61.328H79.8385V59.396H81.1125V61.328H83.1145V62.378H81.1125ZM91.1065 69.126C90.5185 69.126 89.9912 69.028 89.5245 68.832C89.0578 68.6267 88.6892 68.3467 88.4185 67.992C88.1478 67.628 87.9985 67.2127 87.9705 66.746H89.2865C89.3238 67.1287 89.5012 67.4413 89.8185 67.684C90.1452 67.9267 90.5698 68.048 91.0925 68.048C91.5778 68.048 91.9605 67.9407 92.2405 67.726C92.5205 67.5113 92.6605 67.2407 92.6605 66.914C92.6605 66.578 92.5112 66.3307 92.2125 66.172C91.9138 66.004 91.4518 65.8407 90.8265 65.682C90.2572 65.5327 89.7905 65.3833 89.4265 65.234C89.0718 65.0753 88.7638 64.8467 88.5025 64.548C88.2505 64.24 88.1245 63.8387 88.1245 63.344C88.1245 62.952 88.2412 62.5927 88.4745 62.266C88.7078 61.9393 89.0392 61.6827 89.4685 61.496C89.8978 61.3 90.3878 61.202 90.9385 61.202C91.7878 61.202 92.4738 61.4167 92.9965 61.846C93.5192 62.2753 93.7992 62.8633 93.8365 63.61H92.5625C92.5345 63.2087 92.3712 62.8867 92.0725 62.644C91.7832 62.4013 91.3912 62.28 90.8965 62.28C90.4392 62.28 90.0752 62.378 89.8045 62.574C89.5338 62.77 89.3985 63.0267 89.3985 63.344C89.3985 63.596 89.4778 63.806 89.6365 63.974C89.8045 64.1327 90.0098 64.2633 90.2525 64.366C90.5045 64.4593 90.8498 64.5667 91.2885 64.688C91.8392 64.8373 92.2872 64.9867 92.6325 65.136C92.9778 65.276 93.2718 65.4907 93.5145 65.78C93.7665 66.0693 93.8972 66.4473 93.9065 66.914C93.9065 67.334 93.7898 67.712 93.5565 68.048C93.3232 68.384 92.9918 68.65 92.5625 68.846C92.1425 69.0327 91.6572 69.126 91.1065 69.126ZM99.513 61.188C100.092 61.188 100.614 61.314 101.081 61.566C101.548 61.8087 101.912 62.1773 102.173 62.672C102.444 63.1667 102.579 63.7687 102.579 64.478V69H101.319V64.66C101.319 63.8947 101.128 63.3113 100.745 62.91C100.362 62.4993 99.8396 62.294 99.177 62.294C98.505 62.294 97.9683 62.504 97.567 62.924C97.175 63.344 96.979 63.9553 96.979 64.758V69H95.705V58.64H96.979V62.42C97.231 62.028 97.5763 61.7247 98.015 61.51C98.463 61.2953 98.9623 61.188 99.513 61.188ZM108.006 69.126C107.287 69.126 106.634 68.9627 106.046 68.636C105.467 68.3093 105.01 67.8473 104.674 67.25C104.347 66.6433 104.184 65.9433 104.184 65.15C104.184 64.366 104.352 63.6753 104.688 63.078C105.033 62.4713 105.5 62.0093 106.088 61.692C106.676 61.3653 107.334 61.202 108.062 61.202C108.79 61.202 109.448 61.3653 110.036 61.692C110.624 62.0093 111.086 62.4667 111.422 63.064C111.767 63.6613 111.94 64.3567 111.94 65.15C111.94 65.9433 111.763 66.6433 111.408 67.25C111.063 67.8473 110.591 68.3093 109.994 68.636C109.397 68.9627 108.734 69.126 108.006 69.126ZM108.006 68.006C108.463 68.006 108.893 67.8987 109.294 67.684C109.695 67.4693 110.017 67.1473 110.26 66.718C110.512 66.2887 110.638 65.766 110.638 65.15C110.638 64.534 110.517 64.0113 110.274 63.582C110.031 63.1527 109.714 62.8353 109.322 62.63C108.93 62.4153 108.505 62.308 108.048 62.308C107.581 62.308 107.152 62.4153 106.76 62.63C106.377 62.8353 106.069 63.1527 105.836 63.582C105.603 64.0113 105.486 64.534 105.486 65.15C105.486 65.7753 105.598 66.3027 105.822 66.732C106.055 67.1613 106.363 67.4833 106.746 67.698C107.129 67.9033 107.549 68.006 108.006 68.006ZM120.419 61.328V69H119.145V67.866C118.902 68.258 118.562 68.566 118.123 68.79C117.694 69.0047 117.218 69.112 116.695 69.112C116.098 69.112 115.561 68.9907 115.085 68.748C114.609 68.496 114.231 68.1227 113.951 67.628C113.68 67.1333 113.545 66.5313 113.545 65.822V61.328H114.805V65.654C114.805 66.41 114.996 66.9933 115.379 67.404C115.762 67.8053 116.284 68.006 116.947 68.006C117.628 68.006 118.165 67.796 118.557 67.376C118.949 66.956 119.145 66.3447 119.145 65.542V61.328H120.419ZM123.844 58.64V69H122.57V58.64H123.844ZM125.54 65.136C125.54 64.352 125.698 63.666 126.016 63.078C126.333 62.4807 126.767 62.0187 127.318 61.692C127.878 61.3653 128.503 61.202 129.194 61.202C129.791 61.202 130.346 61.342 130.86 61.622C131.373 61.8927 131.765 62.252 132.036 62.7V58.64H133.324V69H132.036V67.558C131.784 68.0153 131.41 68.3933 130.916 68.692C130.421 68.9813 129.842 69.126 129.18 69.126C128.498 69.126 127.878 68.958 127.318 68.622C126.767 68.286 126.333 67.8147 126.016 67.208C125.698 66.6013 125.54 65.9107 125.54 65.136ZM132.036 65.15C132.036 64.5713 131.919 64.0673 131.686 63.638C131.452 63.2087 131.135 62.882 130.734 62.658C130.342 62.4247 129.908 62.308 129.432 62.308C128.956 62.308 128.522 62.42 128.13 62.644C127.738 62.868 127.425 63.1947 127.192 63.624C126.958 64.0533 126.842 64.5573 126.842 65.136C126.842 65.724 126.958 66.2373 127.192 66.676C127.425 67.1053 127.738 67.4367 128.13 67.67C128.522 67.894 128.956 68.006 129.432 68.006C129.908 68.006 130.342 67.894 130.734 67.67C131.135 67.4367 131.452 67.1053 131.686 66.676C131.919 66.2373 132.036 65.7287 132.036 65.15ZM144.095 63.974C144.45 64.03 144.772 64.1747 145.061 64.408C145.36 64.6413 145.593 64.9307 145.761 65.276C145.938 65.6213 146.027 65.99 146.027 66.382C146.027 66.8767 145.901 67.3247 145.649 67.726C145.397 68.118 145.028 68.4307 144.543 68.664C144.067 68.888 143.502 69 142.849 69H139.209V59.242H142.709C143.372 59.242 143.936 59.354 144.403 59.578C144.87 59.7927 145.22 60.0867 145.453 60.46C145.686 60.8333 145.803 61.2533 145.803 61.72C145.803 62.2987 145.644 62.7793 145.327 63.162C145.019 63.5353 144.608 63.806 144.095 63.974ZM140.483 63.456H142.625C143.222 63.456 143.684 63.316 144.011 63.036C144.338 62.756 144.501 62.3687 144.501 61.874C144.501 61.3793 144.338 60.992 144.011 60.712C143.684 60.432 143.213 60.292 142.597 60.292H140.483V63.456ZM142.737 67.95C143.372 67.95 143.866 67.8007 144.221 67.502C144.576 67.2033 144.753 66.788 144.753 66.256C144.753 65.7147 144.566 65.29 144.193 64.982C143.82 64.6647 143.32 64.506 142.695 64.506H140.483V67.95H142.737ZM154.795 64.87C154.795 65.1127 154.781 65.3693 154.753 65.64H148.621C148.667 66.396 148.924 66.9887 149.391 67.418C149.867 67.838 150.441 68.048 151.113 68.048C151.663 68.048 152.121 67.922 152.485 67.67C152.858 67.4087 153.119 67.0633 153.269 66.634H154.641C154.435 67.3713 154.025 67.9733 153.409 68.44C152.793 68.8973 152.027 69.126 151.113 69.126C150.385 69.126 149.731 68.9627 149.153 68.636C148.583 68.3093 148.135 67.8473 147.809 67.25C147.482 66.6433 147.319 65.9433 147.319 65.15C147.319 64.3567 147.477 63.6613 147.795 63.064C148.112 62.4667 148.555 62.0093 149.125 61.692C149.703 61.3653 150.366 61.202 151.113 61.202C151.841 61.202 152.485 61.3607 153.045 61.678C153.605 61.9953 154.034 62.434 154.333 62.994C154.641 63.5447 154.795 64.17 154.795 64.87ZM153.479 64.604C153.479 64.1187 153.371 63.7033 153.157 63.358C152.942 63.0033 152.648 62.7373 152.275 62.56C151.911 62.3733 151.505 62.28 151.057 62.28C150.413 62.28 149.862 62.4853 149.405 62.896C148.957 63.3067 148.7 63.876 148.635 64.604H153.479Z" fill="white"/>
</g>
<defs>
<clipPath id="clip0_124_1151">
<rect width="279" height="150" rx="12" fill="white"/>
</clipPath>
<clipPath id="clip1_124_1151">
<rect width="100.413" height="148.385" fill="white" transform="translate(173 31)"/>
</clipPath>
</defs>
</svg>
