<svg width="155" height="126" viewBox="0 0 155 126" fill="none" xmlns="http://www.w3.org/2000/svg">
<g id="OBJECTS">
<g id="Group">
<g id="Group_2">
<g id="Group_3">
<g id="Group_4">
<path id="Vector" d="M123.002 98.5676C140.389 98.5676 154.484 88.8032 154.484 76.7583C154.484 64.7133 140.389 54.949 123.002 54.949C105.615 54.949 91.52 64.7133 91.52 76.7583C91.52 88.8032 105.615 98.5676 123.002 98.5676Z" fill="#282828"/>
<path id="Vector_2" d="M150.722 66.4187C145.398 59.5955 134.987 54.949 123.002 54.949C111.017 54.949 100.593 59.5955 95.2828 66.4187H91.729L91.5896 75.8094C91.5757 76.1304 91.52 76.4373 91.52 76.7583C91.52 88.8001 105.61 98.5676 123.002 98.5676C140.395 98.5676 154.484 88.8001 154.484 76.7583V66.4187H150.722Z" stroke="#C49339" stroke-width="0.75" stroke-linejoin="round"/>
<path id="Vector_3" d="M123.002 98.5676C140.389 98.5676 154.484 88.8032 154.484 76.7583C154.484 64.7133 140.389 54.949 123.002 54.949C105.615 54.949 91.52 64.7133 91.52 76.7583C91.52 88.8032 105.615 98.5676 123.002 98.5676Z" stroke="#C49339" stroke-width="0.75" stroke-linejoin="round"/>
<g id="Group_5">
<path id="Vector_4" d="M123.002 88.228C140.389 88.228 154.484 78.4636 154.484 66.4187C154.484 54.3737 140.389 44.6094 123.002 44.6094C105.615 44.6094 91.52 54.3737 91.52 66.4187C91.52 78.4636 105.615 88.228 123.002 88.228Z" fill="#282828"/>
<path id="Vector_5" d="M123.002 88.228C140.389 88.228 154.484 78.4636 154.484 66.4187C154.484 54.3737 140.389 44.6094 123.002 44.6094C105.615 44.6094 91.52 54.3737 91.52 66.4187C91.52 78.4636 105.615 88.228 123.002 88.228Z" stroke="#C49339" stroke-width="0.75" stroke-linejoin="round"/>
</g>
<g id="Group_6">
<g id="Group_7">
<path id="Vector_6" d="M123.169 98.5257C123.169 98.2745 123.169 98.0234 123.197 97.7722V88.3257" stroke="#C49339" stroke-width="0.75" stroke-linejoin="round"/>
<path id="Vector_7" d="M130.012 97.8142V87.7397" stroke="#C49339" stroke-width="0.75" stroke-linejoin="round"/>
<path id="Vector_8" d="M136.52 96.363V86.2886" stroke="#C49339" stroke-width="0.75" stroke-linejoin="round"/>
<path id="Vector_9" d="M142.499 93.9351V83.8188" stroke="#C49339" stroke-width="0.75" stroke-linejoin="round"/>
<path id="Vector_10" d="M147.614 90.5303V80.3442" stroke="#C49339" stroke-width="0.75" stroke-linejoin="round"/>
<path id="Vector_11" d="M152.255 84.7955V74.6653" stroke="#C49339" stroke-width="0.75" stroke-linejoin="round"/>
</g>
<g id="Group_8">
<path id="Vector_12" d="M116.201 97.8142V87.7397" stroke="#C49339" stroke-width="0.75" stroke-linejoin="round"/>
<path id="Vector_13" d="M109.707 96.363V86.2886" stroke="#C49339" stroke-width="0.75" stroke-linejoin="round"/>
<path id="Vector_14" d="M103.714 93.9351V83.8188" stroke="#C49339" stroke-width="0.75" stroke-linejoin="round"/>
<path id="Vector_15" d="M98.6136 90.5303V80.3442" stroke="#C49339" stroke-width="0.75" stroke-linejoin="round"/>
<path id="Vector_16" d="M93.9588 84.7955V74.6653" stroke="#C49339" stroke-width="0.75" stroke-linejoin="round"/>
</g>
</g>
<g id="Group_9">
<path id="Vector_17" d="M123.002 83.2746C136.441 83.2746 147.335 75.728 147.335 66.4188C147.335 57.1096 136.441 49.563 123.002 49.563C109.563 49.563 98.6693 57.1096 98.6693 66.4188C98.6693 75.728 109.563 83.2746 123.002 83.2746Z" fill="#282828"/>
<path id="Vector_18" d="M123.002 83.2746C136.441 83.2746 147.335 75.728 147.335 66.4188C147.335 57.1096 136.441 49.563 123.002 49.563C109.563 49.563 98.6693 57.1096 98.6693 66.4188C98.6693 75.728 109.563 83.2746 123.002 83.2746Z" stroke="#C49339" stroke-width="0.75" stroke-linejoin="round"/>
</g>
</g>
<g id="Group_10">
<path id="Vector_19" d="M124.73 60.2094L118.389 62.8187L117.274 62.2047C116.09 61.5489 115.24 61.1443 114.724 61.0047C114.208 60.8652 113.721 60.8931 113.233 61.0884C112.843 61.2419 112.717 61.4512 112.843 61.7164C112.968 61.9675 113.344 62.2745 113.971 62.6233C115.031 63.2094 115.964 63.5443 116.787 63.614C117.595 63.6838 119.56 63.6698 122.668 63.5722C125.316 63.4745 127.197 63.4745 128.34 63.5303C129.469 63.6001 130.751 63.8233 132.158 64.214C133.566 64.6047 135.015 65.2187 136.52 66.0559C138.917 67.3815 140.255 68.6512 140.534 69.8652C140.813 71.0791 140.032 72.2094 138.179 73.2838L140.715 74.6931L137.803 75.8931L135.183 74.4419C133.315 75.0419 131.141 75.2652 128.674 75.1257C126.208 74.9722 123.476 74.0652 120.466 72.4047L119.156 71.6791L125.497 69.0698L127.141 69.9908C128.953 70.9954 130.138 71.5954 130.709 71.7768C131.28 71.9722 131.81 71.9582 132.312 71.7489C132.744 71.5675 132.911 71.3582 132.813 71.0931C132.716 70.8419 132.367 70.5489 131.768 70.214C130.263 69.3768 129.078 68.8187 128.228 68.5396C127.378 68.2605 125.998 68.1489 124.061 68.2047C120.842 68.2884 118.57 68.3024 117.274 68.2605C115.978 68.2187 114.515 67.9815 112.912 67.5908C111.31 67.2001 109.804 66.6001 108.425 65.8326C106.418 64.7164 105.373 63.614 105.303 62.5396C105.233 61.4652 106.139 60.4047 108.007 59.3722L105.86 58.1722L108.773 56.9722L110.919 58.1722C113.135 57.5163 115.295 57.2931 117.4 57.5164C119.504 57.7396 121.539 58.4094 123.532 59.5117C123.81 59.6652 124.215 59.9024 124.73 60.2373V60.2094Z" fill="#282828"/>
<path id="Vector_20" d="M124.73 60.2094L118.389 62.8187L117.274 62.2047C116.09 61.5489 115.24 61.1443 114.724 61.0047C114.208 60.8652 113.721 60.8931 113.233 61.0884C112.843 61.2419 112.717 61.4512 112.843 61.7164C112.968 61.9675 113.344 62.2745 113.971 62.6233C115.031 63.2094 115.964 63.5443 116.787 63.614C117.595 63.6838 119.56 63.6698 122.668 63.5722C125.316 63.4745 127.197 63.4745 128.34 63.5303C129.469 63.6001 130.751 63.8233 132.158 64.214C133.566 64.6047 135.015 65.2187 136.52 66.0559C138.917 67.3815 140.255 68.6512 140.534 69.8652C140.813 71.0791 140.032 72.2094 138.179 73.2838L140.715 74.6931L137.803 75.8931L135.183 74.4419C133.315 75.0419 131.141 75.2652 128.674 75.1257C126.208 74.9722 123.476 74.0652 120.466 72.4047L119.156 71.6791L125.497 69.0698L127.141 69.9908C128.953 70.9954 130.138 71.5954 130.709 71.7768C131.28 71.9722 131.81 71.9582 132.312 71.7489C132.744 71.5675 132.911 71.3582 132.813 71.0931C132.716 70.8419 132.367 70.5489 131.768 70.214C130.263 69.3768 129.078 68.8187 128.228 68.5396C127.378 68.2605 125.998 68.1489 124.061 68.2047C120.842 68.2884 118.57 68.3024 117.274 68.2605C115.978 68.2187 114.515 67.9815 112.912 67.5908C111.31 67.2001 109.804 66.6001 108.425 65.8326C106.418 64.7164 105.373 63.614 105.303 62.5396C105.233 61.4652 106.139 60.4047 108.007 59.3722L105.86 58.1722L108.773 56.9722L110.919 58.1722C113.135 57.5163 115.295 57.2931 117.4 57.5164C119.504 57.7396 121.539 58.4094 123.532 59.5117C123.81 59.6652 124.215 59.9024 124.73 60.2373V60.2094Z" stroke="#C49339" stroke-width="0.75" stroke-linejoin="round"/>
</g>
</g>
<g id="Group_11">
<g id="Group_12">
<path id="Vector_21" d="M123.002 80.6652C140.389 80.6652 154.484 70.9009 154.484 58.8559C154.484 46.811 140.389 37.0466 123.002 37.0466C105.615 37.0466 91.52 46.811 91.52 58.8559C91.52 70.9009 105.615 80.6652 123.002 80.6652Z" fill="#282828"/>
<path id="Vector_22" d="M150.722 48.5303C145.398 41.7071 134.987 37.0605 123.002 37.0605C111.017 37.0605 100.593 41.7071 95.2828 48.5303H91.729L91.5896 57.921C91.5757 58.2419 91.52 58.5489 91.52 58.8698C91.52 70.9117 105.61 80.6792 123.002 80.6792C140.395 80.6792 154.484 70.9117 154.484 58.8698V48.5303H150.722Z" stroke="#C49339" stroke-width="0.75" stroke-linejoin="round"/>
<path id="Vector_23" d="M123.002 80.6652C140.389 80.6652 154.484 70.9009 154.484 58.8559C154.484 46.811 140.389 37.0466 123.002 37.0466C105.615 37.0466 91.52 46.811 91.52 58.8559C91.52 70.9009 105.615 80.6652 123.002 80.6652Z" stroke="#C49339" stroke-width="0.75" stroke-linejoin="round"/>
<g id="Group_13">
<path id="Vector_24" d="M123.002 70.3396C140.389 70.3396 154.484 60.5752 154.484 48.5302C154.484 36.4853 140.389 26.7209 123.002 26.7209C105.615 26.7209 91.52 36.4853 91.52 48.5302C91.52 60.5752 105.615 70.3396 123.002 70.3396Z" fill="#282828"/>
<path id="Vector_25" d="M123.002 70.3396C140.389 70.3396 154.484 60.5752 154.484 48.5302C154.484 36.4853 140.389 26.7209 123.002 26.7209C105.615 26.7209 91.52 36.4853 91.52 48.5302C91.52 60.5752 105.615 70.3396 123.002 70.3396Z" stroke="#C49339" stroke-width="0.75" stroke-linejoin="round"/>
</g>
<g id="Group_14">
<g id="Group_15">
<path id="Vector_26" d="M123.169 80.6233C123.169 80.3722 123.169 80.121 123.197 79.8699V70.4233" stroke="#C49339" stroke-width="0.75" stroke-linejoin="round"/>
<path id="Vector_27" d="M130.012 79.9257V69.8513" stroke="#C49339" stroke-width="0.75" stroke-linejoin="round"/>
<path id="Vector_28" d="M136.52 78.4746V68.4001" stroke="#C49339" stroke-width="0.75" stroke-linejoin="round"/>
<path id="Vector_29" d="M142.499 76.0467V65.9165" stroke="#C49339" stroke-width="0.75" stroke-linejoin="round"/>
<path id="Vector_30" d="M147.614 72.6419V62.4558" stroke="#C49339" stroke-width="0.75" stroke-linejoin="round"/>
<path id="Vector_31" d="M152.255 66.9071V56.7769" stroke="#C49339" stroke-width="0.75" stroke-linejoin="round"/>
</g>
<g id="Group_16">
<path id="Vector_32" d="M116.201 79.9257V69.8513" stroke="#C49339" stroke-width="0.75" stroke-linejoin="round"/>
<path id="Vector_33" d="M109.707 78.4746V68.4001" stroke="#C49339" stroke-width="0.75" stroke-linejoin="round"/>
<path id="Vector_34" d="M103.714 76.0467V65.9165" stroke="#C49339" stroke-width="0.75" stroke-linejoin="round"/>
<path id="Vector_35" d="M98.6136 72.6419V62.4558" stroke="#C49339" stroke-width="0.75" stroke-linejoin="round"/>
<path id="Vector_36" d="M93.9588 66.9071V56.7769" stroke="#C49339" stroke-width="0.75" stroke-linejoin="round"/>
</g>
</g>
<g id="Group_17">
<path id="Vector_37" d="M123.002 65.3859C136.441 65.3859 147.335 57.8393 147.335 48.5301C147.335 39.2209 136.441 31.6743 123.002 31.6743C109.563 31.6743 98.6693 39.2209 98.6693 48.5301C98.6693 57.8393 109.563 65.3859 123.002 65.3859Z" fill="#282828"/>
<path id="Vector_38" d="M123.002 65.3859C136.441 65.3859 147.335 57.8393 147.335 48.5301C147.335 39.2209 136.441 31.6743 123.002 31.6743C109.563 31.6743 98.6693 39.2209 98.6693 48.5301C98.6693 57.8393 109.563 65.3859 123.002 65.3859Z" stroke="#C49339" stroke-width="0.75" stroke-linejoin="round"/>
</g>
</g>
<g id="Group_18">
<path id="Vector_39" d="M124.73 42.3209L118.389 44.9303L117.274 44.3163C116.09 43.6605 115.24 43.2558 114.724 43.1163C114.208 42.9768 113.721 43.0047 113.233 43.2C112.843 43.3535 112.717 43.5628 112.843 43.8279C112.968 44.0791 113.344 44.3861 113.971 44.7349C115.031 45.321 115.964 45.6558 116.787 45.7256C117.595 45.7954 119.56 45.7814 122.668 45.6837C125.316 45.5861 127.197 45.5861 128.34 45.6419C129.469 45.7116 130.751 45.9349 132.158 46.3256C133.566 46.7163 135.015 47.3303 136.52 48.1675C138.917 49.493 140.255 50.7628 140.534 51.9768C140.813 53.1907 140.032 54.3209 138.179 55.3954L140.715 56.8047L137.803 58.0047L135.183 56.5535C133.315 57.1535 131.141 57.3768 128.674 57.2372C126.208 57.0837 123.476 56.1768 120.466 54.5163L119.156 53.7907L125.497 51.1814L127.141 52.1023C128.953 53.107 130.138 53.707 130.709 53.8884C131.28 54.0837 131.81 54.0698 132.312 53.8605C132.744 53.6791 132.911 53.4698 132.813 53.2047C132.716 52.9535 132.367 52.6605 131.768 52.3256C130.263 51.4884 129.078 50.9303 128.228 50.6512C127.378 50.3721 125.998 50.2605 124.061 50.3163C120.842 50.4 118.57 50.414 117.274 50.3721C115.978 50.3302 114.515 50.093 112.912 49.7023C111.31 49.3116 109.804 48.7116 108.425 47.9442C106.418 46.8279 105.373 45.7256 105.303 44.6512C105.233 43.5768 106.139 42.5163 108.007 41.4837L105.86 40.2837L108.773 39.0837L110.919 40.2837C113.135 39.6279 115.295 39.4047 117.4 39.6279C119.504 39.8512 121.539 40.5209 123.532 41.6233C123.81 41.7768 124.215 42.014 124.73 42.3489V42.3209Z" fill="#282828"/>
<path id="Vector_40" d="M124.73 42.3209L118.389 44.9303L117.274 44.3163C116.09 43.6605 115.24 43.2558 114.724 43.1163C114.208 42.9768 113.721 43.0047 113.233 43.2C112.843 43.3535 112.717 43.5628 112.843 43.8279C112.968 44.0791 113.344 44.3861 113.971 44.7349C115.031 45.321 115.964 45.6558 116.787 45.7256C117.595 45.7954 119.56 45.7814 122.668 45.6837C125.316 45.5861 127.197 45.5861 128.34 45.6419C129.469 45.7116 130.751 45.9349 132.158 46.3256C133.566 46.7163 135.015 47.3303 136.52 48.1675C138.917 49.493 140.255 50.7628 140.534 51.9768C140.813 53.1907 140.032 54.3209 138.179 55.3954L140.715 56.8047L137.803 58.0047L135.183 56.5535C133.315 57.1535 131.141 57.3768 128.674 57.2372C126.208 57.0837 123.476 56.1768 120.466 54.5163L119.156 53.7907L125.497 51.1814L127.141 52.1023C128.953 53.107 130.138 53.707 130.709 53.8884C131.28 54.0837 131.81 54.0698 132.312 53.8605C132.744 53.6791 132.911 53.4698 132.813 53.2047C132.716 52.9535 132.367 52.6605 131.768 52.3256C130.263 51.4884 129.078 50.9303 128.228 50.6512C127.378 50.3721 125.998 50.2605 124.061 50.3163C120.842 50.4 118.57 50.414 117.274 50.3721C115.978 50.3302 114.515 50.093 112.912 49.7023C111.31 49.3116 109.804 48.7116 108.425 47.9442C106.418 46.8279 105.373 45.7256 105.303 44.6512C105.233 43.5768 106.139 42.5163 108.007 41.4837L105.86 40.2837L108.773 39.0837L110.919 40.2837C113.135 39.6279 115.295 39.4047 117.4 39.6279C119.504 39.8512 121.539 40.5209 123.532 41.6233C123.81 41.7768 124.215 42.014 124.73 42.3489V42.3209Z" stroke="#C49339" stroke-width="0.75" stroke-linejoin="round"/>
</g>
</g>
<g id="Group_19">
<g id="Group_20">
<path id="Vector_41" d="M123.002 62.5815C140.389 62.5815 154.484 52.8171 154.484 40.7722C154.484 28.7272 140.389 18.9629 123.002 18.9629C105.615 18.9629 91.52 28.7272 91.52 40.7722C91.52 52.8171 105.615 62.5815 123.002 62.5815Z" fill="#282828"/>
<path id="Vector_42" d="M150.722 30.4466C145.398 23.6233 134.987 18.9768 123.002 18.9768C111.017 18.9768 100.593 23.6233 95.2828 30.4466H91.729L91.5896 39.8373C91.5757 40.1582 91.52 40.4652 91.52 40.7861C91.52 52.828 105.61 62.5954 123.002 62.5954C140.395 62.5954 154.484 52.828 154.484 40.7861V30.4466H150.722Z" stroke="#C49339" stroke-width="0.75" stroke-linejoin="round"/>
<path id="Vector_43" d="M123.002 62.5815C140.389 62.5815 154.484 52.8171 154.484 40.7722C154.484 28.7272 140.389 18.9629 123.002 18.9629C105.615 18.9629 91.52 28.7272 91.52 40.7722C91.52 52.8171 105.615 62.5815 123.002 62.5815Z" stroke="#C49339" stroke-width="0.75" stroke-linejoin="round"/>
<g id="Group_21">
<path id="Vector_44" d="M123.002 52.2558C140.389 52.2558 154.484 42.4915 154.484 30.4465C154.484 18.4016 140.389 8.63721 123.002 8.63721C105.615 8.63721 91.52 18.4016 91.52 30.4465C91.52 42.4915 105.615 52.2558 123.002 52.2558Z" fill="#282828"/>
<path id="Vector_45" d="M123.002 52.2558C140.389 52.2558 154.484 42.4915 154.484 30.4465C154.484 18.4016 140.389 8.63721 123.002 8.63721C105.615 8.63721 91.52 18.4016 91.52 30.4465C91.52 42.4915 105.615 52.2558 123.002 52.2558Z" stroke="#C49339" stroke-width="0.75" stroke-linejoin="round"/>
</g>
<g id="Group_22">
<g id="Group_23">
<path id="Vector_46" d="M123.169 62.5396C123.169 62.2884 123.169 62.0373 123.197 61.7861V52.3396" stroke="#C49339" stroke-width="0.75" stroke-linejoin="round"/>
<path id="Vector_47" d="M130.012 61.842V51.7676" stroke="#C49339" stroke-width="0.75" stroke-linejoin="round"/>
<path id="Vector_48" d="M136.52 60.3908V50.3164" stroke="#C49339" stroke-width="0.75" stroke-linejoin="round"/>
<path id="Vector_49" d="M142.499 57.963V47.8328" stroke="#C49339" stroke-width="0.75" stroke-linejoin="round"/>
<path id="Vector_50" d="M147.614 54.5581V44.3721" stroke="#C49339" stroke-width="0.75" stroke-linejoin="round"/>
<path id="Vector_51" d="M152.255 48.8234V38.6931" stroke="#C49339" stroke-width="0.75" stroke-linejoin="round"/>
</g>
<g id="Group_24">
<path id="Vector_52" d="M116.201 61.842V51.7676" stroke="#C49339" stroke-width="0.75" stroke-linejoin="round"/>
<path id="Vector_53" d="M109.707 60.3908V50.3164" stroke="#C49339" stroke-width="0.75" stroke-linejoin="round"/>
<path id="Vector_54" d="M103.714 57.963V47.8328" stroke="#C49339" stroke-width="0.75" stroke-linejoin="round"/>
<path id="Vector_55" d="M98.6136 54.5581V44.3721" stroke="#C49339" stroke-width="0.75" stroke-linejoin="round"/>
<path id="Vector_56" d="M93.9588 48.8234V38.6931" stroke="#C49339" stroke-width="0.75" stroke-linejoin="round"/>
</g>
</g>
<g id="Group_25">
<path id="Vector_57" d="M123.002 47.3022C136.441 47.3022 147.335 39.7556 147.335 30.4464C147.335 21.1372 136.441 13.5906 123.002 13.5906C109.563 13.5906 98.6693 21.1372 98.6693 30.4464C98.6693 39.7556 109.563 47.3022 123.002 47.3022Z" fill="#282828"/>
<path id="Vector_58" d="M123.002 47.3022C136.441 47.3022 147.335 39.7556 147.335 30.4464C147.335 21.1372 136.441 13.5906 123.002 13.5906C109.563 13.5906 98.6693 21.1372 98.6693 30.4464C98.6693 39.7556 109.563 47.3022 123.002 47.3022Z" stroke="#C49339" stroke-width="0.75" stroke-linejoin="round"/>
</g>
</g>
<g id="Group_26">
<path id="Vector_59" d="M124.73 24.2372L118.389 26.8465L117.274 26.2326C116.09 25.5767 115.24 25.1721 114.724 25.0326C114.208 24.893 113.721 24.9209 113.233 25.1163C112.843 25.2698 112.717 25.4791 112.843 25.7442C112.968 25.9953 113.344 26.3023 113.971 26.6512C115.031 27.2372 115.964 27.5721 116.787 27.6419C117.595 27.7116 119.56 27.6977 122.668 27.6C125.316 27.5023 127.197 27.5023 128.34 27.5581C129.469 27.6279 130.751 27.8512 132.158 28.2419C133.566 28.6326 135.015 29.2465 136.52 30.0837C138.917 31.4093 140.255 32.6791 140.534 33.893C140.813 35.107 140.032 36.2372 138.179 37.3116L140.715 38.7209L137.803 39.9209L135.183 38.4698C133.315 39.0698 131.141 39.293 128.674 39.1535C126.208 39 123.476 38.093 120.466 36.4326L119.156 35.707L125.497 33.0977L127.141 34.0186C128.953 35.0233 130.138 35.6233 130.709 35.8047C131.28 36 131.81 35.986 132.312 35.7767C132.744 35.5953 132.911 35.386 132.813 35.1209C132.716 34.8698 132.367 34.5767 131.768 34.2419C130.263 33.4047 129.078 32.8465 128.228 32.5674C127.378 32.2884 125.998 32.1767 124.061 32.2326C120.842 32.3163 118.57 32.3302 117.274 32.2884C115.978 32.2465 114.515 32.0093 112.912 31.6186C111.31 31.2279 109.804 30.6279 108.425 29.8605C106.418 28.7442 105.373 27.6419 105.303 26.5674C105.233 25.493 106.139 24.4326 108.007 23.4L105.86 22.2L108.773 21L110.919 22.2C113.135 21.5442 115.295 21.3209 117.4 21.5442C119.504 21.7674 121.539 22.4372 123.532 23.5395C123.81 23.693 124.215 23.9302 124.73 24.2651V24.2372Z" fill="#282828"/>
<path id="Vector_60" d="M124.73 24.2372L118.389 26.8465L117.274 26.2326C116.09 25.5767 115.24 25.1721 114.724 25.0326C114.208 24.893 113.721 24.9209 113.233 25.1163C112.843 25.2698 112.717 25.4791 112.843 25.7442C112.968 25.9953 113.344 26.3023 113.971 26.6512C115.031 27.2372 115.964 27.5721 116.787 27.6419C117.595 27.7116 119.56 27.6977 122.668 27.6C125.316 27.5023 127.197 27.5023 128.34 27.5581C129.469 27.6279 130.751 27.8512 132.158 28.2419C133.566 28.6326 135.015 29.2465 136.52 30.0837C138.917 31.4093 140.255 32.6791 140.534 33.893C140.813 35.107 140.032 36.2372 138.179 37.3116L140.715 38.7209L137.803 39.9209L135.183 38.4698C133.315 39.0698 131.141 39.293 128.674 39.1535C126.208 39 123.476 38.093 120.466 36.4326L119.156 35.707L125.497 33.0977L127.141 34.0186C128.953 35.0233 130.138 35.6233 130.709 35.8047C131.28 36 131.81 35.986 132.312 35.7767C132.744 35.5953 132.911 35.386 132.813 35.1209C132.716 34.8698 132.367 34.5767 131.768 34.2419C130.263 33.4047 129.078 32.8465 128.228 32.5674C127.378 32.2884 125.998 32.1767 124.061 32.2326C120.842 32.3163 118.57 32.3302 117.274 32.2884C115.978 32.2465 114.515 32.0093 112.912 31.6186C111.31 31.2279 109.804 30.6279 108.425 29.8605C106.418 28.7442 105.373 27.6419 105.303 26.5674C105.233 25.493 106.139 24.4326 108.007 23.4L105.86 22.2L108.773 21L110.919 22.2C113.135 21.5442 115.295 21.3209 117.4 21.5442C119.504 21.7674 121.539 22.4372 123.532 23.5395C123.81 23.693 124.215 23.9302 124.73 24.2651V24.2372Z" stroke="#C49339" stroke-width="0.75" stroke-linejoin="round"/>
</g>
</g>
</g>
<g id="Group_27">
<g id="Group_28">
<g id="Group_29">
<path id="Vector_61" d="M31.9978 92.5258C49.385 92.5258 63.48 82.7615 63.48 70.7165C63.48 58.6716 49.385 48.9072 31.9978 48.9072C14.6107 48.9072 0.51564 58.6716 0.51564 70.7165C0.51564 82.7615 14.6107 92.5258 31.9978 92.5258Z" fill="#282828"/>
<path id="Vector_62" d="M59.7172 60.377C54.3935 53.5537 43.9831 48.9072 31.9978 48.9072C20.0126 48.9072 9.5882 53.5537 4.27845 60.377H0.724685L0.585322 69.7677C0.571386 70.0886 0.51564 70.3956 0.51564 70.7165C0.51564 82.7584 14.6053 92.5258 31.9978 92.5258C49.3904 92.5258 63.48 82.7584 63.48 70.7165V60.377H59.7172Z" stroke="#C49339" stroke-width="0.75" stroke-linejoin="round"/>
<path id="Vector_63" d="M31.9978 92.5258C49.385 92.5258 63.48 82.7615 63.48 70.7165C63.48 58.6716 49.385 48.9072 31.9978 48.9072C14.6107 48.9072 0.51564 58.6716 0.51564 70.7165C0.51564 82.7615 14.6107 92.5258 31.9978 92.5258Z" stroke="#C49339" stroke-width="0.75" stroke-linejoin="round"/>
<g id="Group_30">
<path id="Vector_64" d="M31.9978 82.1862C49.385 82.1862 63.48 72.4219 63.48 60.3769C63.48 48.332 49.385 38.5676 31.9978 38.5676C14.6107 38.5676 0.51564 48.332 0.51564 60.3769C0.51564 72.4219 14.6107 82.1862 31.9978 82.1862Z" fill="#282828"/>
<path id="Vector_65" d="M31.9978 82.1862C49.385 82.1862 63.48 72.4219 63.48 60.3769C63.48 48.332 49.385 38.5676 31.9978 38.5676C14.6107 38.5676 0.51564 48.332 0.51564 60.3769C0.51564 72.4219 14.6107 82.1862 31.9978 82.1862Z" stroke="#C49339" stroke-width="0.75" stroke-linejoin="round"/>
</g>
<g id="Group_31">
<g id="Group_32">
<path id="Vector_66" d="M32.179 92.4839C32.1651 92.2328 32.179 91.9816 32.2069 91.7304V82.2839" stroke="#C49339" stroke-width="0.75" stroke-linejoin="round"/>
<path id="Vector_67" d="M39.0217 91.7724V81.698" stroke="#C49339" stroke-width="0.75" stroke-linejoin="round"/>
<path id="Vector_68" d="M45.5161 90.3213V80.2468" stroke="#C49339" stroke-width="0.75" stroke-linejoin="round"/>
<path id="Vector_69" d="M51.5087 87.8934V77.7771" stroke="#C49339" stroke-width="0.75" stroke-linejoin="round"/>
<path id="Vector_70" d="M56.6094 84.4885V74.3025" stroke="#C49339" stroke-width="0.75" stroke-linejoin="round"/>
<path id="Vector_71" d="M61.2641 78.7538V68.6235" stroke="#C49339" stroke-width="0.75" stroke-linejoin="round"/>
</g>
<g id="Group_33">
<path id="Vector_72" d="M25.2108 91.7724V81.698" stroke="#C49339" stroke-width="0.75" stroke-linejoin="round"/>
<path id="Vector_73" d="M18.7026 90.3213V80.2468" stroke="#C49339" stroke-width="0.75" stroke-linejoin="round"/>
<path id="Vector_74" d="M12.7239 87.8934V77.7771" stroke="#C49339" stroke-width="0.75" stroke-linejoin="round"/>
<path id="Vector_75" d="M7.60924 84.4885V74.3025" stroke="#C49339" stroke-width="0.75" stroke-linejoin="round"/>
<path id="Vector_76" d="M2.96843 78.7538V68.6235" stroke="#C49339" stroke-width="0.75" stroke-linejoin="round"/>
</g>
</g>
<g id="Group_34">
<path id="Vector_77" d="M31.9978 77.2326C45.4365 77.2326 56.3307 69.686 56.3307 60.3768C56.3307 51.0676 45.4365 43.521 31.9978 43.521C18.5592 43.521 7.66498 51.0676 7.66498 60.3768C7.66498 69.686 18.5592 77.2326 31.9978 77.2326Z" fill="#282828"/>
<path id="Vector_78" d="M31.9978 77.2326C45.4365 77.2326 56.3307 69.686 56.3307 60.3768C56.3307 51.0676 45.4365 43.521 31.9978 43.521C18.5592 43.521 7.66498 51.0676 7.66498 60.3768C7.66498 69.686 18.5592 77.2326 31.9978 77.2326Z" stroke="#C49339" stroke-width="0.75" stroke-linejoin="round"/>
</g>
</g>
<g id="Group_35">
<path id="Vector_79" d="M33.7399 54.1676L27.3988 56.7769L26.2839 56.163C25.0993 55.5072 24.2492 55.1025 23.7336 54.963C23.2179 54.8234 22.7302 54.8514 22.2424 55.0467C21.8522 55.2002 21.7268 55.4095 21.8522 55.6746C21.9776 55.9258 22.3539 56.2327 22.981 56.5816C24.0402 57.1676 24.9739 57.5025 25.7962 57.5723C26.6045 57.642 28.5695 57.6281 31.6773 57.5304C34.3252 57.4327 36.2066 57.4327 37.3494 57.4886C38.4782 57.5583 39.7604 57.7816 41.168 58.1723C42.5755 58.563 44.0249 59.1769 45.53 60.0141C47.9271 61.3397 49.265 62.6095 49.5437 63.8234C49.8224 65.0374 49.042 66.1676 47.1885 67.242L49.7249 68.6514L46.8122 69.8514L44.1921 68.4002C42.3247 69.0002 40.1506 69.2234 37.6839 69.0839C35.2171 68.9304 32.4856 68.0234 29.4754 66.363L28.1653 65.6374L34.5064 63.0281L36.1509 63.949C37.9626 64.9537 39.1472 65.5537 39.7186 65.7351C40.29 65.9304 40.8195 65.9165 41.3213 65.7072C41.7533 65.5258 41.9205 65.3165 41.823 65.0513C41.7254 64.8002 41.377 64.5072 40.7777 64.1723C39.2726 63.3351 38.088 62.7769 37.2379 62.4979C36.3878 62.2188 35.0081 62.1072 33.0709 62.163C29.8516 62.2467 27.58 62.2607 26.2839 62.2188C24.9879 62.1769 23.5245 61.9397 21.9219 61.549C20.3192 61.1583 18.8141 60.5583 17.4344 59.7909C15.4275 58.6746 14.3823 57.5723 14.3126 56.4979C14.2429 55.4234 15.1488 54.363 17.0163 53.3304L14.8701 52.1304L17.7828 50.9304L19.929 52.1304C22.1448 51.4746 24.305 51.2513 26.4094 51.4746C28.5138 51.6979 30.5485 52.3676 32.5414 53.47C32.8201 53.6234 33.2242 53.8607 33.7399 54.1955V54.1676Z" fill="#282828"/>
<path id="Vector_80" d="M33.7399 54.1676L27.3988 56.7769L26.2839 56.163C25.0993 55.5072 24.2492 55.1025 23.7336 54.963C23.2179 54.8234 22.7302 54.8514 22.2424 55.0467C21.8522 55.2002 21.7268 55.4095 21.8522 55.6746C21.9776 55.9258 22.3539 56.2327 22.981 56.5816C24.0402 57.1676 24.9739 57.5025 25.7962 57.5723C26.6045 57.642 28.5695 57.6281 31.6773 57.5304C34.3252 57.4327 36.2066 57.4327 37.3494 57.4886C38.4782 57.5583 39.7604 57.7816 41.168 58.1723C42.5755 58.563 44.0249 59.1769 45.53 60.0141C47.9271 61.3397 49.265 62.6095 49.5437 63.8234C49.8224 65.0374 49.042 66.1676 47.1885 67.242L49.7249 68.6514L46.8122 69.8514L44.1921 68.4002C42.3247 69.0002 40.1506 69.2234 37.6839 69.0839C35.2171 68.9304 32.4856 68.0234 29.4754 66.363L28.1653 65.6374L34.5064 63.0281L36.1509 63.949C37.9626 64.9537 39.1472 65.5537 39.7186 65.7351C40.29 65.9304 40.8195 65.9165 41.3213 65.7072C41.7533 65.5258 41.9205 65.3165 41.823 65.0513C41.7254 64.8002 41.377 64.5072 40.7777 64.1723C39.2726 63.3351 38.088 62.7769 37.2379 62.4979C36.3878 62.2188 35.0081 62.1072 33.0709 62.163C29.8516 62.2467 27.58 62.2607 26.2839 62.2188C24.9879 62.1769 23.5245 61.9397 21.9219 61.549C20.3192 61.1583 18.8141 60.5583 17.4344 59.7909C15.4275 58.6746 14.3823 57.5723 14.3126 56.4979C14.2429 55.4234 15.1488 54.363 17.0163 53.3304L14.8701 52.1304L17.7828 50.9304L19.929 52.1304C22.1448 51.4746 24.305 51.2513 26.4094 51.4746C28.5138 51.6979 30.5485 52.3676 32.5414 53.47C32.8201 53.6234 33.2242 53.8607 33.7399 54.1955V54.1676Z" stroke="#C49339" stroke-width="0.75" stroke-linejoin="round"/>
</g>
</g>
<g id="Group_36">
<g id="Group_37">
<path id="Vector_81" d="M31.9978 74.6235C49.385 74.6235 63.48 64.8591 63.48 52.8142C63.48 40.7692 49.385 31.0049 31.9978 31.0049C14.6107 31.0049 0.51564 40.7692 0.51564 52.8142C0.51564 64.8591 14.6107 74.6235 31.9978 74.6235Z" fill="#282828"/>
<path id="Vector_82" d="M59.7172 42.4886C54.3935 35.6653 43.9831 31.0188 31.9978 31.0188C20.0126 31.0188 9.60213 35.6514 4.27845 42.4886H0.724685L0.585322 51.8793C0.571386 52.2002 0.51564 52.5072 0.51564 52.8281C0.51564 64.87 14.6053 74.6374 31.9978 74.6374C49.3904 74.6374 63.48 64.87 63.48 52.8281V42.4886H59.7172Z" stroke="#C49339" stroke-width="0.75" stroke-linejoin="round"/>
<path id="Vector_83" d="M31.9978 74.6235C49.385 74.6235 63.48 64.8591 63.48 52.8142C63.48 40.7692 49.385 31.0049 31.9978 31.0049C14.6107 31.0049 0.51564 40.7692 0.51564 52.8142C0.51564 64.8591 14.6107 74.6235 31.9978 74.6235Z" stroke="#C49339" stroke-width="0.75" stroke-linejoin="round"/>
<g id="Group_38">
<path id="Vector_84" d="M31.9978 64.2978C49.385 64.2978 63.48 54.5334 63.48 42.4885C63.48 30.4436 49.385 20.6792 31.9978 20.6792C14.6107 20.6792 0.51564 30.4436 0.51564 42.4885C0.51564 54.5334 14.6107 64.2978 31.9978 64.2978Z" fill="#282828"/>
<path id="Vector_85" d="M31.9978 64.2978C49.385 64.2978 63.48 54.5334 63.48 42.4885C63.48 30.4436 49.385 20.6792 31.9978 20.6792C14.6107 20.6792 0.51564 30.4436 0.51564 42.4885C0.51564 54.5334 14.6107 64.2978 31.9978 64.2978Z" stroke="#C49339" stroke-width="0.75" stroke-linejoin="round"/>
</g>
<g id="Group_39">
<g id="Group_40">
<path id="Vector_86" d="M32.179 74.5816C32.1651 74.3304 32.179 74.0793 32.2069 73.8281V64.3816" stroke="#C49339" stroke-width="0.75" stroke-linejoin="round"/>
<path id="Vector_87" d="M39.0217 73.884V63.8096" stroke="#C49339" stroke-width="0.75" stroke-linejoin="round"/>
<path id="Vector_88" d="M45.5161 72.4328V62.3584" stroke="#C49339" stroke-width="0.75" stroke-linejoin="round"/>
<path id="Vector_89" d="M51.5087 70.005V59.8748" stroke="#C49339" stroke-width="0.75" stroke-linejoin="round"/>
<path id="Vector_90" d="M56.6094 66.6001V56.4141" stroke="#C49339" stroke-width="0.75" stroke-linejoin="round"/>
<path id="Vector_91" d="M61.2641 60.8653V50.7351" stroke="#C49339" stroke-width="0.75" stroke-linejoin="round"/>
</g>
<g id="Group_41">
<path id="Vector_92" d="M25.2108 73.884V63.8096" stroke="#C49339" stroke-width="0.75" stroke-linejoin="round"/>
<path id="Vector_93" d="M18.7026 72.4328V62.3584" stroke="#C49339" stroke-width="0.75" stroke-linejoin="round"/>
<path id="Vector_94" d="M12.7239 70.005V59.8748" stroke="#C49339" stroke-width="0.75" stroke-linejoin="round"/>
<path id="Vector_95" d="M7.60924 66.6001V56.4141" stroke="#C49339" stroke-width="0.75" stroke-linejoin="round"/>
<path id="Vector_96" d="M2.96843 60.8653V50.7351" stroke="#C49339" stroke-width="0.75" stroke-linejoin="round"/>
</g>
</g>
<g id="Group_42">
<path id="Vector_97" d="M31.9978 59.3442C45.4365 59.3442 56.3307 51.7976 56.3307 42.4884C56.3307 33.1792 45.4365 25.6326 31.9978 25.6326C18.5592 25.6326 7.66498 33.1792 7.66498 42.4884C7.66498 51.7976 18.5592 59.3442 31.9978 59.3442Z" fill="#282828"/>
<path id="Vector_98" d="M31.9978 59.3442C45.4365 59.3442 56.3307 51.7976 56.3307 42.4884C56.3307 33.1792 45.4365 25.6326 31.9978 25.6326C18.5592 25.6326 7.66498 33.1792 7.66498 42.4884C7.66498 51.7976 18.5592 59.3442 31.9978 59.3442Z" stroke="#C49339" stroke-width="0.75" stroke-linejoin="round"/>
</g>
</g>
<g id="Group_43">
<path id="Vector_99" d="M33.7399 36.2792L27.3988 38.8885L26.2839 38.2745C25.0993 37.6187 24.2492 37.2141 23.7336 37.0745C23.2179 36.935 22.7302 36.9629 22.2424 37.1583C21.8522 37.3118 21.7268 37.5211 21.8522 37.7862C21.9776 38.0373 22.3539 38.3443 22.981 38.6932C24.0402 39.2792 24.9739 39.6141 25.7962 39.6839C26.6045 39.7536 28.5695 39.7397 31.6773 39.642C34.3252 39.5443 36.2066 39.5443 37.3494 39.6001C38.4782 39.6699 39.7604 39.8932 41.168 40.2839C42.5755 40.6746 44.0249 41.2885 45.53 42.1257C47.9271 43.4513 49.265 44.7211 49.5437 45.935C49.8224 47.149 49.042 48.2792 47.1885 49.3536L49.7249 50.7629L46.8122 51.9629L44.1921 50.5118C42.3247 51.1118 40.1506 51.335 37.6839 51.1955C35.2171 51.042 32.4856 50.135 29.4754 48.4746L28.1653 47.749L34.5064 45.1397L36.1509 46.0606C37.9626 47.0652 39.1472 47.6652 39.7186 47.8466C40.29 48.042 40.8195 48.028 41.3213 47.8187C41.7533 47.6373 41.9205 47.428 41.823 47.1629C41.7254 46.9118 41.377 46.6187 40.7777 46.2838C39.2726 45.4466 38.088 44.8885 37.2379 44.6094C36.3878 44.3304 35.0081 44.2187 33.0709 44.2745C29.8516 44.3583 27.58 44.3722 26.2839 44.3304C24.9879 44.2885 23.5245 44.0513 21.9219 43.6606C20.3192 43.2699 18.8141 42.6699 17.4344 41.9025C15.4275 40.7862 14.3823 39.6839 14.3126 38.6094C14.2429 37.535 15.1488 36.4745 17.0163 35.442L14.8701 34.242L17.7828 33.042L19.929 34.242C22.1448 33.5862 24.305 33.3629 26.4094 33.5862C28.5138 33.8094 30.5485 34.4792 32.5414 35.5815C32.8201 35.735 33.2242 35.9722 33.7399 36.3071V36.2792Z" fill="#282828"/>
<path id="Vector_100" d="M33.7399 36.2792L27.3988 38.8885L26.2839 38.2746C25.0993 37.6187 24.2492 37.2141 23.7336 37.0745C23.2179 36.935 22.7302 36.9629 22.2424 37.1583C21.8522 37.3118 21.7268 37.5211 21.8522 37.7862C21.9776 38.0373 22.3539 38.3443 22.981 38.6932C24.0402 39.2792 24.9739 39.6141 25.7962 39.6839C26.6045 39.7536 28.5695 39.7397 31.6773 39.642C34.3252 39.5443 36.2066 39.5443 37.3494 39.6001C38.4782 39.6699 39.7604 39.8932 41.168 40.2839C42.5755 40.6746 44.0249 41.2885 45.53 42.1257C47.9271 43.4513 49.265 44.7211 49.5437 45.935C49.8224 47.149 49.042 48.2792 47.1885 49.3536L49.7249 50.7629L46.8122 51.9629L44.1921 50.5118C42.3247 51.1118 40.1506 51.335 37.6839 51.1955C35.2171 51.042 32.4856 50.135 29.4754 48.4746L28.1653 47.749L34.5064 45.1397L36.1509 46.0606C37.9626 47.0652 39.1472 47.6652 39.7186 47.8466C40.29 48.042 40.8195 48.028 41.3213 47.8187C41.7533 47.6373 41.9205 47.428 41.823 47.1629C41.7254 46.9118 41.377 46.6187 40.7777 46.2838C39.2726 45.4466 38.088 44.8885 37.2379 44.6094C36.3878 44.3304 35.0081 44.2187 33.0709 44.2745C29.8516 44.3583 27.58 44.3722 26.2839 44.3304C24.9879 44.2885 23.5245 44.0513 21.9219 43.6606C20.3192 43.2699 18.8141 42.6699 17.4344 41.9025C15.4275 40.7862 14.3823 39.6839 14.3126 38.6094C14.2429 37.535 15.1488 36.4745 17.0163 35.442L14.8701 34.242L17.7828 33.042L19.929 34.242C22.1448 33.5862 24.305 33.3629 26.4094 33.5862C28.5138 33.8094 30.5485 34.4792 32.5414 35.5815C32.8201 35.735 33.2242 35.9722 33.7399 36.3071V36.2792Z" stroke="#C49339" stroke-width="0.75" stroke-linejoin="round"/>
</g>
</g>
<g id="Group_44">
<g id="Group_45">
<path id="Vector_101" d="M31.9978 54.4746C49.385 54.4746 63.48 44.7102 63.48 32.6653C63.48 20.6203 49.385 10.856 31.9978 10.856C14.6107 10.856 0.51564 20.6203 0.51564 32.6653C0.51564 44.7102 14.6107 54.4746 31.9978 54.4746Z" fill="#282828"/>
<path id="Vector_102" d="M59.7172 22.3257C54.3935 15.5025 43.9831 10.856 31.9978 10.856C20.0126 10.856 9.60213 15.5025 4.27845 22.3257H0.724685L0.585322 31.7164C0.571386 32.0374 0.51564 32.3443 0.51564 32.6653C0.51564 44.7071 14.6053 54.4746 31.9978 54.4746C49.3904 54.4746 63.48 44.7071 63.48 32.6653V22.3257H59.7172Z" stroke="#C49339" stroke-width="0.75" stroke-linejoin="round"/>
<path id="Vector_103" d="M31.9978 54.4746C49.385 54.4746 63.48 44.7102 63.48 32.6653C63.48 20.6203 49.385 10.856 31.9978 10.856C14.6107 10.856 0.51564 20.6203 0.51564 32.6653C0.51564 44.7102 14.6107 54.4746 31.9978 54.4746Z" stroke="#C49339" stroke-width="0.75" stroke-linejoin="round"/>
<g id="Group_46">
<path id="Vector_104" d="M31.9978 44.135C49.385 44.135 63.48 34.3706 63.48 22.3257C63.48 10.2807 49.385 0.516357 31.9978 0.516357C14.6107 0.516357 0.51564 10.2807 0.51564 22.3257C0.51564 34.3706 14.6107 44.135 31.9978 44.135Z" fill="#282828"/>
<path id="Vector_105" d="M31.9978 44.135C49.385 44.135 63.48 34.3706 63.48 22.3257C63.48 10.2807 49.385 0.516357 31.9978 0.516357C14.6107 0.516357 0.51564 10.2807 0.51564 22.3257C0.51564 34.3706 14.6107 44.135 31.9978 44.135Z" stroke="#C49339" stroke-width="0.75" stroke-linejoin="round"/>
</g>
<g id="Group_47">
<g id="Group_48">
<path id="Vector_106" d="M32.179 54.4327C32.1651 54.1815 32.179 53.9303 32.2069 53.6792V44.2327" stroke="#C49339" stroke-width="0.75" stroke-linejoin="round"/>
<path id="Vector_107" d="M39.0217 53.7211V43.6467" stroke="#C49339" stroke-width="0.75" stroke-linejoin="round"/>
<path id="Vector_108" d="M45.5161 52.27V42.1956" stroke="#C49339" stroke-width="0.75" stroke-linejoin="round"/>
<path id="Vector_109" d="M51.5087 49.8421V39.7258" stroke="#C49339" stroke-width="0.75" stroke-linejoin="round"/>
<path id="Vector_110" d="M56.6094 46.4373V36.2512" stroke="#C49339" stroke-width="0.75" stroke-linejoin="round"/>
<path id="Vector_111" d="M61.2641 40.7025V30.5723" stroke="#C49339" stroke-width="0.75" stroke-linejoin="round"/>
</g>
<g id="Group_49">
<path id="Vector_112" d="M25.2108 53.7211V43.6467" stroke="#C49339" stroke-width="0.75" stroke-linejoin="round"/>
<path id="Vector_113" d="M18.7026 52.27V42.1956" stroke="#C49339" stroke-width="0.75" stroke-linejoin="round"/>
<path id="Vector_114" d="M12.7239 49.8421V39.7258" stroke="#C49339" stroke-width="0.75" stroke-linejoin="round"/>
<path id="Vector_115" d="M7.60924 46.4373V36.2512" stroke="#C49339" stroke-width="0.75" stroke-linejoin="round"/>
<path id="Vector_116" d="M2.96843 40.7025V30.5723" stroke="#C49339" stroke-width="0.75" stroke-linejoin="round"/>
</g>
</g>
<g id="Group_50">
<path id="Vector_117" d="M31.9978 39.1814C45.4365 39.1814 56.3307 31.6348 56.3307 22.3255C56.3307 13.0163 45.4365 5.46973 31.9978 5.46973C18.5592 5.46973 7.66498 13.0163 7.66498 22.3255C7.66498 31.6348 18.5592 39.1814 31.9978 39.1814Z" fill="#282828"/>
<path id="Vector_118" d="M31.9978 39.1814C45.4365 39.1814 56.3307 31.6348 56.3307 22.3255C56.3307 13.0163 45.4365 5.46973 31.9978 5.46973C18.5592 5.46973 7.66498 13.0163 7.66498 22.3255C7.66498 31.6348 18.5592 39.1814 31.9978 39.1814Z" stroke="#C49339" stroke-width="0.75" stroke-linejoin="round"/>
</g>
</g>
<g id="Group_51">
<path id="Vector_119" d="M33.7399 16.1164L27.3988 18.7257L26.2839 18.1117C25.0993 17.4559 24.2492 17.0512 23.7336 16.9117C23.2179 16.7722 22.7302 16.8001 22.2424 16.9954C21.8522 17.1489 21.7268 17.3582 21.8522 17.6233C21.9776 17.8745 22.3539 18.1815 22.981 18.5303C24.0402 19.1164 24.9739 19.4512 25.7962 19.521C26.6045 19.5908 28.5695 19.5768 31.6773 19.4792C34.3252 19.3815 36.2066 19.3815 37.3494 19.4373C38.4782 19.5071 39.7604 19.7303 41.168 20.121C42.5755 20.5117 44.0249 21.1257 45.53 21.9629C47.9271 23.2885 49.265 24.5582 49.5437 25.7722C49.8224 26.9861 49.042 28.1164 47.1885 29.1908L49.7249 30.6001L46.8122 31.8001L44.1921 30.3489C42.3247 30.9489 40.1506 31.1722 37.6839 31.0326C35.2171 30.8792 32.4856 29.9722 29.4754 28.3117L28.1653 27.5861L34.5064 24.9768L36.1509 25.8978C37.9626 26.9024 39.1472 27.5024 39.7186 27.6838C40.29 27.8792 40.8195 27.8652 41.3213 27.6559C41.7533 27.4745 41.9205 27.2652 41.823 27.0001C41.7254 26.7489 41.377 26.4559 40.7777 26.121C39.2726 25.2838 38.088 24.7257 37.2379 24.4466C36.3878 24.1675 35.0081 24.0559 33.0709 24.1117C29.8516 24.1954 27.58 24.2094 26.2839 24.1675C24.9879 24.1257 23.5245 23.8885 21.9219 23.4978C20.3192 23.1071 18.8141 22.5071 17.4344 21.7396C15.4275 20.6233 14.3823 19.521 14.3126 18.4466C14.2429 17.3722 15.1488 16.3117 17.0163 15.2792L14.8701 14.0792L17.7828 12.8792L19.929 14.0792C22.1448 13.4233 24.305 13.2001 26.4094 13.4233C28.5138 13.6466 30.5485 14.3164 32.5414 15.4187C32.8201 15.5722 33.2242 15.8094 33.7399 16.1443V16.1164Z" fill="#282828"/>
<path id="Vector_120" d="M33.7399 16.1164L27.3988 18.7257L26.2839 18.1117C25.0993 17.4559 24.2492 17.0512 23.7336 16.9117C23.2179 16.7722 22.7302 16.8001 22.2424 16.9954C21.8522 17.1489 21.7268 17.3582 21.8522 17.6233C21.9776 17.8745 22.3539 18.1815 22.981 18.5303C24.0402 19.1164 24.9739 19.4512 25.7962 19.521C26.6045 19.5908 28.5695 19.5768 31.6773 19.4792C34.3252 19.3815 36.2066 19.3815 37.3494 19.4373C38.4782 19.5071 39.7604 19.7303 41.168 20.121C42.5755 20.5117 44.0249 21.1257 45.53 21.9629C47.9271 23.2885 49.265 24.5582 49.5437 25.7722C49.8224 26.9861 49.042 28.1164 47.1885 29.1908L49.7249 30.6001L46.8122 31.8001L44.1921 30.3489C42.3247 30.9489 40.1506 31.1722 37.6839 31.0326C35.2171 30.8792 32.4856 29.9722 29.4754 28.3117L28.1653 27.5861L34.5064 24.9768L36.1509 25.8978C37.9626 26.9024 39.1472 27.5024 39.7186 27.6838C40.29 27.8792 40.8195 27.8652 41.3213 27.6559C41.7533 27.4745 41.9205 27.2652 41.823 27.0001C41.7254 26.7489 41.377 26.4559 40.7777 26.121C39.2726 25.2838 38.088 24.7257 37.2379 24.4466C36.3878 24.1675 35.0081 24.0559 33.0709 24.1117C29.8516 24.1954 27.58 24.2094 26.2839 24.1675C24.9879 24.1257 23.5245 23.8885 21.9219 23.4978C20.3192 23.1071 18.8141 22.5071 17.4344 21.7396C15.4275 20.6233 14.3823 19.521 14.3126 18.4466C14.2429 17.3722 15.1488 16.3117 17.0163 15.2792L14.8701 14.0792L17.7828 12.8792L19.929 14.0792C22.1448 13.4233 24.305 13.2001 26.4094 13.4233C28.5138 13.6466 30.5485 14.3164 32.5414 15.4187C32.8201 15.5722 33.2242 15.8094 33.7399 16.1443V16.1164Z" stroke="#C49339" stroke-width="0.75" stroke-linejoin="round"/>
</g>
</g>
</g>
<g id="Group_52">
<g id="Group_53">
<g id="Group_54">
<path id="Vector_121" d="M82.2384 122.289C99.6255 122.289 113.721 112.524 113.721 100.479C113.721 88.4343 99.6255 78.6699 82.2384 78.6699C64.8512 78.6699 50.7562 88.4343 50.7562 100.479C50.7562 112.524 64.8512 122.289 82.2384 122.289Z" fill="#282828"/>
<path id="Vector_122" d="M109.958 90.1397C104.634 83.3164 94.2236 78.6699 82.2384 78.6699C70.2531 78.6699 59.8287 83.3164 54.519 90.1397H50.9652L50.8259 99.5304C50.8119 99.8513 50.7562 100.158 50.7562 100.479C50.7562 112.521 64.8458 122.289 82.2384 122.289C99.6309 122.289 113.721 112.521 113.721 100.479V90.1397H109.958Z" stroke="#C49339" stroke-width="0.75" stroke-linejoin="round"/>
<path id="Vector_123" d="M82.2384 122.289C99.6255 122.289 113.721 112.524 113.721 100.479C113.721 88.4343 99.6255 78.6699 82.2384 78.6699C64.8512 78.6699 50.7562 88.4343 50.7562 100.479C50.7562 112.524 64.8512 122.289 82.2384 122.289Z" stroke="#C49339" stroke-width="0.75" stroke-linejoin="round"/>
<g id="Group_55">
<path id="Vector_124" d="M82.2384 111.949C99.6255 111.949 113.721 102.185 113.721 90.1396C113.721 78.0947 99.6255 68.3303 82.2384 68.3303C64.8512 68.3303 50.7562 78.0947 50.7562 90.1396C50.7562 102.185 64.8512 111.949 82.2384 111.949Z" fill="#282828"/>
<path id="Vector_125" d="M82.2384 111.949C99.6255 111.949 113.721 102.185 113.721 90.1396C113.721 78.0947 99.6255 68.3303 82.2384 68.3303C64.8512 68.3303 50.7562 78.0947 50.7562 90.1396C50.7562 102.185 64.8512 111.949 82.2384 111.949Z" stroke="#C49339" stroke-width="0.75" stroke-linejoin="round"/>
</g>
<g id="Group_56">
<g id="Group_57">
<path id="Vector_126" d="M82.4056 122.247C82.3917 121.995 82.4056 121.744 82.4335 121.493V112.047" stroke="#C49339" stroke-width="0.75" stroke-linejoin="round"/>
<path id="Vector_127" d="M89.2484 121.535V111.461" stroke="#C49339" stroke-width="0.75" stroke-linejoin="round"/>
<path id="Vector_128" d="M95.7566 120.084V110.01" stroke="#C49339" stroke-width="0.75" stroke-linejoin="round"/>
<path id="Vector_129" d="M101.735 117.656V107.54" stroke="#C49339" stroke-width="0.75" stroke-linejoin="round"/>
<path id="Vector_130" d="M106.85 114.251V104.065" stroke="#C49339" stroke-width="0.75" stroke-linejoin="round"/>
<path id="Vector_131" d="M111.491 108.516V98.3862" stroke="#C49339" stroke-width="0.75" stroke-linejoin="round"/>
</g>
<g id="Group_58">
<path id="Vector_132" d="M75.4374 121.535V111.461" stroke="#C49339" stroke-width="0.75" stroke-linejoin="round"/>
<path id="Vector_133" d="M68.9431 120.084V110.01" stroke="#C49339" stroke-width="0.75" stroke-linejoin="round"/>
<path id="Vector_134" d="M62.9505 117.656V107.54" stroke="#C49339" stroke-width="0.75" stroke-linejoin="round"/>
<path id="Vector_135" d="M57.8498 114.251V104.065" stroke="#C49339" stroke-width="0.75" stroke-linejoin="round"/>
<path id="Vector_136" d="M53.195 108.516V98.3862" stroke="#C49339" stroke-width="0.75" stroke-linejoin="round"/>
</g>
</g>
<g id="Group_59">
<path id="Vector_137" d="M82.2384 106.995C95.677 106.995 106.571 99.4487 106.571 90.1395C106.571 80.8303 95.677 73.2837 82.2384 73.2837C68.7997 73.2837 57.9055 80.8303 57.9055 90.1395C57.9055 99.4487 68.7997 106.995 82.2384 106.995Z" fill="#282828"/>
<path id="Vector_138" d="M82.2384 106.995C95.677 106.995 106.571 99.4487 106.571 90.1395C106.571 80.8303 95.677 73.2837 82.2384 73.2837C68.7997 73.2837 57.9055 80.8303 57.9055 90.1395C57.9055 99.4487 68.7997 106.995 82.2384 106.995Z" stroke="#C49339" stroke-width="0.75" stroke-linejoin="round"/>
</g>
</g>
<g id="Group_60">
<path id="Vector_139" d="M83.9665 83.9303L77.6255 86.5396L76.5105 85.9257C75.326 85.2699 74.4758 84.8652 73.9602 84.7257C73.4445 84.5861 72.9568 84.614 72.469 84.8094C72.0788 84.9629 71.9534 85.1722 72.0788 85.4373C72.2042 85.6885 72.5805 85.9954 73.2076 86.3443C74.2668 86.9303 75.2005 87.2652 76.0228 87.335C76.8311 87.4047 78.7961 87.3908 81.9039 87.2931C84.5518 87.1954 86.4332 87.1954 87.576 87.2513C88.7048 87.321 89.987 87.5443 91.3946 87.935C92.8021 88.3257 94.2515 88.9396 95.7566 89.7768C98.1537 91.1024 99.4916 92.3722 99.7703 93.5861C100.049 94.8001 99.2686 95.9303 97.4151 97.0047L99.9515 98.414L97.0388 99.614L94.4187 98.1629C92.5513 98.7629 90.3772 98.9861 87.9105 98.8466C85.4437 98.6931 82.7122 97.7861 79.702 96.1257L78.3919 95.4001L84.733 92.7908L86.3775 93.7117C88.1892 94.7164 89.3738 95.3164 89.9452 95.4978C90.5166 95.6931 91.0462 95.6792 91.5479 95.4699C91.9799 95.2885 92.1471 95.0792 92.0496 94.814C91.952 94.5629 91.6036 94.2699 91.0043 93.935C89.4992 93.0978 88.3146 92.5396 87.4645 92.2606C86.6144 91.9815 85.2347 91.8699 83.2975 91.9257C80.0782 92.0094 77.8066 92.0233 76.5105 91.9815C75.2145 91.9396 73.7511 91.7024 72.1485 91.3117C70.5458 90.921 69.0407 90.321 67.661 89.5536C65.6541 88.4373 64.6089 87.335 64.5392 86.2606C64.4695 85.1861 65.3754 84.1257 67.2429 83.0931L65.0967 81.8931L68.0094 80.6931L70.1556 81.8931C72.3714 81.2373 74.5316 81.014 76.636 81.2373C78.7404 81.4606 80.7751 82.1303 82.768 83.2326C83.0467 83.3861 83.4508 83.6233 83.9665 83.9582V83.9303Z" fill="#282828"/>
<path id="Vector_140" d="M83.9665 83.9303L77.6255 86.5396L76.5105 85.9257C75.326 85.2699 74.4758 84.8652 73.9602 84.7257C73.4445 84.5861 72.9568 84.614 72.469 84.8094C72.0788 84.9629 71.9534 85.1722 72.0788 85.4373C72.2042 85.6885 72.5805 85.9954 73.2076 86.3443C74.2668 86.9303 75.2005 87.2652 76.0228 87.335C76.8311 87.4047 78.7961 87.3908 81.9039 87.2931C84.5518 87.1954 86.4332 87.1954 87.576 87.2513C88.7048 87.321 89.987 87.5443 91.3946 87.935C92.8021 88.3257 94.2515 88.9396 95.7566 89.7768C98.1537 91.1024 99.4916 92.3722 99.7703 93.5861C100.049 94.8001 99.2686 95.9303 97.4151 97.0047L99.9515 98.414L97.0388 99.614L94.4187 98.1629C92.5513 98.7629 90.3772 98.9861 87.9105 98.8466C85.4437 98.6931 82.7122 97.7861 79.702 96.1257L78.3919 95.4001L84.733 92.7908L86.3775 93.7117C88.1892 94.7164 89.3738 95.3164 89.9452 95.4978C90.5166 95.6931 91.0462 95.6792 91.5479 95.4699C91.9799 95.2885 92.1471 95.0792 92.0496 94.814C91.952 94.5629 91.6036 94.2699 91.0043 93.935C89.4992 93.0978 88.3146 92.5396 87.4645 92.2606C86.6144 91.9815 85.2347 91.8699 83.2975 91.9257C80.0782 92.0094 77.8066 92.0233 76.5105 91.9815C75.2145 91.9396 73.7511 91.7024 72.1485 91.3117C70.5458 90.921 69.0407 90.321 67.661 89.5536C65.6541 88.4373 64.6089 87.335 64.5392 86.2606C64.4695 85.1861 65.3754 84.1257 67.2429 83.0931L65.0967 81.8931L68.0094 80.6931L70.1556 81.8931C72.3714 81.2373 74.5316 81.014 76.636 81.2373C78.7404 81.4606 80.7751 82.1303 82.768 83.2326C83.0467 83.3861 83.4508 83.6233 83.9665 83.9582V83.9303Z" stroke="#C49339" stroke-width="0.75" stroke-linejoin="round"/>
</g>
</g>
<g id="Group_61">
<g id="Group_62">
<path id="Vector_141" d="M82.2384 104.386C99.6255 104.386 113.721 94.6218 113.721 82.5769C113.721 70.5319 99.6255 60.7676 82.2384 60.7676C64.8512 60.7676 50.7562 70.5319 50.7562 82.5769C50.7562 94.6218 64.8512 104.386 82.2384 104.386Z" fill="#282828"/>
<path id="Vector_142" d="M109.958 72.2513C104.634 65.428 94.2236 60.7815 82.2384 60.7815C70.2531 60.7815 59.8287 65.428 54.519 72.2513H50.9652L50.8259 81.642C50.8119 81.9629 50.7562 82.2699 50.7562 82.5908C50.7562 94.6327 64.8458 104.4 82.2384 104.4C99.6309 104.4 113.721 94.6327 113.721 82.5908V72.2513H109.958Z" stroke="#C49339" stroke-width="0.75" stroke-linejoin="round"/>
<path id="Vector_143" d="M82.2384 104.386C99.6255 104.386 113.721 94.6218 113.721 82.5769C113.721 70.5319 99.6255 60.7676 82.2384 60.7676C64.8512 60.7676 50.7562 70.5319 50.7562 82.5769C50.7562 94.6218 64.8512 104.386 82.2384 104.386Z" stroke="#C49339" stroke-width="0.75" stroke-linejoin="round"/>
<g id="Group_63">
<path id="Vector_144" d="M82.2384 94.0605C99.6255 94.0605 113.721 84.2961 113.721 72.2512C113.721 60.2062 99.6255 50.4419 82.2384 50.4419C64.8512 50.4419 50.7562 60.2062 50.7562 72.2512C50.7562 84.2961 64.8512 94.0605 82.2384 94.0605Z" fill="#282828"/>
<path id="Vector_145" d="M82.2384 94.0605C99.6255 94.0605 113.721 84.2961 113.721 72.2512C113.721 60.2062 99.6255 50.4419 82.2384 50.4419C64.8512 50.4419 50.7562 60.2062 50.7562 72.2512C50.7562 84.2961 64.8512 94.0605 82.2384 94.0605Z" stroke="#C49339" stroke-width="0.75" stroke-linejoin="round"/>
</g>
<g id="Group_64">
<g id="Group_65">
<path id="Vector_146" d="M82.4056 104.344C82.3917 104.093 82.4056 103.842 82.4335 103.591V94.1443" stroke="#C49339" stroke-width="0.75" stroke-linejoin="round"/>
<path id="Vector_147" d="M89.2484 103.647V93.5723" stroke="#C49339" stroke-width="0.75" stroke-linejoin="round"/>
<path id="Vector_148" d="M95.7566 102.196V92.1211" stroke="#C49339" stroke-width="0.75" stroke-linejoin="round"/>
<path id="Vector_149" d="M101.735 99.7677V89.6375" stroke="#C49339" stroke-width="0.75" stroke-linejoin="round"/>
<path id="Vector_150" d="M106.85 96.3628V86.1768" stroke="#C49339" stroke-width="0.75" stroke-linejoin="round"/>
<path id="Vector_151" d="M111.491 90.628V80.4978" stroke="#C49339" stroke-width="0.75" stroke-linejoin="round"/>
</g>
<g id="Group_66">
<path id="Vector_152" d="M75.4374 103.647V93.5723" stroke="#C49339" stroke-width="0.75" stroke-linejoin="round"/>
<path id="Vector_153" d="M68.9431 102.196V92.1211" stroke="#C49339" stroke-width="0.75" stroke-linejoin="round"/>
<path id="Vector_154" d="M62.9505 99.7677V89.6375" stroke="#C49339" stroke-width="0.75" stroke-linejoin="round"/>
<path id="Vector_155" d="M57.8498 96.3628V86.1768" stroke="#C49339" stroke-width="0.75" stroke-linejoin="round"/>
<path id="Vector_156" d="M53.195 90.628V80.4978" stroke="#C49339" stroke-width="0.75" stroke-linejoin="round"/>
</g>
</g>
<g id="Group_67">
<path id="Vector_157" d="M82.2384 89.1069C95.677 89.1069 106.571 81.5603 106.571 72.2511C106.571 62.9419 95.677 55.3953 82.2384 55.3953C68.7997 55.3953 57.9055 62.9419 57.9055 72.2511C57.9055 81.5603 68.7997 89.1069 82.2384 89.1069Z" fill="#282828"/>
<path id="Vector_158" d="M82.2384 89.1069C95.677 89.1069 106.571 81.5603 106.571 72.2511C106.571 62.9419 95.677 55.3953 82.2384 55.3953C68.7997 55.3953 57.9055 62.9419 57.9055 72.2511C57.9055 81.5603 68.7997 89.1069 82.2384 89.1069Z" stroke="#C49339" stroke-width="0.75" stroke-linejoin="round"/>
</g>
</g>
<g id="Group_68">
<path id="Vector_159" d="M83.9665 66.0419L77.6255 68.6512L76.5105 68.0372C75.326 67.3814 74.4758 66.9768 73.9602 66.8372C73.4445 66.6977 72.9568 66.7256 72.469 66.921C72.0788 67.0745 71.9534 67.2838 72.0788 67.5489C72.2042 67.8 72.5805 68.107 73.2076 68.4559C74.2668 69.0419 75.2005 69.3768 76.0228 69.4466C76.8311 69.5163 78.7961 69.5024 81.9039 69.4047C84.5518 69.307 86.4332 69.307 87.576 69.3628C88.7048 69.4326 89.987 69.6559 91.3946 70.0466C92.8021 70.4372 94.2515 71.0512 95.7566 71.8884C98.1537 73.214 99.4916 74.4838 99.7703 75.6977C100.049 76.9117 99.2686 78.0419 97.4151 79.1163L99.9515 80.5256L97.0388 81.7256L94.4187 80.2745C92.5513 80.8745 90.3772 81.0977 87.9105 80.9582C85.4437 80.8047 82.7122 79.8977 79.702 78.2372L78.3919 77.5117L84.733 74.9024L86.3775 75.8233C88.1892 76.8279 89.3738 77.4279 89.9452 77.6093C90.5166 77.8047 91.0462 77.7907 91.5479 77.5814C91.9799 77.4 92.1471 77.1907 92.0496 76.9256C91.952 76.6745 91.6036 76.3814 91.0043 76.0465C89.4992 75.2093 88.3146 74.6512 87.4645 74.3721C86.6144 74.0931 85.2347 73.9814 83.2975 74.0372C80.0782 74.121 77.8066 74.1349 76.5105 74.0931C75.2145 74.0512 73.7511 73.814 72.1485 73.4233C70.5458 73.0326 69.0407 72.4326 67.661 71.6652C65.6541 70.5489 64.6089 69.4465 64.5392 68.3721C64.4695 67.2977 65.3754 66.2372 67.2429 65.2047L65.0967 64.0047L68.0094 62.8047L70.1556 64.0047C72.3714 63.3489 74.5316 63.1256 76.636 63.3489C78.7404 63.5721 80.7751 64.2419 82.768 65.3442C83.0467 65.4977 83.4508 65.7349 83.9665 66.0698V66.0419Z" fill="#282828"/>
<path id="Vector_160" d="M83.9665 66.0419L77.6255 68.6512L76.5105 68.0372C75.326 67.3814 74.4758 66.9768 73.9602 66.8372C73.4445 66.6977 72.9568 66.7256 72.469 66.921C72.0788 67.0745 71.9534 67.2838 72.0788 67.5489C72.2042 67.8 72.5805 68.107 73.2076 68.4559C74.2668 69.0419 75.2005 69.3768 76.0228 69.4466C76.8311 69.5163 78.7961 69.5024 81.9039 69.4047C84.5518 69.307 86.4332 69.307 87.576 69.3628C88.7048 69.4326 89.987 69.6559 91.3946 70.0466C92.8021 70.4372 94.2515 71.0512 95.7566 71.8884C98.1537 73.214 99.4916 74.4838 99.7703 75.6977C100.049 76.9117 99.2686 78.0419 97.4151 79.1163L99.9515 80.5256L97.0388 81.7256L94.4187 80.2745C92.5513 80.8745 90.3772 81.0977 87.9105 80.9582C85.4437 80.8047 82.7122 79.8977 79.702 78.2372L78.3919 77.5117L84.733 74.9024L86.3775 75.8233C88.1892 76.8279 89.3738 77.4279 89.9452 77.6093C90.5166 77.8047 91.0462 77.7907 91.5479 77.5814C91.9799 77.4 92.1471 77.1907 92.0496 76.9256C91.952 76.6745 91.6036 76.3814 91.0043 76.0465C89.4992 75.2093 88.3146 74.6512 87.4645 74.3721C86.6144 74.0931 85.2347 73.9814 83.2975 74.0372C80.0782 74.121 77.8066 74.1349 76.5105 74.0931C75.2145 74.0512 73.7511 73.814 72.1485 73.4233C70.5458 73.0326 69.0407 72.4326 67.661 71.6652C65.6541 70.5489 64.6089 69.4466 64.5392 68.3721C64.4695 67.2977 65.3754 66.2372 67.2429 65.2047L65.0967 64.0047L68.0094 62.8047L70.1556 64.0047C72.3714 63.3489 74.5316 63.1256 76.636 63.3489C78.7404 63.5721 80.7751 64.2419 82.768 65.3442C83.0467 65.4977 83.4508 65.7349 83.9665 66.0698V66.0419Z" stroke="#C49339" stroke-width="0.75" stroke-linejoin="round"/>
</g>
</g>
</g>
</g>
</g>
</svg>
