<svg xmlns="http://www.w3.org/2000/svg" width="245" height="252" viewBox="0 0 245 252" fill="none">
  <path d="M203.614 92.4387C197.095 75.6319 185.832 61.2387 171.289 51.1295C156.746 41.0202 139.595 35.6623 122.065 35.752L122.216 67.4092C133.597 67.351 144.732 70.8294 154.174 77.3926C163.616 83.9557 170.928 93.3 175.16 104.211L203.614 92.4387Z" fill="#B5B5B5"/>
  <path d="M99.4067 213.041C114.84 217.408 131.138 217.315 146.523 212.771C161.908 208.228 175.79 199.408 186.655 187.274C197.519 175.141 204.949 160.159 208.134 143.963C211.319 127.767 210.137 110.979 204.717 95.4292L175.876 106.153C179.395 116.248 180.163 127.147 178.095 137.662C176.027 148.177 171.204 157.903 164.15 165.781C157.097 173.658 148.084 179.384 138.096 182.334C128.107 185.283 117.526 185.344 107.507 182.509L99.4067 213.041Z" fill="#282828"/>
  <path d="M118.476 35.8465C97.9385 36.8236 78.3924 45.2481 63.275 59.6383C48.1575 74.0284 38.4369 93.4628 35.8225 114.524C33.2081 135.584 37.8675 156.923 48.9811 174.786C60.0947 192.65 76.951 205.894 96.5854 212.19L105.675 181.956C92.9277 177.869 81.9843 169.27 74.7691 157.673C67.5539 146.076 64.5289 132.222 66.2262 118.549C67.9235 104.876 74.2344 92.259 84.0489 82.9166C93.8635 73.5743 106.553 68.105 119.886 67.4706L118.476 35.8465Z" fill="#1E6942"/>
</svg>