<svg width="20" height="20" viewBox="0 0 20 20" fill="none" xmlns="http://www.w3.org/2000/svg">
<path d="M15.0252 13.8475L18.0047 16.8263C18.3303 17.1519 18.3304 17.6798 18.0048 18.0054V18.0054C17.6792 18.331 17.1512 18.331 16.8257 18.0054L13.8469 15.0258C12.5191 16.0902 10.8677 16.6691 9.16602 16.6667C5.02602 16.6667 1.66602 13.3067 1.66602 9.16667C1.66602 5.02667 5.02602 1.66667 9.16602 1.66667C13.306 1.66667 16.666 5.02667 16.666 9.16667C16.6684 10.8683 16.0895 12.5198 15.0252 13.8475ZM13.3535 13.2292C14.4111 12.1416 15.0017 10.6837 14.9993 9.16667C14.9993 5.94334 12.3885 3.33334 9.16602 3.33334C5.94268 3.33334 3.33268 5.94334 3.33268 9.16667C3.33268 12.3892 5.94268 15 9.16602 15C10.683 15.0024 12.1409 14.4118 13.2285 13.3542L13.3535 13.2292Z" fill="#B4B4B4"/>
</svg>
