<svg xmlns="http://www.w3.org/2000/svg" width="16" height="17" viewBox="0 0 16 17" fill="none">
  <path d="M8.74746 12.0153L5.94812 10.4886C5.58265 10.8793 5.10811 11.1511 4.58617 11.2685C4.06423 11.386 3.51902 11.3438 3.0214 11.1473C2.52378 10.9509 2.09676 10.6093 1.79583 10.1669C1.49491 9.72458 1.33398 9.20195 1.33398 8.66695C1.33398 8.13196 1.49491 7.60933 1.79583 7.16699C2.09676 6.72465 2.52378 6.38305 3.0214 6.18659C3.51902 5.99013 4.06423 5.94789 4.58617 6.06536C5.10811 6.18283 5.58265 6.45458 5.94812 6.84529L8.74812 5.31862C8.58916 4.68934 8.66516 4.02368 8.96188 3.44642C9.2586 2.86916 9.75566 2.41994 10.3599 2.18295C10.9641 1.94597 11.6341 1.93749 12.2441 2.15911C12.8542 2.38073 13.3624 2.81723 13.6737 3.38679C13.9849 3.95636 14.0777 4.61988 13.9347 5.25298C13.7917 5.88609 13.4228 6.44531 12.8969 6.82583C12.3711 7.20634 11.7246 7.38203 11.0785 7.31995C10.4324 7.25787 9.83119 6.96229 9.38746 6.48862L6.58746 8.01529C6.69492 8.44286 6.69492 8.89038 6.58746 9.31795L9.38679 10.8446C9.83052 10.3709 10.4318 10.0754 11.0779 10.0133C11.7239 9.95121 12.3705 10.1269 12.8963 10.5074C13.4221 10.8879 13.7911 11.4472 13.9341 12.0803C14.077 12.7134 13.9842 13.3769 13.673 13.9464C13.3618 14.516 12.8535 14.9525 12.2434 15.1741C11.6334 15.3957 10.9635 15.3873 10.3592 15.1503C9.75499 14.9133 9.25793 14.4641 8.96121 13.8868C8.66449 13.3096 8.58849 12.6439 8.74746 12.0146V12.0153ZM4.00079 9.99995C4.35441 9.99995 4.69355 9.85948 4.9436 9.60943C5.19365 9.35938 5.33412 9.02024 5.33412 8.66662C5.33412 8.313 5.19365 7.97386 4.9436 7.72381C4.69355 7.47376 4.35441 7.33329 4.00079 7.33329C3.64717 7.33329 3.30803 7.47376 3.05798 7.72381C2.80793 7.97386 2.66746 8.313 2.66746 8.66662C2.66746 9.02024 2.80793 9.35938 3.05798 9.60943C3.30803 9.85948 3.64717 9.99995 4.00079 9.99995V9.99995ZM11.3341 5.99995C11.6877 5.99995 12.0269 5.85948 12.2769 5.60943C12.527 5.35938 12.6675 5.02024 12.6675 4.66662C12.6675 4.313 12.527 3.97386 12.2769 3.72381C12.0269 3.47376 11.6877 3.33329 11.3341 3.33329C10.9805 3.33329 10.6414 3.47376 10.3913 3.72381C10.1413 3.97386 10.0008 4.313 10.0008 4.66662C10.0008 5.02024 10.1413 5.35938 10.3913 5.60943C10.6414 5.85948 10.9805 5.99995 11.3341 5.99995V5.99995ZM11.3341 14C11.6877 14 12.0269 13.8595 12.2769 13.6094C12.527 13.3594 12.6675 13.0202 12.6675 12.6666C12.6675 12.313 12.527 11.9739 12.2769 11.7238C12.0269 11.4738 11.6877 11.3333 11.3341 11.3333C10.9805 11.3333 10.6414 11.4738 10.3913 11.7238C10.1413 11.9739 10.0008 12.313 10.0008 12.6666C10.0008 13.0202 10.1413 13.3594 10.3913 13.6094C10.6414 13.8595 10.9805 14 11.3341 14V14Z" fill="#09121F"/>
</svg>